<svg width="768" height="398" viewBox="0 0 768 398" fill="none" xmlns="http://www.w3.org/2000/svg">
<path d="M3.10272 11.14C2.74606 11.14 2.41439 11.075 2.10772 10.945C1.80106 10.8117 1.53606 10.625 1.31272 10.385C1.09272 10.1417 0.931062 9.85332 0.827728 9.51999L1.68272 9.27499C1.79272 9.60832 1.97606 9.86166 2.23272 10.035C2.48939 10.2083 2.77772 10.2933 3.09772 10.29C3.39106 10.2833 3.64439 10.2167 3.85772 10.09C4.07439 9.95999 4.24106 9.78332 4.35772 9.55999C4.47772 9.33666 4.53772 9.07832 4.53772 8.78499C4.53772 8.33832 4.40439 7.97666 4.13772 7.69999C3.87106 7.41999 3.52106 7.27999 3.08772 7.27999C2.96772 7.27999 2.84106 7.29666 2.70772 7.32999C2.57772 7.36332 2.45606 7.40999 2.34272 7.46999L1.91272 6.76499L4.58272 4.34999L4.69772 4.64999H1.11272V3.79999H5.35772V4.65499L3.08272 6.83499L3.07272 6.51999C3.54939 6.48666 3.96606 6.56499 4.32272 6.75499C4.67939 6.94499 4.95606 7.21666 5.15272 7.56999C5.35272 7.92332 5.45272 8.32832 5.45272 8.78499C5.45272 9.24499 5.34939 9.65166 5.14272 10.005C4.93606 10.3583 4.65606 10.6367 4.30272 10.84C3.94939 11.04 3.54939 11.14 3.10272 11.14ZM9.18272 11.15C8.71606 11.15 8.29939 11.045 7.93272 10.835C7.56939 10.6217 7.28106 10.3333 7.06772 9.96999C6.85772 9.60332 6.75272 9.18666 6.75272 8.71999V6.07999C6.75272 5.61332 6.85772 5.19666 7.06772 4.82999C7.28106 4.46332 7.56939 4.17499 7.93272 3.96499C8.29939 3.75499 8.71606 3.64999 9.18272 3.64999C9.64939 3.64999 10.0661 3.75499 10.4327 3.96499C10.7994 4.17499 11.0877 4.46332 11.2977 4.82999C11.5077 5.19666 11.6127 5.61332 11.6127 6.07999V8.71999C11.6127 9.18666 11.5077 9.60332 11.2977 9.96999C11.0877 10.3333 10.7994 10.6217 10.4327 10.835C10.0661 11.045 9.64939 11.15 9.18272 11.15ZM9.18272 10.295C9.46606 10.295 9.72272 10.2267 9.95272 10.09C10.1827 9.95332 10.3661 9.76999 10.5027 9.53999C10.6394 9.30666 10.7077 9.04999 10.7077 8.76999V6.02499C10.7077 5.74166 10.6394 5.48499 10.5027 5.25499C10.3661 5.02499 10.1827 4.84166 9.95272 4.70499C9.72272 4.56832 9.46606 4.49999 9.18272 4.49999C8.90272 4.49999 8.64606 4.56832 8.41272 4.70499C8.18272 4.84166 7.99939 5.02499 7.86272 5.25499C7.72606 5.48499 7.65772 5.74166 7.65772 6.02499V8.76999C7.65772 9.04999 7.72606 9.30666 7.86272 9.53999C7.99939 9.76999 8.18272 9.95332 8.41272 10.09C8.64606 10.2267 8.90272 10.295 9.18272 10.295ZM15.4425 11.15C14.9758 11.15 14.5592 11.045 14.1925 10.835C13.8292 10.6217 13.5408 10.3333 13.3275 9.96999C13.1175 9.60332 13.0125 9.18666 13.0125 8.71999V6.07999C13.0125 5.61332 13.1175 5.19666 13.3275 4.82999C13.5408 4.46332 13.8292 4.17499 14.1925 3.96499C14.5592 3.75499 14.9758 3.64999 15.4425 3.64999C15.9092 3.64999 16.3258 3.75499 16.6925 3.96499C17.0592 4.17499 17.3475 4.46332 17.5575 4.82999C17.7675 5.19666 17.8725 5.61332 17.8725 6.07999V8.71999C17.8725 9.18666 17.7675 9.60332 17.5575 9.96999C17.3475 10.3333 17.0592 10.6217 16.6925 10.835C16.3258 11.045 15.9092 11.15 15.4425 11.15ZM15.4425 10.295C15.7258 10.295 15.9825 10.2267 16.2125 10.09C16.4425 9.95332 16.6258 9.76999 16.7625 9.53999C16.8992 9.30666 16.9675 9.04999 16.9675 8.76999V6.02499C16.9675 5.74166 16.8992 5.48499 16.7625 5.25499C16.6258 5.02499 16.4425 4.84166 16.2125 4.70499C15.9825 4.56832 15.7258 4.49999 15.4425 4.49999C15.1625 4.49999 14.9058 4.56832 14.6725 4.70499C14.4425 4.84166 14.2592 5.02499 14.1225 5.25499C13.9858 5.48499 13.9175 5.74166 13.9175 6.02499V8.76999C13.9175 9.04999 13.9858 9.30666 14.1225 9.53999C14.2592 9.76999 14.4425 9.95332 14.6725 10.09C14.9058 10.2267 15.1625 10.295 15.4425 10.295Z" fill="#8C8D96"/>
<path d="M1.5791 76.995L1.5841 76.195L4.7791 73.32C5.04577 73.08 5.2241 72.8533 5.3141 72.64C5.40744 72.4233 5.4541 72.2017 5.4541 71.975C5.4541 71.6983 5.39077 71.4483 5.2641 71.225C5.13743 71.0017 4.9641 70.825 4.7441 70.695C4.52744 70.565 4.28077 70.5 4.0041 70.5C3.71744 70.5 3.46243 70.5683 3.2391 70.705C3.01577 70.8383 2.8391 71.0167 2.7091 71.24C2.58243 71.4633 2.52077 71.7067 2.5241 71.97H1.6141C1.6141 71.5167 1.7191 71.1167 1.9291 70.77C2.1391 70.42 2.4241 70.1467 2.7841 69.95C3.14743 69.75 3.5591 69.65 4.0191 69.65C4.46577 69.65 4.86577 69.7533 5.2191 69.96C5.57244 70.1633 5.85077 70.4417 6.0541 70.795C6.26077 71.145 6.3641 71.5417 6.3641 71.985C6.3641 72.2983 6.3241 72.57 6.2441 72.8C6.16743 73.03 6.04743 73.2433 5.8841 73.44C5.72077 73.6333 5.51577 73.84 5.2691 74.06L2.6141 76.445L2.4991 76.145H6.3641V76.995H1.5791ZM9.69035 77.15C9.32035 77.15 8.97535 77.0733 8.65535 76.92C8.33868 76.7667 8.06702 76.5567 7.84035 76.29C7.61702 76.02 7.45702 75.71 7.36035 75.36L8.21535 75.13C8.27535 75.3667 8.38202 75.5717 8.53535 75.745C8.68868 75.915 8.86702 76.0483 9.07035 76.145C9.27702 76.2383 9.49202 76.285 9.71535 76.285C10.0087 76.285 10.272 76.215 10.5054 76.075C10.742 75.9317 10.9287 75.7433 11.0654 75.51C11.202 75.2733 11.2704 75.015 11.2704 74.735C11.2704 74.445 11.1987 74.1833 11.0554 73.95C10.9154 73.7133 10.727 73.5267 10.4904 73.39C10.2537 73.2533 9.99535 73.185 9.71535 73.185C9.39868 73.185 9.12702 73.2517 8.90035 73.385C8.67702 73.515 8.50035 73.675 8.37035 73.865L7.58035 73.565L7.80035 69.8H11.6654V70.645H8.23035L8.62535 70.275L8.44035 73.29L8.24535 73.035C8.44535 72.8217 8.68368 72.6567 8.96035 72.54C9.24035 72.4233 9.52535 72.365 9.81535 72.365C10.262 72.365 10.662 72.47 11.0154 72.68C11.3687 72.8867 11.6487 73.17 11.8554 73.53C12.062 73.8867 12.1654 74.2883 12.1654 74.735C12.1654 75.1783 12.052 75.5833 11.8254 75.95C11.5987 76.3133 11.297 76.605 10.9204 76.825C10.547 77.0417 10.137 77.15 9.69035 77.15ZM15.7911 77.15C15.3245 77.15 14.9078 77.045 14.5411 76.835C14.1778 76.6217 13.8895 76.3333 13.6761 75.97C13.4661 75.6033 13.3611 75.1867 13.3611 74.72V72.08C13.3611 71.6133 13.4661 71.1967 13.6761 70.83C13.8895 70.4633 14.1778 70.175 14.5411 69.965C14.9078 69.755 15.3245 69.65 15.7911 69.65C16.2578 69.65 16.6745 69.755 17.0411 69.965C17.4078 70.175 17.6961 70.4633 17.9061 70.83C18.1161 71.1967 18.2211 71.6133 18.2211 72.08V74.72C18.2211 75.1867 18.1161 75.6033 17.9061 75.97C17.6961 76.3333 17.4078 76.6217 17.0411 76.835C16.6745 77.045 16.2578 77.15 15.7911 77.15ZM15.7911 76.295C16.0745 76.295 16.3311 76.2267 16.5611 76.09C16.7911 75.9533 16.9745 75.77 17.1111 75.54C17.2478 75.3067 17.3161 75.05 17.3161 74.77V72.025C17.3161 71.7417 17.2478 71.485 17.1111 71.255C16.9745 71.025 16.7911 70.8417 16.5611 70.705C16.3311 70.5683 16.0745 70.5 15.7911 70.5C15.5111 70.5 15.2545 70.5683 15.0211 70.705C14.7911 70.8417 14.6078 71.025 14.4711 71.255C14.3345 71.485 14.2661 71.7417 14.2661 72.025V74.77C14.2661 75.05 14.3345 75.3067 14.4711 75.54C14.6078 75.77 14.7911 75.9533 15.0211 76.09C15.2545 76.2267 15.5111 76.295 15.7911 76.295Z" fill="#8C8D96"/>
<path d="M0.5 142.995L0.505 142.195L3.7 139.32C3.96667 139.08 4.145 138.853 4.235 138.64C4.32833 138.423 4.375 138.202 4.375 137.975C4.375 137.698 4.31167 137.448 4.185 137.225C4.05833 137.002 3.885 136.825 3.665 136.695C3.44833 136.565 3.20167 136.5 2.925 136.5C2.63833 136.5 2.38333 136.568 2.16 136.705C1.93667 136.838 1.76 137.017 1.63 137.24C1.50333 137.463 1.44167 137.707 1.445 137.97H0.535C0.535 137.517 0.64 137.117 0.85 136.77C1.06 136.42 1.345 136.147 1.705 135.95C2.06833 135.75 2.48 135.65 2.94 135.65C3.38667 135.65 3.78667 135.753 4.14 135.96C4.49333 136.163 4.77167 136.442 4.975 136.795C5.18167 137.145 5.285 137.542 5.285 137.985C5.285 138.298 5.245 138.57 5.165 138.8C5.08833 139.03 4.96833 139.243 4.805 139.44C4.64167 139.633 4.43667 139.84 4.19 140.06L1.535 142.445L1.42 142.145H5.285V142.995H0.5ZM8.91125 143.15C8.44458 143.15 8.02792 143.045 7.66125 142.835C7.29792 142.622 7.00958 142.333 6.79625 141.97C6.58625 141.603 6.48125 141.187 6.48125 140.72V138.08C6.48125 137.613 6.58625 137.197 6.79625 136.83C7.00958 136.463 7.29792 136.175 7.66125 135.965C8.02792 135.755 8.44458 135.65 8.91125 135.65C9.37792 135.65 9.79458 135.755 10.1613 135.965C10.5279 136.175 10.8163 136.463 11.0263 136.83C11.2363 137.197 11.3413 137.613 11.3413 138.08V140.72C11.3413 141.187 11.2363 141.603 11.0263 141.97C10.8163 142.333 10.5279 142.622 10.1613 142.835C9.79458 143.045 9.37792 143.15 8.91125 143.15ZM8.91125 142.295C9.19458 142.295 9.45125 142.227 9.68125 142.09C9.91125 141.953 10.0946 141.77 10.2313 141.54C10.3679 141.307 10.4363 141.05 10.4363 140.77V138.025C10.4363 137.742 10.3679 137.485 10.2313 137.255C10.0946 137.025 9.91125 136.842 9.68125 136.705C9.45125 136.568 9.19458 136.5 8.91125 136.5C8.63125 136.5 8.37458 136.568 8.14125 136.705C7.91125 136.842 7.72792 137.025 7.59125 137.255C7.45458 137.485 7.38625 137.742 7.38625 138.025V140.77C7.38625 141.05 7.45458 141.307 7.59125 141.54C7.72792 141.77 7.91125 141.953 8.14125 142.09C8.37458 142.227 8.63125 142.295 8.91125 142.295ZM15.171 143.15C14.7043 143.15 14.2877 143.045 13.921 142.835C13.5577 142.622 13.2693 142.333 13.056 141.97C12.846 141.603 12.741 141.187 12.741 140.72V138.08C12.741 137.613 12.846 137.197 13.056 136.83C13.2693 136.463 13.5577 136.175 13.921 135.965C14.2877 135.755 14.7043 135.65 15.171 135.65C15.6377 135.65 16.0543 135.755 16.421 135.965C16.7877 136.175 17.076 136.463 17.286 136.83C17.496 137.197 17.601 137.613 17.601 138.08V140.72C17.601 141.187 17.496 141.603 17.286 141.97C17.076 142.333 16.7877 142.622 16.421 142.835C16.0543 143.045 15.6377 143.15 15.171 143.15ZM15.171 142.295C15.4543 142.295 15.711 142.227 15.941 142.09C16.171 141.953 16.3543 141.77 16.491 141.54C16.6277 141.307 16.696 141.05 16.696 140.77V138.025C16.696 137.742 16.6277 137.485 16.491 137.255C16.3543 137.025 16.171 136.842 15.941 136.705C15.711 136.568 15.4543 136.5 15.171 136.5C14.891 136.5 14.6343 136.568 14.401 136.705C14.171 136.842 13.9877 137.025 13.851 137.255C13.7143 137.485 13.646 137.742 13.646 138.025V140.77C13.646 141.05 13.7143 141.307 13.851 141.54C13.9877 141.77 14.171 141.953 14.401 142.09C14.6343 142.227 14.891 142.295 15.171 142.295Z" fill="#8C8D96"/>
<path d="M4.39348 209V202.785L3.03848 203.605V202.61L4.39348 201.8H5.29848V209H4.39348ZM9.33098 209.15C8.96098 209.15 8.61598 209.073 8.29598 208.92C7.97931 208.767 7.70764 208.557 7.48098 208.29C7.25764 208.02 7.09764 207.71 7.00098 207.36L7.85598 207.13C7.91598 207.367 8.02264 207.572 8.17598 207.745C8.32931 207.915 8.50764 208.048 8.71098 208.145C8.91764 208.238 9.13264 208.285 9.35598 208.285C9.64931 208.285 9.91264 208.215 10.146 208.075C10.3826 207.932 10.5693 207.743 10.706 207.51C10.8426 207.273 10.911 207.015 10.911 206.735C10.911 206.445 10.8393 206.183 10.696 205.95C10.556 205.713 10.3676 205.527 10.131 205.39C9.89431 205.253 9.63598 205.185 9.35598 205.185C9.03931 205.185 8.76764 205.252 8.54098 205.385C8.31764 205.515 8.14098 205.675 8.01098 205.865L7.22098 205.565L7.44098 201.8H11.306V202.645H7.87098L8.26598 202.275L8.08098 205.29L7.88598 205.035C8.08598 204.822 8.32431 204.657 8.60098 204.54C8.88098 204.423 9.16598 204.365 9.45598 204.365C9.90264 204.365 10.3026 204.47 10.656 204.68C11.0093 204.887 11.2893 205.17 11.496 205.53C11.7026 205.887 11.806 206.288 11.806 206.735C11.806 207.178 11.6926 207.583 11.466 207.95C11.2393 208.313 10.9376 208.605 10.561 208.825C10.1876 209.042 9.77764 209.15 9.33098 209.15ZM15.4318 209.15C14.9651 209.15 14.5484 209.045 14.1818 208.835C13.8184 208.622 13.5301 208.333 13.3168 207.97C13.1068 207.603 13.0018 207.187 13.0018 206.72V204.08C13.0018 203.613 13.1068 203.197 13.3168 202.83C13.5301 202.463 13.8184 202.175 14.1818 201.965C14.5484 201.755 14.9651 201.65 15.4318 201.65C15.8984 201.65 16.3151 201.755 16.6818 201.965C17.0484 202.175 17.3368 202.463 17.5468 202.83C17.7568 203.197 17.8618 203.613 17.8618 204.08V206.72C17.8618 207.187 17.7568 207.603 17.5468 207.97C17.3368 208.333 17.0484 208.622 16.6818 208.835C16.3151 209.045 15.8984 209.15 15.4318 209.15ZM15.4318 208.295C15.7151 208.295 15.9718 208.227 16.2018 208.09C16.4318 207.953 16.6151 207.77 16.7518 207.54C16.8884 207.307 16.9568 207.05 16.9568 206.77V204.025C16.9568 203.742 16.8884 203.485 16.7518 203.255C16.6151 203.025 16.4318 202.842 16.2018 202.705C15.9718 202.568 15.7151 202.5 15.4318 202.5C15.1518 202.5 14.8951 202.568 14.6618 202.705C14.4318 202.842 14.2484 203.025 14.1118 203.255C13.9751 203.485 13.9068 203.742 13.9068 204.025V206.77C13.9068 207.05 13.9751 207.307 14.1118 207.54C14.2484 207.77 14.4318 207.953 14.6618 208.09C14.8951 208.227 15.1518 208.295 15.4318 208.295Z" fill="#8C8D96"/>
<path d="M4.16399 275V268.785L2.80899 269.605V268.61L4.16399 267.8H5.06899V275H4.16399ZM9.40149 275.15C8.93483 275.15 8.51816 275.045 8.15149 274.835C7.78816 274.622 7.49983 274.333 7.28649 273.97C7.07649 273.603 6.97149 273.187 6.97149 272.72V270.08C6.97149 269.613 7.07649 269.197 7.28649 268.83C7.49983 268.463 7.78816 268.175 8.15149 267.965C8.51816 267.755 8.93483 267.65 9.40149 267.65C9.86816 267.65 10.2848 267.755 10.6515 267.965C11.0182 268.175 11.3065 268.463 11.5165 268.83C11.7265 269.197 11.8315 269.613 11.8315 270.08V272.72C11.8315 273.187 11.7265 273.603 11.5165 273.97C11.3065 274.333 11.0182 274.622 10.6515 274.835C10.2848 275.045 9.86816 275.15 9.40149 275.15ZM9.40149 274.295C9.68483 274.295 9.94149 274.227 10.1715 274.09C10.4015 273.953 10.5848 273.77 10.7215 273.54C10.8582 273.307 10.9265 273.05 10.9265 272.77V270.025C10.9265 269.742 10.8582 269.485 10.7215 269.255C10.5848 269.025 10.4015 268.842 10.1715 268.705C9.94149 268.568 9.68483 268.5 9.40149 268.5C9.12149 268.5 8.86483 268.568 8.63149 268.705C8.40149 268.842 8.21816 269.025 8.08149 269.255C7.94483 269.485 7.87649 269.742 7.87649 270.025V272.77C7.87649 273.05 7.94483 273.307 8.08149 273.54C8.21816 273.77 8.40149 273.953 8.63149 274.09C8.86483 274.227 9.12149 274.295 9.40149 274.295ZM15.6613 275.15C15.1946 275.15 14.7779 275.045 14.4113 274.835C14.0479 274.622 13.7596 274.333 13.5463 273.97C13.3363 273.603 13.2313 273.187 13.2313 272.72V270.08C13.2313 269.613 13.3363 269.197 13.5463 268.83C13.7596 268.463 14.0479 268.175 14.4113 267.965C14.7779 267.755 15.1946 267.65 15.6613 267.65C16.1279 267.65 16.5446 267.755 16.9113 267.965C17.2779 268.175 17.5663 268.463 17.7763 268.83C17.9863 269.197 18.0913 269.613 18.0913 270.08V272.72C18.0913 273.187 17.9863 273.603 17.7763 273.97C17.5663 274.333 17.2779 274.622 16.9113 274.835C16.5446 275.045 16.1279 275.15 15.6613 275.15ZM15.6613 274.295C15.9446 274.295 16.2013 274.227 16.4313 274.09C16.6613 273.953 16.8446 273.77 16.9813 273.54C17.1179 273.307 17.1863 273.05 17.1863 272.77V270.025C17.1863 269.742 17.1179 269.485 16.9813 269.255C16.8446 269.025 16.6613 268.842 16.4313 268.705C16.2013 268.568 15.9446 268.5 15.6613 268.5C15.3813 268.5 15.1246 268.568 14.8913 268.705C14.6613 268.842 14.4779 269.025 14.3413 269.255C14.2046 269.485 14.1363 269.742 14.1363 270.025V272.77C14.1363 273.05 14.2046 273.307 14.3413 273.54C14.4779 273.77 14.6613 273.953 14.8913 274.09C15.1246 274.227 15.3813 274.295 15.6613 274.295Z" fill="#8C8D96"/>
<path d="M9.29973 341.15C8.92973 341.15 8.58473 341.073 8.26473 340.92C7.94806 340.767 7.67639 340.557 7.44973 340.29C7.22639 340.02 7.06639 339.71 6.96973 339.36L7.82473 339.13C7.88473 339.367 7.99139 339.572 8.14473 339.745C8.29806 339.915 8.47639 340.048 8.67973 340.145C8.88639 340.238 9.10139 340.285 9.32473 340.285C9.61806 340.285 9.88139 340.215 10.1147 340.075C10.3514 339.932 10.5381 339.743 10.6747 339.51C10.8114 339.273 10.8797 339.015 10.8797 338.735C10.8797 338.445 10.8081 338.183 10.6647 337.95C10.5247 337.713 10.3364 337.527 10.0997 337.39C9.86306 337.253 9.60473 337.185 9.32473 337.185C9.00806 337.185 8.73639 337.252 8.50973 337.385C8.28639 337.515 8.10973 337.675 7.97973 337.865L7.18973 337.565L7.40973 333.8H11.2747V334.645H7.83973L8.23473 334.275L8.04973 337.29L7.85473 337.035C8.05473 336.822 8.29306 336.657 8.56973 336.54C8.84973 336.423 9.13473 336.365 9.42473 336.365C9.87139 336.365 10.2714 336.47 10.6247 336.68C10.9781 336.887 11.2581 337.17 11.4647 337.53C11.6714 337.887 11.7747 338.288 11.7747 338.735C11.7747 339.178 11.6614 339.583 11.4347 339.95C11.2081 340.313 10.9064 340.605 10.5297 340.825C10.1564 341.042 9.74639 341.15 9.29973 341.15ZM15.4005 341.15C14.9338 341.15 14.5172 341.045 14.1505 340.835C13.7872 340.622 13.4988 340.333 13.2855 339.97C13.0755 339.603 12.9705 339.187 12.9705 338.72V336.08C12.9705 335.613 13.0755 335.197 13.2855 334.83C13.4988 334.463 13.7872 334.175 14.1505 333.965C14.5172 333.755 14.9338 333.65 15.4005 333.65C15.8672 333.65 16.2838 333.755 16.6505 333.965C17.0172 334.175 17.3055 334.463 17.5155 334.83C17.7255 335.197 17.8305 335.613 17.8305 336.08V338.72C17.8305 339.187 17.7255 339.603 17.5155 339.97C17.3055 340.333 17.0172 340.622 16.6505 340.835C16.2838 341.045 15.8672 341.15 15.4005 341.15ZM15.4005 340.295C15.6838 340.295 15.9405 340.227 16.1705 340.09C16.4005 339.953 16.5838 339.77 16.7205 339.54C16.8572 339.307 16.9255 339.05 16.9255 338.77V336.025C16.9255 335.742 16.8572 335.485 16.7205 335.255C16.5838 335.025 16.4005 334.842 16.1705 334.705C15.9405 334.568 15.6838 334.5 15.4005 334.5C15.1205 334.5 14.8638 334.568 14.6305 334.705C14.4005 334.842 14.2172 335.025 14.0805 335.255C13.9438 335.485 13.8755 335.742 13.8755 336.025V338.77C13.8755 339.05 13.9438 339.307 14.0805 339.54C14.2172 339.77 14.4005 339.953 14.6305 340.09C14.8638 340.227 15.1205 340.295 15.4005 340.295Z" fill="#8C8D96"/>
<path d="M62.9461 368V360.8H63.7561L66.4761 366.535L69.1811 360.8H70.0011V367.995H69.1561V362.755L66.7111 368H66.2361L63.7911 362.755V368H62.9461ZM73.7031 368.15C73.1665 368.15 72.7031 368.028 72.3131 367.785C71.9265 367.542 71.6281 367.205 71.4181 366.775C71.2081 366.345 71.1031 365.852 71.1031 365.295C71.1031 364.728 71.2098 364.232 71.4231 363.805C71.6365 363.378 71.9381 363.047 72.3281 362.81C72.7181 362.57 73.1765 362.45 73.7031 362.45C74.2431 362.45 74.7081 362.572 75.0981 362.815C75.4881 363.055 75.7865 363.39 75.9931 363.82C76.2031 364.247 76.3081 364.738 76.3081 365.295C76.3081 365.858 76.2031 366.355 75.9931 366.785C75.7831 367.212 75.4831 367.547 75.0931 367.79C74.7031 368.03 74.2398 368.15 73.7031 368.15ZM73.7031 367.305C74.2631 367.305 74.6798 367.118 74.9531 366.745C75.2265 366.372 75.3631 365.888 75.3631 365.295C75.3631 364.685 75.2248 364.2 74.9481 363.84C74.6715 363.477 74.2565 363.295 73.7031 363.295C73.3265 363.295 73.0165 363.38 72.7731 363.55C72.5298 363.72 72.3481 363.955 72.2281 364.255C72.1081 364.555 72.0481 364.902 72.0481 365.295C72.0481 365.902 72.1881 366.388 72.4681 366.755C72.7481 367.122 73.1598 367.305 73.7031 367.305ZM81.254 368V365.295C81.254 365.038 81.2307 364.792 81.184 364.555C81.1407 364.318 81.0623 364.107 80.949 363.92C80.839 363.73 80.689 363.58 80.499 363.47C80.3123 363.36 80.0757 363.305 79.789 363.305C79.5657 363.305 79.3623 363.343 79.179 363.42C78.999 363.493 78.844 363.607 78.714 363.76C78.584 363.913 78.4823 364.107 78.409 364.34C78.339 364.57 78.304 364.842 78.304 365.155L77.719 364.975C77.719 364.452 77.8123 364.003 77.999 363.63C78.189 363.253 78.454 362.965 78.794 362.765C79.1373 362.562 79.5407 362.46 80.004 362.46C80.354 362.46 80.6523 362.515 80.899 362.625C81.1457 362.735 81.3507 362.882 81.514 363.065C81.6773 363.245 81.8057 363.448 81.899 363.675C81.9923 363.898 82.0573 364.127 82.094 364.36C82.134 364.59 82.154 364.808 82.154 365.015V368H81.254ZM77.404 368V362.6H78.204V364.045H78.304V368H77.404Z" fill="#C3C5D4"/>
<path d="M68.3327 394V385.299L66.4357 386.447V385.054L68.3327 383.92H69.5997V394H68.3327ZM75.2452 394.21C74.7272 394.21 74.2442 394.103 73.7962 393.888C73.3529 393.673 72.9725 393.379 72.6552 393.006C72.3425 392.628 72.1185 392.194 71.9832 391.704L73.1802 391.382C73.2642 391.713 73.4135 392 73.6282 392.243C73.8429 392.481 74.0925 392.668 74.3772 392.803C74.6665 392.934 74.9675 392.999 75.2802 392.999C75.6909 392.999 76.0595 392.901 76.3862 392.705C76.7175 392.504 76.9789 392.241 77.1702 391.914C77.3615 391.583 77.4572 391.221 77.4572 390.829C77.4572 390.423 77.3569 390.057 77.1562 389.73C76.9602 389.399 76.6965 389.137 76.3652 388.946C76.0339 388.755 75.6722 388.659 75.2802 388.659C74.8369 388.659 74.4565 388.752 74.1392 388.939C73.8265 389.121 73.5792 389.345 73.3972 389.611L72.2912 389.191L72.5992 383.92H78.0102V385.103H73.2012L73.7542 384.585L73.4952 388.806L73.2222 388.449C73.5022 388.15 73.8359 387.919 74.2232 387.756C74.6152 387.593 75.0142 387.511 75.4202 387.511C76.0455 387.511 76.6055 387.658 77.1002 387.952C77.5949 388.241 77.9869 388.638 78.2762 389.142C78.5655 389.641 78.7102 390.204 78.7102 390.829C78.7102 391.45 78.5515 392.017 78.2342 392.53C77.9169 393.039 77.4945 393.447 76.9672 393.755C76.4445 394.058 75.8705 394.21 75.2452 394.21Z" fill="#8C8D96"/>
<path d="M159.829 368V361.645H157.374V360.8H163.174V361.645H160.719V368H159.829ZM165.522 368.14C165.176 368.14 164.877 368.085 164.627 367.975C164.381 367.865 164.176 367.718 164.012 367.535C163.849 367.352 163.721 367.148 163.627 366.925C163.534 366.702 163.467 366.473 163.427 366.24C163.391 366.007 163.372 365.788 163.372 365.585V362.6H164.272V365.305C164.272 365.558 164.296 365.803 164.342 366.04C164.389 366.277 164.467 366.49 164.577 366.68C164.691 366.87 164.841 367.02 165.027 367.13C165.217 367.24 165.454 367.295 165.737 367.295C165.961 367.295 166.164 367.257 166.347 367.18C166.531 367.103 166.687 366.99 166.817 366.84C166.947 366.687 167.047 366.493 167.117 366.26C167.187 366.027 167.222 365.755 167.222 365.445L167.807 365.625C167.807 366.145 167.712 366.593 167.522 366.97C167.336 367.347 167.071 367.637 166.727 367.84C166.387 368.04 165.986 368.14 165.522 368.14ZM167.322 368V366.555H167.222V362.6H168.117V368H167.322ZM171.857 368.15C171.327 368.15 170.864 368.033 170.467 367.8C170.074 367.563 169.767 367.235 169.547 366.815C169.327 366.392 169.217 365.898 169.217 365.335C169.217 364.745 169.326 364.235 169.542 363.805C169.759 363.372 170.061 363.038 170.447 362.805C170.837 362.568 171.294 362.45 171.817 362.45C172.361 362.45 172.822 362.575 173.202 362.825C173.586 363.075 173.872 363.432 174.062 363.895C174.256 364.358 174.339 364.91 174.312 365.55H173.412V365.23C173.402 364.567 173.267 364.072 173.007 363.745C172.747 363.415 172.361 363.25 171.847 363.25C171.297 363.25 170.879 363.427 170.592 363.78C170.306 364.133 170.162 364.64 170.162 365.3C170.162 365.937 170.306 366.43 170.592 366.78C170.879 367.13 171.287 367.305 171.817 367.305C172.174 367.305 172.484 367.223 172.747 367.06C173.011 366.897 173.217 366.662 173.367 366.355L174.222 366.65C174.012 367.127 173.696 367.497 173.272 367.76C172.852 368.02 172.381 368.15 171.857 368.15ZM169.862 365.55V364.835H173.852V365.55H169.862Z" fill="#C3C5D4"/>
<path d="M161.546 394V385.299L159.649 386.447V385.054L161.546 383.92H162.813V394H161.546ZM168.913 394.21C168.274 394.21 167.693 394.056 167.17 393.748C166.652 393.44 166.239 393.02 165.931 392.488C165.628 391.951 165.476 391.347 165.476 390.675V387.322C165.476 386.617 165.628 385.994 165.931 385.453C166.239 384.907 166.659 384.482 167.191 384.179C167.728 383.871 168.339 383.717 169.025 383.717C169.58 383.717 170.096 383.831 170.572 384.06C171.053 384.284 171.456 384.608 171.783 385.033L170.852 385.859C170.651 385.565 170.39 385.332 170.068 385.159C169.746 384.986 169.398 384.9 169.025 384.9C168.582 384.9 168.187 385.007 167.842 385.222C167.501 385.432 167.233 385.712 167.037 386.062C166.841 386.407 166.743 386.781 166.743 387.182V389.205L166.47 388.897C166.764 388.477 167.137 388.141 167.59 387.889C168.043 387.637 168.533 387.511 169.06 387.511C169.685 387.511 170.245 387.658 170.74 387.952C171.239 388.246 171.631 388.645 171.916 389.149C172.205 389.648 172.35 390.211 172.35 390.836C172.35 391.461 172.194 392.028 171.881 392.537C171.568 393.046 171.151 393.452 170.628 393.755C170.11 394.058 169.538 394.21 168.913 394.21ZM168.913 393.006C169.314 393.006 169.681 392.91 170.012 392.719C170.343 392.523 170.605 392.262 170.796 391.935C170.992 391.604 171.09 391.237 171.09 390.836C171.09 390.435 170.992 390.068 170.796 389.737C170.605 389.406 170.343 389.144 170.012 388.953C169.685 388.757 169.321 388.659 168.92 388.659C168.519 388.659 168.152 388.757 167.821 388.953C167.494 389.144 167.233 389.406 167.037 389.737C166.841 390.068 166.743 390.435 166.743 390.836C166.743 391.233 166.839 391.597 167.03 391.928C167.226 392.255 167.487 392.516 167.814 392.712C168.145 392.908 168.512 393.006 168.913 393.006Z" fill="#8C8D96"/>
<path d="M251.33 368L249.245 360.8H250.175L251.775 366.495L253.37 360.805L254.305 360.8L255.905 366.495L257.5 360.8H258.435L256.35 368H255.46L253.84 362.355L252.22 368H251.33ZM261.031 368.15C260.501 368.15 260.038 368.033 259.641 367.8C259.248 367.563 258.941 367.235 258.721 366.815C258.501 366.392 258.391 365.898 258.391 365.335C258.391 364.745 258.5 364.235 258.716 363.805C258.933 363.372 259.235 363.038 259.621 362.805C260.011 362.568 260.468 362.45 260.991 362.45C261.535 362.45 261.996 362.575 262.376 362.825C262.76 363.075 263.046 363.432 263.236 363.895C263.43 364.358 263.513 364.91 263.486 365.55H262.586V365.23C262.576 364.567 262.441 364.072 262.181 363.745C261.921 363.415 261.535 363.25 261.021 363.25C260.471 363.25 260.053 363.427 259.766 363.78C259.48 364.133 259.336 364.64 259.336 365.3C259.336 365.937 259.48 366.43 259.766 366.78C260.053 367.13 260.461 367.305 260.991 367.305C261.348 367.305 261.658 367.223 261.921 367.06C262.185 366.897 262.391 366.662 262.541 366.355L263.396 366.65C263.186 367.127 262.87 367.497 262.446 367.76C262.026 368.02 261.555 368.15 261.031 368.15ZM259.036 365.55V364.835H263.026V365.55H259.036ZM266.719 368.15C266.216 368.15 265.784 368.025 265.424 367.775C265.064 367.522 264.786 367.18 264.589 366.75C264.396 366.32 264.299 365.835 264.299 365.295C264.299 364.755 264.396 364.27 264.589 363.84C264.786 363.41 265.064 363.072 265.424 362.825C265.784 362.575 266.214 362.45 266.714 362.45C267.224 362.45 267.653 362.573 267.999 362.82C268.346 363.067 268.608 363.405 268.784 363.835C268.964 364.265 269.054 364.752 269.054 365.295C269.054 365.832 268.964 366.317 268.784 366.75C268.608 367.18 268.346 367.522 267.999 367.775C267.653 368.025 267.226 368.15 266.719 368.15ZM266.829 367.335C267.193 367.335 267.491 367.248 267.724 367.075C267.958 366.898 268.129 366.657 268.239 366.35C268.353 366.04 268.409 365.688 268.409 365.295C268.409 364.895 268.353 364.543 268.239 364.24C268.129 363.933 267.959 363.695 267.729 363.525C267.499 363.352 267.208 363.265 266.854 363.265C266.488 363.265 266.184 363.355 265.944 363.535C265.708 363.715 265.531 363.958 265.414 364.265C265.301 364.572 265.244 364.915 265.244 365.295C265.244 365.678 265.303 366.025 265.419 366.335C265.536 366.642 265.711 366.885 265.944 367.065C266.181 367.245 266.476 367.335 266.829 367.335ZM268.409 368V364.025H268.309V360.8H269.204V368H268.409Z" fill="#C3C5D4"/>
<path d="M255.804 394V385.299L253.907 386.447V385.054L255.804 383.92H257.071V394H255.804ZM260.267 394L263.893 385.117H259.315V383.92H265.23V385.117L261.611 394H260.267Z" fill="#8C8D96"/>
<path d="M347.012 368V361.645H344.557V360.8H350.357V361.645H347.902V368H347.012ZM354.998 368V365.295C354.998 365.038 354.975 364.792 354.928 364.555C354.885 364.318 354.806 364.107 354.693 363.92C354.583 363.73 354.433 363.58 354.243 363.47C354.056 363.36 353.82 363.305 353.533 363.305C353.31 363.305 353.106 363.343 352.923 363.42C352.743 363.493 352.588 363.607 352.458 363.76C352.328 363.913 352.226 364.107 352.153 364.34C352.083 364.57 352.048 364.842 352.048 365.155L351.463 364.975C351.463 364.452 351.556 364.003 351.743 363.63C351.933 363.253 352.198 362.965 352.538 362.765C352.881 362.562 353.285 362.46 353.748 362.46C354.098 362.46 354.396 362.515 354.643 362.625C354.89 362.735 355.095 362.882 355.258 363.065C355.421 363.245 355.55 363.448 355.643 363.675C355.736 363.898 355.801 364.127 355.838 364.36C355.878 364.59 355.898 364.808 355.898 365.015V368H354.998ZM351.148 368V360.8H351.948V364.775H352.048V368H351.148ZM359.248 368.14C358.901 368.14 358.603 368.085 358.353 367.975C358.106 367.865 357.901 367.718 357.738 367.535C357.575 367.352 357.446 367.148 357.353 366.925C357.26 366.702 357.193 366.473 357.153 366.24C357.116 366.007 357.098 365.788 357.098 365.585V362.6H357.998V365.305C357.998 365.558 358.021 365.803 358.068 366.04C358.115 366.277 358.193 366.49 358.303 366.68C358.416 366.87 358.566 367.02 358.753 367.13C358.943 367.24 359.18 367.295 359.463 367.295C359.686 367.295 359.89 367.257 360.073 367.18C360.256 367.103 360.413 366.99 360.543 366.84C360.673 366.687 360.773 366.493 360.843 366.26C360.913 366.027 360.948 365.755 360.948 365.445L361.533 365.625C361.533 366.145 361.438 366.593 361.248 366.97C361.061 367.347 360.796 367.637 360.453 367.84C360.113 368.04 359.711 368.14 359.248 368.14ZM361.048 368V366.555H360.948V362.6H361.843V368H361.048Z" fill="#C3C5D4"/>
<path d="M349.258 394V385.299L347.361 386.447V385.054L349.258 383.92H350.525V394H349.258ZM356.338 394.21C355.694 394.21 355.125 394.082 354.63 393.825C354.135 393.564 353.748 393.202 353.468 392.74C353.188 392.278 353.048 391.739 353.048 391.123C353.048 390.521 353.19 389.977 353.475 389.492C353.764 389.007 354.198 388.633 354.777 388.372L354.756 388.827C354.285 388.598 353.923 388.276 353.671 387.861C353.419 387.441 353.293 386.977 353.293 386.468C353.293 385.899 353.424 385.409 353.685 384.998C353.946 384.587 354.306 384.27 354.763 384.046C355.22 383.822 355.745 383.71 356.338 383.71C356.931 383.71 357.456 383.822 357.913 384.046C358.37 384.27 358.73 384.587 358.991 384.998C359.252 385.409 359.383 385.899 359.383 386.468C359.383 386.977 359.264 387.439 359.026 387.854C358.788 388.265 358.422 388.589 357.927 388.827L357.899 388.379C358.478 388.631 358.912 389.002 359.201 389.492C359.495 389.977 359.642 390.521 359.642 391.123C359.642 391.739 359.5 392.278 359.215 392.74C358.935 393.202 358.545 393.564 358.046 393.825C357.551 394.082 356.982 394.21 356.338 394.21ZM356.338 393.02C356.926 393.02 357.402 392.859 357.766 392.537C358.135 392.21 358.319 391.739 358.319 391.123C358.319 390.502 358.137 390.031 357.773 389.709C357.414 389.382 356.935 389.219 356.338 389.219C355.745 389.219 355.267 389.382 354.903 389.709C354.544 390.031 354.364 390.502 354.364 391.123C354.364 391.739 354.546 392.21 354.91 392.537C355.274 392.859 355.75 393.02 356.338 393.02ZM356.338 388.022C356.851 388.022 357.267 387.894 357.584 387.637C357.901 387.376 358.06 386.986 358.06 386.468C358.06 385.95 357.901 385.563 357.584 385.306C357.267 385.045 356.851 384.914 356.338 384.914C355.829 384.914 355.414 385.045 355.092 385.306C354.775 385.563 354.616 385.95 354.616 386.468C354.616 386.986 354.775 387.376 355.092 387.637C355.414 387.894 355.829 388.022 356.338 388.022Z" fill="#8C8D96"/>
<path d="M439.541 368V360.8H443.741V361.69H440.431V363.955H443.141V364.845H440.431V368H439.541ZM444.638 368V362.6H445.433V363.905L445.303 363.735C445.367 363.568 445.448 363.415 445.548 363.275C445.652 363.135 445.767 363.02 445.893 362.93C446.033 362.817 446.192 362.73 446.368 362.67C446.545 362.61 446.725 362.575 446.908 362.565C447.092 362.552 447.263 362.563 447.423 362.6V363.435C447.237 363.385 447.032 363.372 446.808 363.395C446.585 363.418 446.378 363.5 446.188 363.64C446.015 363.763 445.88 363.913 445.783 364.09C445.69 364.267 445.625 364.458 445.588 364.665C445.552 364.868 445.533 365.077 445.533 365.29V368H444.638ZM448.469 361.645V360.725H449.359V361.645H448.469ZM448.469 368V362.6H449.359V368H448.469Z" fill="#C3C5D4"/>
<path d="M440.046 394V385.299L438.149 386.447V385.054L440.046 383.92H441.313V394H440.046ZM447.273 383.717C447.917 383.717 448.498 383.871 449.016 384.179C449.534 384.487 449.945 384.907 450.248 385.439C450.556 385.971 450.71 386.575 450.71 387.252V390.605C450.71 391.31 450.558 391.933 450.255 392.474C449.952 393.015 449.532 393.44 448.995 393.748C448.463 394.056 447.852 394.21 447.161 394.21C446.61 394.21 446.095 394.096 445.614 393.867C445.138 393.638 444.734 393.314 444.403 392.894L445.334 392.068C445.539 392.357 445.803 392.591 446.125 392.768C446.447 392.941 446.792 393.027 447.161 393.027C447.609 393.027 448.003 392.92 448.344 392.705C448.689 392.49 448.958 392.21 449.149 391.865C449.345 391.52 449.443 391.146 449.443 390.745V388.722L449.716 389.03C449.427 389.45 449.056 389.786 448.603 390.038C448.15 390.29 447.658 390.416 447.126 390.416C446.501 390.416 445.941 390.269 445.446 389.975C444.951 389.681 444.559 389.284 444.27 388.785C443.981 388.281 443.836 387.716 443.836 387.091C443.836 386.466 443.992 385.899 444.305 385.39C444.618 384.877 445.033 384.471 445.551 384.172C446.074 383.869 446.648 383.717 447.273 383.717ZM447.273 384.921C446.872 384.921 446.505 385.019 446.174 385.215C445.847 385.406 445.586 385.668 445.39 385.999C445.194 386.326 445.096 386.69 445.096 387.091C445.096 387.492 445.192 387.859 445.383 388.19C445.579 388.517 445.84 388.778 446.167 388.974C446.498 389.17 446.865 389.268 447.266 389.268C447.667 389.268 448.034 389.17 448.365 388.974C448.696 388.778 448.958 388.517 449.149 388.19C449.345 387.859 449.443 387.492 449.443 387.091C449.443 386.694 449.345 386.333 449.149 386.006C448.958 385.675 448.696 385.411 448.365 385.215C448.038 385.019 447.674 384.921 447.273 384.921Z" fill="#8C8D96"/>
<path d="M529.737 368.15C529.227 368.15 528.767 368.063 528.357 367.89C527.951 367.717 527.614 367.47 527.347 367.15C527.084 366.827 526.912 366.445 526.832 366.005L527.752 365.86C527.869 366.313 528.111 366.668 528.477 366.925C528.847 367.178 529.282 367.305 529.782 367.305C530.106 367.305 530.397 367.255 530.657 367.155C530.921 367.052 531.129 366.905 531.282 366.715C531.436 366.525 531.512 366.3 531.512 366.04C531.512 365.88 531.484 365.743 531.427 365.63C531.374 365.513 531.299 365.415 531.202 365.335C531.109 365.252 531.002 365.182 530.882 365.125C530.762 365.068 530.637 365.022 530.507 364.985L528.672 364.44C528.472 364.38 528.279 364.305 528.092 364.215C527.906 364.122 527.739 364.007 527.592 363.87C527.446 363.73 527.329 363.563 527.242 363.37C527.156 363.173 527.112 362.942 527.112 362.675C527.112 362.248 527.222 361.885 527.442 361.585C527.666 361.282 527.967 361.05 528.347 360.89C528.727 360.73 529.156 360.652 529.632 360.655C530.116 360.658 530.547 360.745 530.927 360.915C531.311 361.082 531.627 361.322 531.877 361.635C532.131 361.948 532.301 362.323 532.387 362.76L531.442 362.925C531.392 362.632 531.281 362.38 531.107 362.17C530.937 361.957 530.724 361.793 530.467 361.68C530.211 361.563 529.929 361.503 529.622 361.5C529.329 361.497 529.064 361.543 528.827 361.64C528.591 361.737 528.402 361.872 528.262 362.045C528.122 362.215 528.052 362.412 528.052 362.635C528.052 362.855 528.116 363.033 528.242 363.17C528.369 363.303 528.524 363.41 528.707 363.49C528.894 363.567 529.076 363.63 529.252 363.68L530.622 364.075C530.779 364.118 530.959 364.178 531.162 364.255C531.369 364.332 531.569 364.44 531.762 364.58C531.956 364.717 532.116 364.9 532.242 365.13C532.369 365.357 532.432 365.643 532.432 365.99C532.432 366.337 532.362 366.645 532.222 366.915C532.086 367.185 531.894 367.412 531.647 367.595C531.401 367.775 531.114 367.912 530.787 368.005C530.461 368.102 530.111 368.15 529.737 368.15ZM535.016 368.15C534.613 368.15 534.275 368.077 534.001 367.93C533.731 367.78 533.526 367.583 533.386 367.34C533.25 367.097 533.181 366.83 533.181 366.54C533.181 366.257 533.235 366.012 533.341 365.805C533.451 365.595 533.605 365.422 533.801 365.285C533.998 365.145 534.233 365.035 534.506 364.955C534.763 364.885 535.05 364.825 535.366 364.775C535.686 364.722 536.01 364.673 536.336 364.63C536.663 364.587 536.968 364.545 537.251 364.505L536.931 364.69C536.941 364.21 536.845 363.855 536.641 363.625C536.441 363.395 536.095 363.28 535.601 363.28C535.275 363.28 534.988 363.355 534.741 363.505C534.498 363.652 534.326 363.892 534.226 364.225L533.381 363.97C533.511 363.497 533.763 363.125 534.136 362.855C534.51 362.585 535.001 362.45 535.611 362.45C536.101 362.45 536.521 362.538 536.871 362.715C537.225 362.888 537.478 363.152 537.631 363.505C537.708 363.672 537.756 363.853 537.776 364.05C537.796 364.243 537.806 364.447 537.806 364.66V368H537.016V366.705L537.201 366.825C536.998 367.262 536.713 367.592 536.346 367.815C535.983 368.038 535.54 368.15 535.016 368.15ZM535.151 367.405C535.471 367.405 535.748 367.348 535.981 367.235C536.218 367.118 536.408 366.967 536.551 366.78C536.695 366.59 536.788 366.383 536.831 366.16C536.881 365.993 536.908 365.808 536.911 365.605C536.918 365.398 536.921 365.24 536.921 365.13L537.231 365.265C536.941 365.305 536.656 365.343 536.376 365.38C536.096 365.417 535.831 365.457 535.581 365.5C535.331 365.54 535.106 365.588 534.906 365.645C534.76 365.692 534.621 365.752 534.491 365.825C534.365 365.898 534.261 365.993 534.181 366.11C534.105 366.223 534.066 366.365 534.066 366.535C534.066 366.682 534.103 366.822 534.176 366.955C534.253 367.088 534.37 367.197 534.526 367.28C534.686 367.363 534.895 367.405 535.151 367.405ZM542.121 368C541.801 368.063 541.485 368.088 541.171 368.075C540.861 368.065 540.585 368.003 540.341 367.89C540.098 367.773 539.913 367.593 539.786 367.35C539.68 367.137 539.621 366.922 539.611 366.705C539.605 366.485 539.601 366.237 539.601 365.96V361.1H540.491V365.92C540.491 366.14 540.493 366.328 540.496 366.485C540.503 366.642 540.538 366.777 540.601 366.89C540.721 367.103 540.911 367.228 541.171 367.265C541.435 367.302 541.751 367.292 542.121 367.235V368ZM538.506 363.335V362.6H542.121V363.335H538.506Z" fill="#C3C5D4"/>
<path d="M526.771 393.993L526.778 392.873L531.251 388.848C531.625 388.512 531.874 388.195 532 387.896C532.131 387.593 532.196 387.282 532.196 386.965C532.196 386.578 532.108 386.228 531.93 385.915C531.753 385.602 531.51 385.355 531.202 385.173C530.899 384.991 530.554 384.9 530.166 384.9C529.765 384.9 529.408 384.996 529.095 385.187C528.783 385.374 528.535 385.623 528.353 385.936C528.176 386.249 528.09 386.589 528.094 386.958H526.82C526.82 386.323 526.967 385.763 527.261 385.278C527.555 384.788 527.954 384.405 528.458 384.13C528.967 383.85 529.543 383.71 530.187 383.71C530.813 383.71 531.373 383.855 531.867 384.144C532.362 384.429 532.752 384.818 533.036 385.313C533.326 385.803 533.47 386.358 533.47 386.979C533.47 387.418 533.414 387.798 533.302 388.12C533.195 388.442 533.027 388.741 532.798 389.016C532.57 389.287 532.283 389.576 531.937 389.884L528.22 393.223L528.059 392.803H533.47V393.993H526.771ZM538.547 394.21C537.894 394.21 537.31 394.063 536.797 393.769C536.288 393.47 535.885 393.067 535.586 392.558C535.292 392.045 535.145 391.461 535.145 390.808V387.112C535.145 386.459 535.292 385.875 535.586 385.362C535.885 384.849 536.288 384.445 536.797 384.151C537.31 383.857 537.894 383.71 538.547 383.71C539.2 383.71 539.784 383.857 540.297 384.151C540.81 384.445 541.214 384.849 541.508 385.362C541.802 385.875 541.949 386.459 541.949 387.112V390.808C541.949 391.461 541.802 392.045 541.508 392.558C541.214 393.067 540.81 393.47 540.297 393.769C539.784 394.063 539.2 394.21 538.547 394.21ZM538.547 393.013C538.944 393.013 539.303 392.917 539.625 392.726C539.947 392.535 540.204 392.278 540.395 391.956C540.586 391.629 540.682 391.27 540.682 390.878V387.035C540.682 386.638 540.586 386.279 540.395 385.957C540.204 385.635 539.947 385.378 539.625 385.187C539.303 384.996 538.944 384.9 538.547 384.9C538.155 384.9 537.796 384.996 537.469 385.187C537.147 385.378 536.89 385.635 536.699 385.957C536.508 386.279 536.412 386.638 536.412 387.035V390.878C536.412 391.27 536.508 391.629 536.699 391.956C536.89 392.278 537.147 392.535 537.469 392.726C537.796 392.917 538.155 393.013 538.547 393.013Z" fill="#8C8D96"/>
<path d="M620.561 368.15C620.051 368.15 619.591 368.063 619.181 367.89C618.774 367.717 618.437 367.47 618.171 367.15C617.907 366.827 617.736 366.445 617.656 366.005L618.576 365.86C618.692 366.313 618.934 366.668 619.301 366.925C619.671 367.178 620.106 367.305 620.606 367.305C620.929 367.305 621.221 367.255 621.481 367.155C621.744 367.052 621.952 366.905 622.106 366.715C622.259 366.525 622.336 366.3 622.336 366.04C622.336 365.88 622.307 365.743 622.251 365.63C622.197 365.513 622.122 365.415 622.026 365.335C621.932 365.252 621.826 365.182 621.706 365.125C621.586 365.068 621.461 365.022 621.331 364.985L619.496 364.44C619.296 364.38 619.102 364.305 618.916 364.215C618.729 364.122 618.562 364.007 618.416 363.87C618.269 363.73 618.152 363.563 618.066 363.37C617.979 363.173 617.936 362.942 617.936 362.675C617.936 362.248 618.046 361.885 618.266 361.585C618.489 361.282 618.791 361.05 619.171 360.89C619.551 360.73 619.979 360.652 620.456 360.655C620.939 360.658 621.371 360.745 621.751 360.915C622.134 361.082 622.451 361.322 622.701 361.635C622.954 361.948 623.124 362.323 623.211 362.76L622.266 362.925C622.216 362.632 622.104 362.38 621.931 362.17C621.761 361.957 621.547 361.793 621.291 361.68C621.034 361.563 620.752 361.503 620.446 361.5C620.152 361.497 619.887 361.543 619.651 361.64C619.414 361.737 619.226 361.872 619.086 362.045C618.946 362.215 618.876 362.412 618.876 362.635C618.876 362.855 618.939 363.033 619.066 363.17C619.192 363.303 619.347 363.41 619.531 363.49C619.717 363.567 619.899 363.63 620.076 363.68L621.446 364.075C621.602 364.118 621.782 364.178 621.986 364.255C622.192 364.332 622.392 364.44 622.586 364.58C622.779 364.717 622.939 364.9 623.066 365.13C623.192 365.357 623.256 365.643 623.256 365.99C623.256 366.337 623.186 366.645 623.046 366.915C622.909 367.185 622.717 367.412 622.471 367.595C622.224 367.775 621.937 367.912 621.611 368.005C621.284 368.102 620.934 368.15 620.561 368.15ZM626.354 368.14C626.008 368.14 625.709 368.085 625.459 367.975C625.213 367.865 625.008 367.718 624.844 367.535C624.681 367.352 624.553 367.148 624.459 366.925C624.366 366.702 624.299 366.473 624.259 366.24C624.223 366.007 624.204 365.788 624.204 365.585V362.6H625.104V365.305C625.104 365.558 625.128 365.803 625.174 366.04C625.221 366.277 625.299 366.49 625.409 366.68C625.523 366.87 625.673 367.02 625.859 367.13C626.049 367.24 626.286 367.295 626.569 367.295C626.793 367.295 626.996 367.257 627.179 367.18C627.363 367.103 627.519 366.99 627.649 366.84C627.779 366.687 627.879 366.493 627.949 366.26C628.019 366.027 628.054 365.755 628.054 365.445L628.639 365.625C628.639 366.145 628.544 366.593 628.354 366.97C628.168 367.347 627.903 367.637 627.559 367.84C627.219 368.04 626.818 368.14 626.354 368.14ZM628.154 368V366.555H628.054V362.6H628.949V368H628.154ZM634.194 368V365.295C634.194 365.038 634.171 364.792 634.124 364.555C634.081 364.318 634.003 364.107 633.889 363.92C633.779 363.73 633.629 363.58 633.439 363.47C633.253 363.36 633.016 363.305 632.729 363.305C632.506 363.305 632.303 363.343 632.119 363.42C631.939 363.493 631.784 363.607 631.654 363.76C631.524 363.913 631.423 364.107 631.349 364.34C631.279 364.57 631.244 364.842 631.244 365.155L630.659 364.975C630.659 364.452 630.753 364.003 630.939 363.63C631.129 363.253 631.394 362.965 631.734 362.765C632.078 362.562 632.481 362.46 632.944 362.46C633.294 362.46 633.593 362.515 633.839 362.625C634.086 362.735 634.291 362.882 634.454 363.065C634.618 363.245 634.746 363.448 634.839 363.675C634.933 363.898 634.998 364.127 635.034 364.36C635.074 364.59 635.094 364.808 635.094 365.015V368H634.194ZM630.344 368V362.6H631.144V364.045H631.244V368H630.344Z" fill="#C3C5D4"/>
<path d="M620.309 393.993L620.316 392.873L624.789 388.848C625.163 388.512 625.412 388.195 625.538 387.896C625.669 387.593 625.734 387.282 625.734 386.965C625.734 386.578 625.646 386.228 625.468 385.915C625.291 385.602 625.048 385.355 624.74 385.173C624.437 384.991 624.092 384.9 623.704 384.9C623.303 384.9 622.946 384.996 622.633 385.187C622.321 385.374 622.073 385.623 621.891 385.936C621.714 386.249 621.628 386.589 621.632 386.958H620.358C620.358 386.323 620.505 385.763 620.799 385.278C621.093 384.788 621.492 384.405 621.996 384.13C622.505 383.85 623.081 383.71 623.725 383.71C624.351 383.71 624.911 383.855 625.405 384.144C625.9 384.429 626.29 384.818 626.574 385.313C626.864 385.803 627.008 386.358 627.008 386.979C627.008 387.418 626.952 387.798 626.84 388.12C626.733 388.442 626.565 388.741 626.336 389.016C626.108 389.287 625.821 389.576 625.475 389.884L621.758 393.223L621.597 392.803H627.008V393.993H620.309ZM630.44 394V385.299L628.543 386.447V385.054L630.44 383.92H631.707V394H630.44Z" fill="#8C8D96"/>
<path d="M710.946 368V360.8H711.756L714.476 366.535L717.181 360.8H718.001V367.995H717.156V362.755L714.711 368H714.236L711.791 362.755V368H710.946ZM721.703 368.15C721.166 368.15 720.703 368.028 720.313 367.785C719.926 367.542 719.628 367.205 719.418 366.775C719.208 366.345 719.103 365.852 719.103 365.295C719.103 364.728 719.21 364.232 719.423 363.805C719.636 363.378 719.938 363.047 720.328 362.81C720.718 362.57 721.176 362.45 721.703 362.45C722.243 362.45 722.708 362.572 723.098 362.815C723.488 363.055 723.786 363.39 723.993 363.82C724.203 364.247 724.308 364.738 724.308 365.295C724.308 365.858 724.203 366.355 723.993 366.785C723.783 367.212 723.483 367.547 723.093 367.79C722.703 368.03 722.24 368.15 721.703 368.15ZM721.703 367.305C722.263 367.305 722.68 367.118 722.953 366.745C723.226 366.372 723.363 365.888 723.363 365.295C723.363 364.685 723.225 364.2 722.948 363.84C722.671 363.477 722.256 363.295 721.703 363.295C721.326 363.295 721.016 363.38 720.773 363.55C720.53 363.72 720.348 363.955 720.228 364.255C720.108 364.555 720.048 364.902 720.048 365.295C720.048 365.902 720.188 366.388 720.468 366.755C720.748 367.122 721.16 367.305 721.703 367.305ZM729.254 368V365.295C729.254 365.038 729.231 364.792 729.184 364.555C729.141 364.318 729.062 364.107 728.949 363.92C728.839 363.73 728.689 363.58 728.499 363.47C728.312 363.36 728.076 363.305 727.789 363.305C727.566 363.305 727.362 363.343 727.179 363.42C726.999 363.493 726.844 363.607 726.714 363.76C726.584 363.913 726.482 364.107 726.409 364.34C726.339 364.57 726.304 364.842 726.304 365.155L725.719 364.975C725.719 364.452 725.812 364.003 725.999 363.63C726.189 363.253 726.454 362.965 726.794 362.765C727.137 362.562 727.541 362.46 728.004 362.46C728.354 362.46 728.652 362.515 728.899 362.625C729.146 362.735 729.351 362.882 729.514 363.065C729.677 363.245 729.806 363.448 729.899 363.675C729.992 363.898 730.057 364.127 730.094 364.36C730.134 364.59 730.154 364.808 730.154 365.015V368H729.254ZM725.404 368V362.6H726.204V364.045H726.304V368H725.404Z" fill="#C3C5D4"/>
<path d="M713.106 393.993L713.113 392.873L717.586 388.848C717.96 388.512 718.209 388.195 718.335 387.896C718.466 387.593 718.531 387.282 718.531 386.965C718.531 386.578 718.443 386.228 718.265 385.915C718.088 385.602 717.845 385.355 717.537 385.173C717.234 384.991 716.889 384.9 716.501 384.9C716.1 384.9 715.743 384.996 715.43 385.187C715.118 385.374 714.87 385.623 714.688 385.936C714.511 386.249 714.425 386.589 714.429 386.958H713.155C713.155 386.323 713.302 385.763 713.596 385.278C713.89 384.788 714.289 384.405 714.793 384.13C715.302 383.85 715.878 383.71 716.522 383.71C717.148 383.71 717.708 383.855 718.202 384.144C718.697 384.429 719.087 384.818 719.371 385.313C719.661 385.803 719.805 386.358 719.805 386.979C719.805 387.418 719.749 387.798 719.637 388.12C719.53 388.442 719.362 388.741 719.133 389.016C718.905 389.287 718.618 389.576 718.272 389.884L714.555 393.223L714.394 392.803H719.805V393.993H713.106ZM721.2 393.993L721.207 392.873L725.68 388.848C726.053 388.512 726.303 388.195 726.429 387.896C726.56 387.593 726.625 387.282 726.625 386.965C726.625 386.578 726.536 386.228 726.359 385.915C726.182 385.602 725.939 385.355 725.631 385.173C725.328 384.991 724.982 384.9 724.595 384.9C724.194 384.9 723.837 384.996 723.524 385.187C723.211 385.374 722.964 385.623 722.782 385.936C722.605 386.249 722.518 386.589 722.523 386.958H721.249C721.249 386.323 721.396 385.763 721.69 385.278C721.984 384.788 722.383 384.405 722.887 384.13C723.396 383.85 723.972 383.71 724.616 383.71C725.241 383.71 725.801 383.855 726.296 384.144C726.791 384.429 727.18 384.818 727.465 385.313C727.754 385.803 727.899 386.358 727.899 386.979C727.899 387.418 727.843 387.798 727.731 388.12C727.624 388.442 727.456 388.741 727.227 389.016C726.998 389.287 726.711 389.576 726.366 389.884L722.649 393.223L722.488 392.803H727.899V393.993H721.2Z" fill="#8C8D96"/>
<path d="M263.5 3.5V336.5" stroke="#002D24" stroke-width="3" stroke-linecap="round" stroke-dasharray="12 9"/>
<path d="M121.5 2.5H29.5V69.5H121.5V2.5Z" stroke="#E9E9E9"/>
<path d="M213.5 2.5H121.5V69.5H213.5V2.5Z" stroke="#E9E9E9"/>
<path d="M121.5 69.5H29.5V136.5H121.5V69.5Z" stroke="#E9E9E9"/>
<path d="M213.5 69.5H121.5V136.5H213.5V69.5Z" stroke="#E9E9E9"/>
<path d="M305.5 2.5H213.5V69.5H305.5V2.5Z" stroke="#E9E9E9"/>
<path d="M397.5 2.5H305.5V69.5H397.5V2.5Z" stroke="#E9E9E9"/>
<path d="M305.5 69.5H213.5V136.5H305.5V69.5Z" stroke="#E9E9E9"/>
<path d="M397.5 69.5H305.5V136.5H397.5V69.5Z" stroke="#E9E9E9"/>
<path d="M489.5 2.5H397.5V69.5H489.5V2.5Z" stroke="#E9E9E9"/>
<path d="M581.5 2.5H489.5V69.5H581.5V2.5Z" stroke="#E9E9E9"/>
<path d="M489.5 69.5H397.5V136.5H489.5V69.5Z" stroke="#E9E9E9"/>
<path d="M581.5 69.5H489.5V136.5H581.5V69.5Z" stroke="#E9E9E9"/>
<path d="M673.5 2.5H581.5V69.5H673.5V2.5Z" stroke="#E9E9E9"/>
<path d="M765.5 2.5H673.5V69.5H765.5V2.5Z" stroke="#E9E9E9"/>
<path d="M673.5 69.5H581.5V136.5H673.5V69.5Z" stroke="#E9E9E9"/>
<path d="M765.5 69.5H673.5V136.5H765.5V69.5Z" stroke="#E9E9E9"/>
<path d="M121.5 136.5H29.5V203.5H121.5V136.5Z" stroke="#E9E9E9"/>
<path d="M213.5 136.5H121.5V203.5H213.5V136.5Z" stroke="#E9E9E9"/>
<path d="M121.5 203.5H29.5V270.5H121.5V203.5Z" stroke="#E9E9E9"/>
<path d="M213.5 203.5H121.5V270.5H213.5V203.5Z" stroke="#E9E9E9"/>
<path d="M305.5 136.5H213.5V203.5H305.5V136.5Z" stroke="#E9E9E9"/>
<path d="M397.5 136.5H305.5V203.5H397.5V136.5Z" stroke="#E9E9E9"/>
<path d="M305.5 203.5H213.5V270.5H305.5V203.5Z" stroke="#E9E9E9"/>
<path d="M397.5 203.5H305.5V270.5H397.5V203.5Z" stroke="#E9E9E9"/>
<path d="M489.5 136.5H397.5V203.5H489.5V136.5Z" stroke="#E9E9E9"/>
<path d="M581.5 136.5H489.5V203.5H581.5V136.5Z" stroke="#E9E9E9"/>
<path d="M489.5 203.5H397.5V270.5H489.5V203.5Z" stroke="#E9E9E9"/>
<path d="M581.5 203.5H489.5V270.5H581.5V203.5Z" stroke="#E9E9E9"/>
<path d="M673.5 136.5H581.5V203.5H673.5V136.5Z" stroke="#E9E9E9"/>
<path d="M765.5 136.5H673.5V203.5H765.5V136.5Z" stroke="#E9E9E9"/>
<path d="M673.5 203.5H581.5V270.5H673.5V203.5Z" stroke="#E9E9E9"/>
<path d="M765.5 203.5H673.5V270.5H765.5V203.5Z" stroke="#E9E9E9"/>
<path d="M121.5 270.5H29.5V337.5H121.5V270.5Z" stroke="#E9E9E9"/>
<path d="M213.5 270.5H121.5V337.5H213.5V270.5Z" stroke="#E9E9E9"/>
<path d="M305.5 270.5H213.5V337.5H305.5V270.5Z" stroke="#E9E9E9"/>
<path d="M397.5 270.5H305.5V337.5H397.5V270.5Z" stroke="#E9E9E9"/>
<path d="M489.5 270.5H397.5V337.5H489.5V270.5Z" stroke="#E9E9E9"/>
<path d="M581.5 270.5H489.5V337.5H581.5V270.5Z" stroke="#E9E9E9"/>
<path d="M673.5 270.5H581.5V337.5H673.5V270.5Z" stroke="#E9E9E9"/>
<path d="M765.5 270.5H673.5V337.5H765.5V270.5Z" stroke="#E9E9E9"/>
<path d="M47 304.5H33V346.5H760V128.5L748 168L731.5 187.5L724 279.5L695 222.5H670.5L655.5 163L646 204.5L641 193.5H632.5L619 123.5L606 164.5L589 65L576 109L562.5 114.5L541.5 213L524 166.5L514 219.5L491 210L482.5 304.5L458 218L442.5 209L430.5 95.5H419.5L406 158L393 69.5L379 98L367.5 50L358.5 45L345.5 119.5L336 87.5L320.5 127.5H312L307 156L291.5 201H280.5L266.5 100L255.5 147L234.5 166.5L236 178.5L226 201L222 224L210.5 235.5L194 309.5L180 201H173L164.5 240H147.5L118 282L97.5 184H87.5L77 282L51.5 320L47 304.5Z" fill="url(#paint0_linear_32_721)"/>
<path d="M32.8672 303.5H46.8672L51.3672 319L76.8672 281L87.3672 183H97.3672L117.867 281L147.367 239H164.367L172.867 200H179.867L193.867 308.5L210.367 234.5L221.867 223L225.867 200L235.867 177.5L234.367 165.5L255.367 146L266.367 99L280.367 200H291.367L306.867 155L311.867 126.5H320.367L335.867 86.5L345.367 118.5L358.367 44L367.367 49L378.867 97L392.867 68.5L405.867 157L419.367 94.5H430.367L442.367 208L457.867 217L482.367 303.5L490.867 209L513.867 218.5L523.867 165.5L541.367 212L562.367 113.5L575.867 108L588.867 64L605.867 163.5L618.867 122.5L632.367 192.5H640.867L645.867 203.5L655.367 162L670.367 221.5H694.867L723.867 278.5L731.367 186.5L747.867 167L759.867 127.5" stroke="#46B49E" stroke-width="3" stroke-linecap="round"/>
<g filter="url(#filter0_d_32_721)">
<path d="M263 149C265.761 149 268 146.761 268 144C268 141.239 265.761 139 263 139C260.239 139 258 141.239 258 144C258 146.761 260.239 149 263 149Z" fill="#46B49E"/>
<path d="M263 152C267.418 152 271 148.418 271 144C271 139.582 267.418 136 263 136C258.582 136 255 139.582 255 144C255 148.418 258.582 152 263 152Z" stroke="white" stroke-width="6"/>
</g>
<path d="M236 151H145C137.268 151 131 157.268 131 165V197C131 204.732 137.268 211 145 211H236C243.732 211 250 204.732 250 197V165C250 157.268 243.732 151 236 151Z" fill="black" fill-opacity="0.65"/>
<path d="M144.5 171.995L144.505 171.065L147.64 168.255C147.893 168.032 148.065 167.818 148.155 167.615C148.248 167.412 148.295 167.208 148.295 167.005C148.295 166.748 148.238 166.518 148.125 166.315C148.012 166.108 147.855 165.945 147.655 165.825C147.455 165.705 147.225 165.645 146.965 165.645C146.698 165.645 146.46 165.708 146.25 165.835C146.043 165.958 145.882 166.123 145.765 166.33C145.648 166.537 145.592 166.76 145.595 167H144.525C144.525 166.533 144.63 166.125 144.84 165.775C145.053 165.422 145.345 165.147 145.715 164.95C146.085 164.75 146.508 164.65 146.985 164.65C147.438 164.65 147.845 164.753 148.205 164.96C148.565 165.163 148.848 165.443 149.055 165.8C149.265 166.157 149.37 166.563 149.37 167.02C149.37 167.35 149.327 167.63 149.24 167.86C149.153 168.09 149.023 168.303 148.85 168.5C148.677 168.697 148.46 168.91 148.2 169.14L145.78 171.3L145.665 171H149.37V171.995H144.5ZM151.824 172V165.95L150.469 166.775V165.61L151.824 164.8H152.889V172H151.824ZM159.4 172.15C158.883 172.15 158.417 172.062 158 171.885C157.587 171.705 157.245 171.45 156.975 171.12C156.708 170.787 156.535 170.392 156.455 169.935L157.545 169.77C157.655 170.21 157.885 170.553 158.235 170.8C158.585 171.043 158.993 171.165 159.46 171.165C159.75 171.165 160.017 171.12 160.26 171.03C160.503 170.937 160.698 170.805 160.845 170.635C160.995 170.462 161.07 170.255 161.07 170.015C161.07 169.885 161.047 169.77 161 169.67C160.957 169.57 160.895 169.483 160.815 169.41C160.738 169.333 160.643 169.268 160.53 169.215C160.42 169.158 160.298 169.11 160.165 169.07L158.32 168.525C158.14 168.472 157.957 168.403 157.77 168.32C157.583 168.233 157.412 168.122 157.255 167.985C157.102 167.845 156.977 167.673 156.88 167.47C156.783 167.263 156.735 167.013 156.735 166.72C156.735 166.277 156.848 165.902 157.075 165.595C157.305 165.285 157.615 165.052 158.005 164.895C158.395 164.735 158.832 164.655 159.315 164.655C159.802 164.662 160.237 164.748 160.62 164.915C161.007 165.082 161.327 165.322 161.58 165.635C161.837 165.945 162.013 166.322 162.11 166.765L160.99 166.955C160.94 166.685 160.833 166.453 160.67 166.26C160.507 166.063 160.307 165.913 160.07 165.81C159.833 165.703 159.577 165.648 159.3 165.645C159.033 165.638 158.788 165.678 158.565 165.765C158.345 165.852 158.168 165.973 158.035 166.13C157.905 166.287 157.84 166.467 157.84 166.67C157.84 166.87 157.898 167.032 158.015 167.155C158.132 167.278 158.275 167.377 158.445 167.45C158.618 167.52 158.79 167.578 158.96 167.625L160.29 168C160.457 168.047 160.645 168.11 160.855 168.19C161.068 168.267 161.273 168.375 161.47 168.515C161.67 168.655 161.835 168.842 161.965 169.075C162.095 169.305 162.16 169.595 162.16 169.945C162.16 170.308 162.087 170.628 161.94 170.905C161.793 171.178 161.592 171.408 161.335 171.595C161.082 171.778 160.788 171.917 160.455 172.01C160.122 172.103 159.77 172.15 159.4 172.15ZM165.62 172.15C165.084 172.15 164.612 172.033 164.205 171.8C163.802 171.563 163.487 171.235 163.26 170.815C163.037 170.392 162.925 169.902 162.925 169.345C162.925 168.755 163.035 168.243 163.255 167.81C163.479 167.377 163.789 167.042 164.185 166.805C164.582 166.568 165.044 166.45 165.57 166.45C166.12 166.45 166.589 166.578 166.975 166.835C167.362 167.088 167.65 167.45 167.84 167.92C168.034 168.39 168.11 168.948 168.07 169.595H167.025V169.215C167.019 168.588 166.899 168.125 166.665 167.825C166.435 167.525 166.084 167.375 165.61 167.375C165.087 167.375 164.694 167.54 164.43 167.87C164.167 168.2 164.035 168.677 164.035 169.3C164.035 169.893 164.167 170.353 164.43 170.68C164.694 171.003 165.074 171.165 165.57 171.165C165.897 171.165 166.179 171.092 166.415 170.945C166.655 170.795 166.842 170.582 166.975 170.305L168 170.63C167.79 171.113 167.472 171.488 167.045 171.755C166.619 172.018 166.144 172.15 165.62 172.15ZM163.695 169.595V168.78H167.55V169.595H163.695ZM171.581 172.15C171.064 172.15 170.631 172.025 170.281 171.775C169.931 171.522 169.666 171.18 169.486 170.75C169.306 170.32 169.216 169.835 169.216 169.295C169.216 168.755 169.304 168.27 169.481 167.84C169.661 167.41 169.924 167.072 170.271 166.825C170.621 166.575 171.051 166.45 171.561 166.45C172.067 166.45 172.504 166.575 172.871 166.825C173.241 167.072 173.526 167.41 173.726 167.84C173.926 168.267 174.026 168.752 174.026 169.295C174.026 169.835 173.926 170.322 173.726 170.755C173.529 171.185 173.247 171.525 172.881 171.775C172.517 172.025 172.084 172.15 171.581 172.15ZM169.041 174.4V166.6H169.971V170.485H170.091V174.4H169.041ZM171.436 171.205C171.769 171.205 172.044 171.12 172.261 170.95C172.481 170.78 172.644 170.552 172.751 170.265C172.861 169.975 172.916 169.652 172.916 169.295C172.916 168.942 172.861 168.622 172.751 168.335C172.644 168.048 172.479 167.82 172.256 167.65C172.032 167.48 171.747 167.395 171.401 167.395C171.074 167.395 170.804 167.475 170.591 167.635C170.381 167.795 170.224 168.018 170.121 168.305C170.021 168.592 169.971 168.922 169.971 169.295C169.971 169.668 170.021 169.998 170.121 170.285C170.221 170.572 170.379 170.797 170.596 170.96C170.812 171.123 171.092 171.205 171.436 171.205ZM178.22 172C177.88 172.067 177.546 172.095 177.22 172.085C176.893 172.075 176.601 172.012 176.345 171.895C176.088 171.778 175.895 171.595 175.765 171.345C175.648 171.122 175.585 170.895 175.575 170.665C175.568 170.432 175.565 170.168 175.565 169.875V165.1H176.615V169.825C176.615 170.042 176.616 170.23 176.62 170.39C176.626 170.55 176.661 170.685 176.725 170.795C176.845 171.002 177.035 171.12 177.295 171.15C177.558 171.177 177.866 171.165 178.22 171.115V172ZM174.53 167.44V166.6H178.22V167.44H174.53ZM183.705 172.15C183.165 172.15 182.697 172.028 182.3 171.785C181.903 171.542 181.597 171.207 181.38 170.78C181.167 170.35 181.06 169.855 181.06 169.295C181.06 168.732 181.17 168.237 181.39 167.81C181.61 167.38 181.918 167.047 182.315 166.81C182.712 166.57 183.175 166.45 183.705 166.45C184.245 166.45 184.713 166.572 185.11 166.815C185.507 167.058 185.813 167.393 186.03 167.82C186.247 168.247 186.355 168.738 186.355 169.295C186.355 169.858 186.245 170.355 186.025 170.785C185.808 171.212 185.502 171.547 185.105 171.79C184.708 172.03 184.242 172.15 183.705 172.15ZM183.705 171.165C184.222 171.165 184.607 170.992 184.86 170.645C185.117 170.295 185.245 169.845 185.245 169.295C185.245 168.732 185.115 168.282 184.855 167.945C184.598 167.605 184.215 167.435 183.705 167.435C183.355 167.435 183.067 167.515 182.84 167.675C182.613 167.832 182.445 168.05 182.335 168.33C182.225 168.607 182.17 168.928 182.17 169.295C182.17 169.862 182.3 170.315 182.56 170.655C182.82 170.995 183.202 171.165 183.705 171.165ZM191.244 172V169.345C191.244 169.135 191.226 168.92 191.189 168.7C191.156 168.477 191.089 168.27 190.989 168.08C190.892 167.89 190.754 167.737 190.574 167.62C190.397 167.503 190.166 167.445 189.879 167.445C189.692 167.445 189.516 167.477 189.349 167.54C189.182 167.6 189.036 167.698 188.909 167.835C188.786 167.972 188.687 168.152 188.614 168.375C188.544 168.598 188.509 168.87 188.509 169.19L187.859 168.945C187.859 168.455 187.951 168.023 188.134 167.65C188.317 167.273 188.581 166.98 188.924 166.77C189.267 166.56 189.682 166.455 190.169 166.455C190.542 166.455 190.856 166.515 191.109 166.635C191.362 166.755 191.567 166.913 191.724 167.11C191.884 167.303 192.006 167.515 192.089 167.745C192.172 167.975 192.229 168.2 192.259 168.42C192.289 168.64 192.304 168.833 192.304 169V172H191.244ZM187.449 172V166.6H188.384V168.16H188.509V172H187.449ZM196.863 172V165.95L195.508 166.775V165.61L196.863 164.8H197.928V172H196.863ZM199.627 171.995L199.632 171.065L202.767 168.255C203.02 168.032 203.192 167.818 203.282 167.615C203.375 167.412 203.422 167.208 203.422 167.005C203.422 166.748 203.365 166.518 203.252 166.315C203.139 166.108 202.982 165.945 202.782 165.825C202.582 165.705 202.352 165.645 202.092 165.645C201.825 165.645 201.587 165.708 201.377 165.835C201.17 165.958 201.009 166.123 200.892 166.33C200.775 166.537 200.719 166.76 200.722 167H199.652C199.652 166.533 199.757 166.125 199.967 165.775C200.18 165.422 200.472 165.147 200.842 164.95C201.212 164.75 201.635 164.65 202.112 164.65C202.565 164.65 202.972 164.753 203.332 164.96C203.692 165.163 203.975 165.443 204.182 165.8C204.392 166.157 204.497 166.563 204.497 167.02C204.497 167.35 204.454 167.63 204.367 167.86C204.28 168.09 204.15 168.303 203.977 168.5C203.804 168.697 203.587 168.91 203.327 169.14L200.907 171.3L200.792 171H204.497V171.995H199.627ZM205.876 172V170.895H206.981V172H205.876ZM211.067 172.15C210.577 172.15 210.144 172.043 209.767 171.83C209.391 171.613 209.094 171.317 208.877 170.94C208.664 170.563 208.557 170.13 208.557 169.64V167.16C208.557 166.67 208.664 166.237 208.877 165.86C209.094 165.483 209.391 165.188 209.767 164.975C210.144 164.758 210.577 164.65 211.067 164.65C211.557 164.65 211.991 164.758 212.367 164.975C212.744 165.188 213.039 165.483 213.252 165.86C213.469 166.237 213.577 166.67 213.577 167.16V169.64C213.577 170.13 213.469 170.563 213.252 170.94C213.039 171.317 212.744 171.613 212.367 171.83C211.991 172.043 211.557 172.15 211.067 172.15ZM211.067 171.15C211.334 171.15 211.576 171.087 211.792 170.96C212.012 170.83 212.187 170.657 212.317 170.44C212.447 170.22 212.512 169.975 212.512 169.705V167.085C212.512 166.818 212.447 166.577 212.317 166.36C212.187 166.14 212.012 165.967 211.792 165.84C211.576 165.71 211.334 165.645 211.067 165.645C210.801 165.645 210.557 165.71 210.337 165.84C210.121 165.967 209.947 166.14 209.817 166.36C209.687 166.577 209.622 166.818 209.622 167.085V169.705C209.622 169.975 209.687 170.22 209.817 170.44C209.947 170.657 210.121 170.83 210.337 170.96C210.557 171.087 210.801 171.15 211.067 171.15ZM217.483 172.15C216.993 172.15 216.56 172.043 216.183 171.83C215.807 171.613 215.51 171.317 215.293 170.94C215.08 170.563 214.973 170.13 214.973 169.64V167.16C214.973 166.67 215.08 166.237 215.293 165.86C215.51 165.483 215.807 165.188 216.183 164.975C216.56 164.758 216.993 164.65 217.483 164.65C217.973 164.65 218.407 164.758 218.783 164.975C219.16 165.188 219.455 165.483 219.668 165.86C219.885 166.237 219.993 166.67 219.993 167.16V169.64C219.993 170.13 219.885 170.563 219.668 170.94C219.455 171.317 219.16 171.613 218.783 171.83C218.407 172.043 217.973 172.15 217.483 172.15ZM217.483 171.15C217.75 171.15 217.992 171.087 218.208 170.96C218.428 170.83 218.603 170.657 218.733 170.44C218.863 170.22 218.928 169.975 218.928 169.705V167.085C218.928 166.818 218.863 166.577 218.733 166.36C218.603 166.14 218.428 165.967 218.208 165.84C217.992 165.71 217.75 165.645 217.483 165.645C217.217 165.645 216.973 165.71 216.753 165.84C216.537 165.967 216.363 166.14 216.233 166.36C216.103 166.577 216.038 166.818 216.038 167.085V169.705C216.038 169.975 216.103 170.22 216.233 170.44C216.363 170.657 216.537 170.83 216.753 170.96C216.973 171.087 217.217 171.15 217.483 171.15Z" fill="#E9E9E9"/>
<path d="M148.328 197.677V195.665H150.609V197.677H148.328ZM148.328 184.274V182.261H150.609V184.274H148.328ZM149.485 196.252C148.619 196.252 147.844 196.092 147.162 195.774C146.48 195.449 145.924 194.994 145.493 194.406C145.062 193.814 144.788 193.115 144.671 192.31L146.936 191.957C147.087 192.617 147.403 193.143 147.883 193.534C148.37 193.926 148.949 194.121 149.62 194.121C150.251 194.121 150.774 193.973 151.188 193.677C151.607 193.38 151.817 193.014 151.817 192.578C151.817 192.282 151.725 192.038 151.54 191.848C151.361 191.653 151.079 191.493 150.693 191.37L147.707 190.448C145.985 189.916 145.124 188.865 145.124 187.294C145.124 186.556 145.297 185.915 145.644 185.373C145.996 184.831 146.491 184.414 147.129 184.123C147.772 183.827 148.529 183.682 149.402 183.687C150.201 183.698 150.911 183.844 151.532 184.123C152.153 184.397 152.67 184.797 153.084 185.323C153.503 185.843 153.808 186.477 153.998 187.227L151.649 187.646C151.571 187.288 151.426 186.975 151.213 186.707C151.001 186.433 150.735 186.22 150.416 186.069C150.103 185.913 149.754 185.829 149.368 185.818C148.999 185.806 148.663 185.86 148.361 185.977C148.065 186.094 147.827 186.259 147.649 186.472C147.475 186.679 147.389 186.914 147.389 187.176C147.389 187.467 147.512 187.719 147.758 187.931C148.004 188.138 148.395 188.317 148.932 188.468L151.062 189.072C152.13 189.38 152.899 189.796 153.369 190.322C153.844 190.847 154.082 191.543 154.082 192.41C154.082 193.171 153.889 193.839 153.503 194.415C153.117 194.991 152.578 195.441 151.884 195.765C151.196 196.089 150.397 196.252 149.485 196.252ZM158.018 196V186.405L155.753 187.797V185.281L158.018 183.922H160.349V196H158.018ZM167.413 183.687C168.213 183.687 168.928 183.875 169.56 184.249C170.198 184.624 170.701 185.147 171.07 185.818C171.439 186.483 171.624 187.255 171.624 188.133V191.639C171.624 192.589 171.439 193.411 171.07 194.104C170.701 194.792 170.181 195.323 169.51 195.698C168.839 196.067 168.051 196.252 167.145 196.252C166.558 196.252 165.998 196.165 165.467 195.992C164.942 195.813 164.455 195.519 164.008 195.111L165.635 193.484C165.836 193.685 166.068 193.842 166.331 193.953C166.6 194.065 166.871 194.121 167.145 194.121C167.581 194.121 167.958 194.021 168.277 193.819C168.601 193.612 168.85 193.347 169.024 193.022C169.202 192.693 169.292 192.343 169.292 191.974V190.179L169.678 190.598C169.337 190.951 168.937 191.222 168.478 191.412C168.02 191.597 167.547 191.689 167.061 191.689C166.3 191.689 165.629 191.518 165.048 191.177C164.472 190.836 164.019 190.369 163.689 189.777C163.365 189.184 163.203 188.507 163.203 187.747C163.203 186.986 163.396 186.301 163.781 185.692C164.167 185.077 164.679 184.59 165.316 184.232C165.954 183.869 166.653 183.687 167.413 183.687ZM167.413 185.868C167.066 185.868 166.748 185.952 166.457 186.12C166.172 186.287 165.943 186.514 165.769 186.799C165.601 187.084 165.518 187.4 165.518 187.747C165.518 188.093 165.601 188.412 165.769 188.703C165.937 188.988 166.163 189.217 166.449 189.391C166.734 189.558 167.05 189.642 167.396 189.642C167.743 189.642 168.059 189.558 168.344 189.391C168.635 189.217 168.864 188.988 169.032 188.703C169.205 188.412 169.292 188.093 169.292 187.747C169.292 187.411 169.208 187.101 169.04 186.816C168.873 186.531 168.646 186.301 168.361 186.128C168.076 185.955 167.76 185.868 167.413 185.868ZM178.452 196.252C177.558 196.252 176.775 196.064 176.104 195.69C175.433 195.315 174.91 194.792 174.535 194.121C174.161 193.45 173.973 192.667 173.973 191.773V188.149C173.973 187.255 174.161 186.472 174.535 185.801C174.91 185.13 175.433 184.607 176.104 184.232C176.775 183.858 177.558 183.67 178.452 183.67C179.347 183.67 180.13 183.858 180.801 184.232C181.472 184.607 181.995 185.13 182.369 185.801C182.744 186.472 182.931 187.255 182.931 188.149V191.773C182.931 192.667 182.744 193.45 182.369 194.121C181.995 194.792 181.472 195.315 180.801 195.69C180.13 196.064 179.347 196.252 178.452 196.252ZM178.452 194.088C178.855 194.088 179.218 193.993 179.543 193.802C179.867 193.612 180.124 193.355 180.314 193.031C180.504 192.707 180.599 192.343 180.599 191.94V187.965C180.599 187.562 180.504 187.199 180.314 186.874C180.124 186.55 179.867 186.293 179.543 186.103C179.218 185.913 178.855 185.818 178.452 185.818C178.05 185.818 177.686 185.913 177.362 186.103C177.038 186.293 176.78 186.55 176.59 186.874C176.4 187.199 176.305 187.562 176.305 187.965V191.94C176.305 192.343 176.4 192.707 176.59 193.031C176.78 193.355 177.038 193.612 177.362 193.802C177.686 193.993 178.05 194.088 178.452 194.088ZM185.109 198.265L185.243 197.308C185.512 197.331 185.73 197.286 185.897 197.174C186.065 197.068 186.18 196.911 186.241 196.705C186.308 196.503 186.322 196.268 186.283 196H185.109V193.719H187.39V196C187.39 196.805 187.203 197.415 186.828 197.828C186.454 198.242 185.881 198.388 185.109 198.265ZM191.188 196L195.248 186.069H190.081V183.922H197.697V186.069L193.654 196H191.188ZM204.188 196.252C203.293 196.252 202.51 196.064 201.839 195.69C201.168 195.315 200.646 194.792 200.271 194.121C199.896 193.45 199.709 192.667 199.709 191.773V188.149C199.709 187.255 199.896 186.472 200.271 185.801C200.646 185.13 201.168 184.607 201.839 184.232C202.51 183.858 203.293 183.67 204.188 183.67C205.083 183.67 205.865 183.858 206.536 184.232C207.207 184.607 207.73 185.13 208.105 185.801C208.479 186.472 208.667 187.255 208.667 188.149V191.773C208.667 192.667 208.479 193.45 208.105 194.121C207.73 194.792 207.207 195.315 206.536 195.69C205.865 196.064 205.083 196.252 204.188 196.252ZM204.188 194.088C204.591 194.088 204.954 193.993 205.278 193.802C205.603 193.612 205.86 193.355 206.05 193.031C206.24 192.707 206.335 192.343 206.335 191.94V187.965C206.335 187.562 206.24 187.199 206.05 186.874C205.86 186.55 205.603 186.293 205.278 186.103C204.954 185.913 204.591 185.818 204.188 185.818C203.785 185.818 203.422 185.913 203.098 186.103C202.773 186.293 202.516 186.55 202.326 186.874C202.136 187.199 202.041 187.562 202.041 187.965V191.94C202.041 192.343 202.136 192.707 202.326 193.031C202.516 193.355 202.773 193.612 203.098 193.802C203.422 193.993 203.785 194.088 204.188 194.088ZM211.381 196V193.719H213.663V196H211.381ZM220.261 183.687C221.06 183.687 221.776 183.875 222.408 184.249C223.045 184.624 223.549 185.147 223.918 185.818C224.287 186.483 224.471 187.255 224.471 188.133V191.639C224.471 192.589 224.287 193.411 223.918 194.104C223.549 194.792 223.028 195.323 222.357 195.698C221.686 196.067 220.898 196.252 219.992 196.252C219.405 196.252 218.846 196.165 218.315 195.992C217.789 195.813 217.303 195.519 216.855 195.111L218.482 193.484C218.684 193.685 218.916 193.842 219.179 193.953C219.447 194.065 219.718 194.121 219.992 194.121C220.428 194.121 220.806 194.021 221.125 193.819C221.449 193.612 221.698 193.347 221.871 193.022C222.05 192.693 222.139 192.343 222.139 191.974V190.179L222.525 190.598C222.184 190.951 221.784 191.222 221.326 191.412C220.867 191.597 220.395 191.689 219.908 191.689C219.148 191.689 218.477 191.518 217.895 191.177C217.319 190.836 216.867 190.369 216.537 189.777C216.212 189.184 216.05 188.507 216.05 187.747C216.05 186.986 216.243 186.301 216.629 185.692C217.015 185.077 217.526 184.59 218.164 184.232C218.801 183.869 219.5 183.687 220.261 183.687ZM220.261 185.868C219.914 185.868 219.595 185.952 219.304 186.12C219.019 186.287 218.79 186.514 218.617 186.799C218.449 187.084 218.365 187.4 218.365 187.747C218.365 188.093 218.449 188.412 218.617 188.703C218.784 188.988 219.011 189.217 219.296 189.391C219.581 189.558 219.897 189.642 220.244 189.642C220.591 189.642 220.906 189.558 221.192 189.391C221.482 189.217 221.712 188.988 221.879 188.703C222.053 188.412 222.139 188.093 222.139 187.747C222.139 187.411 222.056 187.101 221.888 186.816C221.72 186.531 221.494 186.301 221.208 186.128C220.923 185.955 220.607 185.868 220.261 185.868ZM231.3 196.252C230.405 196.252 229.622 196.064 228.951 195.69C228.28 195.315 227.757 194.792 227.383 194.121C227.008 193.45 226.821 192.667 226.821 191.773V188.149C226.821 187.255 227.008 186.472 227.383 185.801C227.757 185.13 228.28 184.607 228.951 184.232C229.622 183.858 230.405 183.67 231.3 183.67C232.194 183.67 232.977 183.858 233.648 184.232C234.319 184.607 234.842 185.13 235.217 185.801C235.591 186.472 235.779 187.255 235.779 188.149V191.773C235.779 192.667 235.591 193.45 235.217 194.121C234.842 194.792 234.319 195.315 233.648 195.69C232.977 196.064 232.194 196.252 231.3 196.252ZM231.3 194.088C231.702 194.088 232.066 193.993 232.39 193.802C232.714 193.612 232.972 193.355 233.162 193.031C233.352 192.707 233.447 192.343 233.447 191.94V187.965C233.447 187.562 233.352 187.199 233.162 186.874C232.972 186.55 232.714 186.293 232.39 186.103C232.066 185.913 231.702 185.818 231.3 185.818C230.897 185.818 230.534 185.913 230.209 186.103C229.885 186.293 229.628 186.55 229.438 186.874C229.248 187.199 229.152 187.562 229.152 187.965V191.94C229.152 192.343 229.248 192.707 229.438 193.031C229.628 193.355 229.885 193.612 230.209 193.802C230.534 193.993 230.897 194.088 231.3 194.088Z" fill="#E9E9E9"/>
<defs>
<filter id="filter0_d_32_721" x="248" y="133" width="30" height="30" filterUnits="userSpaceOnUse" color-interpolation-filters="sRGB">
<feFlood flood-opacity="0" result="BackgroundImageFix"/>
<feColorMatrix in="SourceAlpha" type="matrix" values="0 0 0 0 0 0 0 0 0 0 0 0 0 0 0 0 0 0 127 0" result="hardAlpha"/>
<feOffset dy="4"/>
<feGaussianBlur stdDeviation="2"/>
<feComposite in2="hardAlpha" operator="out"/>
<feColorMatrix type="matrix" values="0 0 0 0 0 0 0 0 0 0 0 0 0 0 0 0 0 0 0.1 0"/>
<feBlend mode="normal" in2="BackgroundImageFix" result="effect1_dropShadow_32_721"/>
<feBlend mode="normal" in="SourceGraphic" in2="effect1_dropShadow_32_721" result="shape"/>
</filter>
<linearGradient id="paint0_linear_32_721" x1="396.5" y1="-587.5" x2="396.5" y2="346.5" gradientUnits="userSpaceOnUse">
<stop stop-color="#46B49E"/>
<stop offset="1" stop-color="#46B49E" stop-opacity="0"/>
</linearGradient>
</defs>
</svg>
