<svg width="79" height="34" viewBox="0 0 79 34" fill="none" xmlns="http://www.w3.org/2000/svg">
<g id="Group 6">
<g id="Group 3">
<path id="Vector 9" d="M0.5 30.0296C0.5 30.0296 2.5 28.0296 3.5 27.0296C4.5 26.0296 8.5 27.0296 9.5 27.0296C10.5 27.0296 11.5 24.5296 13 24.5296C14.5 24.5296 17.2203 26.349 20 24.5296C22.7797 22.7102 23.5 22.5296 26 22.5296C28.5 22.5296 29 20.0296 30.5 20.0296C32 20.0296 32.5 23.5296 33.5 24.5296C34.5 25.5296 38.5 23.5296 39.5 24.5296C40.5 25.5296 40.5 27.0296 41.5 27.0296C42.5 27.0296 44.5 24.5296 44.5 24.5296L46 20.0296C46 20.0296 45 16.0296 46 15.0296C47 14.0296 53 10.5296 53 8.5296C53 6.5296 52.4969 4.67419 53 3.5296C53.5031 2.38501 54.5 1.5296 55 1.0296C55.5 0.5296 57.5 6.5296 59 6.5296C60.5 6.5296 60 3.5296 61.5 3.5296C63 3.5296 63.5118 8.08242 65 8.5296C66.4882 8.97678 68.5 5.0296 70 5.0296C71.5 5.0296 78.5 10.0296 78.5 10.0296" stroke="#3DA864" stroke-linecap="round"/>
<path id="Vector 10" d="M3.5 27.0296C2.5 28.0296 0 30 0 30V34H79V10C79 10 71.5 5.0296 70 5.0296C68.5 5.0296 66.4882 8.97678 65 8.5296C63.5118 8.08242 63 3.5296 61.5 3.5296C60 3.5296 60.5 6.5296 59 6.5296C57.5 6.5296 55.5 0.5296 55 1.0296C54.5 1.5296 53.5031 2.38501 53 3.5296C52.4969 4.67419 53 6.5296 53 8.5296C53 10.5296 47 14.0296 46 15.0296C45 16.0296 46 20.0296 46 20.0296L44.5 24.5296C44.5 24.5296 42.5 27.0296 41.5 27.0296C40.5 27.0296 40.5 25.5296 39.5 24.5296C38.5 23.5296 34.5 25.5296 33.5 24.5296C32.5 23.5296 32 20.0296 30.5 20.0296C29 20.0296 28.5 22.5296 26 22.5296C23.5 22.5296 22.7797 22.7102 20 24.5296C17.2203 26.349 14.5 24.5296 13 24.5296C11.5 24.5296 10.5 27.0296 9.5 27.0296C8.5 27.0296 4.5 26.0296 3.5 27.0296Z" fill="url(#paint0_linear_496_138684)"/>
</g>
</g>
<defs>
<linearGradient id="paint0_linear_496_138684" x1="39.5" y1="-38" x2="39.5" y2="34" gradientUnits="userSpaceOnUse">
<stop stop-color="#3DA864"/>
<stop offset="1" stop-color="#3DA864" stop-opacity="0"/>
</linearGradient>
</defs>
</svg>
