<svg width="80" height="36" viewBox="0 0 80 36" fill="none" xmlns="http://www.w3.org/2000/svg">
<g id="Group 2">
<path id="Vector 5" d="M0.5 9C0.5 9 9 4 10.5 4C12 4 15.5 8.5 16 8C16.5 7.5 18 4 19 4C20 4 20.5 6.5 21.5 5.5C22.5 4.5 24.5 0.5 25.5 0.5C26.5 0.5 26.3165 5.97711 28 9C29.3503 11.4246 31.1539 12.0731 32.5 14.5C34.3608 17.8548 33.5 22.5 35 24C36.5 25.5 37.5 26.5 38.5 26.5C39.5 26.5 39.9278 25.3829 41 25C42.8389 24.3433 44.2595 25.885 46 25C47.8827 24.0427 47.7852 20.5 49 20.5C50.2148 20.5 52.5 22.5 52.5 22.5C52.5 22.5 54 24 55.5 22.5C57 21 59.3626 26.2353 62.5 26.5C64.9067 26.7031 66.1156 24.6154 68.5 25C69.9681 25.2368 70.5486 26.1761 72 26.5C73.7152 26.8827 74.8847 25.8077 76.5 26.5C78.0229 27.1527 79.5 29.5 79.5 29.5" stroke="#D34645" stroke-linecap="round"/>
<path id="Vector 6" d="M10.5 4C9 4 0 9 0 9L0.5 35.5H80V29.5C80 29.5 78.0229 27.1527 76.5 26.5C74.8847 25.8077 73.7152 26.8827 72 26.5C70.5486 26.1761 69.9681 25.2368 68.5 25C66.1156 24.6154 64.9067 26.7031 62.5 26.5C59.3626 26.2353 57 21 55.5 22.5C54 24 52.5 22.5 52.5 22.5C52.5 22.5 50.2148 20.5 49 20.5C47.7852 20.5 47.8827 24.0427 46 25C44.2595 25.885 42.8389 24.3433 41 25C39.9278 25.3829 39.5 26.5 38.5 26.5C37.5 26.5 36.5 25.5 35 24C33.5 22.5 34.3608 17.8548 32.5 14.5C31.1539 12.0731 29.3503 11.4246 28 9C26.3165 5.97711 26.5 0.5 25.5 0.5C24.5 0.5 22.5 4.5 21.5 5.5C20.5 6.5 20 4 19 4C18 4 16.5 7.5 16 8C15.5 8.5 12 4 10.5 4Z" fill="url(#paint0_linear_131_49100)"/>
</g>
<defs>
<linearGradient id="paint0_linear_131_49100" x1="40.5" y1="-22" x2="40" y2="35.5" gradientUnits="userSpaceOnUse">
<stop stop-color="#D34645"/>
<stop offset="1" stop-color="#D34645" stop-opacity="0"/>
</linearGradient>
</defs>
</svg>
