<svg width="528" height="500" viewBox="0 0 528 500" fill="none" xmlns="http://www.w3.org/2000/svg">
<g clip-path="url(#clip0_131_49225)">
<path d="M28 268C28 235.17 34.4664 202.661 47.0301 172.329C59.5938 141.998 78.0086 114.438 101.223 91.2233C124.438 68.0087 151.998 49.5938 182.329 37.0302C212.661 24.4665 245.17 18 278 18C310.831 18 343.339 24.4665 373.671 37.0302C404.002 49.5939 431.562 68.0087 454.777 91.2234C477.991 114.438 496.406 141.998 508.97 172.329C521.534 202.661 528 235.17 528 268L428.317 268C428.317 248.26 424.429 228.714 416.875 210.476C409.32 192.239 398.248 175.668 384.29 161.71C370.332 147.752 353.761 136.68 335.524 129.126C317.286 121.571 297.74 117.683 278 117.683C258.26 117.683 238.714 121.571 220.476 129.126C202.239 136.68 185.668 147.752 171.71 161.71C157.752 175.668 146.68 192.239 139.125 210.476C131.571 228.714 127.683 248.26 127.683 268L28 268Z" fill="#F9C74F"/>
<path d="M28 268C28 213.618 45.7322 160.72 78.508 117.325C111.284 73.9303 157.315 42.4062 209.623 27.5325C261.932 12.6588 317.663 15.2468 368.368 34.9041C419.072 54.5614 461.984 90.2159 490.597 136.461L405.828 188.91C388.624 161.104 362.822 139.667 332.335 127.847C301.848 116.028 268.339 114.472 236.887 123.415C205.436 132.358 177.759 151.312 158.052 177.404C138.345 203.496 127.683 235.302 127.683 268L28 268Z" fill="#90BE6D"/>
<path d="M28 268C28 225.459 38.8557 183.621 59.5398 146.447C80.2239 109.273 110.052 77.9914 146.201 55.5639C182.351 33.1364 223.625 20.3044 266.118 18.2826C308.611 16.2607 350.918 25.1157 389.033 44.0096L344.76 133.322C321.843 121.962 296.406 116.638 270.856 117.853C245.306 119.069 220.489 126.784 198.754 140.269C177.019 153.754 159.084 172.563 146.647 194.914C134.211 217.266 127.683 242.421 127.683 268L28 268Z" fill="#F94144"/>
<path d="M28 268C28 229.16 37.0497 190.854 54.4315 156.12C71.8132 121.386 97.0489 91.1802 128.137 67.8973C159.225 44.6145 195.311 28.8954 233.531 21.9867C271.752 15.0781 311.057 17.1698 348.329 28.0961L320.286 123.754C297.876 117.184 274.243 115.926 251.262 120.08C228.282 124.234 206.585 133.686 187.892 147.685C169.2 161.684 154.027 179.846 143.576 200.73C133.125 221.615 127.683 244.647 127.683 268L28 268Z" fill="#F3722C"/>
<path d="M28 268C28 226.103 38.5297 184.878 58.6215 148.112L146.095 195.915C134.014 218.021 127.683 242.809 127.683 268L28 268Z" fill="#0000FF"/>
<path d="M453.7 211.993L453.707 210.691L458.096 206.757C458.451 206.444 458.691 206.146 458.817 205.861C458.948 205.576 459.013 205.292 459.013 205.007C459.013 204.648 458.934 204.326 458.775 204.041C458.616 203.752 458.397 203.523 458.117 203.355C457.837 203.187 457.515 203.103 457.151 203.103C456.778 203.103 456.444 203.192 456.15 203.369C455.861 203.542 455.634 203.773 455.471 204.062C455.308 204.351 455.228 204.664 455.233 205H453.735C453.735 204.347 453.882 203.775 454.176 203.285C454.475 202.79 454.883 202.405 455.401 202.13C455.919 201.85 456.512 201.71 457.179 201.71C457.814 201.71 458.383 201.855 458.887 202.144C459.391 202.429 459.788 202.821 460.077 203.32C460.371 203.819 460.518 204.389 460.518 205.028C460.518 205.49 460.457 205.882 460.336 206.204C460.215 206.526 460.033 206.825 459.79 207.1C459.547 207.375 459.244 207.674 458.88 207.996L455.492 211.02L455.331 210.6H460.518V211.993H453.7ZM465.186 212.21C464.668 212.21 464.185 212.105 463.737 211.895C463.293 211.68 462.913 211.386 462.596 211.013C462.278 210.635 462.052 210.201 461.917 209.711L463.324 209.333C463.403 209.632 463.538 209.891 463.73 210.11C463.926 210.329 464.154 210.5 464.416 210.621C464.677 210.738 464.948 210.796 465.228 210.796C465.596 210.796 465.93 210.707 466.229 210.53C466.532 210.353 466.77 210.115 466.943 209.816C467.12 209.517 467.209 209.188 467.209 208.829C467.209 208.46 467.118 208.127 466.936 207.828C466.758 207.529 466.518 207.294 466.215 207.121C465.916 206.944 465.587 206.855 465.228 206.855C464.817 206.855 464.469 206.937 464.185 207.1C463.9 207.263 463.678 207.452 463.52 207.667L462.246 207.219L462.554 201.92H467.993V203.299H463.303L463.898 202.746L463.653 206.715L463.366 206.344C463.632 206.078 463.949 205.875 464.318 205.735C464.686 205.595 465.053 205.525 465.417 205.525C466.042 205.525 466.6 205.67 467.09 205.959C467.584 206.248 467.974 206.643 468.259 207.142C468.543 207.637 468.686 208.199 468.686 208.829C468.686 209.454 468.525 210.024 468.203 210.537C467.881 211.046 467.454 211.452 466.922 211.755C466.39 212.058 465.811 212.21 465.186 212.21ZM471.619 212L470.639 211.02L479.746 201.92L480.726 202.907L471.619 212ZM478.626 212.21C478.164 212.21 477.742 212.098 477.359 211.874C476.981 211.645 476.678 211.342 476.449 210.964C476.22 210.581 476.106 210.157 476.106 209.69C476.106 209.233 476.223 208.813 476.456 208.43C476.689 208.047 476.997 207.742 477.38 207.513C477.763 207.284 478.178 207.17 478.626 207.17C479.088 207.17 479.51 207.284 479.893 207.513C480.276 207.737 480.579 208.04 480.803 208.423C481.032 208.801 481.146 209.223 481.146 209.69C481.146 210.157 481.032 210.581 480.803 210.964C480.579 211.342 480.276 211.645 479.893 211.874C479.51 212.098 479.088 212.21 478.626 212.21ZM478.626 210.943C478.855 210.943 479.062 210.887 479.249 210.775C479.44 210.658 479.592 210.504 479.704 210.313C479.821 210.122 479.879 209.914 479.879 209.69C479.879 209.466 479.821 209.258 479.704 209.067C479.592 208.876 479.44 208.724 479.249 208.612C479.062 208.495 478.855 208.437 478.626 208.437C478.402 208.437 478.194 208.495 478.003 208.612C477.816 208.724 477.665 208.876 477.548 209.067C477.436 209.258 477.38 209.466 477.38 209.69C477.38 209.914 477.436 210.122 477.548 210.313C477.665 210.504 477.816 210.658 478.003 210.775C478.194 210.887 478.402 210.943 478.626 210.943ZM472.739 206.75C472.277 206.75 471.855 206.638 471.472 206.414C471.089 206.185 470.784 205.882 470.555 205.504C470.331 205.121 470.219 204.697 470.219 204.23C470.219 203.773 470.336 203.353 470.569 202.97C470.802 202.587 471.11 202.282 471.493 202.053C471.876 201.824 472.291 201.71 472.739 201.71C473.201 201.71 473.621 201.824 473.999 202.053C474.382 202.277 474.687 202.58 474.916 202.963C475.145 203.341 475.259 203.763 475.259 204.23C475.259 204.697 475.145 205.121 474.916 205.504C474.687 205.882 474.382 206.185 473.999 206.414C473.621 206.638 473.201 206.75 472.739 206.75ZM472.739 205.483C472.963 205.483 473.171 205.427 473.362 205.315C473.553 205.198 473.705 205.044 473.817 204.853C473.934 204.662 473.992 204.454 473.992 204.23C473.992 204.006 473.934 203.798 473.817 203.607C473.705 203.416 473.553 203.264 473.362 203.152C473.171 203.035 472.963 202.977 472.739 202.977C472.515 202.977 472.307 203.035 472.116 203.152C471.929 203.264 471.778 203.416 471.661 203.607C471.544 203.798 471.486 204.006 471.486 204.23C471.486 204.454 471.544 204.662 471.661 204.853C471.778 205.044 471.929 205.198 472.116 205.315C472.303 205.427 472.51 205.483 472.739 205.483Z" fill="white"/>
<path d="M69.058 226.431V217.961L67.161 219.116V217.485L69.058 216.351H70.549V226.431H69.058ZM76.1963 226.641C75.6783 226.641 75.1953 226.536 74.7473 226.326C74.304 226.111 73.9236 225.817 73.6063 225.444C73.289 225.066 73.0626 224.632 72.9273 224.142L74.3343 223.764C74.4136 224.062 74.549 224.321 74.7403 224.541C74.9363 224.76 75.165 224.93 75.4263 225.052C75.6876 225.168 75.9583 225.227 76.2383 225.227C76.607 225.227 76.9406 225.138 77.2393 224.961C77.5426 224.783 77.7806 224.545 77.9533 224.247C78.1306 223.948 78.2193 223.619 78.2193 223.26C78.2193 222.891 78.1283 222.557 77.9463 222.259C77.769 221.96 77.5286 221.724 77.2253 221.552C76.9266 221.374 76.5976 221.286 76.2383 221.286C75.8276 221.286 75.48 221.367 75.1953 221.531C74.9106 221.694 74.689 221.883 74.5303 222.098L73.2563 221.65L73.5643 216.351H79.0033V217.73H74.3133L74.9083 217.177L74.6633 221.146L74.3763 220.775C74.6423 220.509 74.9596 220.306 75.3283 220.166C75.697 220.026 76.0633 219.956 76.4273 219.956C77.0526 219.956 77.6103 220.1 78.1003 220.39C78.595 220.679 78.9846 221.073 79.2693 221.573C79.554 222.067 79.6963 222.63 79.6963 223.26C79.6963 223.885 79.5353 224.454 79.2133 224.968C78.8913 225.476 78.4643 225.882 77.9323 226.186C77.4003 226.489 76.8216 226.641 76.1963 226.641ZM82.6294 226.431L81.6494 225.451L90.7564 216.351L91.7364 217.338L82.6294 226.431ZM89.6364 226.641C89.1744 226.641 88.7521 226.529 88.3694 226.305C87.9914 226.076 87.6881 225.773 87.4594 225.395C87.2307 225.012 87.1164 224.587 87.1164 224.121C87.1164 223.663 87.2331 223.243 87.4664 222.861C87.6997 222.478 88.0077 222.172 88.3904 221.944C88.7731 221.715 89.1884 221.601 89.6364 221.601C90.0984 221.601 90.5207 221.715 90.9034 221.944C91.2861 222.168 91.5894 222.471 91.8134 222.854C92.0421 223.232 92.1564 223.654 92.1564 224.121C92.1564 224.587 92.0421 225.012 91.8134 225.395C91.5894 225.773 91.2861 226.076 90.9034 226.305C90.5207 226.529 90.0984 226.641 89.6364 226.641ZM89.6364 225.374C89.8651 225.374 90.0727 225.318 90.2594 225.206C90.4507 225.089 90.6024 224.935 90.7144 224.744C90.8311 224.552 90.8894 224.345 90.8894 224.121C90.8894 223.897 90.8311 223.689 90.7144 223.498C90.6024 223.306 90.4507 223.155 90.2594 223.043C90.0727 222.926 89.8651 222.868 89.6364 222.868C89.4124 222.868 89.2047 222.926 89.0134 223.043C88.8267 223.155 88.6751 223.306 88.5584 223.498C88.4464 223.689 88.3904 223.897 88.3904 224.121C88.3904 224.345 88.4464 224.552 88.5584 224.744C88.6751 224.935 88.8267 225.089 89.0134 225.206C89.2047 225.318 89.4124 225.374 89.6364 225.374ZM83.7494 221.181C83.2874 221.181 82.8651 221.069 82.4824 220.845C82.0997 220.616 81.7941 220.313 81.5654 219.935C81.3414 219.552 81.2294 219.127 81.2294 218.661C81.2294 218.203 81.3461 217.783 81.5794 217.401C81.8127 217.018 82.1207 216.712 82.5034 216.484C82.8861 216.255 83.3014 216.141 83.7494 216.141C84.2114 216.141 84.6314 216.255 85.0094 216.484C85.3921 216.708 85.6977 217.011 85.9264 217.394C86.1551 217.772 86.2694 218.194 86.2694 218.661C86.2694 219.127 86.1551 219.552 85.9264 219.935C85.6977 220.313 85.3921 220.616 85.0094 220.845C84.6314 221.069 84.2114 221.181 83.7494 221.181ZM83.7494 219.914C83.9734 219.914 84.1811 219.858 84.3724 219.746C84.5637 219.629 84.7154 219.475 84.8274 219.284C84.9441 219.092 85.0024 218.885 85.0024 218.661C85.0024 218.437 84.9441 218.229 84.8274 218.038C84.7154 217.846 84.5637 217.695 84.3724 217.583C84.1811 217.466 83.9734 217.408 83.7494 217.408C83.5254 217.408 83.3177 217.466 83.1264 217.583C82.9397 217.695 82.7881 217.846 82.6714 218.038C82.5547 218.229 82.4964 218.437 82.4964 218.661C82.4964 218.885 82.5547 219.092 82.6714 219.284C82.7881 219.475 82.9397 219.629 83.1264 219.746C83.3131 219.858 83.5207 219.914 83.7494 219.914Z" fill="white"/>
<path d="M195.801 86.189C195.302 86.189 194.833 86.0957 194.394 85.909C193.955 85.7177 193.575 85.447 193.253 85.097C192.936 84.747 192.705 84.334 192.56 83.858L193.974 83.466C194.109 83.9 194.345 84.2337 194.681 84.467C195.017 84.6957 195.39 84.8077 195.801 84.803C196.17 84.7983 196.494 84.712 196.774 84.544C197.054 84.376 197.273 84.1497 197.432 83.865C197.591 83.5757 197.67 83.2443 197.67 82.871C197.67 82.311 197.495 81.849 197.145 81.485C196.8 81.121 196.347 80.939 195.787 80.939C195.628 80.939 195.465 80.9623 195.297 81.009C195.134 81.0557 194.98 81.1163 194.835 81.191L194.149 80.036L197.705 76.893L197.859 77.313H192.959V75.92H199.021V77.313L196.067 80.155L196.053 79.679C196.688 79.679 197.238 79.8213 197.705 80.106C198.172 80.386 198.531 80.7687 198.783 81.254C199.04 81.7347 199.168 82.2737 199.168 82.871C199.168 83.515 199.016 84.0867 198.713 84.586C198.414 85.0853 198.011 85.4773 197.502 85.762C196.998 86.0467 196.431 86.189 195.801 86.189ZM204.506 86.21C203.82 86.21 203.213 86.0607 202.686 85.762C202.158 85.4587 201.743 85.0433 201.44 84.516C201.141 83.9887 200.992 83.382 200.992 82.696V79.224C200.992 78.538 201.141 77.9313 201.44 77.404C201.743 76.8767 202.158 76.4637 202.686 76.165C203.213 75.8617 203.82 75.71 204.506 75.71C205.192 75.71 205.798 75.8617 206.326 76.165C206.853 76.4637 207.266 76.8767 207.565 77.404C207.868 77.9313 208.02 78.538 208.02 79.224V82.696C208.02 83.382 207.868 83.9887 207.565 84.516C207.266 85.0433 206.853 85.4587 206.326 85.762C205.798 86.0607 205.192 86.21 204.506 86.21ZM204.506 84.81C204.879 84.81 205.217 84.7213 205.521 84.544C205.829 84.362 206.074 84.1193 206.256 83.816C206.438 83.508 206.529 83.165 206.529 82.787V79.119C206.529 78.7457 206.438 78.4073 206.256 78.104C206.074 77.796 205.829 77.5533 205.521 77.376C205.217 77.194 204.879 77.103 204.506 77.103C204.132 77.103 203.792 77.194 203.484 77.376C203.18 77.5533 202.938 77.796 202.756 78.104C202.574 78.4073 202.483 78.7457 202.483 79.119V82.787C202.483 83.165 202.574 83.508 202.756 83.816C202.938 84.1193 203.18 84.362 203.484 84.544C203.792 84.7213 204.132 84.81 204.506 84.81ZM211.234 86L210.254 85.02L219.361 75.92L220.341 76.907L211.234 86ZM218.241 86.21C217.779 86.21 217.357 86.098 216.974 85.874C216.596 85.6453 216.293 85.342 216.064 84.964C215.835 84.5813 215.721 84.1567 215.721 83.69C215.721 83.2327 215.838 82.8127 216.071 82.43C216.304 82.0473 216.612 81.7417 216.995 81.513C217.378 81.2843 217.793 81.17 218.241 81.17C218.703 81.17 219.125 81.2843 219.508 81.513C219.891 81.737 220.194 82.0403 220.418 82.423C220.647 82.801 220.761 83.2233 220.761 83.69C220.761 84.1567 220.647 84.5813 220.418 84.964C220.194 85.342 219.891 85.6453 219.508 85.874C219.125 86.098 218.703 86.21 218.241 86.21ZM218.241 84.943C218.47 84.943 218.677 84.887 218.864 84.775C219.055 84.6583 219.207 84.5043 219.319 84.313C219.436 84.1217 219.494 83.914 219.494 83.69C219.494 83.466 219.436 83.2583 219.319 83.067C219.207 82.8757 219.055 82.724 218.864 82.612C218.677 82.4953 218.47 82.437 218.241 82.437C218.017 82.437 217.809 82.4953 217.618 82.612C217.431 82.724 217.28 82.8757 217.163 83.067C217.051 83.2583 216.995 83.466 216.995 83.69C216.995 83.914 217.051 84.1217 217.163 84.313C217.28 84.5043 217.431 84.6583 217.618 84.775C217.809 84.887 218.017 84.943 218.241 84.943ZM212.354 80.75C211.892 80.75 211.47 80.638 211.087 80.414C210.704 80.1853 210.399 79.882 210.17 79.504C209.946 79.1213 209.834 78.6967 209.834 78.23C209.834 77.7727 209.951 77.3527 210.184 76.97C210.417 76.5873 210.725 76.2817 211.108 76.053C211.491 75.8243 211.906 75.71 212.354 75.71C212.816 75.71 213.236 75.8243 213.614 76.053C213.997 76.277 214.302 76.5803 214.531 76.963C214.76 77.341 214.874 77.7633 214.874 78.23C214.874 78.6967 214.76 79.1213 214.531 79.504C214.302 79.882 213.997 80.1853 213.614 80.414C213.236 80.638 212.816 80.75 212.354 80.75ZM212.354 79.483C212.578 79.483 212.786 79.427 212.977 79.315C213.168 79.1983 213.32 79.0443 213.432 78.853C213.549 78.6617 213.607 78.454 213.607 78.23C213.607 78.006 213.549 77.7983 213.432 77.607C213.32 77.4157 213.168 77.264 212.977 77.152C212.786 77.0353 212.578 76.977 212.354 76.977C212.13 76.977 211.922 77.0353 211.731 77.152C211.544 77.264 211.393 77.4157 211.276 77.607C211.159 77.7983 211.101 78.006 211.101 78.23C211.101 78.454 211.159 78.6617 211.276 78.853C211.393 79.0443 211.544 79.1983 211.731 79.315C211.918 79.427 212.125 79.483 212.354 79.483Z" fill="white"/>
<path d="M342.867 87.8814C342.349 87.8814 341.866 87.7764 341.418 87.5664C340.974 87.3518 340.594 87.0578 340.277 86.6844C339.959 86.3064 339.733 85.8724 339.598 85.3824L341.005 85.0044C341.084 85.3031 341.219 85.5621 341.411 85.7814C341.607 86.0008 341.835 86.1711 342.097 86.2924C342.358 86.4091 342.629 86.4674 342.909 86.4674C343.277 86.4674 343.611 86.3788 343.91 86.2014C344.213 86.0241 344.451 85.7861 344.624 85.4874C344.801 85.1888 344.89 84.8598 344.89 84.5004C344.89 84.1318 344.799 83.7981 344.617 83.4994C344.439 83.2008 344.199 82.9651 343.896 82.7924C343.597 82.6151 343.268 82.5264 342.909 82.5264C342.498 82.5264 342.15 82.6081 341.866 82.7714C341.581 82.9348 341.359 83.1238 341.201 83.3384L339.927 82.8904L340.235 77.5914H345.674V78.9704H340.984L341.579 78.4174L341.334 82.3864L341.047 82.0154C341.313 81.7494 341.63 81.5464 341.999 81.4064C342.367 81.2664 342.734 81.1964 343.098 81.1964C343.723 81.1964 344.281 81.3411 344.771 81.6304C345.265 81.9198 345.655 82.3141 345.94 82.8134C346.224 83.3081 346.367 83.8704 346.367 84.5004C346.367 85.1258 346.206 85.6951 345.884 86.2084C345.562 86.7171 345.135 87.1231 344.603 87.4264C344.071 87.7298 343.492 87.8814 342.867 87.8814ZM349.3 87.6714L348.32 86.6914L357.427 77.5914L358.407 78.5784L349.3 87.6714ZM356.307 87.8814C355.845 87.8814 355.422 87.7694 355.04 87.5454C354.662 87.3168 354.358 87.0134 354.13 86.6354C353.901 86.2528 353.787 85.8281 353.787 85.3614C353.787 84.9041 353.903 84.4841 354.137 84.1014C354.37 83.7188 354.678 83.4131 355.061 83.1844C355.443 82.9558 355.859 82.8414 356.307 82.8414C356.769 82.8414 357.191 82.9558 357.574 83.1844C357.956 83.4084 358.26 83.7118 358.484 84.0944C358.712 84.4724 358.827 84.8948 358.827 85.3614C358.827 85.8281 358.712 86.2528 358.484 86.6354C358.26 87.0134 357.956 87.3168 357.574 87.5454C357.191 87.7694 356.769 87.8814 356.307 87.8814ZM356.307 86.6144C356.535 86.6144 356.743 86.5584 356.93 86.4464C357.121 86.3298 357.273 86.1758 357.385 85.9844C357.501 85.7931 357.56 85.5854 357.56 85.3614C357.56 85.1374 357.501 84.9298 357.385 84.7384C357.273 84.5471 357.121 84.3954 356.93 84.2834C356.743 84.1668 356.535 84.1084 356.307 84.1084C356.083 84.1084 355.875 84.1668 355.684 84.2834C355.497 84.3954 355.345 84.5471 355.229 84.7384C355.117 84.9298 355.061 85.1374 355.061 85.3614C355.061 85.5854 355.117 85.7931 355.229 85.9844C355.345 86.1758 355.497 86.3298 355.684 86.4464C355.875 86.5584 356.083 86.6144 356.307 86.6144ZM350.42 82.4214C349.958 82.4214 349.535 82.3094 349.153 82.0854C348.77 81.8568 348.464 81.5534 348.236 81.1754C348.012 80.7928 347.9 80.3681 347.9 79.9014C347.9 79.4441 348.016 79.0241 348.25 78.6414C348.483 78.2588 348.791 77.9531 349.174 77.7244C349.556 77.4958 349.972 77.3814 350.42 77.3814C350.882 77.3814 351.302 77.4958 351.68 77.7244C352.062 77.9484 352.368 78.2518 352.597 78.6344C352.825 79.0124 352.94 79.4348 352.94 79.9014C352.94 80.3681 352.825 80.7928 352.597 81.1754C352.368 81.5534 352.062 81.8568 351.68 82.0854C351.302 82.3094 350.882 82.4214 350.42 82.4214ZM350.42 81.1544C350.644 81.1544 350.851 81.0984 351.043 80.9864C351.234 80.8698 351.386 80.7158 351.498 80.5244C351.614 80.3331 351.673 80.1254 351.673 79.9014C351.673 79.6774 351.614 79.4698 351.498 79.2784C351.386 79.0871 351.234 78.9354 351.043 78.8234C350.851 78.7068 350.644 78.6484 350.42 78.6484C350.196 78.6484 349.988 78.7068 349.797 78.8234C349.61 78.9354 349.458 79.0871 349.342 79.2784C349.225 79.4698 349.167 79.6774 349.167 79.9014C349.167 80.1254 349.225 80.3331 349.342 80.5244C349.458 80.7158 349.61 80.8698 349.797 80.9864C349.983 81.0984 350.191 81.1544 350.42 81.1544Z" fill="white"/>
<path d="M394.7 118.993L394.707 117.691L399.096 113.757C399.451 113.444 399.691 113.146 399.817 112.861C399.948 112.576 400.013 112.292 400.013 112.007C400.013 111.648 399.934 111.326 399.775 111.041C399.616 110.752 399.397 110.523 399.117 110.355C398.837 110.187 398.515 110.103 398.151 110.103C397.778 110.103 397.444 110.192 397.15 110.369C396.861 110.542 396.634 110.773 396.471 111.062C396.308 111.351 396.228 111.664 396.233 112H394.735C394.735 111.347 394.882 110.775 395.176 110.285C395.475 109.79 395.883 109.405 396.401 109.13C396.919 108.85 397.512 108.71 398.179 108.71C398.814 108.71 399.383 108.855 399.887 109.144C400.391 109.429 400.788 109.821 401.077 110.32C401.371 110.819 401.518 111.389 401.518 112.028C401.518 112.49 401.457 112.882 401.336 113.204C401.215 113.526 401.033 113.825 400.79 114.1C400.547 114.375 400.244 114.674 399.88 114.996L396.492 118.02L396.331 117.6H401.518V118.993H394.7ZM406.186 119.21C405.668 119.21 405.185 119.105 404.737 118.895C404.293 118.68 403.913 118.386 403.596 118.013C403.278 117.635 403.052 117.201 402.917 116.711L404.324 116.333C404.403 116.632 404.538 116.891 404.73 117.11C404.926 117.329 405.154 117.5 405.416 117.621C405.677 117.738 405.948 117.796 406.228 117.796C406.596 117.796 406.93 117.707 407.229 117.53C407.532 117.353 407.77 117.115 407.943 116.816C408.12 116.517 408.209 116.188 408.209 115.829C408.209 115.46 408.118 115.127 407.936 114.828C407.758 114.529 407.518 114.294 407.215 114.121C406.916 113.944 406.587 113.855 406.228 113.855C405.817 113.855 405.469 113.937 405.185 114.1C404.9 114.263 404.678 114.452 404.52 114.667L403.246 114.219L403.554 108.92H408.993V110.299H404.303L404.898 109.746L404.653 113.715L404.366 113.344C404.632 113.078 404.949 112.875 405.318 112.735C405.686 112.595 406.053 112.525 406.417 112.525C407.042 112.525 407.6 112.67 408.09 112.959C408.584 113.248 408.974 113.643 409.259 114.142C409.543 114.637 409.686 115.199 409.686 115.829C409.686 116.454 409.525 117.024 409.203 117.537C408.881 118.046 408.454 118.452 407.922 118.755C407.39 119.058 406.811 119.21 406.186 119.21ZM412.619 119L411.639 118.02L420.746 108.92L421.726 109.907L412.619 119ZM419.626 119.21C419.164 119.21 418.742 119.098 418.359 118.874C417.981 118.645 417.678 118.342 417.449 117.964C417.22 117.581 417.106 117.157 417.106 116.69C417.106 116.233 417.223 115.813 417.456 115.43C417.689 115.047 417.997 114.742 418.38 114.513C418.763 114.284 419.178 114.17 419.626 114.17C420.088 114.17 420.51 114.284 420.893 114.513C421.276 114.737 421.579 115.04 421.803 115.423C422.032 115.801 422.146 116.223 422.146 116.69C422.146 117.157 422.032 117.581 421.803 117.964C421.579 118.342 421.276 118.645 420.893 118.874C420.51 119.098 420.088 119.21 419.626 119.21ZM419.626 117.943C419.855 117.943 420.062 117.887 420.249 117.775C420.44 117.658 420.592 117.504 420.704 117.313C420.821 117.122 420.879 116.914 420.879 116.69C420.879 116.466 420.821 116.258 420.704 116.067C420.592 115.876 420.44 115.724 420.249 115.612C420.062 115.495 419.855 115.437 419.626 115.437C419.402 115.437 419.194 115.495 419.003 115.612C418.816 115.724 418.665 115.876 418.548 116.067C418.436 116.258 418.38 116.466 418.38 116.69C418.38 116.914 418.436 117.122 418.548 117.313C418.665 117.504 418.816 117.658 419.003 117.775C419.194 117.887 419.402 117.943 419.626 117.943ZM413.739 113.75C413.277 113.75 412.855 113.638 412.472 113.414C412.089 113.185 411.784 112.882 411.555 112.504C411.331 112.121 411.219 111.697 411.219 111.23C411.219 110.773 411.336 110.353 411.569 109.97C411.802 109.587 412.11 109.282 412.493 109.053C412.876 108.824 413.291 108.71 413.739 108.71C414.201 108.71 414.621 108.824 414.999 109.053C415.382 109.277 415.687 109.58 415.916 109.963C416.145 110.341 416.259 110.763 416.259 111.23C416.259 111.697 416.145 112.121 415.916 112.504C415.687 112.882 415.382 113.185 414.999 113.414C414.621 113.638 414.201 113.75 413.739 113.75ZM413.739 112.483C413.963 112.483 414.171 112.427 414.362 112.315C414.553 112.198 414.705 112.044 414.817 111.853C414.934 111.662 414.992 111.454 414.992 111.23C414.992 111.006 414.934 110.798 414.817 110.607C414.705 110.416 414.553 110.264 414.362 110.152C414.171 110.035 413.963 109.977 413.739 109.977C413.515 109.977 413.307 110.035 413.116 110.152C412.929 110.264 412.778 110.416 412.661 110.607C412.544 110.798 412.486 111.006 412.486 111.23C412.486 111.454 412.544 111.662 412.661 111.853C412.778 112.044 412.929 112.198 413.116 112.315C413.303 112.427 413.51 112.483 413.739 112.483Z" fill="white"/>
<ellipse cx="41.0665" cy="369.459" rx="6.06646" ry="6.06646" fill="#0000FF"/>
<path d="M58.4329 374L62.1529 363.2H63.6154L67.3354 374H66.1879L62.6554 363.815H63.0904L59.5804 374H58.4329ZM60.0904 371.382V370.347H65.6704V371.382H60.0904ZM68.4964 374L72.2164 363.2H73.6789L77.3989 374H76.2514L72.7189 363.815H73.1539L69.6439 374H68.4964ZM70.1539 371.382V370.347H75.7339V371.382H70.1539ZM78.7532 374V363.2H82.9232C83.0282 363.2 83.1457 363.205 83.2757 363.215C83.4107 363.22 83.5457 363.235 83.6807 363.26C84.2457 363.345 84.7232 363.542 85.1132 363.852C85.5082 364.157 85.8057 364.542 86.0057 365.007C86.2107 365.472 86.3132 365.987 86.3132 366.552C86.3132 367.112 86.2107 367.625 86.0057 368.09C85.8007 368.555 85.5007 368.942 85.1057 369.252C84.7157 369.557 84.2407 369.752 83.6807 369.837C83.5457 369.857 83.4107 369.872 83.2757 369.882C83.1457 369.892 83.0282 369.897 82.9232 369.897H79.8557V374H78.7532ZM79.8557 368.847H82.8932C82.9832 368.847 83.0882 368.842 83.2082 368.832C83.3282 368.822 83.4457 368.805 83.5607 368.78C83.9307 368.7 84.2332 368.547 84.4682 368.322C84.7082 368.097 84.8857 367.83 85.0007 367.52C85.1207 367.21 85.1807 366.887 85.1807 366.552C85.1807 366.217 85.1207 365.895 85.0007 365.585C84.8857 365.27 84.7082 365 84.4682 364.775C84.2332 364.55 83.9307 364.397 83.5607 364.317C83.4457 364.292 83.3282 364.277 83.2082 364.272C83.0882 364.262 82.9832 364.257 82.8932 364.257H79.8557V368.847ZM87.956 374V363.2H89.0585V372.942H94.1885V374H87.956Z" fill="black"/>
<ellipse cx="133.199" cy="369.459" rx="6.06646" ry="6.06646" fill="#F3722C"/>
<path d="M151.316 374V363.2H152.328L156.573 372.282L160.796 363.2H161.823V373.992H160.773V365.66L156.926 374H156.213L152.373 365.66V374H151.316ZM163.928 374V363.2H170.678V364.257H165.031V367.992H169.778V369.05H165.031V372.942H170.678V374H163.928ZM175.355 374V364.257H171.583V363.2H180.23V364.257H176.458V374H175.355ZM180.39 374L184.11 363.2H185.573L189.293 374H188.145L184.613 363.815H185.048L181.538 374H180.39ZM182.048 371.382V370.347H187.628V371.382H182.048Z" fill="black"/>
<ellipse cx="228.332" cy="369.459" rx="6.06646" ry="6.06646" fill="#F94144"/>
<path d="M246.449 374V363.2H247.461L251.706 372.282L255.929 363.2H256.956V373.992H255.906V365.66L252.059 374H251.346L247.506 365.66V374H246.449ZM262.811 374.225C262.056 374.225 261.376 374.1 260.771 373.85C260.171 373.595 259.673 373.235 259.278 372.77C258.888 372.305 258.633 371.752 258.513 371.112L259.638 370.925C259.818 371.625 260.198 372.175 260.778 372.575C261.358 372.97 262.051 373.167 262.856 373.167C263.386 373.167 263.861 373.085 264.281 372.92C264.701 372.75 265.031 372.51 265.271 372.2C265.511 371.89 265.631 371.522 265.631 371.097C265.631 370.817 265.581 370.58 265.481 370.385C265.381 370.185 265.248 370.02 265.083 369.89C264.918 369.76 264.738 369.652 264.543 369.567C264.348 369.477 264.158 369.405 263.973 369.35L261.236 368.532C260.906 368.437 260.601 368.317 260.321 368.172C260.041 368.022 259.796 367.845 259.586 367.64C259.381 367.43 259.221 367.185 259.106 366.905C258.991 366.625 258.933 366.305 258.933 365.945C258.933 365.335 259.093 364.807 259.413 364.362C259.733 363.917 260.171 363.575 260.726 363.335C261.281 363.095 261.913 362.977 262.623 362.982C263.343 362.982 263.986 363.11 264.551 363.365C265.121 363.62 265.591 363.985 265.961 364.46C266.331 364.93 266.576 365.487 266.696 366.132L265.541 366.342C265.466 365.872 265.293 365.465 265.023 365.12C264.753 364.775 264.408 364.51 263.988 364.325C263.573 364.135 263.116 364.037 262.616 364.032C262.131 364.032 261.698 364.115 261.318 364.28C260.943 364.44 260.646 364.66 260.426 364.94C260.206 365.22 260.096 365.54 260.096 365.9C260.096 366.265 260.196 366.557 260.396 366.777C260.601 366.997 260.851 367.17 261.146 367.295C261.446 367.42 261.736 367.522 262.016 367.602L264.131 368.225C264.351 368.285 264.608 368.372 264.903 368.487C265.203 368.597 265.493 368.757 265.773 368.967C266.058 369.172 266.293 369.442 266.478 369.777C266.663 370.112 266.756 370.537 266.756 371.052C266.756 371.552 266.656 372 266.456 372.395C266.261 372.79 265.983 373.122 265.623 373.392C265.268 373.662 264.851 373.867 264.371 374.008C263.896 374.153 263.376 374.225 262.811 374.225ZM268.304 374V363.2H274.507V364.302H269.407V368.052H273.607V369.147H269.407V374H268.304ZM278.735 374V364.257H274.963V363.2H283.61V364.257H279.838V374H278.735Z" fill="black"/>
<ellipse cx="322.465" cy="369.459" rx="6.06646" ry="6.06646" fill="#90BE6D"/>
<path d="M344.909 374.225C344.149 374.225 343.464 374.093 342.854 373.827C342.244 373.562 341.724 373.185 341.294 372.695C340.869 372.205 340.544 371.615 340.319 370.925C340.094 370.23 339.981 369.455 339.981 368.6C339.981 367.47 340.176 366.485 340.566 365.645C340.961 364.8 341.526 364.145 342.261 363.68C342.996 363.215 343.879 362.982 344.909 362.982C346.059 362.982 346.994 363.252 347.714 363.792C348.439 364.327 348.944 365.047 349.229 365.952L348.119 366.222C347.884 365.562 347.496 365.035 346.956 364.64C346.421 364.245 345.754 364.047 344.954 364.047C344.109 364.042 343.406 364.232 342.846 364.617C342.286 364.997 341.864 365.532 341.579 366.222C341.299 366.907 341.156 367.7 341.151 368.6C341.146 369.5 341.284 370.292 341.564 370.977C341.849 371.657 342.274 372.192 342.839 372.582C343.404 372.967 344.109 373.162 344.954 373.167C345.729 373.167 346.369 373.017 346.874 372.717C347.379 372.417 347.761 371.987 348.021 371.427C348.286 370.867 348.436 370.205 348.471 369.44H345.981V368.495H349.626C349.641 368.61 349.649 368.732 349.649 368.862C349.654 368.987 349.656 369.077 349.656 369.132C349.656 370.107 349.481 370.98 349.131 371.75C348.781 372.515 348.254 373.12 347.549 373.565C346.849 374.005 345.969 374.225 344.909 374.225ZM355.53 374.225C354.455 374.225 353.548 373.987 352.808 373.512C352.068 373.032 351.508 372.37 351.128 371.525C350.748 370.68 350.558 369.705 350.558 368.6C350.558 367.495 350.748 366.52 351.128 365.675C351.508 364.83 352.068 364.17 352.808 363.695C353.548 363.215 354.455 362.975 355.53 362.975C356.61 362.975 357.518 363.215 358.253 363.695C358.993 364.17 359.553 364.83 359.933 365.675C360.318 366.52 360.51 367.495 360.51 368.6C360.51 369.705 360.318 370.68 359.933 371.525C359.553 372.37 358.993 373.032 358.253 373.512C357.518 373.987 356.61 374.225 355.53 374.225ZM355.53 373.167C356.375 373.167 357.08 372.975 357.645 372.59C358.21 372.205 358.633 371.67 358.913 370.985C359.198 370.295 359.34 369.5 359.34 368.6C359.34 367.7 359.198 366.907 358.913 366.222C358.633 365.537 358.21 365.002 357.645 364.617C357.08 364.232 356.375 364.037 355.53 364.032C354.685 364.032 353.983 364.225 353.423 364.61C352.863 364.995 352.44 365.532 352.155 366.222C351.875 366.907 351.733 367.7 351.728 368.6C351.723 369.5 351.86 370.292 352.14 370.977C352.425 371.657 352.85 372.192 353.415 372.582C353.98 372.967 354.685 373.162 355.53 373.167ZM366.385 374.225C365.31 374.225 364.402 373.987 363.662 373.512C362.922 373.032 362.362 372.37 361.982 371.525C361.602 370.68 361.412 369.705 361.412 368.6C361.412 367.495 361.602 366.52 361.982 365.675C362.362 364.83 362.922 364.17 363.662 363.695C364.402 363.215 365.31 362.975 366.385 362.975C367.465 362.975 368.372 363.215 369.107 363.695C369.847 364.17 370.407 364.83 370.787 365.675C371.172 366.52 371.365 367.495 371.365 368.6C371.365 369.705 371.172 370.68 370.787 371.525C370.407 372.37 369.847 373.032 369.107 373.512C368.372 373.987 367.465 374.225 366.385 374.225ZM366.385 373.167C367.23 373.167 367.935 372.975 368.5 372.59C369.065 372.205 369.487 371.67 369.767 370.985C370.052 370.295 370.195 369.5 370.195 368.6C370.195 367.7 370.052 366.907 369.767 366.222C369.487 365.537 369.065 365.002 368.5 364.617C367.935 364.232 367.23 364.037 366.385 364.032C365.54 364.032 364.837 364.225 364.277 364.61C363.717 364.995 363.295 365.532 363.01 366.222C362.73 366.907 362.587 367.7 362.582 368.6C362.577 369.5 362.715 370.292 362.995 370.977C363.28 371.657 363.705 372.192 364.27 372.582C364.835 372.967 365.54 373.162 366.385 373.167ZM377.194 374.225C376.434 374.225 375.749 374.093 375.139 373.827C374.529 373.562 374.009 373.185 373.579 372.695C373.154 372.205 372.829 371.615 372.604 370.925C372.379 370.23 372.267 369.455 372.267 368.6C372.267 367.47 372.462 366.485 372.852 365.645C373.247 364.8 373.812 364.145 374.547 363.68C375.282 363.215 376.164 362.982 377.194 362.982C378.344 362.982 379.279 363.252 379.999 363.792C380.724 364.327 381.229 365.047 381.514 365.952L380.404 366.222C380.169 365.562 379.782 365.035 379.242 364.64C378.707 364.245 378.039 364.047 377.239 364.047C376.394 364.042 375.692 364.232 375.132 364.617C374.572 364.997 374.149 365.532 373.864 366.222C373.584 366.907 373.442 367.7 373.437 368.6C373.432 369.5 373.569 370.292 373.849 370.977C374.134 371.657 374.559 372.192 375.124 372.582C375.689 372.967 376.394 373.162 377.239 373.167C378.014 373.167 378.654 373.017 379.159 372.717C379.664 372.417 380.047 371.987 380.307 371.427C380.572 370.867 380.722 370.205 380.757 369.44H378.267V368.495H381.912C381.927 368.61 381.934 368.732 381.934 368.862C381.939 368.987 381.942 369.077 381.942 369.132C381.942 370.107 381.767 370.98 381.417 371.75C381.067 372.515 380.539 373.12 379.834 373.565C379.134 374.005 378.254 374.225 377.194 374.225ZM383.593 374V363.2H384.695V372.942H389.825V374H383.593Z" fill="black"/>
<ellipse cx="428.598" cy="369.459" rx="6.06646" ry="6.06646" fill="#F9C74F"/>
<path d="M449.587 374V364.257H445.815V363.2H454.462V364.257H450.69V374H449.587ZM459.415 374.225C458.66 374.225 457.98 374.1 457.375 373.85C456.775 373.595 456.277 373.235 455.882 372.77C455.492 372.305 455.237 371.752 455.117 371.112L456.242 370.925C456.422 371.625 456.802 372.175 457.382 372.575C457.962 372.97 458.655 373.167 459.46 373.167C459.99 373.167 460.465 373.085 460.885 372.92C461.305 372.75 461.635 372.51 461.875 372.2C462.115 371.89 462.235 371.522 462.235 371.097C462.235 370.817 462.185 370.58 462.085 370.385C461.985 370.185 461.852 370.02 461.687 369.89C461.522 369.76 461.342 369.652 461.147 369.567C460.952 369.477 460.762 369.405 460.577 369.35L457.84 368.532C457.51 368.437 457.205 368.317 456.925 368.172C456.645 368.022 456.4 367.845 456.19 367.64C455.985 367.43 455.825 367.185 455.71 366.905C455.595 366.625 455.537 366.305 455.537 365.945C455.537 365.335 455.697 364.807 456.017 364.362C456.337 363.917 456.775 363.575 457.33 363.335C457.885 363.095 458.517 362.977 459.227 362.982C459.947 362.982 460.59 363.11 461.155 363.365C461.725 363.62 462.195 363.985 462.565 364.46C462.935 364.93 463.18 365.487 463.3 366.132L462.145 366.342C462.07 365.872 461.897 365.465 461.627 365.12C461.357 364.775 461.012 364.51 460.592 364.325C460.177 364.135 459.72 364.037 459.22 364.032C458.735 364.032 458.302 364.115 457.922 364.28C457.547 364.44 457.25 364.66 457.03 364.94C456.81 365.22 456.7 365.54 456.7 365.9C456.7 366.265 456.8 366.557 457 366.777C457.205 366.997 457.455 367.17 457.75 367.295C458.05 367.42 458.34 367.522 458.62 367.602L460.735 368.225C460.955 368.285 461.212 368.372 461.507 368.487C461.807 368.597 462.097 368.757 462.377 368.967C462.662 369.172 462.897 369.442 463.082 369.777C463.267 370.112 463.36 370.537 463.36 371.052C463.36 371.552 463.26 372 463.06 372.395C462.865 372.79 462.587 373.122 462.227 373.392C461.872 373.662 461.455 373.867 460.975 374.008C460.5 374.153 459.98 374.225 459.415 374.225ZM465.058 374V363.2H466.16V372.942H471.29V374H465.058ZM471.819 374L475.539 363.2H477.002L480.722 374H479.574L476.042 363.815H476.477L472.967 374H471.819ZM473.477 371.382V370.347H479.057V371.382H473.477Z" fill="black"/>
</g>
<defs>
<clipPath id="clip0_131_49225">
<rect width="528" height="500" fill="white"/>
</clipPath>
</defs>
</svg>
