<svg width="24" height="24" viewBox="0 0 24 24" fill="none" xmlns="http://www.w3.org/2000/svg">
<mask id="mask0_744_3341" style="mask-type:alpha" maskUnits="userSpaceOnUse" x="1" y="2" width="21" height="21">
<path fill-rule="evenodd" clip-rule="evenodd" d="M11.999 2.00012C6.47902 2.00012 1.99902 6.48012 1.99902 12.0001C1.99902 17.5201 6.47902 22.0001 11.999 22.0001C17.519 22.0001 21.999 17.5201 21.999 12.0001C21.999 6.48012 17.519 2.00012 11.999 2.00012ZM11.999 7.00012C11.449 7.00012 10.999 7.45012 10.999 8.00012V11.0001H7.99902C7.44902 11.0001 6.99902 11.4501 6.99902 12.0001C6.99902 12.5501 7.44902 13.0001 7.99902 13.0001H10.999V16.0001C10.999 16.5501 11.449 17.0001 11.999 17.0001C12.549 17.0001 12.999 16.5501 12.999 16.0001V13.0001H15.999C16.549 13.0001 16.999 12.5501 16.999 12.0001C16.999 11.4501 16.549 11.0001 15.999 11.0001H12.999V8.00012C12.999 7.45012 12.549 7.00012 11.999 7.00012ZM3.99902 12.0001C3.99902 16.4101 7.58902 20.0001 11.999 20.0001C16.409 20.0001 19.999 16.4101 19.999 12.0001C19.999 7.59012 16.409 4.00012 11.999 4.00012C7.58902 4.00012 3.99902 7.59012 3.99902 12.0001Z" fill="black"/>
</mask>
<g mask="url(#mask0_744_3341)">
<rect x="-0.000976562" y="0.00012207" width="24" height="24" fill="#858C94"/>
</g>
</svg>
