<svg width="24" height="25" viewBox="0 0 24 25" fill="none" xmlns="http://www.w3.org/2000/svg">
<g id="Frame">
<path id="Vector" d="M11.0019 20.5C11.0019 21.0523 11.4497 21.5 12.0019 21.5C12.5542 21.5 13.0019 21.0523 13.0019 20.5V13.4999H20.0019C20.5542 13.4999 21.0019 13.0522 21.0019 12.4999C21.0019 11.9476 20.5542 11.4999 20.0019 11.4999H13.0019V4.5C13.0019 3.94772 12.5542 3.5 12.0019 3.5C11.4497 3.5 11.0019 3.94772 11.0019 4.5V11.4999H4.00195C3.44967 11.4999 3.00195 11.9476 3.00195 12.4999C3.00195 13.0522 3.44967 13.4999 4.00195 13.4999H11.0019V20.5Z" fill="black"/>
</g>
</svg>
