<svg width="47" height="48" viewBox="0 0 47 48" fill="none" xmlns="http://www.w3.org/2000/svg">
<path d="M23.5 0.812531C10.7106 0.812531 0.3125 11.2107 0.3125 24C0.3125 36.7894 10.7106 47.1875 23.5 47.1875C36.2894 47.1875 46.6875 36.7894 46.6875 24C46.6875 11.2107 36.2894 0.812531 23.5 0.812531Z" fill="#FF5A5F"/>
<path d="M23.5001 30.1061C21.9799 28.1939 21.0856 26.5177 20.7876 25.0836C20.4895 23.9183 20.6087 22.9921 21.1155 22.3048C21.652 21.4981 22.4568 21.1097 23.5001 21.1097C24.5434 21.1097 25.3482 21.4981 25.8847 22.3048C26.3914 22.9921 26.5107 23.9183 26.2126 25.0836C25.8847 26.5476 24.9905 28.2208 23.5001 30.1061ZM31.8224 34.5282C29.2888 35.6337 26.7819 33.8709 24.6358 31.4806C28.1859 27.0257 28.8417 23.5597 27.3185 21.3159C26.4242 20.0311 25.1425 19.4036 23.5001 19.4036C20.1914 19.4036 18.3701 22.2122 19.0855 25.472C19.5028 27.2348 20.6057 29.2397 22.3644 31.4806C21.0453 32.9458 19.3147 34.6078 17.2374 34.7971C14.2268 35.2453 11.869 32.3172 12.9421 29.2964L20.5759 13.4548C21.2275 12.2639 22.0316 11.2438 23.4971 11.2438C24.5702 11.2438 25.4048 11.8712 25.7625 12.3792L34.0521 29.2964C34.8642 31.3405 33.8343 33.6574 31.8224 34.5282ZM35.6677 28.6989L28.5704 13.903C27.229 11.1542 26.2752 9.50784 23.5001 9.50784C20.7578 9.50784 19.5923 11.4201 18.4 13.903L11.3325 28.6989C9.8123 32.8849 12.9421 36.5599 16.7307 36.5599C16.9692 36.5599 17.2059 36.53 17.4461 36.53C19.4134 36.291 21.4433 35.0361 23.5001 32.7922C25.5568 35.0331 27.5867 36.291 29.5541 36.53C29.7942 36.53 30.031 36.5599 30.2695 36.5599C34.058 36.5629 37.1879 32.8849 35.6677 28.6989Z" fill="white"/>
</svg>
