<svg width="116" height="48" viewBox="0 0 116 48" fill="none" xmlns="http://www.w3.org/2000/svg">
<path d="M45 24.0001C45 35.5921 35.6025 45.0001 24 45.0001C12.3975 45.0001 3 35.5921 3 24.0001C3 12.3976 12.3975 3.00012 24 3.00012C35.6025 3.00012 45 12.3976 45 24.0001Z" fill="#242424"/>
<path d="M33.8432 18.6861C33.7286 18.7529 31.0006 20.1637 31.0006 23.2918C31.1292 26.8591 34.4432 28.1102 34.5 28.1102C34.4432 28.177 33.9997 29.8144 32.686 31.5308C31.6435 33.0093 30.4863 34.5 28.7292 34.5C27.0577 34.5 26.4577 33.5146 24.5292 33.5146C22.458 33.5146 21.872 34.5 20.2863 34.5C18.5292 34.5 17.2863 32.9295 16.1869 31.4648C14.7586 29.5479 13.5447 26.5396 13.5018 23.6512C13.4729 22.1206 13.7878 20.616 14.5872 19.3381C15.7155 17.554 17.7298 16.3429 19.9295 16.3029C21.6149 16.25 23.1149 17.3812 24.1435 17.3812C25.1292 17.3812 26.972 16.3029 29.0571 16.3029C29.9571 16.3038 32.3571 16.5564 33.8432 18.6861ZM24.0009 15.9973C23.7009 14.5996 24.5292 13.2018 25.3006 12.3102C26.2863 11.2319 27.8432 10.5 29.1857 10.5C29.2714 11.8978 28.7282 13.2686 27.7574 14.267C26.8863 15.3453 25.3863 16.1571 24.0009 15.9973Z" fill="white"/>
<path d="M57.4238 32L62.0011 17.0196H66.2248L70.8022 32H67.8893L63.8113 18.7881H64.3522L60.3367 32H57.4238ZM60.1702 28.8791V26.2367H68.0765V28.8791H60.1702ZM78.1804 32.3121C77.0638 32.3121 76.131 32.052 75.3819 31.5319C74.6329 31.0117 74.0677 30.3043 73.6862 29.4096C73.3117 28.515 73.1245 27.5059 73.1245 26.3823C73.1245 25.2588 73.3117 24.2497 73.6862 23.355C74.0608 22.4604 74.6121 21.753 75.3403 21.2328C76.0686 20.7127 76.9667 20.4526 78.0347 20.4526C79.1097 20.4526 80.046 20.7092 80.8436 21.2224C81.6411 21.7356 82.2584 22.4396 82.6953 23.3342C83.1392 24.222 83.3611 25.238 83.3611 26.3823C83.3611 27.5059 83.1426 28.515 82.7057 29.4096C82.2757 30.3043 81.6723 31.0117 80.8956 31.5319C80.1188 32.052 79.2138 32.3121 78.1804 32.3121ZM72.6459 36.9935V20.7647H75.1427V28.463H75.4964V36.9935H72.6459ZM77.7226 29.7945C78.333 29.7945 78.8323 29.642 79.2207 29.3368C79.6091 29.0317 79.8969 28.6225 80.0841 28.1092C80.2714 27.5891 80.365 27.0135 80.365 26.3823C80.365 25.7581 80.2679 25.1894 80.0737 24.6762C79.8795 24.1561 79.5779 23.7434 79.1687 23.4383C78.7664 23.1262 78.2497 22.9701 77.6186 22.9701C77.0291 22.9701 76.5506 23.1123 76.183 23.3966C75.8223 23.681 75.5588 24.0798 75.3924 24.593C75.2259 25.1062 75.1427 25.7027 75.1427 26.3823C75.1427 27.062 75.2259 27.6584 75.3924 28.1717C75.5588 28.6849 75.8293 29.0837 76.2038 29.368C76.5852 29.6524 77.0915 29.7945 77.7226 29.7945ZM91.1639 32.3121C90.0473 32.3121 89.1145 32.052 88.3655 31.5319C87.6165 31.0117 87.0512 30.3043 86.6698 29.4096C86.2953 28.515 86.108 27.5059 86.108 26.3823C86.108 25.2588 86.2953 24.2497 86.6698 23.355C87.0443 22.4604 87.5957 21.753 88.3239 21.2328C89.0521 20.7127 89.9502 20.4526 91.0183 20.4526C92.0933 20.4526 93.0295 20.7092 93.8271 21.2224C94.6247 21.7356 95.2419 22.4396 95.6789 23.3342C96.1227 24.222 96.3447 25.238 96.3447 26.3823C96.3447 27.5059 96.1262 28.515 95.6893 29.4096C95.2593 30.3043 94.6559 31.0117 93.8791 31.5319C93.1024 32.052 92.1973 32.3121 91.1639 32.3121ZM85.6295 36.9935V20.7647H88.1262V28.463H88.4799V36.9935H85.6295ZM90.7062 29.7945C91.3165 29.7945 91.8158 29.642 92.2042 29.3368C92.5926 29.0317 92.8804 28.6225 93.0677 28.1092C93.2549 27.5891 93.3486 27.0135 93.3486 26.3823C93.3486 25.7581 93.2515 25.1894 93.0573 24.6762C92.8631 24.1561 92.5614 23.7434 92.1522 23.4383C91.75 23.1262 91.2333 22.9701 90.6021 22.9701C90.0126 22.9701 89.5341 23.1123 89.1665 23.3966C88.8059 23.681 88.5423 24.0798 88.3759 24.593C88.2094 25.1062 88.1262 25.7027 88.1262 26.3823C88.1262 27.062 88.2094 27.6584 88.3759 28.1717C88.5423 28.6849 88.8128 29.0837 89.1873 29.368C89.5688 29.6524 90.0751 29.7945 90.7062 29.7945ZM98.8419 32V16.7075H101.672V32H98.8419ZM110.013 32.3121C108.861 32.3121 107.845 32.0659 106.965 31.5735C106.091 31.0741 105.404 30.391 104.905 29.5241C104.412 28.6502 104.166 27.6515 104.166 26.528C104.166 25.3004 104.409 24.2324 104.894 23.3238C105.38 22.4153 106.049 21.7113 106.902 21.212C107.755 20.7057 108.737 20.4526 109.846 20.4526C111.025 20.4526 112.027 20.73 112.853 21.2848C113.678 21.8397 114.288 22.6199 114.684 23.6255C115.079 24.6311 115.218 25.8136 115.1 27.173H112.301V26.1327C112.301 24.9883 112.118 24.1665 111.75 23.6671C111.389 23.1608 110.796 22.9077 109.971 22.9077C109.007 22.9077 108.296 23.2025 107.838 23.792C107.388 24.3745 107.162 25.238 107.162 26.3823C107.162 27.4296 107.388 28.241 107.838 28.8167C108.296 29.3854 108.965 29.6697 109.846 29.6697C110.401 29.6697 110.876 29.5483 111.271 29.3056C111.667 29.0629 111.968 28.7126 112.177 28.2549L115.006 29.0663C114.583 30.0928 113.914 30.8903 112.998 31.459C112.09 32.0277 111.095 32.3121 110.013 32.3121ZM106.288 27.173V25.0715H113.737V27.173H106.288Z" fill="black"/>
</svg>
