<svg width="57" height="58" viewBox="0 0 57 58" fill="none" xmlns="http://www.w3.org/2000/svg">
<path d="M53.4375 29C53.4375 42.7655 42.278 53.9375 28.5 53.9375C14.722 53.9375 3.5625 42.7655 3.5625 29C3.5625 15.222 14.722 4.0625 28.5 4.0625C42.278 4.0625 53.4375 15.222 53.4375 29Z" fill="black"/>
<path d="M40.1888 22.6897C40.0527 22.7691 36.8132 24.4444 36.8132 28.159C36.9659 32.3952 40.9013 33.8808 40.9688 33.8808C40.9013 33.9602 40.3746 35.9046 38.8146 37.9429C37.5766 39.6986 36.2025 41.4688 34.1159 41.4688C32.1311 41.4688 31.4186 40.2986 29.1284 40.2986C26.6689 40.2986 25.973 41.4688 24.09 41.4688C22.0034 41.4688 20.5275 39.6037 19.222 37.8645C17.5259 35.5881 16.0843 32.0158 16.0334 28.5858C15.9991 26.7682 16.3731 24.9816 17.3223 23.464C18.6621 21.3453 21.0541 19.9071 23.6662 19.8597C25.6677 19.7968 27.4489 21.1402 28.6704 21.1402C29.8409 21.1402 32.0293 19.8597 34.5053 19.8597C35.5741 19.8608 38.4241 20.1608 40.1888 22.6897ZM28.5011 19.4968C28.1448 17.837 29.1284 16.1771 30.0445 15.1183C31.215 13.8379 33.0637 12.9688 34.658 12.9688C34.7598 14.6286 34.1148 16.2565 32.962 17.4421C31.9275 18.7226 30.1462 19.6865 28.5011 19.4968Z" fill="white"/>
</svg>
