<svg width="19" height="19" viewBox="0 0 19 19" fill="none" xmlns="http://www.w3.org/2000/svg">
<mask id="mask0_351_5840" style="mask-type:alpha" maskUnits="userSpaceOnUse" x="3" y="4" width="13" height="12">
<path d="M4.40625 10.669H12.7838L9.12375 14.329C8.83125 14.6215 8.83125 15.1015 9.12375 15.394C9.41625 15.6865 9.88875 15.6865 10.1812 15.394L15.1237 10.4515C15.4163 10.159 15.4163 9.68647 15.1237 9.39397L10.1888 4.44397C10.0486 4.30353 9.85839 4.22461 9.66 4.22461C9.46161 4.22461 9.27137 4.30353 9.13125 4.44397C8.83875 4.73647 8.83875 5.20897 9.13125 5.50147L12.7838 9.16897H4.40625C3.99375 9.16897 3.65625 9.50647 3.65625 9.91897C3.65625 10.3315 3.99375 10.669 4.40625 10.669Z" fill="black"/>
</mask>
<g mask="url(#mask0_351_5840)">
<rect x="0.5" y="0.918945" width="18" height="18" fill="white"/>
</g>
</svg>
