<svg width="16" height="16" viewBox="0 0 16 16" fill="none" xmlns="http://www.w3.org/2000/svg">
<mask id="mask0_1190_6532" style="mask-type:alpha" maskUnits="userSpaceOnUse" x="1" y="1" width="14" height="14">
<path fill-rule="evenodd" clip-rule="evenodd" d="M1.33398 8.00004C1.33398 4.32004 4.32065 1.33337 8.00065 1.33337C11.6807 1.33337 14.6673 4.32004 14.6673 8.00004C14.6673 11.68 11.6807 14.6667 8.00065 14.6667C4.32065 14.6667 1.33398 11.68 1.33398 8.00004ZM3.80065 8.46671L6.19398 10.86C6.45398 11.12 6.88065 11.12 7.13398 10.86L12.194 5.80004C12.454 5.54004 12.454 5.12004 12.194 4.86004C11.934 4.60004 11.514 4.60004 11.254 4.86004L6.66732 9.44671L4.74065 7.52671C4.48065 7.26671 4.06065 7.26671 3.80065 7.52671C3.67582 7.65126 3.60566 7.82036 3.60566 7.99671C3.60566 8.17305 3.67582 8.34215 3.80065 8.46671Z" fill="black"/>
</mask>
<g mask="url(#mask0_1190_6532)">
<rect width="16" height="16" fill="#0000FF"/>
</g>
</svg>
