<svg width="28" height="28" viewBox="0 0 28 28" fill="none" xmlns="http://www.w3.org/2000/svg">
<path d="M26.6 12.8787H25.228C24.4538 12.8787 23.828 13.3813 23.828 14.0001C23.828 14.6175 24.4538 15.1187 25.228 15.1187H26.6C27.3728 15.1187 28 14.6189 28 14.0001C28 13.3827 27.3714 12.8787 26.6 12.8787ZM14 6.30012C12.9879 6.29698 11.9852 6.494 11.0496 6.87985C10.114 7.2657 9.26391 7.83275 8.54827 8.54839C7.83263 9.26403 7.26557 10.1141 6.87973 11.0497C6.49388 11.9854 6.29686 12.9881 6.3 14.0001C6.3 18.2715 9.7286 21.7001 14 21.7001C18.27 21.7001 21.7 18.2715 21.7 14.0001C21.7 9.72872 18.2686 6.30012 14 6.30012ZM14 19.6001C10.9046 19.6001 8.4 17.0927 8.4 14.0001C8.4 10.9047 10.9046 8.40012 14 8.40012C15.4852 8.40012 16.9096 8.99012 17.9598 10.0403C19.01 11.0905 19.6 12.5149 19.6 14.0001C19.6 15.4853 19.01 16.9097 17.9598 17.9599C16.9096 19.0101 15.4852 19.6001 14 19.6001ZM4.2 14.0001C4.2 13.3827 3.5714 12.8787 2.8 12.8787H1.4C0.6258 12.8787 0 13.3813 0 14.0001C0 14.6175 0.6258 15.1187 1.4 15.1187H2.8C3.5714 15.1187 4.2 14.6175 4.2 14.0001ZM14 4.20012C14.6174 4.20012 15.1186 3.57432 15.1186 2.80012V1.40012C15.1186 0.625922 14.6174 0.00012207 14 0.00012207C13.3812 0.00012207 12.8786 0.625922 12.8786 1.40012V2.80012C12.8786 3.57432 13.3812 4.20012 14 4.20012ZM14 23.8001C13.3812 23.8001 12.8786 24.4259 12.8786 25.2001V26.6001C12.8786 27.3743 13.3812 28.0001 14 28.0001C14.6174 28.0001 15.1186 27.3743 15.1186 26.6001V25.2001C15.1186 24.4259 14.6174 23.8001 14 23.8001ZM24.311 5.27252C24.8584 4.72512 24.9466 3.92712 24.5098 3.49032C24.073 3.05352 23.2736 3.14312 22.729 3.69052L21.749 4.66912C21.2016 5.21652 21.1134 6.01452 21.5502 6.45132C21.987 6.88812 22.7864 6.79852 23.3324 6.25112L24.311 5.27252ZM4.6676 21.7463L3.6876 22.7277C3.1402 23.2751 3.052 24.0703 3.4888 24.5071C3.9256 24.9439 4.725 24.8571 5.2696 24.3097L6.2496 23.3311C6.797 22.7837 6.8852 21.9857 6.4484 21.5475C6.0116 21.1093 5.2122 21.2017 4.6676 21.7463ZM5.271 3.68912C4.725 3.14172 3.9256 3.05212 3.4888 3.48892C3.052 3.92572 3.1416 4.72512 3.6862 5.27252L4.6662 6.25112C5.2136 6.79852 6.0102 6.88812 6.447 6.45132C6.8838 6.01452 6.7956 5.21512 6.2496 4.66912L5.271 3.68912ZM21.7476 23.3325L22.7276 24.3111C23.275 24.8585 24.0716 24.9453 24.5084 24.5113C24.9452 24.0745 24.857 23.2751 24.3096 22.7291L23.331 21.7505C22.7836 21.2031 21.9856 21.1135 21.5474 21.5503C21.1092 21.9871 21.2002 22.7851 21.7476 23.3325Z" fill="#3DA864"/>
</svg>
