<svg width="540" height="401" viewBox="0 0 540 401" fill="none" xmlns="http://www.w3.org/2000/svg">
<g clip-path="url(#clip0_264_313596)">
<g opacity="0.3">
<path d="M538.579 400.31C539.174 388.372 538.339 376.357 536.027 364.647C531.868 343.58 527.125 339.567 499.774 317.011C492.651 311.136 529.336 178.819 538.764 92.2549C549.228 -3.82313 343.853 1.01168 318.977 0.792255C270.424 0.364696 194.235 0.496349 149.325 0.628002C115.48 0.728309 82.5916 12.7351 57.2302 35.1462C-45.759 126.156 25.7625 282.503 24.8936 292.961C22.4587 322.263 -17.9376 351.249 9.53032 400.308H538.579V400.31Z" fill="#D2E4FF"/>
</g>
<path d="M440.236 46.6865V295.105C440.236 304.06 432.621 311.544 422.931 311.544H180.948C171.419 311.544 163.73 304.195 163.73 295.105V46.6865H440.236Z" fill="white"/>
<path d="M440.227 47.8049V37.5949C440.227 34.1581 439.117 31.0009 437.278 28.3804C436.937 27.929 436.62 27.5153 436.266 27.1128C435.035 25.6872 433.56 24.4433 431.915 23.4929C430.965 22.9563 429.953 22.4811 428.881 22.1162C428.357 21.9219 427.833 21.7626 427.26 21.6285C425.87 21.3 424.445 21.1044 422.933 21.1044H180.949C179.475 21.1044 178.024 21.2987 176.647 21.6285C176.099 21.7626 175.55 21.9206 175.026 22.1162C173.965 22.4823 172.955 22.9575 172.015 23.4929C167.043 26.3567 163.728 31.6228 163.728 37.5949V47.8049H440.227Z" fill="#060405"/>
<path d="M183.58 36.9379C183.58 38.9929 181.833 40.6505 179.704 40.6505C177.575 40.6505 175.817 38.9929 175.817 36.9379C175.817 34.8829 177.553 33.2366 179.704 33.2366C181.856 33.2366 183.58 34.8941 183.58 36.9379Z" fill="white"/>
<path d="M205.4 36.9379C205.4 38.9929 203.654 40.6505 201.513 40.6505C199.373 40.6505 197.638 38.9929 197.638 36.9379C197.638 34.8829 199.373 33.2366 201.513 33.2366C203.654 33.2366 205.4 34.8941 205.4 36.9379Z" fill="white"/>
<path d="M194.489 36.9379C194.489 38.9929 192.742 40.6505 190.602 40.6505C188.462 40.6505 186.727 38.9929 186.727 36.9379C186.727 34.8829 188.462 33.2366 190.602 33.2366C192.742 33.2366 194.489 34.8941 194.489 36.9379Z" fill="white"/>
<g opacity="0.05">
<path d="M440.236 217.258V286.817H306.747C304.064 286.817 301.982 284.735 301.982 282.052V222.022C301.982 219.339 304.064 217.258 306.747 217.258H440.236Z" fill="black"/>
</g>
<path d="M466.327 217.975V278.006C466.327 280.688 464.168 282.771 461.561 282.771H310.555C307.874 282.771 305.789 280.687 305.789 278.006V217.975C305.789 215.295 307.874 213.208 310.555 213.208H461.561C464.168 213.208 466.327 215.294 466.327 217.975Z" fill="#FF7545"/>
<path d="M327.942 240.625H325.838V272.346H327.942V240.625Z" fill="white"/>
<path d="M346.68 239.617H344.576V272.346H346.68V239.617Z" fill="white"/>
<path d="M365.417 252.035H363.313V272.347H365.417V252.035Z" fill="white"/>
<path d="M384.156 244.575H382.052V272.346H384.156V244.575Z" fill="white"/>
<path d="M402.893 228.247H400.789V272.346H402.893V228.247Z" fill="white"/>
<path d="M421.63 246.967H419.526V272.346H421.63V246.967Z" fill="white"/>
<path d="M440.368 224.547H438.264V272.346H440.368V224.547Z" fill="white"/>
<g opacity="0.6">
<path d="M449.017 271.446L317.188 272.346C317.188 272.346 323.537 248.857 340.681 246.517C357.824 244.18 354.569 262.179 370.444 260.377C387.905 258.488 386.556 236.079 396.874 233.649C404.97 231.669 412.112 253.087 419.018 253.357C425.923 253.537 427.756 244.674 431.797 234.999C437.399 221.588 449.02 221.588 449.02 221.588V271.446H449.017Z" fill="white"/>
</g>
<path d="M261.554 65.0627H184.796C181.981 65.0627 179.698 67.3453 179.698 70.1609V188.871C179.698 191.686 181.981 193.969 184.796 193.969H261.554C264.37 193.969 266.652 191.686 266.652 188.871V70.1609C266.652 67.3453 264.37 65.0627 261.554 65.0627Z" fill="#D2E4FF"/>
<path d="M196.3 152.73C202.344 152.73 207.243 147.83 207.243 141.787C207.243 135.743 202.344 130.843 196.3 130.843C190.256 130.843 185.356 135.743 185.356 141.787C185.356 147.83 190.256 152.73 196.3 152.73Z" fill="white"/>
<path d="M233.517 135.076H211.645V138.893H233.517V135.076Z" fill="white"/>
<path d="M247.147 141.899H211.645V143.922H247.147V141.899Z" fill="white"/>
<path d="M258.423 141.899H249.939V143.922H258.423V141.899Z" fill="white"/>
<path d="M237.22 146.475H225.975V148.497H237.22V146.475Z" fill="white"/>
<path d="M220.004 146.475H211.645V148.497H220.004V146.475Z" fill="white"/>
<path d="M196.3 179.226C202.344 179.226 207.243 174.327 207.243 168.283C207.243 162.239 202.344 157.339 196.3 157.339C190.256 157.339 185.356 162.239 185.356 168.283C185.356 174.327 190.256 179.226 196.3 179.226Z" fill="white"/>
<path d="M233.517 161.572H211.645V165.389H233.517V161.572Z" fill="white"/>
<path d="M247.147 168.396H211.645V170.418H247.147V168.396Z" fill="white"/>
<path d="M258.423 168.396H249.939V170.418H258.423V168.396Z" fill="white"/>
<path d="M237.22 172.971H225.975V174.993H237.22V172.971Z" fill="white"/>
<path d="M220.004 172.971H211.645V174.993H220.004V172.971Z" fill="white"/>
<path d="M221.114 123.225C234.038 123.225 244.515 112.747 244.515 99.8229C244.515 86.8986 234.038 76.4213 221.114 76.4213C208.189 76.4213 197.712 86.8986 197.712 99.8229C197.712 112.747 208.189 123.225 221.114 123.225Z" fill="white"/>
<path d="M221.114 98.2356C224.003 98.2356 226.345 95.8936 226.345 93.0046C226.345 90.1156 224.003 87.7736 221.114 87.7736C218.225 87.7736 215.883 90.1156 215.883 93.0046C215.883 95.8936 218.225 98.2356 221.114 98.2356Z" fill="#060405"/>
<path d="M231.874 111.871C231.88 111.716 231.885 111.56 231.885 111.403C231.885 105.454 227.063 100.632 221.114 100.632C215.164 100.632 210.342 105.454 210.342 111.403C210.342 111.56 210.347 111.716 210.353 111.871H231.874Z" fill="#060405"/>
<path d="M32.4443 239.677C32.8819 272.547 34.0869 372.237 35.4297 385.097H50.9711L68.5048 270.631L87.5368 385.097L103.078 385.833L106.303 239.677H32.4443Z" fill="#060405"/>
<path d="M103.079 387.701V385.097H87.5374C87.3342 390.132 86.9355 399.629 86.8164 399.629H112.106C112.966 391.318 103.08 387.701 103.08 387.701H103.079Z" fill="#6193F6"/>
<path d="M111.757 396.014C112.084 397.106 112.242 398.302 112.105 399.629H86.8154C86.8618 399.629 86.9534 398.13 87.0587 396.014H111.756H111.757Z" fill="#060405"/>
<path d="M50.9723 387.701V385.097H35.4309C35.2278 390.132 34.8291 399.629 34.71 399.629H59.9999C60.86 391.318 50.9735 387.701 50.9735 387.701H50.9723Z" fill="#6193F6"/>
<path d="M59.6513 396.014C59.9786 397.106 60.1366 398.302 59.9999 399.629H34.71C34.7564 399.629 34.8479 398.13 34.9532 396.014H59.6501H59.6513Z" fill="#060405"/>
<path d="M98.6204 182.104L130.593 193.723L176.618 168.284C176.618 168.284 182.756 170.049 186.125 166.412C189.492 162.773 184.021 157.542 184.021 157.542C184.021 157.542 194.058 149.85 193.334 147.322C192.62 144.803 179.272 154.822 179.272 154.822C179.272 154.822 179.996 151.298 178.79 150.092C177.583 148.886 174.697 155.979 174.697 155.979L129.55 166.411L115.566 154.82L98.6191 182.104H98.6204Z" fill="white"/>
<path d="M130.639 194.299L97.832 182.376L115.44 154.03L129.687 165.839L174.316 155.526C175.185 153.433 177.557 148.106 179.164 149.718C180.061 150.616 180.084 152.41 179.972 153.648C182.766 151.602 192.981 144.13 193.842 147.177C194.568 149.712 187.248 155.69 184.815 157.592C186.798 159.703 189.253 163.806 186.512 166.767C183.29 170.249 177.855 169.134 176.691 168.844L130.641 194.297L130.639 194.299ZM99.4094 181.83L130.548 193.146L176.554 167.717C179.597 168.564 183.55 168.418 185.739 166.053C188.062 163.544 185.679 159.891 183.215 157.497L183.701 157.123C187.75 154.02 193.259 148.971 192.829 147.466C191.262 146.461 178.586 156.001 178.48 156.073C178.497 155.954 179.61 151.654 178.419 150.463C177.924 150.575 176.381 153.238 175.186 156.177L175.084 156.43L129.418 166.982L115.697 155.611L99.4106 181.832L99.4094 181.83Z" fill="#060405"/>
<path d="M30.73 179.434C31.6114 179.553 32.5355 179.609 33.4383 179.619L29.1263 241.247C29.1263 248.493 107.12 248.493 107.12 241.247L104.142 179.226L104.121 179.074C104.121 179.074 119.86 168.146 121.557 155.476C117.326 148.897 104.057 130.69 82.98 124.502C78.9125 123.306 74.5291 122.555 69.8849 122.403C60.0523 122.124 50.6384 124.771 42.1399 129.495C17.7239 143.003 8.29753 165.532 8.29753 165.532C8.29753 165.532 8.03171 164.703 10.4792 167.149C14.9053 171.587 19.636 177.585 29.3921 179.227C29.8272 179.315 30.2736 179.368 30.73 179.434Z" fill="#3DA864"/>
<path d="M104.143 179.753C103.91 179.753 103.695 179.596 103.635 179.359L97.7034 156.44C97.6307 156.159 97.7999 155.872 98.0808 155.799C98.3604 155.723 98.6488 155.896 98.7215 156.177L104.653 179.096C104.726 179.377 104.557 179.664 104.276 179.736C104.232 179.748 104.187 179.754 104.143 179.754V179.753Z" fill="black"/>
<path d="M56.3555 214.468C56.3555 216.231 57.7786 217.654 59.5415 217.654H133.475C135.238 217.654 136.661 216.231 136.661 214.468C136.661 212.705 135.238 211.282 133.475 211.282H59.5415C57.7786 211.282 56.3555 212.705 56.3555 214.468Z" fill="#060405"/>
<path d="M91.7222 211.286H137.395C139.803 211.286 141.89 209.664 142.508 207.337L151.829 171.765C152.706 168.416 150.172 165.12 146.717 165.12H101.045C98.6535 165.12 96.5495 166.759 95.9414 169.088L86.6116 204.66C85.7339 208.009 88.2679 211.286 91.7247 211.286H91.7222Z" fill="white"/>
<path d="M137.396 211.811H91.7236C87.922 211.811 85.1372 208.21 86.1014 204.526L95.4312 168.953C96.1021 166.387 98.4104 164.595 101.043 164.595H146.716C150.517 164.595 153.302 168.212 152.337 171.899L143.016 207.471C142.337 210.028 140.025 211.812 137.395 211.812L137.396 211.811ZM101.043 165.646C98.8881 165.646 96.9985 167.115 96.4494 169.219L87.1183 204.793C86.3296 207.805 88.6066 210.759 91.7224 210.759H137.395C139.55 210.759 141.443 209.296 141.999 207.201L151.319 171.629C152.111 168.609 149.824 165.645 146.716 165.645H101.043V165.646Z" fill="#060405"/>
<path d="M133.17 206.343C132.839 207.945 132.722 209.727 133.116 211.286H137.395C139.804 211.286 141.89 209.664 142.508 207.337L151.829 171.765C152.707 168.416 150.173 165.12 146.718 165.12H131.55C135.131 167.135 138.346 169.633 140.11 173.268C142.635 178.488 141.489 184.738 139.394 190.146C137.307 195.554 134.326 200.667 133.171 206.343H133.17Z" fill="#D2E4FF"/>
<path d="M133.475 218.179H59.5414C57.4939 218.179 55.8301 216.514 55.8301 214.468C55.8301 212.422 57.4952 210.756 59.5414 210.756H133.475C135.523 210.756 137.187 212.422 137.187 214.468C137.187 216.514 135.522 218.179 133.475 218.179ZM59.5414 211.808C58.0745 211.808 56.8808 213.001 56.8808 214.468C56.8808 215.935 58.0745 217.127 59.5414 217.127H133.475C134.942 217.127 136.136 215.935 136.136 214.468C136.136 213.001 134.942 211.808 133.475 211.808H59.5414Z" fill="#060405"/>
<path d="M137.395 211.808H91.7237C87.9208 211.808 85.1385 208.211 86.1039 204.525L95.4263 168.953C96.1021 166.387 98.4129 164.595 101.046 164.595H146.717C150.519 164.595 153.303 168.21 152.337 171.899L143.014 207.47C142.342 210.024 140.032 211.808 137.395 211.808ZM101.046 165.647C98.8894 165.647 96.9973 167.117 96.4431 169.221L87.1208 204.792C86.3296 207.805 88.6041 210.756 91.7224 210.756H137.394C139.553 210.756 141.446 209.294 141.996 207.202L151.319 171.63C152.112 168.609 149.828 165.646 146.717 165.646H101.046V165.647Z" fill="#060405"/>
<path d="M117.143 188.767C116.955 190.79 118.451 192.438 120.473 192.438C122.496 192.438 124.296 190.79 124.475 188.767C124.655 186.734 123.168 185.087 121.135 185.087C119.103 185.087 117.321 186.734 117.142 188.767H117.143Z" fill="#D2E4FF"/>
<path d="M3.06144 206.135C8.29121 215.176 65.7058 218.519 65.7058 218.519C65.7058 218.519 82.0672 225.207 87.5653 217.125C93.0633 209.041 78.5589 209.308 78.5589 209.308C78.5589 209.308 81.6672 208.118 79.6786 205.204C77.6975 202.29 66.8343 207.185 66.8343 207.185L29.357 191.341L33.1749 173.5L6.60605 168.916C6.60605 168.916 -2.0304 197.33 3.0627 206.136L3.06144 206.135Z" fill="white"/>
<path d="M78.1706 221.664C72.3741 221.664 66.4422 219.379 65.5883 219.038C62.2155 218.839 7.86282 215.487 2.60547 206.398C-2.5428 197.497 5.74633 169.931 6.10117 168.762L6.23659 168.318L33.8023 173.074L29.9617 191.025L66.8284 206.611C68.6766 205.796 78.044 201.867 80.1128 204.907C80.8137 205.934 81.0294 206.905 80.7535 207.79C80.6244 208.202 80.4012 208.545 80.1504 208.822C82.697 208.966 87.5055 209.59 88.9261 212.215C89.6947 213.635 89.3837 215.387 88.0007 217.419C85.7965 220.659 82.0136 221.664 78.1706 221.664ZM3.51701 205.871C8.54616 214.567 65.1658 217.96 65.7375 217.994L65.9056 218.031C66.0661 218.096 81.9359 224.465 87.1318 216.828C88.2766 215.146 88.5687 213.762 88.002 212.716C86.6591 210.232 80.7272 209.799 78.5694 209.834L75.6366 209.888L78.37 208.817C78.3813 208.813 79.4734 208.375 79.753 207.471C79.926 206.91 79.7555 206.248 79.2452 205.5C77.9838 203.643 71.0965 205.843 67.0516 207.664L66.8422 207.759L28.753 191.655L32.5472 173.925L6.97886 169.513C5.91686 173.15 -1.05951 197.956 3.51826 205.871H3.51701Z" fill="#060405"/>
<path d="M42.1374 129.498C42.6603 143.702 39.9344 162.173 34.3147 181.85C33.3907 181.829 31.2905 181.425 30.3764 181.301C29.9087 181.239 29.4523 181.146 28.9947 181.093C13.9812 179.222 3.06152 171.14 3.06152 171.14C3.06152 171.14 8.28753 143.951 42.1374 129.498Z" fill="#3DA864"/>
<path d="M33.5476 182.114C33.505 182.114 33.4623 182.109 33.4197 182.097C33.1376 182.026 32.9671 181.741 33.0373 181.459L36.8966 166.09C36.9681 165.808 37.2564 165.636 37.5348 165.707C37.8169 165.779 37.9874 166.063 37.9172 166.345L34.0579 181.715C33.9977 181.953 33.7833 182.112 33.5488 182.112L33.5476 182.114Z" fill="black"/>
<path d="M58.7227 123.337C58.7227 123.337 64.9104 133.662 81.2579 138.061L82.1043 124.411C82.1043 124.411 80.5319 117.582 80.0191 111.642C79.5226 105.908 66.4488 93.5074 65.5598 92.755H65.5423C65.5247 92.7387 65.5084 92.7212 65.5084 92.7212C65.5084 92.7212 65.0809 101.521 62.9406 110.389C61.7758 115.131 61.0673 119.879 58.7227 123.337Z" fill="white"/>
<path d="M81.1222 138.57C64.7571 134.166 58.5293 124.037 58.2722 123.608C58.1669 123.433 58.1732 123.212 58.2873 123.043C60.1279 120.33 60.9366 116.764 61.7943 112.99C61.9986 112.087 62.2055 111.175 62.43 110.265C64.5339 101.548 64.979 92.7852 64.9828 92.6974C64.9928 92.488 65.127 92.3062 65.3226 92.2322C65.4956 92.167 65.6862 92.1971 65.8291 92.3074C65.8542 92.3212 65.8793 92.3388 65.9006 92.3563C66.041 92.4754 80.0025 105.35 80.5442 111.6C81.1122 118.177 82.6506 124.121 82.6306 124.446C81.6751 138.689 81.951 138.213 81.5661 138.49C81.4758 138.555 81.2839 138.613 81.1235 138.57H81.1222ZM59.3518 123.34C60.4539 124.964 66.7519 133.415 80.7736 137.383L81.5748 124.455C81.4018 123.69 79.9762 117.264 79.4947 111.688C79.0797 106.895 69.0001 96.7034 65.9633 93.8359C65.7727 96.4752 65.1408 103.509 63.4506 110.512C63.2286 111.42 63.023 112.325 62.8186 113.22C61.9685 116.964 61.1648 120.506 59.3505 123.337L59.3518 123.34Z" fill="#060405"/>
<path d="M64.8715 95.348C64.8715 95.348 64.4226 117.276 81.8472 119.126C101.81 121.245 94.1148 80.8235 94.1148 80.8235L81.0548 70.6549L65.7015 74.044L58.7227 84.412L64.8715 95.348Z" fill="white"/>
<path d="M83.3177 119.73C82.8224 119.73 82.3134 119.703 81.7905 119.647C64.8524 117.849 64.3521 97.4344 64.3446 95.4847L58.2635 84.6703C58.1669 84.4973 58.1744 84.2841 58.286 84.1186L65.2637 73.7506C65.3389 73.639 65.4542 73.56 65.5871 73.5312L80.9404 70.1408C81.0934 70.1069 81.2539 70.1433 81.3768 70.2399L94.4368 80.4085C94.5371 80.4875 94.606 80.5991 94.6298 80.7257C94.8342 81.8028 99.5537 107.213 91.0526 116.445C89.0415 118.629 86.4435 119.73 83.3164 119.73H83.3177ZM59.3405 84.4358L65.3301 95.0885C65.3752 95.17 65.3991 95.2627 65.3978 95.3568C65.3941 95.5712 65.1659 116.824 81.9021 118.6C85.364 118.967 88.1876 118.004 90.279 115.732C98.0491 107.295 94.0593 83.5092 93.633 81.1132L80.9266 71.2191L66.0197 74.5104L59.3393 84.4346L59.3405 84.4358Z" fill="#060405"/>
<path d="M51.7097 89.1277C47.4755 93.392 54.1747 109.192 62.924 110.39H62.9403C65.0806 101.522 65.9107 92.7225 65.9107 92.7225C65.9107 92.7225 68.5889 87.6896 68.6754 87.6382C68.7606 87.6043 72.5272 85.4126 71.8426 82.2805C71.1567 79.1472 72.699 79.7779 75.2367 80.0901C79.2453 80.5816 98.7663 89.4387 102.281 81.3941C109.939 63.8679 83.0431 61.9997 72.5673 64.1049C62.0902 66.1925 59.496 69.0864 54.0882 74.5243C52.0633 76.5605 55.801 85.0064 51.7097 89.1277Z" fill="#060405"/>
<path d="M90.6639 94.0816C90.6639 95.1136 90.1172 95.9624 89.4627 95.9624C88.8082 95.9624 88.249 95.1123 88.249 94.0816C88.249 93.051 88.7944 92.1884 89.4627 92.1884C90.131 92.1884 90.6639 93.0385 90.6639 94.0816Z" fill="#060405"/>
<path d="M80.1258 94.765C80.1258 95.7969 79.5804 96.6458 78.9247 96.6458C78.2689 96.6458 77.7109 95.7957 77.7109 94.765C77.7109 93.7343 78.2576 92.8717 78.9247 92.8717C79.5917 92.8717 80.1258 93.7218 80.1258 94.765Z" fill="#060405"/>
<path d="M83.4054 104.333C83.2085 104.12 83.221 103.788 83.4342 103.59L85.6522 101.531C86.0146 101.196 85.9908 101.079 85.9908 101.079C85.9707 101.018 85.7375 100.92 85.5983 100.862C83.7639 100.1 84.2254 98.7259 83.5872 94.1143C83.5558 93.8259 83.7627 93.5664 84.0523 93.5338C84.337 93.5024 84.6003 93.7093 84.6329 93.999C85.1482 98.2796 85.0579 99.3616 85.6886 99.7453C86.0234 99.9484 86.7757 100.069 86.9938 100.766C87.2258 101.507 86.5788 102.106 86.3669 102.303L84.1489 104.362C83.937 104.559 83.6035 104.548 83.4054 104.333Z" fill="black"/>
<path d="M78.9526 110.453C78.7495 110.245 78.7532 109.913 78.9614 109.709C79.1695 109.508 79.5018 109.511 79.7049 109.718C80.7669 110.807 82.4508 110.804 83.5216 109.88C83.7398 109.691 84.072 109.713 84.2626 109.934C84.4532 110.153 84.4281 110.486 84.2087 110.675C82.6941 111.984 80.382 111.916 78.9526 110.45V110.453Z" fill="black"/>
<path d="M68.3703 144.885L61.0867 133.649C60.9288 133.405 60.9977 133.08 61.2422 132.922C61.4867 132.763 61.8115 132.833 61.9694 133.077L69.253 144.313C70.4705 146.19 71.1488 146.293 72.9819 145.191C74.9128 144.028 80.8159 137.765 80.8761 137.702C81.0755 137.49 81.4077 137.48 81.6196 137.679C81.8315 137.878 81.8416 138.211 81.6422 138.422C81.3952 138.685 75.5786 144.855 73.5248 146.091C71.2027 147.488 69.9062 147.25 68.3716 144.885H68.3703Z" fill="black"/>
<path d="M80.9889 138.514C80.7394 138.365 80.6579 138.043 80.8071 137.793C80.9563 137.544 81.2785 137.462 81.528 137.611C83.3411 138.693 86.6788 140.318 87.9076 140.081C89.3721 139.797 89.8774 139.359 88.9457 137.448L85.8011 131.009C85.6732 130.748 85.7823 130.433 86.0431 130.305C86.3026 130.177 86.6199 130.285 86.7465 130.547L89.8911 136.987C90.9995 139.256 90.5394 140.642 88.1094 141.113C86.3428 141.462 82.5336 139.436 80.9901 138.514H80.9889Z" fill="black"/>
<path d="M287.722 214.784H178.375C176.209 214.784 174.454 216.539 174.454 218.705V277.274C174.454 279.439 176.209 281.195 178.375 281.195H287.722C289.888 281.195 291.643 279.439 291.643 277.274V218.705C291.643 216.539 289.888 214.784 287.722 214.784Z" fill="#6193F6"/>
<path d="M204.021 269.74C202.331 266.997 201.76 263.795 200.721 260.894C197.698 252.46 191.125 252.765 187.316 257.856C185.301 260.548 184.457 264.095 183.712 267.224L182.178 266.858C182.958 263.579 183.843 259.864 186.053 256.91C190.536 250.921 198.692 250.555 202.207 260.361C203.251 263.275 203.806 266.382 205.365 268.911C206.796 271.233 209.583 273.139 212.15 272.289C214.528 271.5 215.784 268.714 216.776 266.166C225.587 243.517 225.724 242.64 227.463 240.398C231.351 235.388 237.208 236.43 240.172 241.81C242.674 246.353 242.373 252.917 246.398 256.05C249.832 258.722 254.977 257.334 257.969 254.447C264.549 248.095 263.621 236.943 269.096 229.238C271.318 226.112 275.403 223.485 279.126 225.1C282.494 226.564 283.59 230.577 284.218 234.311L282.662 234.573C282.105 231.257 281.173 227.711 278.498 226.549C275.713 225.339 272.308 227.446 270.383 230.152C265.033 237.679 266.139 248.753 259.064 255.581C255.59 258.937 249.54 260.495 245.43 257.295C240.752 253.655 241.319 247.163 238.79 242.573C236.409 238.252 231.923 237.225 228.709 241.368C227.154 243.37 227.176 243.785 218.246 266.739C217.125 269.623 215.674 272.783 212.645 273.787C209.356 274.879 205.818 272.654 204.021 269.74Z" fill="#060405"/>
<path d="M186.049 266.546C186.176 268.052 185.032 269.377 183.509 269.486C182.003 269.595 180.678 268.452 180.569 266.946C180.46 265.421 181.603 264.115 183.109 264.006C184.634 263.897 185.94 265.023 186.049 266.547V266.546Z" fill="white"/>
<path d="M286.177 233.277C286.304 234.783 285.16 236.108 283.637 236.217C282.131 236.326 280.806 235.183 280.697 233.677C280.588 232.152 281.731 230.846 283.237 230.736C284.762 230.627 286.068 231.753 286.177 233.278V233.277Z" fill="white"/>
<path d="M203.679 222.704H182.941V226.244H203.679V222.704Z" fill="white"/>
<path d="M203.679 228.09H182.941V231.629H203.679V228.09Z" fill="white"/>
<path d="M191.44 233.476H182.941V237.016H191.44V233.476Z" fill="white"/>
<path d="M199.838 233.476H195.514V237.016H199.838V233.476Z" fill="white"/>
<path d="M363.792 66.6777H284.239C282.116 66.6777 280.395 68.3989 280.395 70.522V133.139C280.395 135.262 282.116 136.983 284.239 136.983H363.792C365.916 136.983 367.637 135.262 367.637 133.139V70.522C367.637 68.3989 365.916 66.6777 363.792 66.6777Z" fill="#D2E4FF"/>
<path d="M453.534 66.6777H381.827C379.704 66.6777 377.982 68.3989 377.982 70.522V133.139C377.982 135.262 379.704 136.983 381.827 136.983H453.534C455.657 136.983 457.378 135.262 457.378 133.139V70.522C457.378 68.3989 455.657 66.6777 453.534 66.6777Z" fill="#6193F6"/>
<path d="M353.518 127.72C356.559 122.599 358.324 116.634 358.324 110.249C358.324 91.3006 342.965 75.941 324.017 75.941C305.069 75.941 289.709 91.3006 289.709 110.249C289.709 116.634 291.476 122.6 294.515 127.72H353.517H353.518Z" fill="#060405"/>
<path d="M295.998 124.353C293.879 120.065 292.767 115.342 292.767 110.558C292.767 93.328 306.786 79.3101 324.016 79.3101C341.246 79.3101 355.266 93.328 355.266 110.558C355.266 115.342 354.155 120.065 352.036 124.353H295.998Z" fill="white"/>
<path d="M341.103 100.595L347.698 96.7874C345.317 92.6159 341.869 89.1415 337.724 86.7166L333.916 93.3117C336.905 95.0659 339.392 97.5773 341.102 100.594L341.103 100.595Z" fill="#FF7545"/>
<path d="M347.698 96.7874L341.103 100.595C342.775 103.546 343.687 106.869 343.648 110.46H351.271C351.304 105.504 350.045 100.902 347.698 96.7874Z" fill="#FE6021"/>
<path d="M333.916 93.313L337.724 86.7178C333.69 84.3594 329.016 82.9839 324.016 82.9839V90.6072C327.628 90.6072 331.005 91.604 333.916 93.313Z" fill="#EFC102"/>
<path d="M324.016 90.6072V82.9839C319.016 82.9839 314.341 84.3594 310.308 86.7178L314.116 93.313C317.027 91.604 320.404 90.6072 324.016 90.6072Z" fill="#F2CB2A"/>
<path d="M306.93 100.595L300.335 96.7874C297.994 100.89 296.729 105.49 296.761 110.46H304.385C304.346 106.874 305.254 103.549 306.93 100.595Z" fill="#D2E4FF"/>
<path d="M314.116 93.313L310.308 86.7178C306.164 89.1414 302.716 92.6158 300.334 96.7886L306.929 100.597C308.641 97.5798 311.127 95.0683 314.116 93.3142V93.313Z" fill="#BDD6FF"/>
<path d="M329.738 114.441C327.919 117.543 323.928 118.585 320.826 116.766C317.71 114.939 316.669 110.948 318.489 107.846C320.308 104.744 331.763 98.1115 331.763 98.1115C331.763 98.1115 331.558 111.339 329.74 114.441H329.738Z" fill="#060405"/>
<path d="M327.057 111.39C327.099 109.721 325.78 108.335 324.112 108.293C322.444 108.251 321.057 109.569 321.015 111.238C320.973 112.906 322.292 114.293 323.96 114.334C325.629 114.376 327.015 113.058 327.057 111.39Z" fill="white"/>
<path d="M356.957 123.518C357.025 123.518 357.025 123.413 356.957 123.413C356.889 123.413 356.889 123.518 356.957 123.518Z" fill="white"/>
<path d="M332.916 153.422V187.85C332.916 190.237 330.975 192.177 328.578 192.177H284.728C282.341 192.177 280.401 190.237 280.401 187.85V153.422C280.401 151.025 282.342 149.084 284.728 149.084H328.578C330.975 149.084 332.916 151.025 332.916 153.422Z" fill="#D2E4FF"/>
<path d="M322.21 180.559H291.107C290.342 180.559 289.929 179.661 290.427 179.081L297.243 171.125C297.6 170.708 298.246 170.708 298.604 171.125L301.951 175.037C302.326 175.475 303.011 175.45 303.353 174.986L310.899 164.738C311.256 164.252 311.983 164.252 312.341 164.738L322.932 179.131C323.367 179.723 322.944 180.556 322.211 180.556L322.21 180.559Z" fill="white"/>
<path d="M300.392 165.399C301.689 165.399 302.741 164.347 302.741 163.05C302.741 161.753 301.689 160.702 300.392 160.702C299.095 160.702 298.044 161.753 298.044 163.05C298.044 164.347 299.095 165.399 300.392 165.399Z" fill="white"/>
<path d="M391.791 153.422V187.85C391.791 190.237 389.85 192.177 387.453 192.177H343.603C341.217 192.177 339.276 190.237 339.276 187.85V153.422C339.276 151.025 341.217 149.084 343.603 149.084H387.453C389.85 149.084 391.791 151.025 391.791 153.422Z" fill="#D2E4FF"/>
<path d="M450.668 153.422V187.85C450.668 190.237 448.727 192.177 446.33 192.177H402.48C400.094 192.177 398.153 190.237 398.153 187.85V153.422C398.153 151.025 400.094 149.084 402.48 149.084H446.33C448.727 149.084 450.668 151.025 450.668 153.422Z" fill="#D2E4FF"/>
<path d="M441.529 97.7479C441.497 96.7047 440.727 95.8044 439.684 95.6114L437.61 95.1951C436.902 95.0459 436.275 94.5995 435.989 93.9224C435.89 93.6804 435.779 93.4447 435.666 93.2153C435.342 92.5445 435.392 91.7558 435.758 91.1101L436.808 89.3096C437.336 88.3968 437.174 87.2232 436.404 86.5147L431.66 82.0924C430.89 81.3715 429.716 81.2724 428.852 81.8693L427.113 83.0429C426.505 83.4466 425.716 83.5582 425.039 83.2849C424.797 83.1858 424.543 83.0918 424.301 82.9927C423.592 82.757 423.077 82.1602 422.885 81.453L422.357 79.4406C422.084 78.4162 421.134 77.7203 420.072 77.7579L413.601 77.9811C412.551 78.0125 411.668 78.7698 411.458 79.7942L411.06 81.8868C410.911 82.5952 410.433 83.2222 409.756 83.508C409.514 83.6196 409.272 83.7199 409.035 83.8315C408.371 84.155 407.601 84.1049 406.962 83.7325L405.161 82.6893C404.242 82.1614 403.087 82.3357 402.36 83.1056L397.925 87.8501C397.217 88.6074 397.124 89.776 397.72 90.6637L398.887 92.3965C399.309 93.0109 399.402 93.782 399.129 94.4591C399.036 94.7136 398.936 94.9681 398.843 95.2101C398.62 95.9173 398.023 96.4339 397.315 96.6257L395.29 97.1536C394.259 97.4144 393.569 98.3773 393.601 99.4205L393.843 105.898C393.874 106.96 394.631 107.86 395.674 108.053L397.718 108.438C398.439 108.581 399.066 109.053 399.358 109.742C399.451 109.984 399.563 110.22 399.693 110.462C400.017 111.12 399.966 111.909 399.581 112.554L398.538 114.355C398.004 115.268 398.185 116.423 398.955 117.15L403.693 121.572C404.469 122.293 405.636 122.373 406.525 121.795L408.258 120.622C408.854 120.218 409.644 120.106 410.321 120.38C410.556 120.479 410.817 120.573 411.072 120.653C411.78 120.908 412.277 121.492 412.468 122.199L413.003 124.224C413.257 125.248 414.22 125.938 415.27 125.907L421.759 125.683C422.821 125.633 423.703 124.882 423.896 123.833L424.3 121.776C424.443 121.068 424.908 120.441 425.585 120.155C425.827 120.044 426.081 119.932 426.312 119.813C426.97 119.497 427.772 119.54 428.398 119.912L430.199 120.974C431.131 121.489 432.285 121.309 432.994 120.551L437.416 115.813C438.137 115.025 438.236 113.87 437.639 112.987L436.466 111.229C436.049 110.639 435.95 109.862 436.224 109.192C436.323 108.931 436.417 108.695 436.484 108.453C436.726 107.746 437.317 107.248 438.043 107.056L440.068 106.51C441.08 106.236 441.788 105.286 441.757 104.243L441.527 97.7466L441.529 97.7479ZM417.681 113.783C411.073 113.783 405.706 108.423 405.706 101.834C405.706 95.2452 411.073 89.86 417.681 89.86C424.288 89.86 429.649 95.2202 429.649 101.834C429.649 108.448 424.288 113.783 417.681 113.783Z" fill="white"/>
<path d="M471.618 373.764C471.411 371.084 472.055 368.359 473.369 366.019C473.883 365.104 474.828 363.322 475.815 362.85C476.725 362.413 479.043 364.045 479.981 364.497C480.01 362.736 479.954 361.04 480.414 359.339C483.017 357.863 484.989 356.077 486.709 353.629C488.749 357.279 491.903 364.85 490.931 368.906C490.527 370.588 489.483 372.063 488.224 373.252C486.965 374.439 485.492 375.372 484.027 376.296C481.422 377.942 477.673 375.887 474.913 374.513C473.718 373.917 472.952 373.762 471.617 373.764H471.618Z" fill="#6193F6"/>
<path d="M516.703 306.053C523.575 331.165 486.205 339.992 475.177 356.711C470.949 362.953 468.551 370.474 468.379 378.153C467.802 370.468 469.881 362.583 474.024 355.96C482.386 342.199 498.891 338.216 509.4 326.801C514.302 321.572 517.868 313.196 516.704 306.053H516.703Z" fill="#6193F6"/>
<path d="M516.703 306.053C516.703 306.053 524.206 322.024 515.055 334.037L512.248 333.194V336.056C512.248 336.056 506.765 339.09 498.532 337.658V336.675L502.368 334.205L505.905 331.791C506.668 330.844 503.139 335.221 513.371 322.528L515.552 319.074L517.261 311.582L516.704 306.053H516.703Z" fill="#6193F6"/>
<path d="M523.074 361.96C523.074 361.96 518.897 364.847 511.761 363.63C504.6 362.412 490.04 347.471 478.346 351.839C479.776 350.432 482.813 347.446 482.619 347.638C482.619 347.638 499.78 338.115 511.666 342.101C523.529 346.087 523.075 361.96 523.075 361.96H523.074Z" fill="#6193F6"/>
<g opacity="0.1">
<path d="M523.074 361.96C523.074 361.96 518.897 364.847 511.761 363.63C504.6 362.412 490.04 347.471 478.346 351.839C481.133 350.057 487.328 346.532 490.637 346.611C497.393 346.771 501.258 350.121 509.064 356.685C516.869 363.249 523.074 361.96 523.074 361.96Z" fill="black"/>
</g>
<path d="M473.853 338.043C473.853 338.043 497.366 339.115 503.608 318.204L495.259 316.332L504.076 311.338C504.076 311.338 504.856 297.137 508.445 292.378C508.445 292.378 458.743 298.307 473.852 338.043H473.853Z" fill="#6193F6"/>
<path d="M464.883 372.457C466.485 356.381 460.484 340.078 444.013 335.343C447.283 336.271 447.291 336.188 448.218 336.614C462.763 343.385 467.171 358.248 464.884 372.457H464.883Z" fill="#6193F6"/>
<path d="M457.008 342.817C435.575 348.497 435.145 327.255 435.145 327.255C439.727 331.623 446.721 329.761 452.306 332.912C457.89 336.061 457.008 342.817 457.008 342.817Z" fill="#6193F6"/>
<path d="M466.327 372.072C465.402 358.322 464.642 345.547 459.446 331.452C464.321 342.311 466.098 354.978 466.314 366.888C466.344 368.617 466.29 370.347 466.327 372.071V372.072Z" fill="#6193F6"/>
<path d="M460.461 334.515C457.346 327.086 437.798 317.802 433.13 312.912C428.451 308.023 429.804 300.311 429.804 300.311C434.19 304.623 444.387 305.053 456.212 312.984C468.037 320.916 460.461 334.514 460.461 334.514V334.515Z" fill="#6193F6"/>
<path d="M462.055 367.212C462.055 367.212 462.517 350.359 453.34 348.224C444.163 346.088 440.123 348.224 440.123 348.224L440.469 350.878L437.122 348.397C437.122 348.397 430.311 350.301 427.599 349.782C427.599 349.782 429.099 354.688 437.295 356.651C445.49 358.613 456.513 359.074 462.055 367.213V367.212Z" fill="#6193F6"/>
<path d="M461.421 365.25C462.575 367.791 462.789 371.047 462.059 373.504L461.943 371.424L461.8 369.373C461.789 369.267 461.425 365.355 461.42 365.25H461.421Z" fill="#6193F6"/>
<g opacity="0.1">
<path d="M460.461 334.515C457.346 327.086 437.798 317.802 433.13 312.912C428.451 308.023 429.804 300.311 429.804 300.311C429.804 300.311 429.604 308.516 436.498 310.393C443.402 312.271 458.436 321.368 460.461 334.514V334.515Z" fill="black"/>
</g>
<path d="M468.984 372.072C467.727 352.658 473.777 328.464 486.432 313.275C490.772 307.815 496.096 303.178 501.943 299.461C499.165 301.534 496.388 303.611 493.941 306.061C476.894 321.43 468.731 349.396 468.983 372.072H468.984Z" fill="#6193F6"/>
<path d="M480.382 399.973H461.101C459.989 399.973 459.027 399.2 458.789 398.114L453.791 375.319H487.692L482.695 398.114C482.456 399.2 481.495 399.973 480.382 399.973Z" fill="white"/>
<path d="M482.889 396.734L482.585 398.118C482.344 399.209 481.389 399.986 480.276 399.986H460.992C459.88 399.986 458.915 399.21 458.684 398.118L453.679 375.329H456.952L458.211 381.068C460.215 390.217 468.315 396.732 477.685 396.732H482.888L482.889 396.734Z" fill="#D2E4FF"/>
<path d="M480.382 400.5H461.101C459.752 400.5 458.564 399.545 458.276 398.227L453.138 374.794H488.347L483.209 398.227C482.92 399.545 481.732 400.5 480.384 400.5H480.382ZM454.445 375.846L459.304 398.002C459.488 398.84 460.244 399.448 461.102 399.448H480.384C481.241 399.448 481.999 398.84 482.182 398.002L487.04 375.846H454.447H454.445Z" fill="#060405"/>
<path d="M490.086 376.535H451.398C450.876 376.535 450.427 376.167 450.326 375.654L449.195 369.93C449.062 369.254 449.578 368.626 450.267 368.626H491.216C491.904 368.626 492.421 369.256 492.288 369.93L491.157 375.654C491.055 376.166 490.607 376.535 490.085 376.535H490.086Z" fill="white"/>
<path d="M490.086 377.061H451.398C450.628 377.061 449.96 376.512 449.811 375.755L448.68 370.03C448.482 369.027 449.251 368.098 450.268 368.098H491.217C491.704 368.098 492.159 368.314 492.468 368.689C492.776 369.064 492.899 369.553 492.805 370.03L491.675 375.754C491.526 376.51 490.858 377.059 490.086 377.059V377.061ZM449.829 369.358C449.522 369.732 449.754 369.667 450.843 375.552C450.895 375.817 451.128 376.01 451.398 376.01H490.086C490.356 376.01 490.591 375.817 490.643 375.552L491.773 369.829C491.807 369.661 491.763 369.49 491.655 369.358C491.547 369.227 491.387 369.151 491.217 369.151C447.723 369.23 450.155 368.963 449.829 369.358Z" fill="#060405"/>
<path d="M242.855 343.601H205.914C205.696 343.601 205.52 343.424 205.52 343.206C205.52 342.988 205.696 342.811 205.914 342.811H242.855C243.073 342.811 243.25 342.988 243.25 343.206C243.25 343.424 243.073 343.601 242.855 343.601Z" fill="#C6E2FA"/>
<path d="M242.855 361.914H205.914C205.696 361.914 205.52 361.738 205.52 361.519C205.52 361.301 205.696 361.125 205.914 361.125H242.855C243.073 361.125 243.25 361.301 243.25 361.519C243.25 361.738 243.073 361.914 242.855 361.914Z" fill="#C6E2FA"/>
<path d="M236.146 352.758H183.892C183.674 352.758 183.497 352.581 183.497 352.363C183.497 352.145 183.674 351.968 183.892 351.968H236.146C236.364 351.968 236.541 352.145 236.541 352.363C236.541 352.581 236.364 352.758 236.146 352.758Z" fill="#C6E2FA"/>
<path d="M213.516 343.601C213.298 343.601 213.121 343.424 213.121 343.206V335.422C213.121 335.204 213.298 335.027 213.516 335.027C213.734 335.027 213.911 335.204 213.911 335.422V343.206C213.911 343.424 213.734 343.601 213.516 343.601Z" fill="#C6E2FA"/>
<path d="M226.505 352.758C226.287 352.758 226.11 352.581 226.11 352.363V343.206C226.11 342.988 226.287 342.811 226.505 342.811C226.723 342.811 226.9 342.988 226.9 343.206V352.363C226.9 352.581 226.723 352.758 226.505 352.758Z" fill="#C6E2FA"/>
<path d="M216.623 361.609C216.405 361.609 216.229 361.432 216.229 361.214V352.363C216.229 352.145 216.405 351.968 216.623 351.968C216.842 351.968 217.018 352.145 217.018 352.363V361.214C217.018 361.432 216.842 361.609 216.623 361.609Z" fill="#C6E2FA"/>
<path d="M519.201 172.784H482.26C482.042 172.784 481.865 172.607 481.865 172.389C481.865 172.171 482.042 171.994 482.26 171.994H519.201C519.419 171.994 519.596 172.171 519.596 172.389C519.596 172.607 519.419 172.784 519.201 172.784Z" fill="#C6E2FA"/>
<path d="M519.201 191.096H482.26C482.042 191.096 481.865 190.92 481.865 190.701C481.865 190.483 482.042 190.306 482.26 190.306H519.201C519.419 190.306 519.596 190.483 519.596 190.701C519.596 190.92 519.419 191.096 519.201 191.096Z" fill="#C6E2FA"/>
<path d="M512.492 181.941H460.238C460.02 181.941 459.843 181.764 459.843 181.546C459.843 181.328 460.02 181.151 460.238 181.151H512.492C512.71 181.151 512.886 181.328 512.886 181.546C512.886 181.764 512.71 181.941 512.492 181.941Z" fill="#C6E2FA"/>
<path d="M489.862 172.784C489.644 172.784 489.467 172.607 489.467 172.389V164.605C489.467 164.387 489.644 164.21 489.862 164.21C490.08 164.21 490.257 164.387 490.257 164.605V172.389C490.257 172.607 490.08 172.784 489.862 172.784Z" fill="#C6E2FA"/>
<path d="M502.849 181.941C502.631 181.941 502.454 181.764 502.454 181.546V172.389C502.454 172.171 502.631 171.994 502.849 171.994C503.067 171.994 503.244 172.171 503.244 172.389V181.546C503.244 181.764 503.067 181.941 502.849 181.941Z" fill="#C6E2FA"/>
<path d="M492.969 190.792C492.751 190.792 492.574 190.615 492.574 190.397V181.546C492.574 181.328 492.751 181.151 492.969 181.151C493.187 181.151 493.364 181.328 493.364 181.546V190.397C493.364 190.615 493.187 190.792 492.969 190.792Z" fill="#C6E2FA"/>
<path d="M135.982 30.9408H99.0414C98.8233 30.9408 98.6465 30.764 98.6465 30.5458C98.6465 30.3277 98.8233 30.1509 99.0414 30.1509H135.982C136.2 30.1509 136.377 30.3277 136.377 30.5458C136.377 30.764 136.2 30.9408 135.982 30.9408Z" fill="#C6E2FA"/>
<path d="M135.982 49.2532H99.0414C98.8233 49.2532 98.6465 49.0764 98.6465 48.8582C98.6465 48.64 98.8233 48.4633 99.0414 48.4633H135.982C136.2 48.4633 136.377 48.64 136.377 48.8582C136.377 49.0764 136.2 49.2532 135.982 49.2532Z" fill="#C6E2FA"/>
<path d="M129.273 40.0963H77.019C76.8008 40.0963 76.624 39.9195 76.624 39.7014C76.624 39.4832 76.8008 39.3064 77.019 39.3064H129.273C129.491 39.3064 129.668 39.4832 129.668 39.7014C129.668 39.9195 129.491 40.0963 129.273 40.0963Z" fill="#C6E2FA"/>
<path d="M106.643 30.9408C106.425 30.9408 106.248 30.764 106.248 30.5459V22.762C106.248 22.5439 106.425 22.3671 106.643 22.3671C106.861 22.3671 107.038 22.5439 107.038 22.762V30.5459C107.038 30.764 106.861 30.9408 106.643 30.9408Z" fill="#C6E2FA"/>
<path d="M119.632 40.0963C119.414 40.0963 119.237 39.9195 119.237 39.7014V30.5458C119.237 30.3277 119.414 30.1509 119.632 30.1509C119.85 30.1509 120.027 30.3277 120.027 30.5458V39.7014C120.027 39.9195 119.85 40.0963 119.632 40.0963Z" fill="#C6E2FA"/>
<path d="M109.75 48.9472C109.532 48.9472 109.355 48.7704 109.355 48.5522V39.7014C109.355 39.4832 109.532 39.3064 109.75 39.3064C109.969 39.3064 110.145 39.4832 110.145 39.7014V48.5522C110.145 48.7704 109.969 48.9472 109.75 48.9472Z" fill="#C6E2FA"/>
<path d="M488.461 39.4556H460.819C460.601 39.4556 460.424 39.2788 460.424 39.0606C460.424 38.8424 460.601 38.6656 460.819 38.6656H488.461C488.679 38.6656 488.856 38.8424 488.856 39.0606C488.856 39.2788 488.679 39.4556 488.461 39.4556Z" fill="#C6E2FA"/>
<path d="M488.461 53.1575H460.819C460.601 53.1575 460.424 52.9807 460.424 52.7625C460.424 52.5443 460.601 52.3676 460.819 52.3676H488.461C488.679 52.3676 488.856 52.5443 488.856 52.7625C488.856 52.9807 488.679 53.1575 488.461 53.1575Z" fill="#C6E2FA"/>
<path d="M483.44 46.3065H444.339C444.121 46.3065 443.944 46.1297 443.944 45.9116C443.944 45.6934 444.121 45.5166 444.339 45.5166H483.44C483.658 45.5166 483.835 45.6934 483.835 45.9116C483.835 46.1297 483.658 46.3065 483.44 46.3065Z" fill="#C6E2FA"/>
<path d="M466.507 39.4556C466.289 39.4556 466.112 39.2788 466.112 39.0606V33.2365C466.112 33.0183 466.289 32.8416 466.507 32.8416C466.725 32.8416 466.902 33.0183 466.902 33.2365V39.0606C466.902 39.2788 466.725 39.4556 466.507 39.4556Z" fill="#C6E2FA"/>
<path d="M476.226 46.3066C476.008 46.3066 475.831 46.1298 475.831 45.9116V39.0594C475.831 38.8412 476.008 38.6644 476.226 38.6644C476.444 38.6644 476.621 38.8412 476.621 39.0594V45.9116C476.621 46.1298 476.444 46.3066 476.226 46.3066Z" fill="#C6E2FA"/>
<path d="M468.831 52.9293C468.613 52.9293 468.437 52.7525 468.437 52.5343V45.9116C468.437 45.6934 468.613 45.5166 468.831 45.5166C469.05 45.5166 469.226 45.6934 469.226 45.9116V52.5343C469.226 52.7525 469.05 52.9293 468.831 52.9293Z" fill="#C6E2FA"/>
</g>
<defs>
<clipPath id="clip0_264_313596">
<rect width="539.151" height="400" fill="white" transform="translate(0 0.5)"/>
</clipPath>
</defs>
</svg>
