<svg width="34" height="34" viewBox="0 0 34 34" fill="none" xmlns="http://www.w3.org/2000/svg">
<path d="M9.99606 3.42549L11.6493 2.92824C12.555 2.65514 13.5291 2.72088 14.3898 3.1132C15.2506 3.50552 15.9392 4.19761 16.3271 5.06032L17.605 7.90216C17.9386 8.64421 18.0314 9.47208 17.8706 10.2696C17.7098 11.0671 17.3033 11.7943 16.7082 12.3491L14.5917 14.3225C14.5299 14.3801 14.4907 14.458 14.4812 14.5421C14.4189 15.1045 14.8 16.1996 15.6783 17.7225C16.3172 18.8289 16.8966 19.6067 17.3882 20.0416C17.7311 20.3462 17.9195 20.4113 18.0002 20.3887L20.8477 19.5174C21.6254 19.2796 22.4579 19.291 23.2287 19.5501C23.9995 19.8093 24.6699 20.3031 25.1459 20.9624L26.9606 23.4784C27.5125 24.2435 27.768 25.1829 27.6797 26.1221C27.5913 27.0614 27.1652 27.9367 26.4804 28.5855L25.2252 29.7755C24.5591 30.4063 23.7409 30.8539 22.8503 31.0746C21.9598 31.2953 21.0273 31.2816 20.1436 31.0349C16.2421 29.9455 12.7444 26.6532 9.61073 21.2259C6.47281 15.7916 5.37206 11.1109 6.38639 7.18249C6.61472 6.29897 7.0668 5.48915 7.69904 4.83111C8.33128 4.17306 9.12237 3.68897 9.99606 3.42549ZM10.6095 5.46124C10.0854 5.61913 9.61084 5.90931 9.23146 6.30383C8.85208 6.69835 8.58067 7.18391 8.44339 7.71374C7.59056 11.0174 8.56664 15.1668 11.451 20.1634C14.3311 25.1529 17.4321 28.0712 20.716 28.9892C21.246 29.1369 21.8052 29.1448 22.3392 29.0122C22.8732 28.8796 23.3638 28.6111 23.7632 28.2327L25.0198 27.0427C25.3312 26.7478 25.525 26.3498 25.5651 25.9228C25.6052 25.4957 25.489 25.0686 25.238 24.7208L23.4246 22.2062C23.2083 21.9062 22.9034 21.6815 22.5527 21.5636C22.2021 21.4457 21.8233 21.4406 21.4696 21.5489L18.6151 22.423C16.9576 22.916 15.4531 21.5829 13.8381 18.785C12.7501 16.9008 12.2429 15.4417 12.369 14.3069C12.4356 13.7176 12.709 13.1736 13.1425 12.7684L15.259 10.795C15.5296 10.5428 15.7145 10.2123 15.7876 9.84972C15.8608 9.48715 15.8186 9.11077 15.667 8.77341L14.3891 5.93157C14.2128 5.53974 13.9 5.22538 13.509 5.0471C13.1181 4.86882 12.6756 4.83878 12.2641 4.96257L10.6095 5.46124Z" fill="black"/>
</svg>
