<svg width="44" height="45" viewBox="0 0 44 45" fill="none" xmlns="http://www.w3.org/2000/svg">
<path d="M30.6178 16.7665C30.1836 16.4253 29.555 16.5007 29.2138 16.9349L29.211 16.9384L29.2005 16.9517L29.1566 17.0067C29.1175 17.0556 29.0591 17.1282 28.9832 17.2212C28.8313 17.4073 28.6099 17.6745 28.3345 17.9958C27.7827 18.6396 27.0193 19.4943 26.1679 20.3457C25.3121 21.2015 24.39 22.0311 23.5203 22.6398C22.6077 23.2787 21.9208 23.5528 21.5 23.5528C21.0701 23.5528 20.349 23.2711 19.3828 22.627C18.4627 22.0136 17.4764 21.1796 16.5573 20.3218C15.6425 19.468 14.8161 18.6112 14.2172 17.9661C13.9182 17.6442 13.6772 17.3763 13.5115 17.1897C13.4287 17.0964 13.3648 17.0236 13.322 16.9745L13.274 16.9191L13.2623 16.9056L13.2597 16.9026C12.9003 16.4833 12.2685 16.4342 11.8492 16.7936C11.4299 17.153 11.3813 17.7843 11.7407 18.2036L12.5 17.5528C11.7407 18.2036 11.7406 18.2035 11.7407 18.2036L11.7425 18.2056L11.7464 18.2102L11.7606 18.2267L11.8142 18.2884C11.8608 18.3419 11.9287 18.4194 12.0158 18.5175C12.19 18.7137 12.4412 18.9927 12.7516 19.327C13.3714 19.9945 14.2325 20.8877 15.1927 21.7839C16.1486 22.6761 17.2248 23.592 18.2734 24.2911C19.276 24.9595 20.4299 25.5528 21.5 25.5528C22.5792 25.5528 23.7048 24.952 24.6672 24.2783C25.6725 23.5746 26.6879 22.6541 27.5821 21.7599C28.4807 20.8613 29.2798 19.9661 29.853 19.2974C30.1401 18.9624 30.3719 18.6827 30.5325 18.486C30.6128 18.3876 30.6754 18.3098 30.7184 18.2561L30.7678 18.1941L30.781 18.1774L30.7857 18.1714C30.7859 18.1712 30.7863 18.1706 30 17.5528L30.7857 18.1714C31.127 17.7371 31.0521 17.1077 30.6178 16.7665Z" fill="black"/>
<path fill-rule="evenodd" clip-rule="evenodd" d="M5 18.5528C5 12.4777 9.92487 7.55283 16 7.55283H27C33.0751 7.55283 38 12.4777 38 18.5528V26.5528C38 32.628 33.0751 37.5528 27 37.5528H16C9.92487 37.5528 5 32.628 5 26.5528V18.5528ZM16 9.55283H27C31.9706 9.55283 36 13.5823 36 18.5528V26.5528C36 31.5234 31.9706 35.5528 27 35.5528H16C11.0294 35.5528 7 31.5234 7 26.5528V18.5528C7 13.5823 11.0294 9.55283 16 9.55283Z" fill="black"/>
</svg>
