<svg width="18" height="19" viewBox="0 0 18 19" fill="none" xmlns="http://www.w3.org/2000/svg">
<path d="M4.09451 8.76909L8.25003 4.61354V16.3029C8.25003 16.7171 8.58588 17.0529 9.00003 17.0529C9.41426 17.0529 9.75003 16.7171 9.75003 16.3029V4.61354L13.9056 8.76909C14.1985 9.06197 14.6734 9.06197 14.9663 8.76909C15.2592 8.47622 15.2592 8.00133 14.9663 7.70844L9.53043 2.27255C9.23748 1.97966 8.76266 1.97966 8.46971 2.27255L3.03385 7.70844C2.8869 7.8554 2.81367 8.04815 2.81418 8.24079C2.81431 8.28812 2.81889 8.33537 2.82791 8.38202C2.85537 8.52384 2.92401 8.65929 3.03385 8.76909C3.32674 9.06197 3.80162 9.06197 4.09451 8.76909Z" fill="#1ED760"/>
</svg>
