<svg width="15" height="16" viewBox="0 0 15 16" fill="none" xmlns="http://www.w3.org/2000/svg">
<path fill-rule="evenodd" clip-rule="evenodd" d="M2.13394 2.42787C1.88987 2.18379 1.49414 2.18379 1.25006 2.42787C1.00599 2.67195 1.00599 3.06768 1.25006 3.31175L2.89503 4.95672C1.87127 5.90004 1.2028 6.96359 0.871469 7.56653C0.703569 7.87209 0.703569 8.23365 0.871469 8.53922C1.56197 9.79572 3.71673 13.0529 7.50006 13.0529C8.57169 13.0529 9.51263 12.7915 10.3267 12.3884L12.2412 14.3029C12.4853 14.547 12.881 14.547 13.1251 14.3029C13.3691 14.0588 13.3691 13.6631 13.1251 13.419L11.4216 11.7156M2.03169 8.05284C2.34952 7.4949 2.93246 6.61162 3.77978 5.84147L5.14639 7.20809C5.05167 7.47197 5.00006 7.7564 5.00006 8.05284C5.00006 9.43359 6.11935 10.5529 7.50006 10.5529C7.79656 10.5529 8.08094 10.5013 8.34488 10.4065L9.38106 11.4428C8.815 11.6684 8.18925 11.8029 7.50006 11.8029C5.99561 11.8029 4.79363 11.1622 3.85423 10.331C2.96653 9.54565 2.35874 8.62703 2.03169 8.05284Z" fill="white"/>
<path d="M9.96228 8.48839L7.06459 5.59066C7.20603 5.56581 7.35153 5.55286 7.50009 5.55286C8.88078 5.55286 10.0001 6.67214 10.0001 8.05283C10.0001 8.20139 9.98715 8.34695 9.96228 8.48839Z" fill="white"/>
<path d="M11.4854 10.0115C12.1903 9.30727 12.6848 8.55058 12.9684 8.05283C12.6413 7.47871 12.0336 6.56006 11.1458 5.77469C10.2065 4.94358 9.00447 4.30286 7.50003 4.30286C6.96253 4.30286 6.46365 4.38464 6.00154 4.52768L5.02823 3.55436C5.75757 3.24517 6.58072 3.05286 7.50003 3.05286C11.2833 3.05286 13.4381 6.30999 14.1286 7.56652C14.2965 7.87208 14.2965 8.23364 14.1286 8.53921C13.8267 9.08864 13.2448 10.0205 12.3693 10.8954L11.4854 10.0115Z" fill="white"/>
</svg>
