<svg width="133" height="48" viewBox="0 0 133 48" fill="none" xmlns="http://www.w3.org/2000/svg">
<path fill-rule="evenodd" clip-rule="evenodd" d="M40.8201 24.3866C40.8201 23.1811 40.712 22.022 40.5111 20.9093H24.5001V27.4852H33.6492C33.2551 29.6102 32.0574 31.4107 30.2569 32.6161V36.8816H35.751C38.9656 33.9221 40.8201 29.5639 40.8201 24.3866Z" fill="#4285F4"/>
<path fill-rule="evenodd" clip-rule="evenodd" d="M24.5001 40.9999C29.0901 40.9999 32.9383 39.4776 35.751 36.8812L30.2569 32.6158C28.7346 33.6358 26.7873 34.2385 24.5001 34.2385C20.0723 34.2385 16.3246 31.248 14.9878 27.2299H9.30823V31.6344C12.1055 37.1903 17.8546 40.9999 24.5001 40.9999Z" fill="#34A853"/>
<path fill-rule="evenodd" clip-rule="evenodd" d="M14.9876 27.2303C14.6476 26.2103 14.4544 25.1207 14.4544 24.0003C14.4544 22.8798 14.6476 21.7903 14.9876 20.7703V16.3657H9.30806C8.1567 18.6607 7.49988 21.2571 7.49988 24.0003C7.49988 26.7435 8.1567 29.3398 9.30806 31.6348L14.9876 27.2303Z" fill="#FBBC05"/>
<path fill-rule="evenodd" clip-rule="evenodd" d="M24.5001 13.7615C26.996 13.7615 29.2369 14.6192 30.9987 16.3038L35.8746 11.4279C32.9305 8.68467 29.0823 7.00012 24.5001 7.00012C17.8546 7.00012 12.1055 10.8097 9.30823 16.3656L14.9878 20.7701C16.3246 16.752 20.0723 13.7615 24.5001 13.7615Z" fill="#EA4335"/>
<path d="M66.1983 32.3121C65.2551 32.3121 64.3569 32.1456 63.5039 31.8127C62.6508 31.4729 61.8949 30.9736 61.236 30.3147C60.5841 29.6558 60.0674 28.8409 59.686 27.87C59.3114 26.899 59.1242 25.779 59.1242 24.5098C59.1242 22.8522 59.4397 21.4443 60.0709 20.2861C60.7089 19.121 61.562 18.2333 62.63 17.6229C63.705 17.0126 64.8944 16.7075 66.1983 16.7075C68.1263 16.7075 69.6417 17.1548 70.7444 18.0495C71.8472 18.9441 72.5858 20.2098 72.9603 21.8466L70.0682 22.2627C69.7977 21.3889 69.3539 20.6918 68.7366 20.1717C68.1263 19.6446 67.3426 19.3776 66.3855 19.3707C65.4354 19.3568 64.6448 19.5614 64.0136 19.9844C63.3825 20.4075 62.9074 21.0074 62.5884 21.7842C62.2763 22.5609 62.1203 23.4695 62.1203 24.5098C62.1203 25.5501 62.2763 26.4517 62.5884 27.2146C62.9074 27.9775 63.3825 28.5704 64.0136 28.9935C64.6448 29.4166 65.4354 29.635 66.3855 29.6489C67.0305 29.6628 67.6131 29.5518 68.1333 29.316C68.6603 29.0802 69.1042 28.7092 69.4649 28.2029C69.8255 27.6966 70.0821 27.0481 70.2347 26.2575H67.8628V24.0728H73.2516C73.2654 24.163 73.2758 24.3225 73.2828 24.5514C73.2897 24.7803 73.2932 24.912 73.2932 24.9467C73.2932 26.3823 73.0019 27.655 72.4193 28.7646C71.8368 29.8743 71.0149 30.7447 69.9538 31.3758C68.8927 32 67.6408 32.3121 66.1983 32.3121ZM80.4341 32.3121C79.3036 32.3121 78.3119 32.059 77.4588 31.5527C76.6058 31.0464 75.94 30.3494 75.4614 29.4616C74.9898 28.567 74.754 27.5405 74.754 26.3823C74.754 25.2103 74.9967 24.1803 75.4822 23.2926C75.9677 22.398 76.637 21.7009 77.49 21.2016C78.3431 20.7023 79.3244 20.4526 80.4341 20.4526C81.5646 20.4526 82.5563 20.7057 83.4094 21.212C84.2694 21.7183 84.9386 22.4188 85.4172 23.3134C85.8957 24.2012 86.135 25.2241 86.135 26.3823C86.135 27.5475 85.8922 28.5774 85.4068 29.4721C84.9282 30.3598 84.259 31.0568 83.399 31.5631C82.5459 32.0624 81.5576 32.3121 80.4341 32.3121ZM80.4341 29.6697C81.3426 29.6697 82.0188 29.3646 82.4627 28.7542C82.9135 28.137 83.1389 27.3464 83.1389 26.3823C83.1389 25.3836 82.91 24.5861 82.4523 23.9896C82.0015 23.3932 81.3288 23.095 80.4341 23.095C79.8168 23.095 79.3106 23.2337 78.9152 23.5111C78.5199 23.7885 78.2252 24.1734 78.031 24.6658C77.8437 25.1582 77.7501 25.7304 77.7501 26.3823C77.7501 27.388 77.9755 28.189 78.4263 28.7854C78.884 29.375 79.5533 29.6697 80.4341 29.6697ZM93.4786 32.3121C92.3481 32.3121 91.3564 32.059 90.5033 31.5527C89.6502 31.0464 88.9844 30.3494 88.5059 29.4616C88.0343 28.567 87.7985 27.5405 87.7985 26.3823C87.7985 25.2103 88.0412 24.1803 88.5267 23.2926C89.0122 22.398 89.6815 21.7009 90.5345 21.2016C91.3876 20.7023 92.3689 20.4526 93.4786 20.4526C94.6091 20.4526 95.6008 20.7057 96.4539 21.212C97.3139 21.7183 97.9831 22.4188 98.4617 23.3134C98.9402 24.2012 99.1795 25.2241 99.1795 26.3823C99.1795 27.5475 98.9367 28.5774 98.4513 29.4721C97.9727 30.3598 97.3034 31.0568 96.4435 31.5631C95.5904 32.0624 94.6021 32.3121 93.4786 32.3121ZM93.4786 29.6697C94.3871 29.6697 95.0633 29.3646 95.5072 28.7542C95.958 28.137 96.1834 27.3464 96.1834 26.3823C96.1834 25.3836 95.9545 24.5861 95.4968 23.9896C95.046 23.3932 94.3732 23.095 93.4786 23.095C92.8613 23.095 92.355 23.2337 91.9597 23.5111C91.5644 23.7885 91.2697 24.1734 91.0755 24.6658C90.8882 25.1582 90.7946 25.7304 90.7946 26.3823C90.7946 27.388 91.02 28.189 91.4708 28.7854C91.9285 29.375 92.5978 29.6697 93.4786 29.6697ZM106.273 37.3056C105.635 37.3056 105.028 37.2015 104.453 36.9935C103.877 36.7924 103.361 36.508 102.903 36.1404C102.452 35.7798 102.084 35.3567 101.8 34.8713L104.422 33.6021C104.602 33.935 104.859 34.1881 105.191 34.3615C105.531 34.5349 105.899 34.6216 106.294 34.6216C106.717 34.6216 107.116 34.5488 107.491 34.4031C107.865 34.2644 108.163 34.0529 108.385 33.7685C108.614 33.4911 108.722 33.1443 108.708 32.7282V29.4616H109.061V20.7647H111.537V32.7698C111.537 33.0472 111.523 33.3073 111.496 33.5501C111.475 33.7997 111.433 34.0459 111.371 34.2887C111.191 34.9753 110.854 35.5405 110.362 35.9844C109.876 36.4282 109.28 36.7577 108.572 36.9727C107.865 37.1946 107.099 37.3056 106.273 37.3056ZM106.024 32.3121C104.99 32.3121 104.085 32.052 103.309 31.5319C102.532 31.0117 101.925 30.3043 101.488 29.4096C101.058 28.515 100.843 27.5059 100.843 26.3823C100.843 25.238 101.061 24.222 101.498 23.3342C101.942 22.4396 102.563 21.7356 103.361 21.2224C104.158 20.7092 105.094 20.4526 106.169 20.4526C107.237 20.4526 108.136 20.7127 108.864 21.2328C109.592 21.753 110.143 22.4604 110.518 23.355C110.892 24.2497 111.08 25.2588 111.08 26.3823C111.08 27.5059 110.889 28.515 110.507 29.4096C110.133 30.3043 109.571 31.0117 108.822 31.5319C108.073 32.052 107.14 32.3121 106.024 32.3121ZM106.481 29.7945C107.113 29.7945 107.615 29.6524 107.99 29.368C108.371 29.0837 108.645 28.6849 108.812 28.1717C108.978 27.6584 109.061 27.062 109.061 26.3823C109.061 25.7027 108.978 25.1062 108.812 24.593C108.645 24.0798 108.378 23.681 108.011 23.3966C107.65 23.1123 107.175 22.9701 106.585 22.9701C105.954 22.9701 105.434 23.1262 105.025 23.4383C104.623 23.7434 104.325 24.1561 104.13 24.6762C103.936 25.1894 103.839 25.7581 103.839 26.3823C103.839 27.0135 103.933 27.5891 104.12 28.1092C104.307 28.6225 104.595 29.0317 104.983 29.3368C105.372 29.642 105.871 29.7945 106.481 29.7945ZM114.659 32V16.7075H117.488V32H114.659ZM125.83 32.3121C124.678 32.3121 123.662 32.0659 122.781 31.5735C121.908 31.0741 121.221 30.391 120.722 29.5241C120.229 28.6502 119.983 27.6515 119.983 26.528C119.983 25.3004 120.226 24.2324 120.711 23.3238C121.197 22.4153 121.866 21.7113 122.719 21.212C123.572 20.7057 124.553 20.4526 125.663 20.4526C126.842 20.4526 127.844 20.73 128.67 21.2848C129.495 21.8397 130.105 22.6199 130.501 23.6255C130.896 24.6311 131.035 25.8136 130.917 27.173H128.118V26.1327C128.118 24.9883 127.934 24.1665 127.567 23.6671C127.206 23.1608 126.613 22.9077 125.788 22.9077C124.824 22.9077 124.113 23.2025 123.655 23.792C123.205 24.3745 122.979 25.238 122.979 26.3823C122.979 27.4296 123.205 28.241 123.655 28.8167C124.113 29.3854 124.782 29.6697 125.663 29.6697C126.218 29.6697 126.693 29.5483 127.088 29.3056C127.484 29.0629 127.785 28.7126 127.993 28.2549L130.823 29.0663C130.4 30.0928 129.731 30.8903 128.815 31.459C127.907 32.0277 126.911 32.3121 125.83 32.3121ZM122.105 27.173V25.0715H129.554V27.173H122.105Z" fill="black"/>
</svg>
