<svg width="39" height="39" viewBox="0 0 39 39" fill="none" xmlns="http://www.w3.org/2000/svg">
<circle cx="19.5" cy="19.5" r="18.75" fill="#0000FF" fill-opacity="0.07" stroke="#0000FF" stroke-width="1.5"/>
<path d="M27.5001 27.5714H12.5001C11.7885 27.5715 11.1039 27.2993 10.5867 26.8106C10.0695 26.3219 9.75893 25.6539 9.71864 24.9434L9.71436 24.7857V12.3572C9.7143 11.8685 9.89975 11.398 10.2332 11.0408C10.5667 10.6836 11.0234 10.4663 11.5109 10.4329L11.6429 10.4286H24.9286C25.4173 10.4285 25.8878 10.614 26.245 10.9475C26.6022 11.281 26.8195 11.7376 26.8529 12.2252L26.8572 12.3572V13H28.3572C28.8459 13 29.3164 13.1854 29.6736 13.5189C30.0308 13.8524 30.2481 14.3091 30.2815 14.7966L30.2858 14.9286V24.7857C30.2858 25.4973 30.0136 26.1819 29.5249 26.6991C29.0362 27.2163 28.3682 27.5269 27.6578 27.5672L27.5001 27.5714ZM12.5001 26.2857H27.5001C27.8767 26.2857 28.2395 26.144 28.5164 25.8888C28.7933 25.6336 28.9642 25.2836 28.9949 24.9083L29.0001 24.7857V14.9286C29.0001 14.7732 28.9438 14.6232 28.8417 14.5061C28.7396 14.389 28.5985 14.3129 28.4446 14.2917L28.3572 14.2857H26.8572V23.5C26.8572 23.6554 26.8009 23.8055 26.6988 23.9225C26.5967 24.0396 26.4557 24.1157 26.3018 24.1369L26.2144 24.1429C26.059 24.1429 25.9089 24.0866 25.7918 23.9845C25.6748 23.8824 25.5986 23.7413 25.5775 23.5874L25.5715 23.5V12.3572C25.5715 12.2018 25.5152 12.0517 25.4131 11.9346C25.311 11.8176 25.17 11.7414 25.0161 11.7203L24.9286 11.7143H11.6429C11.4876 11.7143 11.3375 11.7706 11.2204 11.8727C11.1033 11.9748 11.0272 12.1158 11.0061 12.2697L11.0001 12.3572V24.7857C11.0001 25.1622 11.1416 25.5249 11.3967 25.8018C11.6517 26.0787 12.0015 26.2496 12.3766 26.2806L12.5001 26.2857ZM16.7824 18.1463C17.3738 18.1463 17.8538 18.6263 17.8538 19.2177V22.2143C17.8538 22.8057 17.3738 23.2857 16.7824 23.2857H13.7858C13.1944 23.2857 12.7144 22.8057 12.7144 22.2143V19.2177C12.7144 18.6263 13.1944 18.1463 13.7858 18.1463H16.7824ZM20.2144 22H23.2109C23.3738 22.0001 23.5306 22.0619 23.6496 22.1731C23.7686 22.2843 23.841 22.4366 23.8521 22.5991C23.8632 22.7616 23.8122 22.9222 23.7094 23.0486C23.6066 23.1749 23.4597 23.2575 23.2984 23.2797L23.2109 23.2857H20.2144C20.0515 23.2857 19.8947 23.2238 19.7757 23.1126C19.6567 23.0014 19.5843 22.8492 19.5732 22.6867C19.5621 22.5242 19.6131 22.3635 19.7159 22.2372C19.8187 22.1108 19.9656 22.0282 20.1269 22.006L20.2144 22ZM16.5689 19.432H14.0001V22H16.5689V19.432ZM20.2144 18.1463H23.2109C23.3738 18.1464 23.5306 18.2082 23.6496 18.3194C23.7686 18.4306 23.841 18.5828 23.8521 18.7453C23.8632 18.9078 23.8122 19.0685 23.7094 19.1948C23.6066 19.3212 23.4597 19.4038 23.2984 19.426L23.2109 19.432H20.2144C20.0503 19.4337 19.8918 19.3726 19.7714 19.2612C19.6509 19.1498 19.5776 18.9966 19.5665 18.833C19.5553 18.6693 19.6071 18.5076 19.7113 18.3809C19.8155 18.2542 19.9642 18.1721 20.1269 18.1514L20.2144 18.1463ZM13.3538 14.2832H23.2109C23.3738 14.2832 23.5306 14.3451 23.6496 14.4563C23.7686 14.5675 23.841 14.7197 23.8521 14.8822C23.8632 15.0447 23.8122 15.2054 23.7094 15.3317C23.6066 15.4581 23.4597 15.5407 23.2984 15.5629L23.2109 15.5689H13.3538C13.191 15.5686 13.0343 15.5066 12.9155 15.3953C12.7966 15.2841 12.7244 15.1318 12.7134 14.9694C12.7025 14.807 12.7535 14.6464 12.8563 14.5202C12.9591 14.3939 13.1059 14.3113 13.2672 14.2892L13.3538 14.2832Z" fill="#0000FF"/>
</svg>
