<svg width="26" height="26" viewBox="0 0 26 26" fill="none" xmlns="http://www.w3.org/2000/svg">
<circle cx="13" cy="13" r="13" fill="#FD2523"/>
<path d="M12.466 18.21C11.808 18.21 11.2153 18.056 10.688 17.748C10.1653 17.4353 9.75 17.0037 9.442 16.453C9.134 15.9023 8.98 15.27 8.98 14.556V11.49C8.98 10.7247 9.13167 10.0597 9.435 9.495C9.743 8.93033 10.1723 8.494 10.723 8.186C11.2783 7.878 11.9223 7.724 12.655 7.724C13.1637 7.724 13.6467 7.81033 14.104 7.983C14.5613 8.151 14.9673 8.42167 15.322 8.795L14.104 9.978C13.9267 9.768 13.7097 9.60233 13.453 9.481C13.201 9.35967 12.935 9.299 12.655 9.299C12.263 9.299 11.92 9.39233 11.626 9.579C11.332 9.761 11.1033 10.0013 10.94 10.3C10.7813 10.5987 10.702 10.9183 10.702 11.259V12.932L10.394 12.596C10.6833 12.26 11.031 11.9987 11.437 11.812C11.843 11.6207 12.2677 11.525 12.711 11.525C13.3457 11.525 13.9057 11.6697 14.391 11.959C14.8763 12.2437 15.259 12.6357 15.539 13.135C15.819 13.6297 15.959 14.1943 15.959 14.829C15.959 15.459 15.798 16.0307 15.476 16.544C15.1587 17.0527 14.7363 17.4587 14.209 17.762C13.6817 18.0607 13.1007 18.21 12.466 18.21ZM12.466 16.593C12.7927 16.593 13.0913 16.516 13.362 16.362C13.6327 16.2033 13.8473 15.991 14.006 15.725C14.1693 15.4543 14.251 15.1557 14.251 14.829C14.251 14.5023 14.1717 14.2037 14.013 13.933C13.8543 13.6623 13.6397 13.4477 13.369 13.289C13.103 13.1257 12.8067 13.044 12.48 13.044C12.1533 13.044 11.8547 13.1257 11.584 13.289C11.3133 13.4477 11.0987 13.6623 10.94 13.933C10.7813 14.2037 10.702 14.5023 10.702 14.829C10.702 15.1463 10.779 15.4403 10.933 15.711C11.0917 15.977 11.304 16.1917 11.57 16.355C11.8407 16.5137 12.1393 16.593 12.466 16.593Z" fill="white"/>
</svg>
