<svg width="25" height="24" viewBox="0 0 25 24" fill="none" xmlns="http://www.w3.org/2000/svg">
<g id="Navigation / more vert">
<path id="Vector" d="M12.5 22C6.977 22 2.5 17.523 2.5 12C2.5 6.477 6.977 2 12.5 2C18.023 2 22.5 6.477 22.5 12C22.5 17.523 18.023 22 12.5 22ZM7.5 13C7.5 14.3261 8.02678 15.5979 8.96447 16.5355C9.90215 17.4732 11.1739 18 12.5 18C13.8261 18 15.0979 17.4732 16.0355 16.5355C16.9732 15.5979 17.5 14.3261 17.5 13H15.5C15.5 13.7956 15.1839 14.5587 14.6213 15.1213C14.0587 15.6839 13.2956 16 12.5 16C11.7044 16 10.9413 15.6839 10.3787 15.1213C9.81607 14.5587 9.5 13.7956 9.5 13H7.5ZM8.5 11C8.89782 11 9.27936 10.842 9.56066 10.5607C9.84196 10.2794 10 9.89782 10 9.5C10 9.10218 9.84196 8.72064 9.56066 8.43934C9.27936 8.15804 8.89782 8 8.5 8C8.10218 8 7.72064 8.15804 7.43934 8.43934C7.15804 8.72064 7 9.10218 7 9.5C7 9.89782 7.15804 10.2794 7.43934 10.5607C7.72064 10.842 8.10218 11 8.5 11ZM16.5 11C16.8978 11 17.2794 10.842 17.5607 10.5607C17.842 10.2794 18 9.89782 18 9.5C18 9.10218 17.842 8.72064 17.5607 8.43934C17.2794 8.15804 16.8978 8 16.5 8C16.1022 8 15.7206 8.15804 15.4393 8.43934C15.158 8.72064 15 9.10218 15 9.5C15 9.89782 15.158 10.2794 15.4393 10.5607C15.7206 10.842 16.1022 11 16.5 11Z" fill="#3DA864"/>
</g>
</svg>
