<svg width="34" height="34" viewBox="0 0 34 34" fill="none" xmlns="http://www.w3.org/2000/svg">
<path d="M26.9167 28.3333H7.08333C6.33189 28.3333 5.61122 28.0348 5.07986 27.5035C4.54851 26.9721 4.25 26.2514 4.25 25.5V8.49999C4.25 7.74854 4.54851 7.02787 5.07986 6.49652C5.61122 5.96516 6.33189 5.66665 7.08333 5.66665H21.25C22.0014 5.66665 22.7221 5.96516 23.2535 6.49652C23.7848 7.02787 24.0833 7.74854 24.0833 8.49999V9.91665M26.9167 28.3333C26.1652 28.3333 25.4446 28.0348 24.9132 27.5035C24.3818 26.9721 24.0833 26.2514 24.0833 25.5V9.91665M26.9167 28.3333C27.6681 28.3333 28.3888 28.0348 28.9201 27.5035C29.4515 26.9721 29.75 26.2514 29.75 25.5V12.75C29.75 11.9985 29.4515 11.2779 28.9201 10.7465C28.3888 10.2152 27.6681 9.91665 26.9167 9.91665H24.0833M18.4167 5.66665H12.75M9.91667 22.6667H18.4167M9.91667 11.3333H18.4167V17H9.91667V11.3333Z" stroke="#242424" stroke-width="2" stroke-linecap="round" stroke-linejoin="round"/>
</svg>
