<svg width="35" height="34" viewBox="0 0 35 34" fill="none" xmlns="http://www.w3.org/2000/svg">
<path d="M27.4167 28.3333H7.58333C6.83189 28.3333 6.11122 28.0348 5.57986 27.5034C5.04851 26.9721 4.75 26.2514 4.75 25.5V8.49996C4.75 7.74851 5.04851 7.02784 5.57986 6.49649C6.11122 5.96514 6.83189 5.66663 7.58333 5.66663H21.75C22.5014 5.66663 23.2221 5.96514 23.7535 6.49649C24.2848 7.02784 24.5833 7.74851 24.5833 8.49996V9.91663M27.4167 28.3333C26.6652 28.3333 25.9446 28.0348 25.4132 27.5034C24.8818 26.9721 24.5833 26.2514 24.5833 25.5V9.91663M27.4167 28.3333C28.1681 28.3333 28.8888 28.0348 29.4201 27.5034C29.9515 26.9721 30.25 26.2514 30.25 25.5V12.75C30.25 11.9985 29.9515 11.2778 29.4201 10.7465C28.8888 10.2151 28.1681 9.91663 27.4167 9.91663H24.5833M18.9167 5.66663H13.25M10.4167 22.6666H18.9167M10.4167 11.3333H18.9167V17H10.4167V11.3333Z" stroke="#0000FF" stroke-width="2" stroke-linecap="round" stroke-linejoin="round"/>
</svg>
