<svg width="37" height="38" viewBox="0 0 37 38" fill="none" xmlns="http://www.w3.org/2000/svg">
<g clip-path="url(#clip0_240_304132)">
<path d="M23.1251 28.3028V29.4591C23.1251 30.6857 22.6378 31.8621 21.7705 32.7294C20.9031 33.5968 19.7267 34.0841 18.5001 34.0841C17.2735 34.0841 16.0971 33.5968 15.2297 32.7294C14.3624 31.8621 13.8751 30.6857 13.8751 29.4591V28.3028M30.9067 25.9491C29.0509 23.6778 27.7407 22.5216 27.7407 16.2598C27.7407 10.5255 24.8125 8.48253 22.4024 7.49033C22.0823 7.3588 21.781 7.05673 21.6834 6.72792C21.2606 5.28911 20.0755 4.02158 18.5001 4.02158C16.9247 4.02158 15.7388 5.28984 15.3204 6.72937C15.2228 7.06179 14.9215 7.3588 14.6014 7.49033C12.1884 8.48398 9.2631 10.5197 9.2631 16.2598C9.25949 22.5216 7.94931 23.6778 6.09353 25.9491C5.32463 26.89 5.99814 28.3028 7.343 28.3028H29.6644C31.002 28.3028 31.6712 26.8857 30.9067 25.9491Z" stroke="black" stroke-width="2.3125" stroke-linecap="round" stroke-linejoin="round"/>
<circle cx="29.5" cy="8.05283" r="6.875" fill="#D34645" stroke="white" stroke-width="1.25"/>
<path d="M29.44 11.1653C29.1625 11.1653 28.9037 11.1091 28.6637 10.9966C28.4262 10.8816 28.2225 10.7241 28.0525 10.5241C27.8825 10.3216 27.7612 10.0891 27.6887 9.82658L28.4425 9.62408C28.485 9.78408 28.5575 9.92283 28.66 10.0403C28.765 10.1578 28.8875 10.2491 29.0275 10.3141C29.1675 10.3766 29.3125 10.4078 29.4625 10.4078C29.66 10.4078 29.8387 10.3603 29.9987 10.2653C30.1612 10.1703 30.2887 10.0428 30.3812 9.88283C30.4762 9.72283 30.5237 9.54658 30.5237 9.35408C30.5237 9.15658 30.475 8.97783 30.3775 8.81783C30.2825 8.65783 30.1537 8.53158 29.9912 8.43908C29.8312 8.34408 29.655 8.29658 29.4625 8.29658C29.2425 8.29658 29.0562 8.34033 28.9037 8.42783C28.7512 8.51533 28.6325 8.61658 28.5475 8.73158L27.865 8.49158L28.03 5.65283H30.9437V6.39158H28.4312L28.75 6.09533L28.6187 8.22158L28.465 8.02283C28.6075 7.88033 28.7775 7.77158 28.975 7.69658C29.1725 7.62158 29.3687 7.58408 29.5637 7.58408C29.8987 7.58408 30.1975 7.66158 30.46 7.81658C30.725 7.97158 30.9337 8.18283 31.0862 8.45033C31.2387 8.71533 31.315 9.01658 31.315 9.35408C31.315 9.68908 31.2287 9.99408 31.0562 10.2691C30.8837 10.5416 30.655 10.7591 30.37 10.9216C30.085 11.0841 29.775 11.1653 29.44 11.1653Z" fill="white"/>
</g>
<defs>
<clipPath id="clip0_240_304132">
<rect width="37" height="37" fill="white" transform="translate(0 0.552826)"/>
</clipPath>
</defs>
</svg>
