<svg width="34" height="34" viewBox="0 0 34 34" fill="none" xmlns="http://www.w3.org/2000/svg">
<path d="M17.4177 12.7706C16.5457 12.6845 15.6684 12.87 14.9059 13.3017C14.1434 13.7335 13.533 14.3903 13.1583 15.1824C12.7835 15.9744 12.6628 16.863 12.8125 17.7263C12.9623 18.5897 13.3752 19.3856 13.9948 20.0052C14.6144 20.6248 15.4103 21.0377 16.2737 21.1875C17.137 21.3372 18.0256 21.2165 18.8176 20.8417C19.6097 20.467 20.2665 19.8566 20.6983 19.0941C21.13 18.3316 21.3155 17.4543 21.2294 16.5823C21.1312 15.6048 20.6981 14.6913 20.0034 13.9966C19.3087 13.3019 18.3952 12.8688 17.4177 12.7706ZM27.6509 17C27.6482 17.462 27.6142 17.9232 27.5493 18.3806L30.5515 20.7354C30.6823 20.8437 30.7703 20.9949 30.8001 21.1621C30.8299 21.3293 30.7995 21.5016 30.7142 21.6484L27.874 26.5625C27.7878 26.7079 27.6529 26.8183 27.4933 26.874C27.3337 26.9298 27.1595 26.9274 27.0014 26.8673L24.0198 25.6667C23.8554 25.6012 23.6773 25.5776 23.5015 25.5978C23.3257 25.6181 23.1576 25.6817 23.0124 25.7829C22.5574 26.0962 22.0792 26.3746 21.582 26.6156C21.4257 26.6916 21.2905 26.8049 21.1884 26.9455C21.0862 27.0861 21.0203 27.2497 20.9963 27.4218L20.5494 30.602C20.5201 30.7699 20.4333 30.9225 20.3039 31.0336C20.1746 31.1446 20.0107 31.2073 19.8402 31.2109H14.1598C13.9922 31.208 13.8305 31.1481 13.7015 31.041C13.5724 30.934 13.4837 30.7861 13.4499 30.6219L13.0037 27.4464C12.9786 27.2723 12.9109 27.1072 12.8067 26.9656C12.7024 26.8241 12.5648 26.7104 12.406 26.6349C11.9094 26.3952 11.4329 26.116 10.9809 25.8002C10.8362 25.6995 10.6688 25.6364 10.4936 25.6166C10.3184 25.5967 10.1411 25.6208 9.97754 25.6866L6.99656 26.8866C6.83859 26.9467 6.66445 26.9492 6.50483 26.8936C6.34521 26.8379 6.21034 26.7277 6.12398 26.5824L3.28379 21.6684C3.1984 21.5215 3.16788 21.3492 3.19768 21.182C3.22747 21.0148 3.31564 20.8636 3.44648 20.7553L5.98387 18.7631C6.12288 18.6527 6.23213 18.5094 6.30171 18.3461C6.37129 18.1829 6.39899 18.0048 6.3823 17.8281C6.3584 17.5512 6.34379 17.2749 6.34379 16.998C6.34379 16.7211 6.35773 16.4488 6.3823 16.1779C6.39717 16.0023 6.36811 15.8257 6.29774 15.6641C6.22738 15.5025 6.11791 15.3609 5.97922 15.2522L3.44316 13.26C3.31444 13.1512 3.22813 13.0005 3.19935 12.8344C3.17058 12.6683 3.20117 12.4974 3.28578 12.3516L6.12597 7.4375C6.21223 7.29206 6.34705 7.18174 6.50668 7.12598C6.66631 7.07022 6.8405 7.0726 6.99855 7.1327L9.98019 8.33332C10.1446 8.39879 10.3227 8.42244 10.4985 8.40216C10.6743 8.38188 10.8424 8.31829 10.9876 8.21711C11.4426 7.90375 11.9208 7.62538 12.418 7.38437C12.5743 7.30841 12.7095 7.19512 12.8116 7.05452C12.9138 6.91392 12.9797 6.75033 13.0037 6.5782L13.4506 3.39801C13.4799 3.23005 13.5667 3.07751 13.6961 2.96644C13.8254 2.85537 13.9893 2.79267 14.1598 2.78906H19.8402C20.0078 2.79196 20.1695 2.85188 20.2985 2.95895C20.4276 3.06602 20.5163 3.21385 20.5501 3.37809L20.9963 6.55363C21.0214 6.72766 21.0891 6.8928 21.1933 7.03437C21.2976 7.17594 21.4352 7.28956 21.594 7.36512C22.0906 7.60481 22.5671 7.88395 23.0191 8.19984C23.1638 8.30052 23.3312 8.36362 23.5064 8.38344C23.6816 8.40327 23.8589 8.37919 24.0225 8.3134L27.0034 7.11344C27.1614 7.05328 27.3355 7.0508 27.4952 7.10644C27.6548 7.16208 27.7897 7.27226 27.876 7.41758L30.7162 12.3316C30.8016 12.4785 30.8321 12.6508 30.8023 12.818C30.7725 12.9852 30.6844 13.1364 30.5535 13.2447L28.0161 15.2369C27.8765 15.3469 27.7666 15.4901 27.6965 15.6534C27.6263 15.8167 27.5981 15.9949 27.6144 16.1719C27.6363 16.4468 27.6509 16.7231 27.6509 17Z" stroke="black" stroke-width="2" stroke-linecap="round" stroke-linejoin="round"/>
</svg>
