<svg width="24" height="25" viewBox="0 0 24 25" fill="none" xmlns="http://www.w3.org/2000/svg">
<path d="M16.998 16.1388C16.998 17.1188 16.198 17.9188 15.218 17.9188C14.238 17.9188 13.448 17.1188 13.448 16.1388C13.448 15.1588 14.238 14.3688 15.218 14.3688C16.198 14.3688 16.998 15.1588 16.998 16.1388ZM8.82805 11.5188C9.80805 11.5188 10.598 10.7288 10.598 9.74882C10.598 8.75882 9.80805 7.96882 8.82805 7.96882C7.83805 7.96882 7.04805 8.75882 7.04805 9.74882C7.04805 10.7288 7.83805 11.5188 8.82805 11.5188ZM6.99805 16.4488L8.49805 17.9488L17.028 9.41882L15.528 7.91882L6.99805 16.4488ZM21.998 12.9188C21.998 18.4188 17.498 22.9188 11.998 22.9188C6.49805 22.9188 1.99805 18.4188 1.99805 12.9188C1.99805 7.41882 6.49805 2.91882 11.998 2.91882C17.498 2.91882 21.998 7.41882 21.998 12.9188ZM19.998 12.9188C19.998 8.50882 16.408 4.91882 11.998 4.91882C7.58805 4.91882 3.99805 8.50882 3.99805 12.9188C3.99805 17.3288 7.58805 20.9188 11.998 20.9188C16.408 20.9188 19.998 17.3288 19.998 12.9188Z" fill="#858C94"/>
</svg>
