<svg width="155" height="48" viewBox="0 0 155 48" fill="none" xmlns="http://www.w3.org/2000/svg">
<path d="M40.5 25.5H25.5V40.5H40.5V25.5Z" fill="#FEBA08"/>
<path d="M22.5 25.5H7.5V40.5H22.5V25.5Z" fill="#05A6F0"/>
<path d="M40.5 7.5H25.5V22.5H40.5V7.5Z" fill="#80BC06"/>
<path d="M22.5 7.5H7.5V22.5H22.5V7.5Z" fill="#F25325"/>
<path d="M57.4564 32V17.0196H59.9948L64.9467 26.9649L69.8985 17.0196H72.4369V32H69.7945V23.0533L65.446 32H64.4473L60.0988 23.0533V32H57.4564ZM75.5651 19.2042V16.7075H78.3948V19.2042H75.5651ZM75.5651 32V20.7647H78.3948V32H75.5651ZM86.4654 32.3121C85.3003 32.3121 84.3016 32.052 83.4693 31.5319C82.6371 31.0117 81.999 30.3043 81.5552 29.4096C81.1113 28.515 80.8894 27.5059 80.8894 26.3823C80.8894 25.2449 81.1182 24.2289 81.576 23.3342C82.0407 22.4396 82.6926 21.7356 83.5318 21.2224C84.3709 20.7092 85.3627 20.4526 86.507 20.4526C87.8317 20.4526 88.9414 20.7889 89.836 21.4617C90.7376 22.1275 91.3133 23.0395 91.5629 24.1977L88.7333 24.9467C88.5669 24.3641 88.2756 23.9099 87.8594 23.5839C87.4503 23.2579 86.9856 23.095 86.4654 23.095C85.869 23.095 85.38 23.2406 84.9986 23.5319C84.6172 23.8162 84.3363 24.2081 84.1559 24.7074C83.9756 25.1999 83.8855 25.7581 83.8855 26.3823C83.8855 27.3602 84.1005 28.1543 84.5305 28.7646C84.9674 29.368 85.6124 29.6697 86.4654 29.6697C87.1035 29.6697 87.589 29.5241 87.9219 29.2328C88.2548 28.9415 88.5044 28.5254 88.6709 27.9844L91.5629 28.5878C91.2439 29.7807 90.6405 30.6996 89.7528 31.3446C88.8651 31.9896 87.7693 32.3121 86.4654 32.3121ZM93.6437 32V20.7647H96.1405V23.5111L95.87 23.1574C96.0156 22.769 96.2098 22.4153 96.4526 22.0963C96.6953 21.7772 96.9935 21.5137 97.3472 21.3056C97.6177 21.1392 97.9125 21.0109 98.2315 20.9207C98.5505 20.8236 98.8799 20.7647 99.2198 20.7439C99.5596 20.7161 99.8994 20.7231 100.239 20.7647V23.4071C99.9272 23.31 99.5631 23.2787 99.147 23.3134C98.7378 23.3412 98.3667 23.4348 98.0338 23.5943C97.7009 23.7469 97.42 23.9515 97.1912 24.2081C96.9623 24.4578 96.7889 24.756 96.671 25.1028C96.5531 25.4426 96.4942 25.8275 96.4942 26.2575V32H93.6437ZM107.071 32.3121C105.94 32.3121 104.949 32.059 104.096 31.5527C103.243 31.0464 102.577 30.3494 102.098 29.4616C101.627 28.567 101.391 27.5405 101.391 26.3823C101.391 25.2103 101.634 24.1803 102.119 23.2926C102.604 22.398 103.274 21.7009 104.127 21.2016C104.98 20.7023 105.961 20.4526 107.071 20.4526C108.201 20.4526 109.193 20.7057 110.046 21.212C110.906 21.7183 111.575 22.4188 112.054 23.3134C112.532 24.2012 112.772 25.2241 112.772 26.3823C112.772 27.5475 112.529 28.5774 112.044 29.4721C111.565 30.3598 110.896 31.0568 110.036 31.5631C109.183 32.0624 108.194 32.3121 107.071 32.3121ZM107.071 29.6697C107.979 29.6697 108.656 29.3646 109.099 28.7542C109.55 28.137 109.776 27.3464 109.776 26.3823C109.776 25.3836 109.547 24.5861 109.089 23.9896C108.638 23.3932 107.966 23.095 107.071 23.095C106.454 23.095 105.947 23.2337 105.552 23.5111C105.157 23.7885 104.862 24.1734 104.668 24.6658C104.48 25.1582 104.387 25.7304 104.387 26.3823C104.387 27.388 104.612 28.189 105.063 28.7854C105.521 29.375 106.19 29.6697 107.071 29.6697ZM119.145 32.3121C117.73 32.3121 116.586 31.9931 115.712 31.355C114.845 30.71 114.318 29.8015 114.13 28.6294L117.023 28.1925C117.14 28.7196 117.401 29.1322 117.803 29.4304C118.212 29.7287 118.729 29.8778 119.353 29.8778C119.866 29.8778 120.261 29.7807 120.539 29.5865C120.816 29.3854 120.955 29.1079 120.955 28.7542C120.955 28.5323 120.899 28.3555 120.788 28.2237C120.677 28.085 120.428 27.9497 120.039 27.818C119.658 27.6862 119.062 27.5128 118.25 27.2978C117.335 27.062 116.603 26.7985 116.055 26.5072C115.507 26.2159 115.112 25.8691 114.869 25.4669C114.626 25.0577 114.505 24.5653 114.505 23.9896C114.505 23.2683 114.689 22.6442 115.056 22.1171C115.424 21.583 115.941 21.1739 116.606 20.8895C117.279 20.5982 118.07 20.4526 118.978 20.4526C119.859 20.4526 120.639 20.5878 121.319 20.8583C121.999 21.1288 122.547 21.5137 122.963 22.013C123.386 22.5124 123.646 23.1019 123.743 23.7816L120.851 24.3017C120.802 23.8856 120.622 23.5562 120.31 23.3134C119.998 23.0707 119.575 22.9285 119.041 22.8869C118.521 22.8522 118.101 22.9216 117.782 23.095C117.47 23.2683 117.314 23.518 117.314 23.844C117.314 24.0382 117.38 24.2012 117.511 24.3329C117.65 24.4647 117.931 24.5999 118.354 24.7386C118.784 24.8774 119.436 25.0577 120.31 25.2796C121.163 25.5015 121.846 25.7616 122.359 26.0598C122.879 26.3511 123.257 26.7048 123.493 27.121C123.729 27.5301 123.847 28.026 123.847 28.6086C123.847 29.7599 123.431 30.6649 122.599 31.3238C121.766 31.9827 120.615 32.3121 119.145 32.3121ZM131.189 32.3121C130.058 32.3121 129.067 32.059 128.214 31.5527C127.361 31.0464 126.695 30.3494 126.216 29.4616C125.745 28.567 125.509 27.5405 125.509 26.3823C125.509 25.2103 125.752 24.1803 126.237 23.2926C126.723 22.398 127.392 21.7009 128.245 21.2016C129.098 20.7023 130.079 20.4526 131.189 20.4526C132.319 20.4526 133.311 20.7057 134.164 21.212C135.024 21.7183 135.693 22.4188 136.172 23.3134C136.651 24.2012 136.89 25.2241 136.89 26.3823C136.89 27.5475 136.647 28.5774 136.162 29.4721C135.683 30.3598 135.014 31.0568 134.154 31.5631C133.301 32.0624 132.312 32.3121 131.189 32.3121ZM131.189 29.6697C132.097 29.6697 132.774 29.3646 133.218 28.7542C133.668 28.137 133.894 27.3464 133.894 26.3823C133.894 25.3836 133.665 24.5861 133.207 23.9896C132.756 23.3932 132.084 23.095 131.189 23.095C130.572 23.095 130.065 23.2337 129.67 23.5111C129.275 23.7885 128.98 24.1734 128.786 24.6658C128.599 25.1582 128.505 25.7304 128.505 26.3823C128.505 27.388 128.73 28.189 129.181 28.7854C129.639 29.375 130.308 29.6697 131.189 29.6697ZM140.114 32V20.8063C140.114 20.5219 140.121 20.1994 140.135 19.8388C140.148 19.4782 140.204 19.114 140.301 18.7465C140.405 18.3789 140.592 18.046 140.863 17.7478C141.21 17.3594 141.584 17.0958 141.986 16.9571C142.396 16.8115 142.791 16.7352 143.172 16.7283C143.554 16.7144 143.88 16.7075 144.15 16.7075H145.544V18.9961H144.254C143.81 18.9961 143.481 19.1106 143.266 19.3394C143.051 19.5614 142.943 19.8284 142.943 20.1405V32H140.114ZM138.345 22.9493V20.7647H145.544V22.9493H138.345ZM153.945 32C153.168 32.1456 152.405 32.2081 151.656 32.1873C150.914 32.1734 150.248 32.0451 149.658 31.8023C149.076 31.5527 148.632 31.1539 148.327 30.606C148.049 30.0928 147.904 29.5726 147.89 29.0455C147.876 28.5115 147.869 27.9081 147.869 27.2354V17.6437H150.699V27.0689C150.699 27.5059 150.702 27.9012 150.709 28.2549C150.723 28.6017 150.796 28.8791 150.928 29.0871C151.177 29.4825 151.576 29.6975 152.124 29.7321C152.672 29.7668 153.279 29.7391 153.945 29.6489V32ZM145.955 22.9493V20.7647H153.945V22.9493H145.955Z" fill="black"/>
</svg>
