<svg width="24" height="24" viewBox="0 0 24 24" fill="none" xmlns="http://www.w3.org/2000/svg">
<path fill-rule="evenodd" clip-rule="evenodd" d="M12 2.00006C17.523 2.00006 22 6.47706 22 12.0001C22 17.5231 17.523 22.0001 12 22.0001C6.477 22.0001 2 17.5231 2 12.0001C2 6.47706 6.477 2.00006 12 2.00006ZM12 13.0001C10.782 12.9987 9.6056 13.4434 8.693 14.2501C8.49409 14.4255 8.37302 14.6728 8.35642 14.9375C8.33982 15.2022 8.42906 15.4626 8.6045 15.6616C8.77994 15.8605 9.02721 15.9815 9.29192 15.9981C9.55663 16.0147 9.81709 15.9255 10.016 15.7501C10.5632 15.2656 11.2692 14.9987 12 15.0001C12.7309 14.9983 13.437 15.2652 13.984 15.7501C14.1829 15.9256 14.4434 16.015 14.7082 15.9985C14.973 15.982 15.2204 15.861 15.396 15.6621C15.5716 15.4631 15.6609 15.2026 15.6444 14.9378C15.6279 14.673 15.5069 14.4256 15.308 14.2501C14.3951 13.4431 13.2184 12.9985 12 13.0001ZM8.5 8.00006C8.10218 8.00006 7.72064 8.1581 7.43934 8.4394C7.15804 8.72071 7 9.10224 7 9.50006C7 9.89789 7.15804 10.2794 7.43934 10.5607C7.72064 10.842 8.10218 11.0001 8.5 11.0001C8.89782 11.0001 9.27936 10.842 9.56066 10.5607C9.84196 10.2794 10 9.89789 10 9.50006C10 9.10224 9.84196 8.72071 9.56066 8.4394C9.27936 8.1581 8.89782 8.00006 8.5 8.00006ZM15.5 8.00006C15.1022 8.00006 14.7206 8.1581 14.4393 8.4394C14.158 8.72071 14 9.10224 14 9.50006C14 9.89789 14.158 10.2794 14.4393 10.5607C14.7206 10.842 15.1022 11.0001 15.5 11.0001C15.8978 11.0001 16.2794 10.842 16.5607 10.5607C16.842 10.2794 17 9.89789 17 9.50006C17 9.10224 16.842 8.72071 16.5607 8.4394C16.2794 8.1581 15.8978 8.00006 15.5 8.00006Z" fill="#D34645"/>
</svg>
