<svg width="27" height="28" viewBox="0 0 27 28" fill="none" xmlns="http://www.w3.org/2000/svg">
<path fill-rule="evenodd" clip-rule="evenodd" d="M11.8944 4.11841C12.2804 3.21867 13.2767 2.40238 14.5337 2.64492C16.4558 3.01394 18.4965 4.47179 18.6399 6.83591L18.6477 7.10192V10.3619H21.7838C22.5263 10.3618 23.2602 10.5203 23.9365 10.8267C24.6128 11.1331 25.2159 11.5803 25.7055 12.1385C26.195 12.6967 26.5598 13.353 26.7754 14.0635C26.9909 14.774 27.0523 15.5223 26.9554 16.2585L26.9163 16.5114L25.7297 23.0313C25.5193 24.1893 24.9234 25.2421 24.039 26.0186C23.1545 26.7951 22.0335 27.2497 20.858 27.3084L20.5985 27.3136H6.91194C5.91412 27.3136 4.95399 26.9324 4.22801 26.2479C3.50202 25.5633 3.06506 24.6273 3.00652 23.6312L3 23.4017V15.5778C2.99994 14.58 3.38119 13.6198 4.06572 12.8939C4.75026 12.1679 5.68634 11.7309 6.68244 11.6724L6.91194 11.6658H8.65927L11.8944 4.11841ZM8.21592 14.2738H6.91194C6.5661 14.2738 6.23443 14.4112 5.98988 14.6557C5.74534 14.9003 5.60796 15.2319 5.60796 15.5778V23.4017C5.60796 23.7475 5.74534 24.0792 5.98988 24.3237C6.23443 24.5682 6.5661 24.7056 6.91194 24.7056H8.21592V14.2738ZM14.2468 5.25027L10.9295 12.992C10.8831 13.0998 10.8516 13.2134 10.8356 13.3297L10.8239 13.5045V24.7056H20.5985C21.1735 24.7057 21.7324 24.5157 22.1882 24.1653C22.6441 23.8148 22.9713 23.3236 23.1191 22.7679L23.1647 22.5645L24.3513 16.0446C24.4169 15.6847 24.406 15.315 24.3194 14.9596C24.2328 14.6042 24.0723 14.271 23.8485 13.9816C23.6247 13.6922 23.3425 13.4532 23.0202 13.28C22.698 13.1068 22.3429 13.0033 21.9781 12.9763L21.7838 12.9698H18.6477C17.9898 12.97 17.3561 12.7215 16.8736 12.2742C16.3912 11.8268 16.0957 11.2136 16.0463 10.5575L16.0398 10.3619V7.10192C16.0398 6.38082 15.4739 5.64668 14.4685 5.31547L14.2468 5.25027Z" fill="#0000FF"/>
</svg>
