<svg width="64" height="65" viewBox="0 0 64 65" fill="none" xmlns="http://www.w3.org/2000/svg">
<path d="M32.0006 59.1667C17.2727 59.1667 5.33398 47.228 5.33398 32.5C5.33398 17.772 17.2727 5.83337 32.0006 5.83337C46.7286 5.83337 58.6673 17.772 58.6673 32.5C58.6673 47.228 46.7286 59.1667 32.0006 59.1667ZM18.6673 35.1667C18.6673 38.7029 20.0721 42.0943 22.5726 44.5948C25.073 47.0953 28.4644 48.5 32.0006 48.5C35.5369 48.5 38.9283 47.0953 41.4287 44.5948C43.9292 42.0943 45.334 38.7029 45.334 35.1667H40.0006C40.0006 37.2884 39.1578 39.3233 37.6575 40.8236C36.1572 42.3239 34.1224 43.1667 32.0006 43.1667C29.8789 43.1667 27.8441 42.3239 26.3438 40.8236C24.8435 39.3233 24.0007 37.2884 24.0007 35.1667H18.6673ZM21.334 29.8334C22.3948 29.8334 23.4123 29.4119 24.1624 28.6618C24.9126 27.9117 25.334 26.8942 25.334 25.8334C25.334 24.7725 24.9126 23.7551 24.1624 23.0049C23.4123 22.2548 22.3948 21.8334 21.334 21.8334C20.2731 21.8334 19.2557 22.2548 18.5056 23.0049C17.7554 23.7551 17.334 24.7725 17.334 25.8334C17.334 26.8942 17.7554 27.9117 18.5056 28.6618C19.2557 29.4119 20.2731 29.8334 21.334 29.8334ZM42.6673 29.8334C43.7282 29.8334 44.7456 29.4119 45.4957 28.6618C46.2459 27.9117 46.6673 26.8942 46.6673 25.8334C46.6673 24.7725 46.2459 23.7551 45.4957 23.0049C44.7456 22.2548 43.7282 21.8334 42.6673 21.8334C41.6064 21.8334 40.589 22.2548 39.8389 23.0049C39.0887 23.7551 38.6673 24.7725 38.6673 25.8334C38.6673 26.8942 39.0887 27.9117 39.8389 28.6618C40.589 29.4119 41.6064 29.8334 42.6673 29.8334Z" fill="#3DA864"/>
</svg>
