<svg width="25" height="24" viewBox="0 0 25 24" fill="none" xmlns="http://www.w3.org/2000/svg">
<g id="Navigation / more vert">
<path id="Vector" d="M12.5 2C6.977 2 2.5 6.477 2.5 12C2.5 17.523 6.977 22 12.5 22C18.023 22 22.5 17.523 22.5 12C22.5 6.477 18.023 2 12.5 2ZM10.75 10C10.7547 10.1671 10.7259 10.3334 10.6652 10.4891C10.6046 10.6448 10.5133 10.7868 10.3968 10.9066C10.2803 11.0265 10.141 11.1217 9.98701 11.1868C9.83306 11.2518 9.66763 11.2854 9.5005 11.2854C9.33337 11.2854 9.16794 11.2518 9.01399 11.1868C8.86004 11.1217 8.7207 11.0265 8.60421 10.9066C8.48771 10.7868 8.39643 10.6448 8.33576 10.4891C8.2751 10.3334 8.24627 10.1671 8.251 10C8.2602 9.67473 8.39588 9.36587 8.6292 9.13906C8.86253 8.91224 9.1751 8.78535 9.5005 8.78535C9.8259 8.78535 10.1385 8.91224 10.3718 9.13906C10.6051 9.36587 10.7408 9.67473 10.75 10ZM16.75 10C16.7547 10.1671 16.7259 10.3334 16.6652 10.4891C16.6046 10.6448 16.5133 10.7868 16.3968 10.9066C16.2803 11.0265 16.141 11.1217 15.987 11.1868C15.8331 11.2518 15.6676 11.2854 15.5005 11.2854C15.3334 11.2854 15.1679 11.2518 15.014 11.1868C14.86 11.1217 14.7207 11.0265 14.6042 10.9066C14.4877 10.7868 14.3964 10.6448 14.3358 10.4891C14.2751 10.3334 14.2463 10.1671 14.251 10C14.2602 9.67473 14.3959 9.36587 14.6292 9.13906C14.8625 8.91224 15.1751 8.78535 15.5005 8.78535C15.8259 8.78535 16.1385 8.91224 16.3718 9.13906C16.6051 9.36587 16.7408 9.67473 16.75 10ZM8 15.75C8 15.5511 8.07902 15.3603 8.21967 15.2197C8.36032 15.079 8.55109 15 8.75 15H16.25C16.4489 15 16.6397 15.079 16.7803 15.2197C16.921 15.3603 17 15.5511 17 15.75C17 15.9489 16.921 16.1397 16.7803 16.2803C16.6397 16.421 16.4489 16.5 16.25 16.5H8.75C8.55109 16.5 8.36032 16.421 8.21967 16.2803C8.07902 16.1397 8 15.9489 8 15.75Z" fill="#959798"/>
</g>
</svg>
