<svg width="34" height="34" viewBox="0 0 34 34" fill="none" xmlns="http://www.w3.org/2000/svg">
<path d="M23.375 27.2708C23.375 26.0497 23.8601 24.8786 24.7235 24.0152C25.587 23.1517 26.7581 22.6667 27.9792 22.6667C29.2003 22.6667 30.3714 23.1517 31.2348 24.0152C32.0983 24.8786 32.5833 26.0497 32.5833 27.2708C32.5833 28.4919 32.0983 29.663 31.2348 30.5265C30.3714 31.3899 29.2003 31.875 27.9792 31.875C26.7581 31.875 25.587 31.3899 24.7235 30.5265C23.8601 29.663 23.375 28.4919 23.375 27.2708ZM27.9792 24.7917C27.6535 24.7918 27.331 24.856 27.0302 24.9807C26.7294 25.1054 26.456 25.2882 26.2258 25.5185C25.9956 25.7488 25.813 26.0223 25.6885 26.3232C25.564 26.6241 25.4999 26.9466 25.5 27.2722C25.5001 27.5979 25.5643 27.9204 25.689 28.2212C25.8138 28.522 25.9965 28.7954 26.2268 29.0256C26.4572 29.2558 26.7306 29.4384 27.0315 29.5629C27.3324 29.6875 27.6549 29.7515 27.9806 29.7514C28.6383 29.7512 29.269 29.4898 29.7339 29.0246C30.1988 28.5594 30.4599 27.9285 30.4597 27.2708C30.4596 26.6131 30.1981 25.9824 29.7329 25.5175C29.2677 25.0526 28.6369 24.7915 27.9792 24.7917Z" fill="#242424"/>
<path d="M19.6987 2.43667C19.8977 2.63589 20.0095 2.90594 20.0095 3.1875C20.0095 3.46906 19.8977 3.73911 19.6987 3.93833L17.9704 5.66667H23.7292C25.1381 5.66667 26.4894 6.22637 27.4857 7.22266C28.4819 8.21895 29.0417 9.5702 29.0417 10.9792V23.375C29.0417 23.6568 28.9297 23.927 28.7305 24.1263C28.5312 24.3256 28.2609 24.4375 27.9792 24.4375C27.6974 24.4375 27.4271 24.3256 27.2279 24.1263C27.0286 23.927 26.9167 23.6568 26.9167 23.375V10.9792C26.9167 10.5606 26.8342 10.1461 26.674 9.75936C26.5138 9.37264 26.279 9.02125 25.9831 8.72526C25.6871 8.42928 25.3357 8.19449 24.949 8.0343C24.5622 7.87411 24.1477 7.79167 23.7292 7.79167H17.9718L19.7002 9.52C19.8936 9.72048 20.0006 9.98892 19.998 10.2675C19.9955 10.5461 19.8836 10.8125 19.6865 11.0094C19.4894 11.2063 19.2229 11.318 18.9443 11.3202C18.6657 11.3225 18.3974 11.2153 18.1971 11.0217L14.6554 7.48C14.4564 7.28078 14.3447 7.01073 14.3447 6.72917C14.3447 6.4476 14.4564 6.17755 14.6554 5.97833L18.1971 2.43667C18.3963 2.2377 18.6663 2.12593 18.9479 2.12593C19.2295 2.12593 19.4995 2.2377 19.6987 2.43667ZM10.625 6.72917C10.625 7.95027 10.1399 9.12136 9.27646 9.9848C8.41301 10.8483 7.24192 11.3333 6.02082 11.3333C4.79972 11.3333 3.62863 10.8483 2.76519 9.9848C1.90174 9.12136 1.41666 7.95027 1.41666 6.72917C1.41666 5.50807 1.90174 4.33698 2.76519 3.47353C3.62863 2.61008 4.79972 2.125 6.02082 2.125C7.24192 2.125 8.41301 2.61008 9.27646 3.47353C10.1399 4.33698 10.625 5.50807 10.625 6.72917ZM6.02082 9.20833C6.67853 9.20815 7.30922 8.94669 7.77415 8.48149C8.23909 8.01629 8.50018 7.38545 8.49999 6.72775C8.4998 6.07005 8.23835 5.43936 7.77315 4.97442C7.30795 4.50949 6.67711 4.2484 6.01941 4.24858C5.69374 4.24868 5.37129 4.31291 5.07045 4.43762C4.76962 4.56234 4.49629 4.74508 4.26608 4.97542C3.80114 5.44062 3.54005 6.07146 3.54024 6.72917C3.54043 7.38687 3.80188 8.01756 4.26708 8.4825C4.73228 8.94743 5.36312 9.20852 6.02082 9.20833Z" fill="#242424"/>
<path d="M14.3013 31.5633C14.1023 31.3641 13.9905 31.0941 13.9905 30.8125C13.9905 30.5309 14.1023 30.2609 14.3013 30.0617L16.0296 28.3333H10.2708C8.86188 28.3333 7.51063 27.7736 6.51434 26.7773C5.51805 25.7811 4.95834 24.4298 4.95834 23.0208V10.625C4.95834 10.3432 5.07029 10.073 5.26954 9.8737C5.4688 9.67444 5.73905 9.5625 6.02084 9.5625C6.30264 9.5625 6.57289 9.67444 6.77214 9.8737C6.9714 10.073 7.08334 10.3432 7.08334 10.625V23.0208C7.08334 23.8662 7.41917 24.677 8.01694 25.2747C8.61471 25.8725 9.42547 26.2083 10.2708 26.2083H16.0282L14.2998 24.48C14.1633 24.3493 14.0642 24.1845 14.0129 24.0026C13.9615 23.8207 13.9597 23.6284 14.0077 23.4456C14.0557 23.2628 14.1517 23.0961 14.2857 22.9629C14.4198 22.8297 14.5871 22.7347 14.7702 22.6879C14.9526 22.6403 15.1444 22.6422 15.3259 22.6932C15.5074 22.7442 15.672 22.8427 15.8029 22.9783L19.3446 26.52C19.5436 26.7192 19.6553 26.9893 19.6553 27.2708C19.6553 27.5524 19.5436 27.8224 19.3446 28.0217L15.8029 31.5633C15.6037 31.7623 15.3337 31.8741 15.0521 31.8741C14.7705 31.8741 14.5005 31.7623 14.3013 31.5633Z" fill="#242424"/>
</svg>
