<svg width="34" height="34" viewBox="0 0 34 34" fill="none" xmlns="http://www.w3.org/2000/svg">
<path d="M23.375 27.2708C23.375 26.0497 23.8601 24.8786 24.7235 24.0152C25.587 23.1517 26.7581 22.6666 27.9792 22.6666C29.2003 22.6666 30.3714 23.1517 31.2348 24.0152C32.0983 24.8786 32.5833 26.0497 32.5833 27.2708C32.5833 28.4919 32.0983 29.663 31.2348 30.5264C30.3714 31.3899 29.2003 31.875 27.9792 31.875C26.7581 31.875 25.587 31.3899 24.7235 30.5264C23.8601 29.663 23.375 28.4919 23.375 27.2708ZM27.9792 24.7916C27.6535 24.7917 27.331 24.856 27.0302 24.9807C26.7294 25.1054 26.456 25.2881 26.2258 25.5185C25.9956 25.7488 25.813 26.0222 25.6885 26.3231C25.564 26.6241 25.4999 26.9465 25.5 27.2722C25.5001 27.5979 25.5643 27.9203 25.689 28.2212C25.8138 28.522 25.9965 28.7953 26.2268 29.0255C26.4572 29.2557 26.7306 29.4383 27.0315 29.5629C27.3324 29.6874 27.6549 29.7515 27.9806 29.7514C28.6383 29.7512 29.269 29.4897 29.7339 29.0245C30.1988 28.5593 30.4599 27.9285 30.4597 27.2708C30.4596 26.6131 30.1981 25.9824 29.7329 25.5175C29.2677 25.0525 28.6369 24.7914 27.9792 24.7916Z" fill="#0000FF"/>
<path d="M19.6981 2.43667C19.8971 2.63589 20.0088 2.90594 20.0088 3.1875C20.0088 3.46906 19.8971 3.73911 19.6981 3.93833L17.9698 5.66667H23.7285C25.1375 5.66667 26.4887 6.22637 27.485 7.22266C28.4813 8.21895 29.041 9.5702 29.041 10.9792V23.375C29.041 23.6568 28.9291 23.927 28.7298 24.1263C28.5306 24.3256 28.2603 24.4375 27.9785 24.4375C27.6967 24.4375 27.4265 24.3256 27.2272 24.1263C27.028 23.927 26.916 23.6568 26.916 23.375V10.9792C26.916 10.5606 26.8336 10.1461 26.6734 9.75936C26.5132 9.37264 26.2784 9.02125 25.9824 8.72526C25.6864 8.42928 25.335 8.19449 24.9483 8.0343C24.5616 7.87411 24.1471 7.79167 23.7285 7.79167H17.9712L19.6995 9.52C19.893 9.72048 19.9999 9.98892 19.9974 10.2675C19.9948 10.5461 19.883 10.8125 19.6859 11.0094C19.4888 11.2063 19.2222 11.318 18.9437 11.3202C18.6651 11.3225 18.3967 11.2153 18.1964 11.0217L14.6548 7.48C14.4558 7.28078 14.344 7.01073 14.344 6.72917C14.344 6.4476 14.4558 6.17755 14.6548 5.97833L18.1964 2.43667C18.3957 2.2377 18.6657 2.12593 18.9473 2.12593C19.2288 2.12593 19.4989 2.2377 19.6981 2.43667ZM10.6243 6.72917C10.6243 7.95027 10.1393 9.12136 9.27582 9.9848C8.41237 10.8483 7.24128 11.3333 6.02018 11.3333C4.79908 11.3333 3.62799 10.8483 2.76454 9.9848C1.9011 9.12136 1.41602 7.95027 1.41602 6.72917C1.41602 5.50807 1.9011 4.33698 2.76454 3.47353C3.62799 2.61008 4.79908 2.125 6.02018 2.125C7.24128 2.125 8.41237 2.61008 9.27582 3.47353C10.1393 4.33698 10.6243 5.50807 10.6243 6.72917ZM6.02018 9.20833C6.67789 9.20815 7.30858 8.94669 7.77351 8.48149C8.23845 8.01629 8.49954 7.38545 8.49935 6.72775C8.49916 6.07005 8.23771 5.43935 7.77251 4.97442C7.30731 4.50949 6.67647 4.2484 6.01877 4.24858C5.6931 4.24868 5.37065 4.31291 5.06981 4.43762C4.76898 4.56234 4.49565 4.74508 4.26544 4.97542C3.8005 5.44062 3.53941 6.07146 3.5396 6.72917C3.53979 7.38687 3.80124 8.01756 4.26644 8.4825C4.73164 8.94743 5.36248 9.20852 6.02018 9.20833Z" fill="#0000FF"/>
<path d="M14.3019 31.5633C14.1029 31.3641 13.9912 31.0941 13.9912 30.8125C13.9912 30.5309 14.1029 30.2609 14.3019 30.0617L16.0302 28.3333H10.2715C8.86252 28.3333 7.51127 27.7736 6.51498 26.7773C5.51869 25.7811 4.95898 24.4298 4.95898 23.0208V10.625C4.95898 10.3432 5.07093 10.073 5.27018 9.8737C5.46944 9.67444 5.73969 9.5625 6.02148 9.5625C6.30328 9.5625 6.57353 9.67444 6.77279 9.8737C6.97204 10.073 7.08398 10.3432 7.08398 10.625V23.0208C7.08398 23.8662 7.41981 24.677 8.01758 25.2747C8.61535 25.8725 9.42611 26.2083 10.2715 26.2083H16.0288L14.3005 24.48C14.164 24.3493 14.0649 24.1845 14.0135 24.0026C13.9621 23.8207 13.9604 23.6284 14.0083 23.4456C14.0563 23.2628 14.1523 23.0961 14.2864 22.9629C14.4204 22.8297 14.5877 22.7347 14.7708 22.6879C14.9532 22.6403 15.145 22.6422 15.3265 22.6932C15.508 22.7442 15.6727 22.8427 15.8036 22.9783L19.3452 26.52C19.5442 26.7192 19.656 26.9893 19.656 27.2708C19.656 27.5524 19.5442 27.8224 19.3452 28.0217L15.8036 31.5633C15.6043 31.7623 15.3343 31.8741 15.0527 31.8741C14.7712 31.8741 14.5011 31.7623 14.3019 31.5633Z" fill="#0000FF"/>
</svg>
