<svg width="24" height="25" viewBox="0 0 24 25" fill="none" xmlns="http://www.w3.org/2000/svg">
<path d="M12 0.552826C9.62662 0.552826 7.30655 1.25661 5.33316 2.57519C3.35977 3.89377 1.8217 5.76791 0.913447 7.96062C0.0051956 10.1533 -0.232444 12.5661 0.230578 14.8939C0.693601 17.2217 1.83649 19.3599 3.51472 21.0381C5.19295 22.7163 7.33114 23.8592 9.65892 24.3222C11.9867 24.7853 14.3995 24.5476 16.5922 23.6394C18.7849 22.7311 20.6591 21.1931 21.9776 19.2197C23.2962 17.2463 24 14.9262 24 12.5528C23.9966 9.37126 22.7313 6.32096 20.4816 4.07125C18.2319 1.82155 15.1816 0.556186 12 0.552826ZM17.2685 10.4367L10.8069 16.8982C10.7212 16.984 10.6194 17.0521 10.5073 17.0986C10.3953 17.145 10.2752 17.1689 10.1538 17.1689C10.0325 17.1689 9.91242 17.145 9.80036 17.0986C9.6883 17.0521 9.5865 16.984 9.50077 16.8982L6.73154 14.129C6.55833 13.9558 6.46103 13.7209 6.46103 13.4759C6.46103 13.2309 6.55833 12.996 6.73154 12.8228C6.90474 12.6496 7.13966 12.5523 7.38462 12.5523C7.62957 12.5523 7.86449 12.6496 8.03769 12.8228L10.1538 14.9401L15.9623 9.13052C16.0481 9.04475 16.1499 8.97672 16.2619 8.93031C16.374 8.88389 16.4941 8.86 16.6154 8.86C16.7367 8.86 16.8568 8.88389 16.9688 8.93031C17.0809 8.97672 17.1827 9.04475 17.2685 9.13052C17.3542 9.21628 17.4223 9.3181 17.4687 9.43015C17.5151 9.54221 17.539 9.66231 17.539 9.78359C17.539 9.90488 17.5151 10.025 17.4687 10.137C17.4223 10.2491 17.3542 10.3509 17.2685 10.4367Z" fill="#3DA864"/>
</svg>
