<svg width="50" height="50" viewBox="0 0 50 50" fill="none" xmlns="http://www.w3.org/2000/svg">
<path d="M1.07994 34.3045C-0.791369 35.6149 -0.444882 37.8726 3.82452 39.2843C8.09392 40.6961 13.0563 40.9879 17.4227 40.2016C17.2979 40.2016 17.6722 40.2016 17.4227 40.2016V35.746L13.1811 37.1875C11.5593 37.7117 9.93746 37.8428 8.31566 37.4496C7.06812 37.0565 7.31763 36.2702 8.81467 35.6149L17.4227 32.4698V27.621L5.44632 31.9456C3.94928 32.4698 2.45223 33.2561 1.07994 34.3045ZM30.0228 14.6472V27.3589C35.1377 29.9799 39.1298 27.3589 39.1298 20.5444C39.1298 13.5988 36.7595 10.4537 29.8981 7.96374C26.2802 6.65326 22.5376 5.47382 18.795 4.68753V42.5605L27.5277 45.3125V13.4678C27.5277 12.0262 27.5277 10.9779 28.5258 11.371C29.8981 11.7641 30.0228 13.2057 30.0228 14.6472ZM46.2408 31.2903C42.6229 29.9799 38.7556 29.4557 35.013 29.8488C32.9343 29.9853 30.9834 30.6045 29.0248 31.2903V36.4012L37.1338 33.2561C38.7556 32.7319 40.3774 32.6008 41.9992 32.994C43.2467 33.3871 42.9972 34.1734 41.5002 34.8287L29.0248 39.6774V44.6573L46.2408 37.9738C47.4883 37.4496 48.6111 36.7944 49.6092 35.746C50.4824 34.4355 50.1082 32.6008 46.2408 31.2903Z" fill="#0070D1"/>
</svg>
