<svg width="31" height="31" viewBox="0 0 31 31" fill="none" xmlns="http://www.w3.org/2000/svg">
<g clip-path="url(#clip0_135_52514)">
<path d="M28.9244 2.50007V9.79137H30.7472V0.677246H21.6331V2.50007H28.9244Z" fill="#595961"/>
<path d="M21.367 11.3481L30.4811 2.23394L29.1905 0.943378L20.0764 10.0575L21.367 11.3481ZM3.40486 2.50007V9.79137H1.58203V0.677246H10.6962V2.50007H3.40486Z" fill="#595961"/>
<path d="M10.9613 11.3471L1.84717 2.23294L3.13773 0.942383L12.2519 10.0565L10.9613 11.3471ZM28.9234 28.0186V20.7273H30.7462V29.8414H21.6321V28.0186H28.9234Z" fill="#595961"/>
<path d="M21.367 19.1716L30.4811 28.2858L29.1905 29.5763L20.0764 20.4622L21.367 19.1716Z" fill="#595961"/>
<path d="M3.40486 28.0196V20.7283H1.58203V29.8424H10.6962V28.0196H3.40486Z" fill="#595961"/>
<path d="M10.9613 19.1716L1.84717 28.2858L3.13773 29.5763L12.2519 20.4622L10.9613 19.1716Z" fill="#595961"/>
</g>
<defs>
<clipPath id="clip0_135_52514">
<rect width="30" height="30" fill="white" transform="translate(0.937012 0.5)"/>
</clipPath>
</defs>
</svg>
