<svg width="25" height="25" viewBox="0 0 25 25" fill="none" xmlns="http://www.w3.org/2000/svg">
<g id="Group">
<path id="Vector" fill-rule="evenodd" clip-rule="evenodd" d="M12.5 2.5C18.023 2.5 22.5 6.977 22.5 12.5C22.5 18.023 18.023 22.5 12.5 22.5C6.977 22.5 2.5 18.023 2.5 12.5C2.5 6.977 6.977 2.5 12.5 2.5ZM12.5 13.5C11.282 13.4987 10.1056 13.9433 9.193 14.75C8.99409 14.9254 8.87302 15.1727 8.85642 15.4374C8.83982 15.7021 8.92906 15.9626 9.1045 16.1615C9.27994 16.3604 9.52721 16.4815 9.79192 16.4981C10.0566 16.5147 10.3171 16.4254 10.516 16.25C11.0632 15.7655 11.7692 15.4987 12.5 15.5C13.2309 15.4982 13.937 15.7651 14.484 16.25C14.6829 16.4256 14.9434 16.5149 15.2082 16.4984C15.473 16.4819 15.7204 16.3609 15.896 16.162C16.0716 15.9631 16.1609 15.7026 16.1444 15.4378C16.1279 15.173 16.0069 14.9256 15.808 14.75C14.8951 13.9431 13.7184 13.4984 12.5 13.5ZM9 8.5C8.60218 8.5 8.22064 8.65804 7.93934 8.93934C7.65804 9.22064 7.5 9.60218 7.5 10C7.5 10.3978 7.65804 10.7794 7.93934 11.0607C8.22064 11.342 8.60218 11.5 9 11.5C9.39782 11.5 9.77936 11.342 10.0607 11.0607C10.342 10.7794 10.5 10.3978 10.5 10C10.5 9.60218 10.342 9.22064 10.0607 8.93934C9.77936 8.65804 9.39782 8.5 9 8.5ZM16 8.5C15.6022 8.5 15.2206 8.65804 14.9393 8.93934C14.658 9.22064 14.5 9.60218 14.5 10C14.5 10.3978 14.658 10.7794 14.9393 11.0607C15.2206 11.342 15.6022 11.5 16 11.5C16.3978 11.5 16.7794 11.342 17.0607 11.0607C17.342 10.7794 17.5 10.3978 17.5 10C17.5 9.60218 17.342 9.22064 17.0607 8.93934C16.7794 8.65804 16.3978 8.5 16 8.5Z" fill="#D34645"/>
</g>
</svg>
