<svg width="24" height="25" viewBox="0 0 24 25" fill="none" xmlns="http://www.w3.org/2000/svg">
<mask id="mask0_292_381593" style="mask-type:alpha" maskUnits="userSpaceOnUse" x="3" y="4" width="18" height="18">
<path fill-rule="evenodd" clip-rule="evenodd" d="M15.1852 15.3904H15.9752L20.2152 19.6504C20.6252 20.0604 20.6252 20.7304 20.2152 21.1404C19.8052 21.5504 19.1352 21.5504 18.7252 21.1404L14.4752 16.8904V16.1004L14.2052 15.8204C12.8052 17.0204 10.8952 17.6404 8.86523 17.3004C6.08523 16.8304 3.86523 14.5104 3.52523 11.7104C3.00523 7.4804 6.56524 3.9204 10.7952 4.4404C13.5952 4.7804 15.9152 7.0004 16.3852 9.7804C16.7252 11.8104 16.1052 13.7204 14.9052 15.1204L15.1852 15.3904ZM5.47523 10.8904C5.47523 13.3804 7.48524 15.3904 9.97523 15.3904C12.4652 15.3904 14.4752 13.3804 14.4752 10.8904C14.4752 8.4004 12.4652 6.3904 9.97523 6.3904C7.48524 6.3904 5.47523 8.4004 5.47523 10.8904Z" fill="black"/>
</mask>
<g mask="url(#mask0_292_381593)">
<rect x="-0.00195312" y="0.918823" width="24" height="24" fill="#858C94"/>
</g>
</svg>
