<svg width="24" height="24" viewBox="0 0 24 24" fill="none" xmlns="http://www.w3.org/2000/svg">
<mask id="mask0_744_3474" style="mask-type:alpha" maskUnits="userSpaceOnUse" x="3" y="3" width="18" height="18">
<path fill-rule="evenodd" clip-rule="evenodd" d="M15.1852 14.4717H15.9752L20.2152 18.7317C20.6252 19.1417 20.6252 19.8117 20.2152 20.2217C19.8052 20.6317 19.1352 20.6317 18.7252 20.2217L14.4752 15.9717V15.1817L14.2052 14.9017C12.8052 16.1017 10.8952 16.7217 8.86523 16.3817C6.08523 15.9117 3.86523 13.5917 3.52523 10.7917C3.00523 6.5617 6.56524 3.00169 10.7952 3.52169C13.5952 3.86169 15.9152 6.08169 16.3852 8.86169C16.7252 10.8917 16.1052 12.8017 14.9052 14.2017L15.1852 14.4717ZM5.47523 9.97169C5.47523 12.4617 7.48524 14.4717 9.97523 14.4717C12.4652 14.4717 14.4752 12.4617 14.4752 9.97169C14.4752 7.4817 12.4652 5.47169 9.97523 5.47169C7.48524 5.47169 5.47523 7.4817 5.47523 9.97169Z" fill="black"/>
</mask>
<g mask="url(#mask0_744_3474)">
<rect x="-0.000976562" y="0.00012207" width="24" height="24" fill="#858C94"/>
</g>
</svg>
