<svg width="39" height="38" viewBox="0 0 39 38" fill="none" xmlns="http://www.w3.org/2000/svg">
<g clip-path="url(#clip0_135_52527)">
<path d="M19.5097 24.7282C18.7916 24.7282 18.0805 24.5868 17.417 24.3119C16.7536 24.0371 16.1507 23.6343 15.6429 23.1265C15.1351 22.6187 14.7323 22.0159 14.4575 21.3524C14.1827 20.689 14.0413 19.9779 14.0413 19.2597C14.0413 18.5416 14.1827 17.8305 14.4575 17.167C14.7323 16.5036 15.1351 15.9007 15.6429 15.3929C16.1507 14.8851 16.7536 14.4823 17.417 14.2075C18.0805 13.9327 18.7916 13.7913 19.5097 13.7913C20.9601 13.7913 22.351 14.3674 23.3765 15.3929C24.4021 16.4185 24.9782 17.8094 24.9782 19.2597C24.9782 20.7101 24.4021 22.101 23.3765 23.1265C22.351 24.1521 20.9601 24.7282 19.5097 24.7282ZM19.5097 22.9054C20.4766 22.9054 21.4039 22.5213 22.0876 21.8376C22.7713 21.1539 23.1554 20.2266 23.1554 19.2597C23.1554 18.2928 22.7713 17.3656 22.0876 16.6819C21.4039 15.9982 20.4766 15.6141 19.5097 15.6141C18.5428 15.6141 17.6156 15.9982 16.9319 16.6819C16.2482 17.3656 15.8641 18.2928 15.8641 19.2597C15.8641 20.2266 16.2482 21.1539 16.9319 21.8376C17.6156 22.5213 18.5428 22.9054 19.5097 22.9054Z" fill="#595961"/>
<path fill-rule="evenodd" clip-rule="evenodd" d="M3.11352 22.9054C2.87235 22.9059 2.63347 22.8586 2.41063 22.7664C2.1878 22.6742 1.98541 22.5388 1.81513 22.368C1.64485 22.1972 1.51005 21.9944 1.41848 21.7713C1.32691 21.5482 1.28038 21.3092 1.28159 21.068V17.4515C1.27917 17.2108 1.32457 16.9719 1.41514 16.7489C1.50571 16.5258 1.63965 16.323 1.80921 16.1521C1.97876 15.9811 2.18055 15.8456 2.40288 15.7532C2.62521 15.6609 2.86366 15.6136 3.10441 15.6141H5.38659C5.72405 14.295 6.24759 13.0306 6.94146 11.8591L5.26628 10.173C4.61735 9.4493 4.63194 8.35014 5.32097 7.65929L7.90938 5.07087C8.07954 4.90196 8.28136 4.76827 8.50327 4.67747C8.72518 4.58666 8.96282 4.54054 9.20258 4.54172C9.44235 4.54291 9.67953 4.59138 9.90053 4.68437C10.1215 4.77736 10.322 4.91304 10.4905 5.08363L12.111 6.69137C13.283 6.00027 14.5465 5.47746 15.8642 5.13832V2.85432C15.8642 1.91739 16.7027 1.03149 17.687 1.03149H21.3327C22.348 1.03149 23.1555 1.83354 23.1555 2.85432V5.13832C24.4738 5.4773 25.7379 6.00011 26.9105 6.69137L28.5292 5.08363C28.6978 4.91316 28.8984 4.77763 29.1194 4.68479C29.3405 4.59196 29.5777 4.54365 29.8175 4.54263C30.0572 4.54162 30.2948 4.58792 30.5167 4.67887C30.7385 4.76983 30.9403 4.90366 31.1103 5.0727L33.6987 7.66111C34.0279 7.99279 34.217 8.43834 34.2268 8.90556C34.2367 9.37277 34.0665 9.82589 33.7516 10.1711C33.7516 10.1711 33.0224 10.9112 32.0782 11.8591C32.7721 13.0306 33.2956 14.295 33.6331 15.6141H35.9153C36.9306 15.6141 37.7381 16.4289 37.7381 17.4515V21.068C37.7405 21.3087 37.6951 21.5475 37.6045 21.7706C37.514 21.9937 37.38 22.1965 37.2105 22.3674C37.0409 22.5383 36.8391 22.6739 36.6168 22.7662C36.3945 22.8586 36.156 22.9059 35.9153 22.9054H33.6331C33.2956 24.2245 32.7721 25.4889 32.0782 26.6604L33.6859 28.2791C33.8564 28.4477 33.992 28.6483 34.0848 28.8693C34.1776 29.0904 34.2259 29.3276 34.2269 29.5674C34.228 29.8071 34.1817 30.0447 34.0907 30.2666C33.9997 30.4884 33.8659 30.6902 33.6969 30.8602L31.1085 33.4486C30.9383 33.6173 30.7366 33.7507 30.5149 33.8414C30.2932 33.932 30.0557 33.978 29.8162 33.9769C29.5766 33.9757 29.3397 33.9273 29.1188 33.8344C28.898 33.7416 28.6976 33.6062 28.5292 33.4359L26.9087 31.8281C25.7366 32.5192 24.4732 33.042 23.1555 33.3812V35.6561C23.1555 36.6768 22.3352 37.488 21.3181 37.488H17.7016C17.4605 37.489 17.2216 37.4423 16.9986 37.3506C16.7756 37.259 16.5729 37.1241 16.4021 36.9539C16.2314 36.7837 16.096 36.5814 16.0037 36.3587C15.9113 36.1359 15.8639 35.8972 15.8642 35.6561V33.3812C14.5459 33.0422 13.2818 32.5194 12.1092 31.8281L10.4905 33.4359C10.3219 33.6063 10.1213 33.7419 9.90025 33.8347C9.67918 33.9275 9.44197 33.9758 9.20221 33.9769C8.96244 33.9779 8.72483 33.9316 8.50299 33.8406C8.28114 33.7497 8.07942 33.6158 7.90938 33.4468L5.32097 30.8584C5.15232 30.6883 5.01886 30.4865 4.92822 30.2648C4.83758 30.0431 4.79154 29.8056 4.79273 29.5661C4.79391 29.3265 4.8423 29.0896 4.93513 28.8687C5.02796 28.6479 5.16341 28.4475 5.33373 28.2791L6.94146 26.6604C6.24759 25.4889 5.72405 24.2245 5.38659 22.9054H3.11352ZM9.27103 11.6166L8.85725 12.2364C7.95561 13.5926 7.32659 15.1113 7.00526 16.7078L6.85578 17.4369H3.11352C3.10806 17.4369 3.10441 18.6473 3.10441 21.068C3.10441 21.0771 4.35487 21.0826 6.85578 21.0826L7.00526 21.8117C7.33336 23.4213 7.95312 24.9287 8.85725 26.2831L9.27103 26.9029L6.62793 29.5642C6.62064 29.5696 7.47737 30.4337 9.19811 32.1562L11.8667 29.4986L12.4865 29.9123C13.8448 30.8111 15.3636 31.4399 16.9597 31.7643L17.687 31.9156V35.6561C17.687 35.6615 18.8974 35.6652 21.3181 35.6652C21.3272 35.6652 21.3327 34.4147 21.3327 31.9156L22.06 31.7643C23.6561 31.4399 25.1748 30.8111 26.5332 29.9123L27.1529 29.4986L29.8143 32.1416C29.8197 32.1489 30.6838 31.2922 32.4063 29.5715L29.7486 26.9029L30.1624 26.2831C31.0641 24.9269 31.6931 23.4082 32.0144 21.8117L32.1639 21.0826H35.9061C35.9116 21.0826 35.9153 19.8722 35.9153 17.4515C35.9153 17.4424 34.6648 17.4369 32.1639 17.4369L32.0144 16.7078C31.6931 15.1113 31.0641 13.5926 30.1624 12.2364L29.7486 11.6166L32.2568 9.09385L32.4045 8.94438L29.8234 6.36326L27.1529 9.02094L26.5332 8.60715C25.1748 7.70837 23.6561 7.07959 22.06 6.75516L21.3327 6.60387V2.85432C21.3327 2.84885 20.1223 2.84885 17.7016 2.85432C17.6925 2.85432 17.687 4.10478 17.687 6.60387L16.9597 6.75516C15.3636 7.07959 13.8448 7.70837 12.4865 8.60715L11.8667 9.02094L9.20541 6.37784C9.19994 6.37055 8.33592 7.22728 6.61517 8.94438L9.27103 11.6166Z" fill="#595961"/>
</g>
<defs>
<clipPath id="clip0_135_52527">
<rect width="38" height="37" fill="white" transform="translate(0.684814 0.5)"/>
</clipPath>
</defs>
</svg>
