<svg width="53" height="54" viewBox="0 0 53 54" fill="none" xmlns="http://www.w3.org/2000/svg">
<path fill-rule="evenodd" clip-rule="evenodd" d="M21.8438 19.7776C21.8192 19.7776 21.7716 19.7776 21.7471 19.7776C21.3392 19.7279 21.0034 19.3541 21.0034 18.9306C20.9788 18.5318 20.7625 9.21309 26.0193 7.09529C27.3397 6.57199 28.5651 6.6716 29.5971 7.44416C30.8683 8.36604 31.7807 10.2098 32.3328 12.9008C32.7161 14.7944 32.7882 16.4388 32.7882 16.5137C32.8128 16.9122 32.5016 17.2114 32.092 17.1366C31.6841 17.0867 31.3484 16.713 31.3484 16.3143C31.2763 14.62 30.7242 9.96071 28.9009 8.61513C28.3243 8.19161 27.6034 8.14172 26.7401 8.49058C22.227 10.3094 22.4433 19.0551 22.4433 19.1547C22.4433 19.5036 22.2042 19.7776 21.8438 19.7776Z" fill="#595961"/>
<path opacity="0.46" fill-rule="evenodd" clip-rule="evenodd" d="M29.3317 7.49389C28.3717 6.79616 27.2446 6.69655 26.0192 7.16997C23.8831 8.04196 22.3711 10.3344 21.6274 13.8227C21.0753 16.389 21.1474 18.7063 21.1474 18.8059C21.1474 18.9304 21.1949 19.0552 21.2916 19.1548C21.3866 19.2544 21.4832 19.3292 21.6028 19.3292C21.6274 19.3292 21.652 19.3292 21.6749 19.3292C21.8911 19.3292 22.0598 19.1548 22.0598 18.9304C22.0598 18.8308 21.8437 9.93562 26.4764 8.06691C27.4118 7.69327 28.2275 7.74298 28.9008 8.24134C30.8437 9.66158 31.4203 14.4705 31.4923 16.1897C31.4923 16.4388 31.7086 16.6881 31.9724 16.7129C32.2132 16.7378 32.4048 16.5634 32.4048 16.3143C32.3802 16.0153 32.1165 9.53703 29.3317 7.49389Z" fill="#B2B2C2"/>
<path opacity="0.46" fill-rule="evenodd" clip-rule="evenodd" d="M21.6273 19.0302C21.6027 19.0302 21.6027 19.0302 21.5798 19.0302C21.4356 19.0052 21.3143 18.8557 21.2914 18.7063C21.2914 18.6065 21.2194 16.3392 21.7714 13.7728C22.4906 10.3593 24.0042 8.09181 26.0912 7.24459C27.2674 6.77118 28.3241 6.87095 29.2365 7.51879C31.9248 9.4871 32.1885 15.8658 32.1885 16.1398C32.1885 16.2893 32.0689 16.3889 31.9247 16.3641C31.7806 16.3392 31.661 16.2146 31.6364 16.0402C31.6364 15.9654 31.3727 9.71142 28.9482 7.91738C28.2274 7.39424 27.3395 7.31942 26.3321 7.718C21.6273 9.68648 21.8435 18.7063 21.8435 18.8059C21.8665 18.9304 21.7714 19.0302 21.6273 19.0302Z" fill="#B2B2C2"/>
<path opacity="0.62" fill-rule="evenodd" clip-rule="evenodd" d="M23.5718 11.9042C23.7634 11.5306 23.9551 11.1568 24.1238 10.7582C24.0517 10.8827 23.5717 12.1784 22.1072 11.9791C22.0826 11.9791 22.9706 12.2531 23.5718 11.9042Z" fill="#595961"/>
<path opacity="0.62" fill-rule="evenodd" clip-rule="evenodd" d="M23.0428 13.4986C23.1869 13.0999 23.3311 12.6763 23.4277 12.2778C23.3802 12.4273 23.1394 13.7727 21.6028 13.7727C21.6028 13.7727 22.4907 13.9471 23.0428 13.4986Z" fill="#595961"/>
<path opacity="0.62" fill-rule="evenodd" clip-rule="evenodd" d="M31.4677 10.2847C31.276 9.83605 31.0597 9.41252 30.8435 8.96405C30.9155 9.11354 31.6364 10.5338 30.8206 11.5553C30.8206 11.5553 31.4447 11.0571 31.4677 10.2847Z" fill="#595961"/>
<path opacity="0.62" fill-rule="evenodd" clip-rule="evenodd" d="M30.1489 8.04219C29.764 7.71827 29.3806 7.41929 28.9956 7.14525C29.1398 7.2698 30.4126 8.19168 30.3405 9.58714C30.3159 9.58714 30.5323 8.76486 30.1489 8.04219Z" fill="#595961"/>
<path opacity="0.62" fill-rule="evenodd" clip-rule="evenodd" d="M24.2681 10.5335C24.5564 10.2345 24.7955 9.91056 25.0593 9.56169C24.9642 9.6613 24.1715 10.6829 22.7561 10.3091C22.7561 10.3091 23.5719 10.7578 24.2681 10.5335Z" fill="#595961"/>
<path opacity="0.62" fill-rule="evenodd" clip-rule="evenodd" d="M25.1555 9.38748C25.4914 9.13839 25.8026 8.88913 26.1155 8.61509C25.9959 8.68992 25.0114 9.51203 23.6436 8.91407C23.6436 8.91407 24.4347 9.48709 25.1555 9.38748Z" fill="#595961"/>
<path opacity="0.62" fill-rule="evenodd" clip-rule="evenodd" d="M26.4518 8.56491C26.8597 8.44036 27.2447 8.29087 27.628 8.14138C27.4839 8.1911 26.2601 8.63957 25.0593 7.69275C25.0839 7.69275 25.7081 8.44036 26.4518 8.56491Z" fill="#595961"/>
<path opacity="0.62" fill-rule="evenodd" clip-rule="evenodd" d="M27.6278 8.11688C27.9636 8.16677 28.2994 8.19171 28.6352 8.21666C28.5156 8.19171 27.4589 8.11689 26.8594 7.12018C26.8594 7.12018 27.1003 7.79296 27.6278 8.11688Z" fill="#595961"/>
<path opacity="0.62" fill-rule="evenodd" clip-rule="evenodd" d="M29.0204 8.66451C29.2595 8.93871 29.5249 9.21275 29.8115 9.46184C29.7165 9.36224 28.9008 8.53996 29.0925 7.51847C29.0679 7.51847 28.8041 8.09149 29.0204 8.66451Z" fill="#595961"/>
<path opacity="0.74" fill-rule="evenodd" clip-rule="evenodd" d="M31.9247 16.0153C31.9247 15.7411 31.661 9.43723 29.0449 7.5188C28.5403 7.145 27.9882 6.97057 27.4116 6.97057C26.9791 6.97057 26.5237 7.07017 26.0437 7.26954C23.9551 8.09182 22.4906 10.3094 21.7714 13.6979C21.2194 16.2394 21.2914 18.5069 21.2914 18.6065C21.2914 18.6813 21.3635 18.756 21.4356 18.756H21.4585C21.5306 18.756 21.5798 18.7063 21.5798 18.6314C21.5798 18.5318 21.3389 9.43723 26.1633 7.49386C27.2199 7.07017 28.1324 7.145 28.9007 7.71802C31.3956 9.537 31.661 15.8907 31.661 15.9654C31.661 16.0402 31.7331 16.1149 31.8052 16.1149C31.8052 16.1149 31.8051 16.1149 31.8281 16.1149C31.8772 16.1398 31.9247 16.0899 31.9247 16.0153Z" fill="url(#paint0_linear_541_6001)"/>
<path fill-rule="evenodd" clip-rule="evenodd" d="M32.3324 12.901C31.7804 10.21 30.8679 8.391 29.5967 7.44418C28.9005 6.94599 28.1552 6.72167 27.3394 6.77155C27.9881 6.82128 28.5876 7.04559 29.1397 7.44418C30.4125 8.36623 31.325 10.21 31.8771 12.901C32.2604 14.7946 32.3324 16.439 32.3324 16.5138C32.3324 16.8128 32.1883 17.0371 31.9475 17.1118C31.9966 17.1367 32.0442 17.1367 32.0688 17.1367C32.4767 17.1866 32.7879 16.9124 32.765 16.5138C32.7879 16.439 32.7157 14.8196 32.3324 12.901Z" fill="url(#paint1_linear_541_6001)"/>
<path fill-rule="evenodd" clip-rule="evenodd" d="M26.2847 8.49066C21.7716 10.3095 21.9877 19.0552 21.9877 19.1548C21.9877 19.4538 21.8436 19.6781 21.6028 19.7528C21.6519 19.7777 21.6749 19.7777 21.7241 19.7777C21.747 19.7777 21.7961 19.7777 21.8191 19.7777C22.1794 19.7777 22.4186 19.5037 22.4186 19.1548C22.4186 19.0552 22.204 10.3344 26.7155 8.51561C27.0284 8.39106 27.3167 8.31623 27.5804 8.29129C27.1954 8.21663 26.7647 8.29129 26.2847 8.49066Z" fill="url(#paint2_linear_541_6001)"/>
<path fill-rule="evenodd" clip-rule="evenodd" d="M33.124 10.6581L12.7699 17.1861C12.7699 17.1861 11.9066 17.4354 11.6903 17.7094C11.4741 17.9834 11.4266 18.7558 11.4266 18.7558L8.28125 43.9215L31.9002 48.5061L33.7252 10.6332C33.4614 10.5833 33.196 10.6332 33.124 10.6581Z" fill="url(#paint3_linear_541_6001)"/>
<path fill-rule="evenodd" clip-rule="evenodd" d="M40.1581 13.8972C40.1581 13.8972 40.1335 13.6979 40.0139 13.6232C39.9172 13.5484 39.7976 13.5484 39.7976 13.5484L36.4607 13.2993L34.0133 10.7827C33.9166 10.7079 33.82 10.6582 33.7004 10.6332L31.8772 48.5062L44.6695 45.6408L40.1581 13.8972Z" fill="url(#paint4_linear_541_6001)"/>
<path fill-rule="evenodd" clip-rule="evenodd" d="M24.7236 31.6875C24.3632 31.1891 23.9324 30.7406 23.4999 30.3419C23.0674 29.9433 22.612 29.6194 22.155 29.3204C21.8437 29.121 21.5554 28.9217 21.3146 28.7223C21.0754 28.5231 20.8838 28.3237 20.7396 28.1493C20.5954 27.9499 20.4758 27.7755 20.4038 27.5762C20.3317 27.3769 20.3071 27.1775 20.3071 26.9781C20.3071 26.7041 20.3792 26.43 20.4758 26.2057C20.5709 25.9816 20.7396 25.7822 20.9067 25.6078C21.1 25.4333 21.3146 25.3088 21.58 25.2092C21.8437 25.1094 22.1549 25.0597 22.4907 25.0347C22.8511 25.0098 23.2116 25.0348 23.5474 25.0597C23.8832 25.0845 24.1961 25.1593 24.5073 25.234C24.7957 25.3088 25.084 25.4084 25.3231 25.5082C25.5639 25.6078 25.8031 25.7074 25.9718 25.8071L27.556 20.9235C27.3168 20.799 27.0285 20.6743 26.7156 20.5996C26.3798 20.4998 26.0194 20.4252 25.6115 20.3753C25.2036 20.3256 24.7711 20.3006 24.3157 20.3006C23.8603 20.3006 23.3803 20.3256 22.8758 20.4002C21.7962 20.5497 20.8346 20.8487 19.9713 21.2972C19.1555 21.7209 18.4347 22.2689 17.8351 22.9417C17.2585 23.5896 16.8031 24.337 16.4672 25.1842C16.1544 26.0065 15.9627 26.9284 15.9152 27.9249C15.8906 28.5231 15.9381 29.0711 16.0823 29.5695C16.2019 30.0679 16.3952 30.5413 16.6589 30.9897C16.8981 31.4382 17.211 31.837 17.5468 32.2106C17.8826 32.5844 18.2905 32.9333 18.6984 33.2572C19.0342 33.5063 19.3226 33.7554 19.5634 33.9797C19.8026 34.204 19.9959 34.4282 20.1384 34.6774C20.2826 34.9016 20.3792 35.1259 20.4512 35.375C20.5233 35.5993 20.5479 35.8484 20.5233 36.0977C20.5233 36.3468 20.4513 36.5959 20.3547 36.7952C20.2596 36.9946 20.1384 37.194 19.9467 37.3435C19.7796 37.493 19.5634 37.5926 19.3226 37.6424C19.0834 37.6922 18.7951 37.7171 18.4822 37.6674C18.1235 37.6175 17.763 37.5179 17.4272 37.3682C17.0914 37.2437 16.754 37.0693 16.4427 36.8948C16.1315 36.7206 15.8432 36.5212 15.6024 36.3468C15.3386 36.1723 15.1224 35.973 14.9553 35.8235L13.874 39.5361C14.0428 39.7852 14.282 40.0095 14.5457 40.2337C14.8111 40.458 15.1224 40.6821 15.4828 40.9065C15.8432 41.1058 16.2265 41.305 16.6344 41.4795C17.0423 41.6539 17.4993 41.8034 17.9547 41.9281H17.9793H18.0022H18.0268H18.0514C19.0343 42.1523 19.9713 42.2021 20.8592 42.0776C21.7716 41.9529 22.612 41.629 23.3311 41.1308C24.0748 40.6075 24.676 39.9097 25.1315 38.9879C25.5885 38.066 25.8522 36.9447 25.8997 35.674C25.9243 34.8766 25.8277 34.1791 25.6115 33.5312C25.3952 32.7838 25.084 32.2106 24.7236 31.6875Z" fill="url(#paint5_linear_541_6001)"/>
<path opacity="0.226763" fill-rule="evenodd" clip-rule="evenodd" d="M14.0294 39.7391C13.9737 39.673 13.9212 39.6056 13.8737 39.5363L14.9549 35.8236C14.9697 35.8375 14.986 35.8518 15.0024 35.8665C15.163 36.01 15.3629 36.1886 15.602 36.3469C15.8428 36.5214 16.1312 36.7207 16.4424 36.8952C16.7537 37.0694 17.091 37.2439 17.4269 37.3686C17.7627 37.5181 18.1231 37.6177 18.4819 37.6676C18.7948 37.7173 19.0831 37.6925 19.3223 37.6426C19.5631 37.5927 19.7793 37.4931 19.9464 37.3436C20.1381 37.1942 20.2593 36.9948 20.3543 36.7954C20.451 36.596 20.523 36.3469 20.523 36.0978C20.5476 35.8486 20.523 35.5995 20.4509 35.3752C20.3788 35.1261 20.2822 34.9018 20.1381 34.6776C20.0021 34.4407 19.8219 34.2265 19.5974 34.0133C19.7154 34.1465 19.8153 34.2833 19.8989 34.4283C20.0431 34.6527 20.1381 34.8768 20.2101 35.1261C20.2822 35.3502 20.3068 35.5995 20.2822 35.8486C20.2822 36.0978 20.2102 36.3469 20.1152 36.5463C20.0185 36.7457 19.8989 36.9449 19.7072 37.0944C19.5385 37.2439 19.3223 37.3436 19.0831 37.3934C18.8423 37.4432 18.554 37.4682 18.2427 37.4183C17.8823 37.3686 17.5219 37.2688 17.1861 37.1193C16.8503 36.9948 16.5144 36.8203 16.2015 36.6459C15.8903 36.4715 15.602 36.2723 15.3629 36.0978C15.1221 35.9395 14.9222 35.7609 14.7617 35.6174C14.7453 35.6027 14.7304 35.5884 14.7141 35.5745L13.6345 39.287C13.741 39.4456 13.877 39.5941 14.0294 39.7391ZM17.5661 32.2334C17.476 32.1443 17.3892 32.0538 17.3057 31.9617C16.9699 31.5879 16.6586 31.1893 16.4178 30.7408C16.1541 30.2922 15.9624 29.8188 15.8428 29.3206C15.6986 28.8222 15.6494 28.274 15.674 27.676C15.7215 26.6793 15.9149 25.7574 16.2261 24.9352C16.562 24.0881 17.019 23.3407 17.594 22.6928C18.1952 22.02 18.9143 21.4718 19.7301 21.0483C20.5951 20.5998 21.555 20.3008 22.6346 20.1513C23.1391 20.0765 23.6192 20.0515 24.0746 20.0515C24.5316 20.0515 24.9641 20.0765 25.372 20.1264C25.7799 20.1763 26.1403 20.2509 26.4761 20.3507C26.7874 20.4253 27.0757 20.5499 27.3165 20.6744L27.2788 20.791C27.1052 20.7155 26.9151 20.6475 26.7153 20.5998C26.3795 20.5002 26.019 20.4254 25.6111 20.3755C25.2032 20.3257 24.7707 20.3008 24.3153 20.3008C23.8599 20.3008 23.38 20.3257 22.8755 20.4004C21.7959 20.5499 20.8343 20.8489 19.971 21.2975C19.1552 21.721 18.4344 22.2691 17.8348 22.9419C17.2582 23.5897 16.8027 24.3372 16.4669 25.1844C16.154 26.0067 15.9624 26.9286 15.9149 27.9251C15.8903 28.5232 15.9378 29.0713 16.082 29.5697C16.2015 30.068 16.3948 30.5414 16.6586 30.9899C16.8977 31.4384 17.2106 31.8371 17.5464 32.2108C17.553 32.2183 17.5596 32.2259 17.5661 32.2334ZM20.8261 28.2515C20.9571 28.3997 21.121 28.5611 21.3143 28.7225C21.5551 28.9218 21.8434 29.1212 22.1547 29.3206C22.6117 29.6196 23.0671 29.9435 23.4996 30.3421C23.6257 30.4581 23.7502 30.5783 23.8747 30.7028C23.6748 30.488 23.4667 30.2847 23.2587 30.093C22.8279 29.6942 22.3709 29.3703 21.9155 29.0713C21.6026 28.8719 21.3143 28.6727 21.0751 28.4734C20.985 28.399 20.903 28.3247 20.8261 28.2515Z" fill="black"/>
<path opacity="0.41" fill-rule="evenodd" clip-rule="evenodd" d="M37.2765 41.455L36.4608 13.2994L36.3166 13.1499L36.7016 41.0563C36.7016 41.0563 33.3172 46.3884 32.8126 46.2389C32.0689 46.0147 34.2771 11.0569 34.2771 11.0569L34.0363 10.8078C33.9413 10.733 33.8201 10.6833 33.7251 10.6583L31.9247 48.008L31.9001 48.5313L32.5243 47.709L37.2765 41.455Z" fill="url(#paint6_linear_541_6001)"/>
<path fill-rule="evenodd" clip-rule="evenodd" d="M28.0833 12.2779C27.7966 13.4489 27.4363 14.5452 27.1726 15.218C27.0038 15.6168 27.1955 15.9904 27.5559 16.0403C27.9409 16.0902 28.3717 15.816 28.5159 15.4174C28.5404 15.3426 29.1875 13.7231 29.597 11.8045V11.7796L28.0833 12.2779Z" fill="url(#paint7_linear_541_6001)"/>
<path fill-rule="evenodd" clip-rule="evenodd" d="M17.2586 15.766C16.9228 16.5134 16.587 17.1613 16.3462 17.6097C16.1316 17.9835 16.2511 18.3821 16.6115 18.4817C16.9703 18.6064 17.4502 18.3821 17.6665 18.0083C17.6911 17.9586 18.3873 16.7377 19.0115 15.1928L17.2586 15.766Z" fill="url(#paint8_linear_541_6001)"/>
<path opacity="0.32" fill-rule="evenodd" clip-rule="evenodd" d="M31.9001 48.5061L37.2765 41.4546L44.7187 45.6407L31.9001 48.5061Z" fill="url(#paint9_linear_541_6001)"/>
<path opacity="0.19" fill-rule="evenodd" clip-rule="evenodd" d="M31.9001 48.5061L37.2291 41.4546L44.7187 45.6407L31.9001 48.5061Z" fill="url(#paint10_linear_541_6001)"/>
<path opacity="0.19" fill-rule="evenodd" clip-rule="evenodd" d="M31.9001 48.5061L37.2291 41.4546L44.7187 45.6407L31.9001 48.5061Z" fill="url(#paint11_linear_541_6001)"/>
<path opacity="0.6" fill-rule="evenodd" clip-rule="evenodd" d="M26.6681 28.7725C29.4529 32.6844 31.3253 36.9201 32.2607 41.0314L33.7252 10.6084C33.4615 10.5587 33.1961 10.6084 33.124 10.6334L12.7699 17.1865C12.7699 17.1865 12.5782 17.2362 12.3374 17.336C17.4992 19.1797 22.6595 23.1415 26.6681 28.7725Z" fill="url(#paint12_linear_541_6001)"/>
<path fill-rule="evenodd" clip-rule="evenodd" d="M40.0365 13.6481C40.1577 13.7479 40.1578 13.8974 40.1578 13.8974L44.6217 45.6159L37.2762 41.43L36.4604 13.2745L39.7499 13.5236C39.7728 13.5485 39.9169 13.5485 40.0365 13.6481Z" fill="url(#paint13_linear_541_6001)"/>
<path fill-rule="evenodd" clip-rule="evenodd" d="M39.5096 13.7232C39.5096 13.7232 39.6538 13.7232 39.7734 13.8478C39.893 13.9475 39.9175 14.097 39.9175 14.097L44.311 45.4668L44.6469 45.6662L40.1812 13.9226C40.1812 13.9226 40.1583 13.7731 40.0617 13.6735C39.9421 13.5737 39.7734 13.5737 39.7734 13.5737L36.4856 13.3246L39.5096 13.7232Z" fill="url(#paint14_linear_541_6001)"/>
<path fill-rule="evenodd" clip-rule="evenodd" d="M8.28125 43.9212L31.9002 48.5058L33.0535 22.5428L11.2184 23.1635L8.28125 43.9212Z" fill="url(#paint15_linear_541_6001)"/>
<path opacity="0.3" fill-rule="evenodd" clip-rule="evenodd" d="M16.0345 17.5492C15.8199 18.1548 16.0312 18.7911 16.5096 18.9707C16.9863 19.1502 17.5465 18.8049 17.7628 18.1995C17.9774 17.594 17.7644 16.9576 17.2877 16.7781C16.811 16.5984 16.2491 16.9437 16.0345 17.5492Z" fill="white"/>
<path opacity="0.89" fill-rule="evenodd" clip-rule="evenodd" d="M16.0084 17.2618C15.7938 17.8673 16.0067 18.5037 16.4834 18.6832C16.9601 18.8629 17.522 18.5176 17.7366 17.9121C17.9512 17.3065 17.7399 16.6701 17.2616 16.4906C16.7849 16.3109 16.2246 16.6562 16.0084 17.2618Z" fill="black"/>
<path fill-rule="evenodd" clip-rule="evenodd" d="M36.4854 13.2993L34.0363 10.7827C33.9413 10.7079 33.8201 10.6582 33.7251 10.6332L31.9001 48.5062L37.3011 41.4298L36.4854 13.2993Z" fill="url(#paint16_linear_541_6001)"/>
<path fill-rule="evenodd" clip-rule="evenodd" d="M33.1238 10.6586L12.7697 17.1866C12.7697 17.1866 11.9064 17.4359 11.6902 17.7099C11.6656 17.7349 11.6655 17.7598 11.6426 17.7847L32.1638 11.9044C32.3326 11.8545 32.7405 11.705 32.693 12.9259L31.4446 48.4568L31.8772 48.5316L33.7004 10.6586C33.4612 10.5838 33.1959 10.6337 33.1238 10.6586Z" fill="url(#paint17_linear_541_6001)"/>
<path fill-rule="evenodd" clip-rule="evenodd" d="M33.1238 10.6586L12.7697 17.1866C12.7697 17.1866 11.9064 17.4359 11.6902 17.7099C11.6656 17.7349 11.6655 17.7598 11.6426 17.7847L16.3949 16.4142L32.7405 11.157C32.8125 11.132 33.0763 11.0821 33.3401 11.132L31.5397 48.4568L31.8772 48.5316L33.7004 10.6586C33.4612 10.5838 33.1959 10.6337 33.1238 10.6586Z" fill="url(#paint18_linear_541_6001)"/>
<path opacity="0.32" fill-rule="evenodd" clip-rule="evenodd" d="M38.3577 42.0528L37.2765 41.4299L31.8772 48.5062L32.1639 48.4314C32.1639 48.4314 36.9178 42.0778 37.3486 41.8784C37.6615 41.7539 38.3577 42.0528 38.3577 42.0528Z" fill="url(#paint19_linear_541_6001)"/>
<path opacity="0.57" fill-rule="evenodd" clip-rule="evenodd" d="M31.9001 48.5062L37.3011 41.4299C37.2766 41.4549 33.8692 45.3169 31.9001 48.5062Z" fill="url(#paint20_linear_541_6001)"/>
<path opacity="0.46" fill-rule="evenodd" clip-rule="evenodd" d="M44.7184 45.6407L37.3008 41.4546C37.2762 41.4546 38.1412 41.6041 44.7184 45.6407Z" fill="url(#paint21_linear_541_6001)"/>
<path opacity="0.3" fill-rule="evenodd" clip-rule="evenodd" d="M27.0086 15.0647C26.7924 15.6704 27.0054 16.3068 27.4821 16.4864C27.9604 16.6661 28.5207 16.3208 28.7353 15.7154C28.9515 15.1097 28.7386 14.4733 28.2619 14.2937C27.7851 14.1142 27.2232 14.4593 27.0086 15.0647Z" fill="white"/>
<path opacity="0.89" fill-rule="evenodd" clip-rule="evenodd" d="M26.9822 14.7785C26.7677 15.3841 26.9807 16.0206 27.4574 16.2002C27.9341 16.3797 28.4959 16.0346 28.7105 15.429C28.9251 14.8235 28.7138 14.1871 28.2371 14.0074C27.7587 13.8278 27.1985 14.1731 26.9822 14.7785Z" fill="black"/>
<path fill-rule="evenodd" clip-rule="evenodd" d="M16.8748 18.4821C16.8502 18.4821 16.8027 18.4821 16.7781 18.4821C16.3948 18.4324 16.1311 18.0586 16.1786 17.635C16.2261 17.2363 17.5939 7.91753 23.2112 5.79973C24.6265 5.27643 25.8273 5.37604 26.7398 6.14859C27.8439 7.07048 28.4434 8.91424 28.5401 11.6052C28.6122 13.4989 28.396 15.1433 28.396 15.2181C28.3485 15.6167 27.9881 15.9158 27.6031 15.841C27.2198 15.7911 26.9314 15.4175 27.0035 15.0187C27.2198 13.3244 27.4589 8.66514 25.8519 7.31957C25.3473 6.89604 24.6512 6.84616 23.7158 7.19502C18.8914 9.01384 17.6185 17.7596 17.6185 17.8342C17.5219 18.208 17.2352 18.4821 16.8748 18.4821Z" fill="#595961"/>
<path opacity="0.46" fill-rule="evenodd" clip-rule="evenodd" d="M26.4517 6.19818C25.6113 5.50061 24.5072 5.401 23.1869 5.87441C20.9066 6.74641 18.9866 9.03865 17.6662 12.502C16.6833 15.0685 16.3459 17.3856 16.3459 17.4854C16.323 17.61 16.3705 17.7345 16.4426 17.8343C16.5147 17.9339 16.6113 18.0087 16.7308 18.0087C16.7538 18.0087 16.7784 18.0087 16.8029 18.0087C17.0192 18.0087 17.2108 17.8343 17.2354 17.61C17.2583 17.5104 18.5312 8.61512 23.4997 6.74641C24.5072 6.37261 25.323 6.4225 25.8996 6.92085C27.6033 8.34109 27.3641 13.1499 27.1479 14.8691C27.1233 15.1183 27.2921 15.3674 27.5312 15.3924C27.7721 15.4173 28.0112 15.2429 28.0358 14.9938C28.0603 14.7196 28.9007 8.24148 26.4517 6.19818Z" fill="#B2B2C2"/>
<path opacity="0.81" fill-rule="evenodd" clip-rule="evenodd" d="M16.7783 17.7346C16.7537 17.7346 16.7538 17.7346 16.7308 17.7346C16.5867 17.7097 16.49 17.5602 16.5146 17.4107C16.5391 17.3109 16.8504 15.0436 17.835 12.4772C19.1553 9.0637 21.0277 6.79624 23.2589 5.94903C24.5317 5.47561 25.5638 5.57538 26.355 6.22323C28.7074 8.19154 27.8916 14.5702 27.8441 14.8443C27.8195 14.9937 27.7 15.0934 27.5312 15.0686C27.3887 15.0436 27.2921 14.9191 27.2921 14.7446C27.2921 14.6698 28.1078 8.41586 25.9963 6.62181C25.3721 6.1484 24.5072 6.09868 23.4522 6.49726C18.387 8.41586 17.0667 17.4107 17.0667 17.5103C17.0421 17.6348 16.9225 17.7346 16.7783 17.7346Z" fill="#B2B2C2"/>
<path opacity="0.42" fill-rule="evenodd" clip-rule="evenodd" d="M19.9465 10.6083C20.2102 10.2346 20.451 9.8608 20.6902 9.46222C20.5952 9.58677 19.899 10.8825 18.459 10.6831C18.4345 10.6831 19.2749 10.9571 19.9465 10.6083Z" fill="#595961"/>
<path opacity="0.42" fill-rule="evenodd" clip-rule="evenodd" d="M19.1311 12.2027C19.3473 11.8039 19.5635 11.3804 19.7306 10.9818C19.6585 11.1313 19.1785 12.4767 17.6665 12.4767C17.6665 12.4767 18.5069 12.6511 19.1311 12.2027Z" fill="#595961"/>
<path opacity="0.42" fill-rule="evenodd" clip-rule="evenodd" d="M18.5065 13.8477C18.6982 13.424 18.8424 13.0005 18.9866 12.577C18.9145 12.7265 18.6507 14.0968 17.0667 14.2713C17.0667 14.2463 17.9299 14.3461 18.5065 13.8477Z" fill="#595961"/>
<path opacity="0.62" fill-rule="evenodd" clip-rule="evenodd" d="M28.1077 8.98871C27.9881 8.54008 27.8684 8.11655 27.6997 7.66808C27.7472 7.81757 28.2273 9.23781 27.2444 10.2593C27.2444 10.2593 27.9635 9.7611 28.1077 8.98871Z" fill="#595961"/>
<path opacity="0.62" fill-rule="evenodd" clip-rule="evenodd" d="M27.1727 6.74622C26.8369 6.4223 26.4994 6.12332 26.1636 5.84928C26.2848 5.97383 27.4119 6.89571 27.1006 8.291C27.0761 8.291 27.4365 7.46873 27.1727 6.74622Z" fill="#595961"/>
<path opacity="0.62" fill-rule="evenodd" clip-rule="evenodd" d="M28.3487 11.2812C28.3241 10.8327 28.2521 10.3593 28.18 9.91065C28.18 10.0851 28.4208 11.5552 27.2676 12.3525C27.2676 12.3525 28.0604 12.0037 28.3487 11.2812Z" fill="#595961"/>
<path opacity="0.62" fill-rule="evenodd" clip-rule="evenodd" d="M28.4684 13.6234C28.493 13.175 28.493 12.7016 28.4684 12.2531C28.4684 12.4275 28.4929 13.8977 27.2676 14.5703C27.2676 14.5455 28.108 14.2962 28.4684 13.6234Z" fill="#595961"/>
<path opacity="0.42" fill-rule="evenodd" clip-rule="evenodd" d="M17.9544 15.6663C18.0986 15.2178 18.1952 14.7693 18.2903 14.3456C18.2427 14.4951 18.0265 15.9154 16.562 16.2642C16.5866 16.2642 17.4499 16.2393 17.9544 15.6663Z" fill="#595961"/>
<path opacity="0.42" fill-rule="evenodd" clip-rule="evenodd" d="M20.8591 9.23749C21.1949 8.93851 21.5077 8.61459 21.796 8.26572C21.6748 8.36533 20.7149 9.38698 19.3716 9.01317C19.3945 9.01317 20.1383 9.46181 20.8591 9.23749Z" fill="#595961"/>
<path opacity="0.42" fill-rule="evenodd" clip-rule="evenodd" d="M21.9386 8.09192C22.3236 7.84282 22.684 7.59356 23.0427 7.31953C22.9002 7.39435 21.796 8.21647 20.5232 7.61851C20.5232 7.61851 21.1949 8.19153 21.9386 8.09192Z" fill="#595961"/>
<path opacity="0.62" fill-rule="evenodd" clip-rule="evenodd" d="M23.403 7.26975C23.8355 7.14504 24.2434 6.99555 24.6513 6.84606C24.5072 6.89595 23.2114 7.34442 22.1548 6.39759C22.1548 6.39759 22.6593 7.14504 23.403 7.26975Z" fill="#595961"/>
<path opacity="0.62" fill-rule="evenodd" clip-rule="evenodd" d="M24.6265 6.82132C24.9639 6.8712 25.2998 6.89615 25.6356 6.92109C25.516 6.89615 24.4839 6.82132 24.0269 5.82462C24.0514 5.82462 24.1711 6.4974 24.6265 6.82132Z" fill="#595961"/>
<path opacity="0.62" fill-rule="evenodd" clip-rule="evenodd" d="M25.9242 7.3691C26.1405 7.64314 26.3551 7.91718 26.5713 8.16644C26.4992 8.06667 25.8276 7.24456 26.1634 6.22291C26.188 6.22291 25.8276 6.79609 25.9242 7.3691Z" fill="#595961"/>
<path fill-rule="evenodd" clip-rule="evenodd" d="M27.5802 14.7196C27.6031 14.4455 28.4206 8.14167 26.1403 6.22308C25.7078 5.84944 25.1803 5.675 24.6037 5.675C24.1712 5.675 23.6913 5.77461 23.1867 5.97398C20.9785 6.79626 19.1306 9.01383 17.8348 12.4024C16.8503 14.9439 16.539 17.2113 16.5144 17.3109C16.5144 17.3856 16.562 17.4604 16.6341 17.4604H16.6586C16.7307 17.4604 16.7782 17.4105 16.7782 17.3359C16.8027 17.2361 18.0985 8.14167 23.2587 6.19814C24.3628 5.77461 25.2999 5.84944 25.9715 6.42245C28.1552 8.24128 27.3394 14.595 27.3165 14.6698C27.3165 14.7445 27.364 14.8193 27.4361 14.8193C27.4361 14.8193 27.436 14.8193 27.459 14.8193C27.5311 14.8443 27.5802 14.7944 27.5802 14.7196Z" fill="url(#paint22_linear_541_6001)"/>
<path fill-rule="evenodd" clip-rule="evenodd" d="M28.5404 11.605C28.4438 8.91402 27.8442 7.09504 26.7401 6.14821C26.1405 5.65002 25.4198 5.4257 24.604 5.47559C25.2281 5.52531 25.8031 5.74963 26.2848 6.14821C27.3889 7.07026 27.9884 8.91402 28.0834 11.605C28.1555 13.4987 27.9409 15.143 27.9409 15.2179C27.8918 15.5169 27.7001 15.7412 27.4593 15.8158C27.5084 15.8408 27.5313 15.8408 27.5805 15.8408C27.9638 15.8907 28.3242 15.6165 28.3717 15.2179C28.3963 15.143 28.6125 13.5236 28.5404 11.605Z" fill="url(#paint23_linear_541_6001)"/>
<path fill-rule="evenodd" clip-rule="evenodd" d="M23.2359 7.19482C18.4115 9.01364 17.1387 17.7594 17.1387 17.859C17.0912 18.158 16.8979 18.3823 16.6587 18.4569C16.7062 18.4819 16.7308 18.4819 16.7783 18.4819C16.8028 18.4819 16.8504 18.4819 16.875 18.4819C17.2354 18.4819 17.522 18.2078 17.5712 17.859C17.5941 17.7594 18.8424 9.03858 23.6668 7.2196C24.0042 7.09505 24.2909 7.02039 24.5563 6.99544C24.1959 6.94556 23.7388 7.02038 23.2359 7.19482Z" fill="url(#paint24_linear_541_6001)"/>
<defs>
<linearGradient id="paint0_linear_541_6001" x1="22.543" y1="7.02681" x2="21.7902" y2="17.276" gradientUnits="userSpaceOnUse">
<stop stop-color="white" stop-opacity="0.65"/>
<stop offset="1" stop-color="white" stop-opacity="0.01"/>
</linearGradient>
<linearGradient id="paint1_linear_541_6001" x1="28.0438" y1="12.8935" x2="33.3438" y2="17.5356" gradientUnits="userSpaceOnUse">
<stop stop-opacity="0.01"/>
<stop offset="1" stop-opacity="0.4"/>
</linearGradient>
<linearGradient id="paint2_linear_541_6001" x1="25.9193" y1="18.2636" x2="31.5292" y2="13.0383" gradientUnits="userSpaceOnUse">
<stop stop-opacity="0.01"/>
<stop offset="1" stop-opacity="0.4"/>
</linearGradient>
<linearGradient id="paint3_linear_541_6001" x1="18.7786" y1="3.01487" x2="-3.01076" y2="28.121" gradientUnits="userSpaceOnUse">
<stop stop-color="#B8D26E"/>
<stop offset="1" stop-color="#7FB525"/>
</linearGradient>
<linearGradient id="paint4_linear_541_6001" x1="48.5847" y1="9.30038" x2="36.6262" y2="9.52244" gradientUnits="userSpaceOnUse">
<stop stop-color="#B4E034"/>
<stop offset="1" stop-color="#60A927"/>
</linearGradient>
<linearGradient id="paint5_linear_541_6001" x1="13.0156" y1="26.0411" x2="3.2113" y2="49.9165" gradientUnits="userSpaceOnUse">
<stop stop-color="white"/>
<stop offset="1" stop-color="#CECEEB"/>
</linearGradient>
<linearGradient id="paint6_linear_541_6001" x1="27.0725" y1="84.8391" x2="42.6005" y2="84.8077" gradientUnits="userSpaceOnUse">
<stop stop-color="#1D1D1B" stop-opacity="0.5"/>
<stop offset="0.038033" stop-color="#1D1D1B" stop-opacity="0.4837"/>
<stop offset="0.4243" stop-color="#1D1D1B" stop-opacity="0.3185"/>
<stop offset="1" stop-color="#1D1D1B" stop-opacity="0.01"/>
</linearGradient>
<linearGradient id="paint7_linear_541_6001" x1="28.8762" y1="10.1073" x2="26.3001" y2="11.4938" gradientUnits="userSpaceOnUse">
<stop stop-opacity="0.01"/>
<stop offset="1" stop-opacity="0.4"/>
</linearGradient>
<linearGradient id="paint8_linear_541_6001" x1="18.0761" y1="14.2194" x2="16.2652" y2="15.7757" gradientUnits="userSpaceOnUse">
<stop stop-opacity="0.01"/>
<stop offset="1" stop-opacity="0.4"/>
</linearGradient>
<linearGradient id="paint9_linear_541_6001" x1="35.74" y1="45.6592" x2="35.9233" y2="48.076" gradientUnits="userSpaceOnUse">
<stop stop-opacity="0.01"/>
<stop offset="1" stop-opacity="0.4"/>
</linearGradient>
<linearGradient id="paint10_linear_541_6001" x1="31.4595" y1="42.1212" x2="31.8845" y2="48.4046" gradientUnits="userSpaceOnUse">
<stop stop-color="white" stop-opacity="0.5"/>
<stop offset="0.0896271" stop-color="white" stop-opacity="0.4552"/>
<stop offset="1" stop-color="white" stop-opacity="0.01"/>
</linearGradient>
<linearGradient id="paint11_linear_541_6001" x1="30.642" y1="43.0985" x2="31.3981" y2="49.8106" gradientUnits="userSpaceOnUse">
<stop stop-opacity="0.01"/>
<stop offset="1" stop-opacity="0.4"/>
</linearGradient>
<linearGradient id="paint12_linear_541_6001" x1="27.6755" y1="4.48144" x2="8.28428" y2="15.6965" gradientUnits="userSpaceOnUse">
<stop stop-color="white" stop-opacity="0.5"/>
<stop offset="1" stop-color="white" stop-opacity="0.01"/>
</linearGradient>
<linearGradient id="paint13_linear_541_6001" x1="31.4166" y1="63.0954" x2="48.532" y2="63.13" gradientUnits="userSpaceOnUse">
<stop stop-color="#1D1D1B" stop-opacity="0.5"/>
<stop offset="0.0896271" stop-color="#1D1D1B" stop-opacity="0.4552"/>
<stop offset="1" stop-color="#1D1D1B" stop-opacity="0.01"/>
</linearGradient>
<linearGradient id="paint14_linear_541_6001" x1="43.6738" y1="12.3804" x2="41.2425" y2="12.9762" gradientUnits="userSpaceOnUse">
<stop stop-color="white" stop-opacity="0.4"/>
<stop offset="1" stop-color="white" stop-opacity="0.01"/>
</linearGradient>
<linearGradient id="paint15_linear_541_6001" x1="21.8599" y1="48.7831" x2="23.1242" y2="42.6879" gradientUnits="userSpaceOnUse">
<stop stop-color="#1D1D1B" stop-opacity="0.5"/>
<stop offset="0.0896271" stop-color="#1D1D1B" stop-opacity="0.4552"/>
<stop offset="1" stop-color="#1D1D1B" stop-opacity="0.01"/>
</linearGradient>
<linearGradient id="paint16_linear_541_6001" x1="29.1693" y1="84.0632" x2="44.7531" y2="84.0767" gradientUnits="userSpaceOnUse">
<stop stop-color="#1D1D1B" stop-opacity="0.5"/>
<stop offset="1" stop-color="#1D1D1B" stop-opacity="0.01"/>
</linearGradient>
<linearGradient id="paint17_linear_541_6001" x1="14.9287" y1="8.46288" x2="7.37064" y2="37.5009" gradientUnits="userSpaceOnUse">
<stop stop-color="white" stop-opacity="0.5"/>
<stop offset="1" stop-color="white" stop-opacity="0.01"/>
</linearGradient>
<linearGradient id="paint18_linear_541_6001" x1="14.9287" y1="8.46288" x2="7.37064" y2="37.5009" gradientUnits="userSpaceOnUse">
<stop stop-color="white" stop-opacity="0.5"/>
<stop offset="1" stop-color="white" stop-opacity="0.01"/>
</linearGradient>
<linearGradient id="paint19_linear_541_6001" x1="33.2713" y1="38.9021" x2="27.2973" y2="47.1245" gradientUnits="userSpaceOnUse">
<stop stop-color="white" stop-opacity="0.5"/>
<stop offset="0.0896271" stop-color="white" stop-opacity="0.4552"/>
<stop offset="1" stop-color="white" stop-opacity="0.01"/>
</linearGradient>
<linearGradient id="paint20_linear_541_6001" x1="35.0733" y1="40.7925" x2="34.4818" y2="42.1184" gradientUnits="userSpaceOnUse">
<stop stop-opacity="0.01"/>
<stop offset="1" stop-opacity="0.4"/>
</linearGradient>
<linearGradient id="paint21_linear_541_6001" x1="40.9391" y1="42.5455" x2="40.9099" y2="42.9019" gradientUnits="userSpaceOnUse">
<stop stop-opacity="0.01"/>
<stop offset="1" stop-opacity="0.4"/>
</linearGradient>
<linearGradient id="paint22_linear_541_6001" x1="19.4271" y1="4.83626" x2="16.8445" y2="15.0387" gradientUnits="userSpaceOnUse">
<stop stop-color="white" stop-opacity="0.65"/>
<stop offset="1" stop-color="white" stop-opacity="0.01"/>
</linearGradient>
<linearGradient id="paint23_linear_541_6001" x1="25.2068" y1="10.7216" x2="29.6994" y2="15.289" gradientUnits="userSpaceOnUse">
<stop stop-opacity="0.01"/>
<stop offset="1" stop-opacity="0.4"/>
</linearGradient>
<linearGradient id="paint24_linear_541_6001" x1="22.335" y1="17.4477" x2="28.5421" y2="11.073" gradientUnits="userSpaceOnUse">
<stop stop-opacity="0.01"/>
<stop offset="1" stop-opacity="0.4"/>
</linearGradient>
</defs>
</svg>
