<svg width="34" height="35" viewBox="0 0 34 35" fill="none" xmlns="http://www.w3.org/2000/svg">
<path d="M9.91667 20.3862L13.1651 17.1378C13.4307 16.8722 13.791 16.723 14.1667 16.723C14.5423 16.723 14.9026 16.8722 15.1682 17.1378L17.4151 19.3846C17.6807 19.6502 18.041 19.7994 18.4167 19.7994C18.7923 19.7994 19.1526 19.6502 19.4182 19.3846L24.0833 14.7195M24.0833 14.7195V18.2612M24.0833 14.7195H20.5417" stroke="#242424" stroke-width="2.125" stroke-linecap="round" stroke-linejoin="round"/>
<path d="M31.1667 17.5528C31.1667 24.231 31.1667 27.5701 29.0912 29.6441C27.0187 31.7195 23.6782 31.7195 17 31.7195C10.3218 31.7195 6.98275 31.7195 4.90733 29.6441C2.83333 27.5715 2.83333 24.231 2.83333 17.5528C2.83333 10.8747 2.83333 7.53559 4.90733 5.46017C6.98417 3.38617 10.3218 3.38617 17 3.38617C23.6782 3.38617 27.0172 3.38617 29.0912 5.46017C30.4711 6.84 30.9329 8.77942 31.0887 11.8862" stroke="#242424" stroke-width="2.125" stroke-linecap="round"/>
</svg>
