<svg width="24" height="25" viewBox="0 0 24 25" fill="none" xmlns="http://www.w3.org/2000/svg">
<path fill-rule="evenodd" clip-rule="evenodd" d="M12 22.5C17.523 22.5 22 18.023 22 12.5C22 6.977 17.523 2.5 12 2.5C6.477 2.5 2 6.977 2 12.5C2 18.023 6.477 22.5 12 22.5ZM12.47 8.97C12.6106 8.82955 12.8012 8.75066 13 8.75066C13.1988 8.75066 13.3894 8.82955 13.53 8.97L16.53 11.97C16.6705 12.1106 16.7493 12.3012 16.7493 12.5C16.7493 12.6988 16.6705 12.8894 16.53 13.03L13.53 16.03C13.4613 16.1037 13.3785 16.1628 13.2865 16.2038C13.1945 16.2448 13.0952 16.2668 12.9945 16.2686C12.8938 16.2704 12.7938 16.2518 12.7004 16.2141C12.607 16.1764 12.5222 16.1203 12.451 16.049C12.3797 15.9778 12.3236 15.893 12.2859 15.7996C12.2482 15.7062 12.2296 15.6062 12.2314 15.5055C12.2332 15.4048 12.2552 15.3055 12.2962 15.2135C12.3372 15.1215 12.3963 15.0387 12.47 14.97L14.19 13.25H8C7.80109 13.25 7.61032 13.171 7.46967 13.0303C7.32902 12.8897 7.25 12.6989 7.25 12.5C7.25 12.3011 7.32902 12.1103 7.46967 11.9697C7.61032 11.829 7.80109 11.75 8 11.75H14.19L12.47 10.03C12.3295 9.88937 12.2507 9.69875 12.2507 9.5C12.2507 9.30125 12.3295 9.11063 12.47 8.97Z" fill="#242424"/>
</svg>
