<svg width="34" height="34" viewBox="0 0 34 34" fill="none" xmlns="http://www.w3.org/2000/svg">
<path d="M9.91675 19.8334L13.1652 16.585C13.4308 16.3194 13.7911 16.1702 14.1667 16.1702C14.5424 16.1702 14.9027 16.3194 15.1683 16.585L17.4152 18.8318C17.6808 19.0974 18.0411 19.2466 18.4167 19.2466C18.7924 19.2466 19.1527 19.0974 19.4183 18.8318L24.0834 14.1667M24.0834 14.1667V17.7084M24.0834 14.1667H20.5417" stroke="#0000FF" stroke-width="2.125" stroke-linecap="round" stroke-linejoin="round"/>
<path d="M31.1667 17C31.1667 23.6782 31.1667 27.0173 29.0913 29.0913C27.0187 31.1667 23.6782 31.1667 17 31.1667C10.3219 31.1667 6.98279 31.1667 4.90737 29.0913C2.83337 27.0187 2.83337 23.6782 2.83337 17C2.83337 10.3219 2.83337 6.98279 4.90737 4.90737C6.98421 2.83337 10.3219 2.83337 17 2.83337C23.6782 2.83337 27.0173 2.83337 29.0913 4.90737C30.4711 6.28721 30.933 8.22662 31.0888 11.3334" stroke="#0000FF" stroke-width="2.125" stroke-linecap="round"/>
</svg>
