<svg width="36" height="36" viewBox="0 0 36 36" fill="none" xmlns="http://www.w3.org/2000/svg">
<g clip-path="url(#clip0_135_52509)">
<path d="M18.331 2.67707C14.2217 2.67707 10.2808 4.30947 7.37508 7.21516C4.46939 10.1209 2.83699 14.0618 2.83699 18.1711C2.83699 22.2804 4.46939 26.2213 7.37508 29.127C10.2808 32.0327 14.2217 33.6651 18.331 33.6651C22.4403 33.6651 26.3812 32.0327 29.2869 29.127C32.1926 26.2213 33.825 22.2804 33.825 18.1711C33.825 14.0618 32.1926 10.1209 29.2869 7.21516C26.3812 4.30947 22.4403 2.67707 18.331 2.67707ZM1.01416 18.1711C1.01416 13.5784 2.83861 9.17377 6.08614 5.92623C9.33368 2.6787 13.7383 0.854248 18.331 0.854248C22.9237 0.854248 27.3283 2.6787 30.5758 5.92623C33.8234 9.17377 35.6478 13.5784 35.6478 18.1711C35.6478 22.7638 33.8234 27.1684 30.5758 30.4159C27.3283 33.6635 22.9237 35.4879 18.331 35.4879C13.7383 35.4879 9.33368 33.6635 6.08614 30.4159C2.83861 27.1684 1.01416 22.7638 1.01416 18.1711Z" fill="#595961"/>
<path d="M10.1279 17.2598H17.4192V9.96851H19.2421V17.2598H26.5334V19.0826H19.2421V26.3739H17.4192V19.0826H10.1279V17.2598Z" fill="#595961"/>
</g>
<defs>
<clipPath id="clip0_135_52509">
<rect width="35" height="35" fill="white" transform="translate(0.937012 0.5)"/>
</clipPath>
</defs>
</svg>
