<svg width="28" height="29" viewBox="0 0 28 29" fill="none" xmlns="http://www.w3.org/2000/svg">
<path d="M11.6658 3.94856C9.84084 4.37164 8.16226 5.2753 6.80421 6.56579C5.44616 7.85628 4.45812 9.48662 3.94255 11.2877C3.42699 13.0888 3.40268 14.995 3.87216 16.8086C4.34163 18.6222 5.28779 20.2772 6.61249 21.6019C7.93719 22.9266 9.59219 23.8728 11.4058 24.3423C13.2194 24.8117 15.1257 24.7874 16.9267 24.2719C18.7278 23.7563 20.3581 22.7682 21.6486 21.4102C22.9391 20.0522 23.8428 18.3736 24.2658 16.5486C24.2658 16.2391 24.1429 15.9424 23.9241 15.7236C23.7053 15.5048 23.4086 15.3819 23.0992 15.3819H15.1658C14.547 15.3819 13.9535 15.1361 13.5159 14.6985C13.0783 14.2609 12.8325 13.6674 12.8325 13.0486V4.8819C12.818 4.74368 12.7762 4.60971 12.7096 4.48776C12.6429 4.36581 12.5527 4.25831 12.4442 4.17149C12.3356 4.08467 12.211 4.02026 12.0774 3.982C11.9438 3.94373 11.8039 3.93236 11.6658 3.94856Z" stroke="#0000FF" stroke-width="2" stroke-linecap="round" stroke-linejoin="round"/>
<path d="M17.5 4.29858C18.9813 4.82018 20.3268 5.66743 21.4373 6.77794C22.5478 7.88844 23.3951 9.23391 23.9167 10.7153H18.6667C18.3572 10.7153 18.0605 10.5923 17.8417 10.3735C17.6229 10.1547 17.5 9.858 17.5 9.54858V4.29858Z" stroke="#0000FF" stroke-width="2" stroke-linecap="round" stroke-linejoin="round"/>
</svg>
