<svg width="24" height="24" viewBox="0 0 24 24" fill="none" xmlns="http://www.w3.org/2000/svg">
<path d="M19 2.00024H5C3.3 2.00024 2 3.30024 2 5.00024V19.0002C2 20.7002 3.3 22.0002 5 22.0002H19C20.7 22.0002 22 20.7002 22 19.0002V5.00024C22 3.30024 20.7 2.00024 19 2.00024ZM8 17.0002C8 17.6002 7.6 18.0002 7 18.0002C6.4 18.0002 6 17.6002 6 17.0002V13.0002C6 12.4002 6.4 12.0002 7 12.0002C7.6 12.0002 8 12.4002 8 13.0002V17.0002ZM13 17.0002C13 17.6002 12.6 18.0002 12 18.0002C11.4 18.0002 11 17.6002 11 17.0002V7.00024C11 6.40024 11.4 6.00024 12 6.00024C12.6 6.00024 13 6.40024 13 7.00024V17.0002ZM18 17.0002C18 17.6002 17.6 18.0002 17 18.0002C16.4 18.0002 16 17.6002 16 17.0002V11.0002C16 10.4002 16.4 10.0002 17 10.0002C17.6 10.0002 18 10.4002 18 11.0002V17.0002Z" fill="#3DA864"/>
</svg>
