<svg width="19" height="19" viewBox="0 0 19 19" fill="none" xmlns="http://www.w3.org/2000/svg">
<path d="M4.31255 8.72182L8.46808 4.56627V16.2556C8.46808 16.6698 8.80393 17.0056 9.21808 17.0056C9.6323 17.0056 9.96808 16.6698 9.96808 16.2556V4.56627L14.1237 8.72182C14.4166 9.0147 14.8915 9.0147 15.1843 8.72182C15.4772 8.42895 15.4772 7.95406 15.1843 7.66117L9.74848 2.22528C9.45553 1.93239 8.9807 1.93239 8.68775 2.22528L3.2519 7.66117C3.10494 7.80813 3.03172 8.00088 3.03223 8.19352C3.03236 8.24085 3.03693 8.28809 3.04595 8.33475C3.07341 8.47657 3.14206 8.61202 3.2519 8.72182C3.54479 9.0147 4.01966 9.0147 4.31255 8.72182Z" fill="#6AB686"/>
</svg>
