<svg width="24" height="24" viewBox="0 0 24 24" fill="none" xmlns="http://www.w3.org/2000/svg">
<path d="M8.5 20.1667V13.1667C8.5 12.5478 8.25417 11.9543 7.81658 11.5168C7.379 11.0792 6.7855 10.8333 6.16667 10.8333H3.83333C3.21449 10.8333 2.621 11.0792 2.18342 11.5168C1.74583 11.9543 1.5 12.5478 1.5 13.1667V20.1667C1.5 20.7855 1.74583 21.379 2.18342 21.8166C2.621 22.2542 3.21449 22.5 3.83333 22.5H6.16667C6.7855 22.5 7.379 22.2542 7.81658 21.8166C8.25417 21.379 8.5 20.7855 8.5 20.1667ZM8.5 20.1667V8.5C8.5 7.88116 8.74583 7.28767 9.18342 6.85008C9.621 6.4125 10.2145 6.16667 10.8333 6.16667H13.1667C13.7855 6.16667 14.379 6.4125 14.8166 6.85008C15.2542 7.28767 15.5 7.88116 15.5 8.5V20.1667M8.5 20.1667C8.5 20.7855 8.74583 21.379 9.18342 21.8166C9.621 22.2542 10.2145 22.5 10.8333 22.5H13.1667C13.7855 22.5 14.379 22.2542 14.8166 21.8166C15.2542 21.379 15.5 20.7855 15.5 20.1667M15.5 20.1667V3.83333C15.5 3.21449 15.7458 2.621 16.1834 2.18342C16.621 1.74583 17.2145 1.5 17.8333 1.5H20.1667C20.7855 1.5 21.379 1.74583 21.8166 2.18342C22.2542 2.621 22.5 3.21449 22.5 3.83333V20.1667C22.5 20.7855 22.2542 21.379 21.8166 21.8166C21.379 22.2542 20.7855 22.5 20.1667 22.5H17.8333C17.2145 22.5 16.621 22.2542 16.1834 21.8166C15.7458 21.379 15.5 20.7855 15.5 20.1667Z" stroke="#0000FF" stroke-width="2" stroke-linecap="round" stroke-linejoin="round"/>
</svg>
