<svg width="26" height="38" viewBox="0 0 26 38" fill="none" xmlns="http://www.w3.org/2000/svg">
<g clip-path="url(#clip0_135_52495)">
<path d="M17.7362 13.7913V24.7283H23.2046V13.7913H17.7362ZM16.8247 11.9685H24.116C24.3578 11.9685 24.5896 12.0645 24.7605 12.2355C24.9314 12.4064 25.0275 12.6382 25.0275 12.8799V25.6397C25.0275 25.8814 24.9314 26.1132 24.7605 26.2842C24.5896 26.4551 24.3578 26.5511 24.116 26.5511H16.8247C16.583 26.5511 16.3512 26.4551 16.1803 26.2842C16.0094 26.1132 15.9133 25.8814 15.9133 25.6397V12.8799C15.9133 12.6382 16.0094 12.4064 16.1803 12.2355C16.3512 12.0645 16.583 11.9685 16.8247 11.9685Z" fill="#27AE60"/>
<path d="M19.5588 6.5H21.3817V12.8799H19.5588V6.5ZM19.5588 25.6397H21.3817V32.0196H19.5588V25.6397Z" fill="#27AE60"/>
<path d="M3.15339 8.32283V30.1967H8.62187V8.32283H3.15339ZM2.24198 6.5H9.53328C9.775 6.5 10.0068 6.59602 10.1777 6.76695C10.3487 6.93787 10.4447 7.16969 10.4447 7.41141V31.1081C10.4447 31.3499 10.3487 31.5817 10.1777 31.7526C10.0068 31.9235 9.775 32.0196 9.53328 32.0196H2.24198C2.00026 32.0196 1.76844 31.9235 1.59751 31.7526C1.42659 31.5817 1.33057 31.3499 1.33057 31.1081V7.41141C1.33057 7.16969 1.42659 6.93787 1.59751 6.76695C1.76844 6.59602 2.00026 6.5 2.24198 6.5Z" fill="#27AE60"/>
<path d="M4.97632 1.03149H6.79914V7.41138H4.97632V1.03149ZM4.97632 31.1081H6.79914V37.488H4.97632V31.1081Z" fill="#27AE60"/>
</g>
<defs>
<clipPath id="clip0_135_52495">
<rect width="25" height="37" fill="white" transform="translate(0.937012 0.5)"/>
</clipPath>
</defs>
</svg>
