<svg width="13" height="16" viewBox="0 0 13 16" fill="none" xmlns="http://www.w3.org/2000/svg">
<path d="M1.59478 7.21627L5.75031 3.06072V14.7501C5.75031 15.1642 6.08616 15.5001 6.50031 15.5001C6.91453 15.5001 7.25031 15.1642 7.25031 14.7501V3.06072L11.4059 7.21627C11.6988 7.50914 12.1737 7.50914 12.4666 7.21627C12.7594 6.92339 12.7594 6.44851 12.4666 6.15562L7.03071 0.719729C6.73776 0.426839 6.26293 0.426839 5.96998 0.719729L0.534123 6.15562C0.387168 6.30257 0.313946 6.49533 0.314456 6.68797C0.314583 6.73529 0.319158 6.78254 0.328181 6.82919C0.355638 6.97102 0.424286 7.10647 0.534123 7.21627C0.827013 7.50914 1.30189 7.50914 1.59478 7.21627Z" fill="#6AB686"/>
</svg>
