<svg width="14" height="16" viewBox="0 0 14 16" fill="none" xmlns="http://www.w3.org/2000/svg">
<path d="M2.09478 8.78373L6.25031 12.9393V1.24991C6.25031 0.835759 6.58616 0.499908 7.00031 0.499908C7.41453 0.499908 7.75031 0.835759 7.75031 1.24991V12.9393L11.9059 8.78373C12.1988 8.49086 12.6737 8.49086 12.9666 8.78373C13.2594 9.07661 13.2594 9.55149 12.9666 9.84438L7.53071 15.2803C7.23776 15.5732 6.76293 15.5732 6.46998 15.2803L1.03412 9.84438C0.887168 9.69743 0.813946 9.50467 0.814456 9.31203C0.814583 9.26471 0.819158 9.21746 0.828181 9.17081C0.855638 9.02898 0.924286 8.89353 1.03412 8.78373C1.32701 8.49086 1.80189 8.49086 2.09478 8.78373Z" fill="#FD2523"/>
</svg>
