<svg width="30" height="30" viewBox="0 0 30 30" fill="none" xmlns="http://www.w3.org/2000/svg">
<path fill-rule="evenodd" clip-rule="evenodd" d="M4.3466 0.266724H4.23327C3.7142 0.266724 3.26767 0.266724 2.87327 0.359657C2.26271 0.505551 1.70446 0.817629 1.26038 1.26131C0.816293 1.705 0.503712 2.26296 0.357268 2.87339C0.266601 3.26779 0.266602 3.71206 0.266602 4.23339V9.90006C0.266602 10.4191 0.266602 10.8657 0.359535 11.2601C0.505429 11.8706 0.817507 12.4289 1.26119 12.8729C1.70487 13.317 2.26284 13.6296 2.87327 13.7761C3.26767 13.8667 3.71193 13.8667 4.23327 13.8667H9.89993C10.419 13.8667 10.8655 13.8667 11.2599 13.7738C11.8705 13.6279 12.4287 13.3158 12.8728 12.8721C13.3169 12.4285 13.6295 11.8705 13.7759 11.2601C13.8666 10.8657 13.8666 10.4214 13.8666 9.90006V4.23339C13.8666 3.71432 13.8666 3.26779 13.7737 2.87339C13.6278 2.26283 13.3157 1.70458 12.872 1.2605C12.4283 0.816415 11.8704 0.503834 11.2599 0.35739C10.8655 0.266724 10.4213 0.266724 9.89993 0.266724H4.3466ZM3.4014 2.56512C3.49887 2.54246 3.65073 2.53339 4.3466 2.53339H9.7866C10.4847 2.53339 10.6343 2.54019 10.7318 2.56512C10.9354 2.61382 11.1216 2.71795 11.2696 2.86599C11.4176 3.01403 11.5218 3.20018 11.5705 3.40379C11.5931 3.49899 11.5999 3.64859 11.5999 4.34672V9.78672C11.5999 10.4849 11.5931 10.6345 11.5682 10.7319C11.5195 10.9355 11.4154 11.1217 11.2673 11.2697C11.1193 11.4178 10.9331 11.5219 10.7295 11.5706C10.6366 11.591 10.487 11.6001 9.7866 11.6001H4.3466C3.64847 11.6001 3.49887 11.5933 3.4014 11.5683C3.19779 11.5196 3.01164 11.4155 2.8636 11.2675C2.71557 11.1194 2.61143 10.9333 2.56273 10.7297C2.54233 10.6367 2.53327 10.4871 2.53327 9.78672V4.34672C2.53327 3.64859 2.54007 3.49899 2.565 3.40152C2.61369 3.19791 2.71783 3.01176 2.86587 2.86372C3.01391 2.71569 3.20005 2.61155 3.40367 2.56286L3.4014 2.56512ZM20.2133 0.266724H20.0999C19.5809 0.266724 19.1343 0.266724 18.7399 0.359657C18.1294 0.505551 17.5711 0.817629 17.127 1.26131C16.683 1.705 16.3704 2.26296 16.2239 2.87339C16.1333 3.26779 16.1333 3.71206 16.1333 4.23339V9.90006C16.1333 10.4191 16.1333 10.8657 16.2262 11.2601C16.3721 11.8706 16.6842 12.4289 17.1279 12.8729C17.5715 13.317 18.1295 13.6296 18.7399 13.7761C19.1343 13.8667 19.5786 13.8667 20.0999 13.8667H25.7666C26.2857 13.8667 26.7322 13.8667 27.1266 13.7738C27.7372 13.6279 28.2954 13.3158 28.7395 12.8721C29.1836 12.4285 29.4962 11.8705 29.6426 11.2601C29.7333 10.8657 29.7333 10.4214 29.7333 9.90006V4.23339C29.7333 3.71432 29.7333 3.26779 29.6403 2.87339C29.4944 2.26283 29.1824 1.70458 28.7387 1.2605C28.295 0.816415 27.737 0.503834 27.1266 0.35739C26.7322 0.266724 26.2879 0.266724 25.7666 0.266724H20.2133ZM19.2681 2.56512C19.3655 2.54246 19.5174 2.53339 20.2133 2.53339H25.6533C26.3514 2.53339 26.501 2.54019 26.5985 2.56512C26.8021 2.61382 26.9882 2.71795 27.1363 2.86599C27.2843 3.01403 27.3884 3.20018 27.4371 3.40379C27.4598 3.49899 27.4666 3.64859 27.4666 4.34672V9.78672C27.4666 10.4849 27.4575 10.6345 27.4349 10.7319C27.3862 10.9355 27.282 11.1217 27.134 11.2697C26.986 11.4178 26.7998 11.5219 26.5962 11.5706C26.501 11.5933 26.3514 11.6001 25.6533 11.6001H20.2133C19.5151 11.6001 19.3655 11.5933 19.2681 11.5683C19.0645 11.5196 18.8783 11.4155 18.7303 11.2675C18.5822 11.1194 18.4781 10.9333 18.4294 10.7297C18.409 10.6367 18.3999 10.4871 18.3999 9.78672V4.34672C18.3999 3.64859 18.4067 3.49899 18.4317 3.40152C18.4804 3.19791 18.5845 3.01176 18.7325 2.86372C18.8806 2.71569 19.0667 2.61155 19.2703 2.56286L19.2681 2.56512ZM4.23327 16.1334H9.89993C10.419 16.1334 10.8655 16.1334 11.2599 16.2263C11.8705 16.3722 12.4287 16.6843 12.8728 17.128C13.3169 17.5717 13.6295 18.1296 13.7759 18.7401C13.8666 19.1345 13.8666 19.5787 13.8666 20.1001V25.7667C13.8666 26.2858 13.8666 26.7323 13.7737 27.1267C13.6278 27.7373 13.3157 28.2955 12.872 28.7396C12.4283 29.1837 11.8704 29.4963 11.2599 29.6427C10.8655 29.7334 10.4213 29.7334 9.89993 29.7334H4.23327C3.7142 29.7334 3.26767 29.7334 2.87327 29.6405C2.26271 29.4946 1.70446 29.1825 1.26038 28.7388C0.816293 28.2951 0.503712 27.7372 0.357268 27.1267C0.266601 26.7323 0.266602 26.2881 0.266602 25.7667V20.1001C0.266602 19.581 0.266602 19.1345 0.359535 18.7401C0.505429 18.1295 0.817507 17.5713 1.26119 17.1272C1.70487 16.6831 2.26284 16.3705 2.87327 16.2241C3.26767 16.1334 3.71193 16.1334 4.23327 16.1334ZM4.3466 18.4001C3.64847 18.4001 3.49887 18.4069 3.4014 18.4318C3.19779 18.4805 3.01164 18.5846 2.8636 18.7327C2.71557 18.8807 2.61143 19.0668 2.56273 19.2705C2.54233 19.3634 2.53327 19.513 2.53327 20.2134V25.6534C2.53327 26.3515 2.54007 26.5011 2.565 26.5986C2.61369 26.8022 2.71783 26.9884 2.86587 27.1364C3.01391 27.2844 3.20005 27.3886 3.40367 27.4373C3.49887 27.4599 3.64847 27.4667 4.3466 27.4667H9.7866C10.4847 27.4667 10.6343 27.4577 10.7318 27.435C10.9354 27.3863 11.1216 27.2822 11.2696 27.1341C11.4176 26.9861 11.5218 26.7999 11.5705 26.5963C11.5931 26.5011 11.5999 26.3515 11.5999 25.6534V20.2134C11.5999 19.5153 11.5931 19.3657 11.5682 19.2682C11.5195 19.0646 11.4154 18.8784 11.2673 18.7304C11.1193 18.5824 10.9331 18.4782 10.7295 18.4295C10.6366 18.4091 10.487 18.4001 9.7866 18.4001H4.3466ZM20.2133 16.1334H20.0999C19.5809 16.1334 19.1343 16.1334 18.7399 16.2263C18.1294 16.3722 17.5711 16.6843 17.127 17.128C16.683 17.5717 16.3704 18.1296 16.2239 18.7401C16.1333 19.1345 16.1333 19.5787 16.1333 20.1001V25.7667C16.1333 26.2858 16.1333 26.7323 16.2262 27.1267C16.3721 27.7373 16.6842 28.2955 17.1279 28.7396C17.5715 29.1837 18.1295 29.4963 18.7399 29.6427C19.1343 29.7357 19.5809 29.7357 20.0999 29.7357H25.7666C26.2857 29.7357 26.7322 29.7357 27.1266 29.6427C27.7367 29.4965 28.2945 29.1842 28.7382 28.7406C29.1818 28.2969 29.4941 27.7391 29.6403 27.129C29.7333 26.7346 29.7333 26.2881 29.7333 25.769V20.1001C29.7333 19.581 29.7333 19.1345 29.6403 18.7401C29.4944 18.1295 29.1824 17.5713 28.7387 17.1272C28.295 16.6831 27.737 16.3705 27.1266 16.2241C26.7322 16.1334 26.2879 16.1334 25.7666 16.1334H20.2133ZM19.2681 18.4318C19.3655 18.4091 19.5174 18.4001 20.2133 18.4001H25.6533C26.3514 18.4001 26.501 18.4069 26.5985 18.4318C26.8021 18.4805 26.9882 18.5846 27.1363 18.7327C27.2843 18.8807 27.3884 19.0668 27.4371 19.2705C27.4598 19.3657 27.4666 19.5153 27.4666 20.2134V25.6534C27.4666 26.3515 27.4575 26.5011 27.4349 26.5986C27.3862 26.8022 27.282 26.9884 27.134 27.1364C26.986 27.2844 26.7998 27.3886 26.5962 27.4373C26.501 27.4599 26.3514 27.4667 25.6533 27.4667H20.2133C19.5151 27.4667 19.3655 27.4577 19.2681 27.435C19.0645 27.3863 18.8783 27.2822 18.7303 27.1341C18.5822 26.9861 18.4781 26.7999 18.4294 26.5963C18.409 26.5034 18.3999 26.3538 18.3999 25.6534V20.2134C18.3999 19.5153 18.4067 19.3657 18.4317 19.2682C18.4804 19.0646 18.5845 18.8784 18.7325 18.7304C18.8806 18.5824 19.0667 18.4782 19.2703 18.4295L19.2681 18.4318Z" fill="#242424"/>
</svg>
