<svg width="27" height="32" viewBox="0 0 27 32" fill="none" xmlns="http://www.w3.org/2000/svg">
<g clip-path="url(#clip0_135_52505)">
<path d="M21.0295 5.82293C21.0295 4.61432 20.5494 3.45522 19.6948 2.6006C18.8402 1.74599 17.6811 1.26587 16.4725 1.26587C15.2638 1.26587 14.1047 1.74599 13.2501 2.6006C12.3955 3.45522 11.9154 4.61432 11.9154 5.82293V25.874C11.9154 27.0826 11.4353 28.2417 10.5807 29.0963C9.72605 29.9509 8.56694 30.4311 7.35833 30.4311C6.14972 30.4311 4.99062 29.9509 4.136 29.0963C3.28139 28.2417 2.80127 27.0826 2.80127 25.874M25.5866 22.2284L16.4725 31.3425L25.5866 22.2284ZM16.4725 22.2284L25.5866 31.3425L16.4725 22.2284ZM5.53551 12.2028H18.2953H5.53551Z" stroke="#595961" stroke-width="1.82282"/>
</g>
<defs>
<clipPath id="clip0_135_52505">
<rect width="26" height="32" fill="white" transform="translate(0.937012)"/>
</clipPath>
</defs>
</svg>
