<svg width="41" height="33" viewBox="0 0 41 33" fill="none" xmlns="http://www.w3.org/2000/svg">
<g clip-path="url(#clip0_135_52524)">
<path fill-rule="evenodd" clip-rule="evenodd" d="M16.7218 2.67707C16.5526 2.67708 16.3869 2.72414 16.243 2.81299C16.0991 2.90184 15.9827 3.02897 15.907 3.18017L14.3357 6.32272H6.48113C5.75597 6.32272 5.06051 6.61079 4.54774 7.12356C4.03497 7.63633 3.7469 8.3318 3.7469 9.05696V27.2852C3.7469 28.0104 4.03497 28.7058 4.54774 29.2186C5.06051 29.7314 5.75597 30.0194 6.48113 30.0194H35.6463C36.3715 30.0194 37.067 29.7314 37.5797 29.2186C38.0925 28.7058 38.3806 28.0104 38.3806 27.2852V9.05696C38.3806 8.3318 38.0925 7.63633 37.5797 7.12356C37.067 6.61079 36.3715 6.32272 35.6463 6.32272H27.7918L26.2205 3.18017C26.1447 3.02897 26.0284 2.90184 25.8845 2.81299C25.7406 2.72414 25.5748 2.67708 25.4057 2.67707H16.7218ZM14.2755 2.36719C14.5025 1.91264 14.8515 1.5303 15.2836 1.26307C15.7157 0.995832 16.2137 0.854265 16.7218 0.854248H25.4057C25.9137 0.854265 26.4117 0.995832 26.8438 1.26307C27.2759 1.5303 27.625 1.91264 27.8519 2.36719L28.9183 4.4999H35.6463C36.2448 4.4999 36.8374 4.61777 37.3902 4.84678C37.9431 5.0758 38.4455 5.41147 38.8687 5.83463C39.2918 6.25779 39.6275 6.76016 39.8565 7.31305C40.0855 7.86594 40.2034 8.45852 40.2034 9.05696V27.2852C40.2034 27.8837 40.0855 28.4762 39.8565 29.0291C39.6275 29.582 39.2918 30.0844 38.8687 30.5075C38.4455 30.9307 37.9431 31.2664 37.3902 31.4954C36.8374 31.7244 36.2448 31.8423 35.6463 31.8423H6.48113C5.27253 31.8423 4.11342 31.3622 3.2588 30.5075C2.40419 29.6529 1.92407 28.4938 1.92407 27.2852V9.05696C1.92407 7.84835 2.40419 6.68925 3.2588 5.83463C4.11342 4.98002 5.27253 4.4999 6.48113 4.4999H13.2092L14.2755 2.36719Z" fill="#595961"/>
<path fill-rule="evenodd" clip-rule="evenodd" d="M21.0638 24.5511C21.9016 24.5511 22.7312 24.3861 23.5053 24.0655C24.2793 23.7448 24.9826 23.2749 25.5751 22.6825C26.1675 22.0901 26.6374 21.3867 26.958 20.6127C27.2787 19.8387 27.4437 19.009 27.4437 18.1712C27.4437 17.3334 27.2787 16.5038 26.958 15.7297C26.6374 14.9557 26.1675 14.2524 25.5751 13.66C24.9826 13.0675 24.2793 12.5976 23.5053 12.277C22.7312 11.9564 21.9016 11.7913 21.0638 11.7913C19.3717 11.7913 17.749 12.4635 16.5525 13.66C15.3561 14.8564 14.6839 16.4792 14.6839 18.1712C14.6839 19.8633 15.3561 21.486 16.5525 22.6825C17.749 23.8789 19.3717 24.5511 21.0638 24.5511ZM21.0638 26.3739C23.2393 26.3739 25.3257 25.5097 26.864 23.9714C28.4023 22.4331 29.2665 20.3467 29.2665 18.1712C29.2665 15.9957 28.4023 13.9093 26.864 12.371C25.3257 10.8327 23.2393 9.96851 21.0638 9.96851C18.8883 9.96851 16.8019 10.8327 15.2636 12.371C13.7253 13.9093 12.8611 15.9957 12.8611 18.1712C12.8611 20.3467 13.7253 22.4331 15.2636 23.9714C16.8019 25.5097 18.8883 26.3739 21.0638 26.3739Z" fill="#595961"/>
</g>
<defs>
<clipPath id="clip0_135_52524">
<rect width="40" height="32" fill="white" transform="translate(0.937012 0.5)"/>
</clipPath>
</defs>
</svg>
