<svg width="16" height="16" viewBox="0 0 16 16" fill="none" xmlns="http://www.w3.org/2000/svg">
<path d="M7.9992 0C12.418 0 16 3.58204 16 8.0008C16 12.4188 12.418 16 7.9992 16C3.58044 16.0008 1.33979e-07 12.4188 1.33979e-07 8.0008C-0.000799786 3.58204 3.58044 0 7.9992 0ZM7.996 6.59934C7.79997 6.59961 7.61085 6.67185 7.46457 6.80236C7.31829 6.93286 7.22502 7.11253 7.20248 7.30727L7.19688 7.40006L7.20008 11.8012L7.20488 11.894C7.22723 12.0891 7.32058 12.2692 7.46714 12.3999C7.61369 12.5306 7.80321 12.6029 7.9996 12.6029C8.19598 12.6029 8.38551 12.5306 8.53206 12.3999C8.67862 12.2692 8.77197 12.0891 8.79432 11.894L8.79912 11.8004L8.79592 7.39926L8.79032 7.30567C8.7672 7.11109 8.67347 6.93178 8.5269 6.80173C8.38034 6.67168 8.19114 6.59995 7.9952 6.60014L7.996 6.59934ZM8 3.60044C7.73449 3.60044 7.47986 3.70591 7.29211 3.89365C7.10437 4.0814 6.9989 4.33603 6.9989 4.60154C6.9989 4.86705 7.10437 5.12168 7.29211 5.30942C7.47986 5.49717 7.73449 5.60264 8 5.60264C8.13141 5.60259 8.26153 5.57665 8.38292 5.52631C8.50431 5.47597 8.6146 5.40222 8.70748 5.30926C8.80037 5.2163 8.87404 5.10595 8.92428 4.98452C8.97452 4.86309 9.00035 4.73295 9.0003 4.60154C9.00025 4.47013 8.97431 4.34001 8.92397 4.21862C8.87363 4.09723 8.79988 3.98694 8.70692 3.89406C8.61396 3.80117 8.50361 3.7275 8.38218 3.67726C8.26075 3.62702 8.13061 3.60119 7.9992 3.60124L8 3.60044Z" fill="#B2B2C2"/>
</svg>
