<svg width="62" height="62" viewBox="0 0 62 62" fill="none" xmlns="http://www.w3.org/2000/svg">
<circle cx="30.9998" cy="31.0003" r="23.25" fill="#1ED760"/>
<path d="M43.4236 28.5C36.4049 24.3058 24.8275 23.9201 18.1274 25.9666C17.0515 26.295 15.9137 25.6838 15.5876 24.6012C15.2616 23.518 15.8684 22.3739 16.9451 22.0447C24.6364 19.6953 37.4223 20.1492 45.5023 24.9756C46.4701 25.5535 46.7876 26.8112 46.214 27.7834C45.6399 28.7572 44.389 29.0782 43.4236 28.5ZM43.1937 34.7123C42.7013 35.5163 41.6566 35.7685 40.8586 35.2748C35.0071 31.6556 26.0844 30.6072 19.1617 32.7215C18.2639 32.9946 17.3156 32.4852 17.0432 31.5836C16.7725 30.6802 17.279 29.7279 18.175 29.4532C26.0834 27.0385 35.9145 28.208 42.6352 32.3638C43.4332 32.8583 43.6844 33.9103 43.1937 34.7123ZM40.5294 40.6783C40.1381 41.324 39.3027 41.5262 38.6634 41.1327C33.55 37.9882 27.1143 37.2781 19.5351 39.02C18.8047 39.1885 18.0769 38.7281 17.9103 37.9931C17.7431 37.2585 18.1989 36.5259 18.9311 36.3582C27.2251 34.4504 34.3399 35.2714 40.0791 38.8003C40.719 39.1935 40.9205 40.0347 40.5294 40.6783Z" fill="white"/>
</svg>
