<svg width="16" height="16" viewBox="0 0 16 16" fill="none" xmlns="http://www.w3.org/2000/svg">
<path fill-rule="evenodd" clip-rule="evenodd" d="M8.00001 8.94269L11.7713 12.714C11.8971 12.8355 12.0655 12.9027 12.2403 12.9011C12.4151 12.8996 12.5823 12.8295 12.7059 12.7059C12.8295 12.5823 12.8996 12.4151 12.9011 12.2403C12.9026 12.0655 12.8355 11.8971 12.714 11.7714L8.94268 8.00002L12.714 4.22868C12.8355 4.10295 12.9026 3.93455 12.9011 3.75975C12.8996 3.58495 12.8295 3.41774 12.7059 3.29414C12.5823 3.17053 12.4151 3.10042 12.2403 3.0989C12.0655 3.09738 11.8971 3.16458 11.7713 3.28602L8.00001 7.05735L4.22868 3.28602C4.10238 3.16758 3.93496 3.10293 3.76183 3.10574C3.58871 3.10855 3.42348 3.17861 3.30109 3.30108C3.1787 3.42356 3.10876 3.58884 3.10607 3.76197C3.10338 3.93509 3.16815 4.10247 3.28668 4.22868L7.05735 8.00002L3.28601 11.7714C3.22234 11.8328 3.17155 11.9064 3.13661 11.9877C3.10167 12.0691 3.08328 12.1566 3.08251 12.2451C3.08174 12.3336 3.09861 12.4214 3.13213 12.5033C3.16565 12.5853 3.21516 12.6597 3.27775 12.7223C3.34035 12.7849 3.41478 12.8344 3.49671 12.8679C3.57864 12.9014 3.66643 12.9183 3.75495 12.9175C3.84347 12.9167 3.93095 12.8984 4.01228 12.8634C4.09362 12.8285 4.16718 12.7777 4.22868 12.714L8.00001 8.94269Z" fill="#9E9E9E"/>
</svg>
