<svg width="16" height="17" viewBox="0 0 16 17" fill="none" xmlns="http://www.w3.org/2000/svg">
<mask id="mask0_1728_9565" style="mask-type:alpha" maskUnits="userSpaceOnUse" x="1" y="2" width="14" height="14">
<path fill-rule="evenodd" clip-rule="evenodd" d="M1.33398 8.91862C1.33398 5.23862 4.32065 2.25195 8.00065 2.25195C11.6807 2.25195 14.6673 5.23862 14.6673 8.91862C14.6673 12.5986 11.6807 15.5853 8.00065 15.5853C4.32065 15.5853 1.33398 12.5986 1.33398 8.91862ZM3.80065 9.38529L6.19398 11.7786C6.45398 12.0386 6.88065 12.0386 7.13398 11.7786L12.194 6.71862C12.454 6.45862 12.454 6.03862 12.194 5.77862C11.934 5.51862 11.514 5.51862 11.254 5.77862L6.66732 10.3653L4.74065 8.44529C4.48065 8.18529 4.06065 8.18529 3.80065 8.44529C3.67582 8.56984 3.60566 8.73894 3.60566 8.91529C3.60566 9.09163 3.67582 9.26073 3.80065 9.38529Z" fill="black"/>
</mask>
<g mask="url(#mask0_1728_9565)">
<rect y="0.918945" width="16" height="16" fill="#1ED760"/>
</g>
</svg>
