<svg width="19" height="18" viewBox="0 0 19 18" fill="none" xmlns="http://www.w3.org/2000/svg">
<path fill-rule="evenodd" clip-rule="evenodd" d="M5.81567 3.0256C3.96318 4.28671 2.75 6.41159 2.75 8.81666C2.75 12.6827 5.88401 15.8167 9.75 15.8167C12.1551 15.8167 14.2799 14.6035 15.5411 12.751C10.4317 12.1925 6.37421 8.13492 5.81567 3.0256ZM16.75 10.8167C17.616 10.8167 18.3618 11.5799 18.0191 12.3753C16.6398 15.576 13.4566 17.8167 9.75 17.8167C4.77944 17.8167 0.75 13.7872 0.75 8.81666C0.75 5.11009 2.99067 1.92685 6.1914 0.54758C6.98674 0.204846 7.75 0.950627 7.75 1.81667C7.75 6.78724 11.7794 10.8167 16.75 10.8167Z" fill="#7151CC"/>
</svg>
