<svg width="34" height="34" viewBox="0 0 34 34" fill="none" xmlns="http://www.w3.org/2000/svg">
<path d="M22.3125 17C22.0307 17 21.7605 17.1119 21.5612 17.3112C21.3619 17.5105 21.25 17.7807 21.25 18.0625C21.25 18.3443 21.3619 18.6145 21.5612 18.8138C21.7605 19.0131 22.0307 19.125 22.3125 19.125H24.4375C24.7193 19.125 24.9895 19.0131 25.1888 18.8138C25.3881 18.6145 25.5 18.3443 25.5 18.0625C25.5 17.7807 25.3881 17.5105 25.1888 17.3112C24.9895 17.1119 24.7193 17 24.4375 17H22.3125ZM7.4375 4.25C6.59212 4.25 5.78137 4.58583 5.1836 5.1836C4.58583 5.78137 4.25 6.59212 4.25 7.4375V24.4375C4.25 25.8465 4.80971 27.1977 5.806 28.194C6.80228 29.1903 8.15354 29.75 9.5625 29.75H25.5C26.6272 29.75 27.7082 29.3022 28.5052 28.5052C29.3022 27.7082 29.75 26.6272 29.75 25.5V12.75C29.75 12.004 29.5536 11.2711 29.1806 10.6251C28.8076 9.979 28.2711 9.44251 27.625 9.0695V8.5C27.625 7.37283 27.1772 6.29183 26.3802 5.4948C25.5832 4.69777 24.5022 4.25 23.375 4.25H7.4375ZM7.4375 6.375H23.375C23.9386 6.375 24.4791 6.59888 24.8776 6.9974C25.2761 7.39591 25.5 7.93641 25.5 8.5H7.4375C7.15571 8.5 6.88546 8.38806 6.6862 8.1888C6.48694 7.98954 6.375 7.71929 6.375 7.4375C6.375 7.15571 6.48694 6.88546 6.6862 6.6862C6.88546 6.48694 7.15571 6.375 7.4375 6.375ZM7.4375 10.625H25.5C26.0636 10.625 26.6041 10.8489 27.0026 11.2474C27.4011 11.6459 27.625 12.1864 27.625 12.75V25.5C27.625 26.0636 27.4011 26.6041 27.0026 27.0026C26.6041 27.4011 26.0636 27.625 25.5 27.625H9.5625C8.71712 27.625 7.90637 27.2892 7.3086 26.6914C6.71082 26.0936 6.375 25.2829 6.375 24.4375V10.4444C6.7065 10.5612 7.06562 10.625 7.4375 10.625Z" fill="#1ED760"/>
</svg>
