<svg width="35" height="34" viewBox="0 0 35 34" fill="none" xmlns="http://www.w3.org/2000/svg">
<path d="M27.4167 28.3337H7.58333C6.83189 28.3337 6.11122 28.0351 5.57986 27.5038C5.04851 26.9724 4.75 26.2518 4.75 25.5003V8.50033C4.75 7.74888 5.04851 7.02821 5.57986 6.49686C6.11122 5.9655 6.83189 5.66699 7.58333 5.66699H21.75C22.5014 5.66699 23.2221 5.9655 23.7535 6.49686C24.2848 7.02821 24.5833 7.74888 24.5833 8.50033V9.91699M27.4167 28.3337C26.6652 28.3337 25.9446 28.0351 25.4132 27.5038C24.8818 26.9724 24.5833 26.2518 24.5833 25.5003V9.91699M27.4167 28.3337C28.1681 28.3337 28.8888 28.0351 29.4201 27.5038C29.9515 26.9724 30.25 26.2518 30.25 25.5003V12.7503C30.25 11.9989 29.9515 11.2782 29.4201 10.7469C28.8888 10.2155 28.1681 9.91699 27.4167 9.91699H24.5833M18.9167 5.66699H13.25M10.4167 22.667H18.9167M10.4167 11.3337H18.9167V17.0003H10.4167V11.3337Z" stroke="#1ED760" stroke-width="2" stroke-linecap="round" stroke-linejoin="round"/>
</svg>
