<svg width="27" height="28" viewBox="0 0 27 28" fill="none" xmlns="http://www.w3.org/2000/svg">
<path fill-rule="evenodd" clip-rule="evenodd" d="M11.8944 4.06559C12.2804 3.16584 13.2767 2.34955 14.5337 2.59209C16.4558 2.96112 18.4965 4.41897 18.6399 6.78308L18.6477 7.04909V10.309H21.7838C22.5263 10.309 23.2602 10.4675 23.9365 10.7739C24.6128 11.0803 25.2159 11.5275 25.7055 12.0857C26.195 12.6439 26.5598 13.3002 26.7754 14.0107C26.9909 14.7212 27.0523 15.4695 26.9554 16.2056L26.9163 16.4586L25.7297 22.9785C25.5193 24.1365 24.9234 25.1893 24.039 25.9658C23.1545 26.7423 22.0335 27.1968 20.858 27.2555L20.5985 27.2608H6.91194C5.91412 27.2608 4.95399 26.8796 4.22801 26.195C3.50202 25.5105 3.06506 24.5744 3.00652 23.5783L3 23.3488V15.525C2.99994 14.5271 3.38119 13.567 4.06572 12.841C4.75026 12.115 5.68634 11.6781 6.68244 11.6195L6.91194 11.613H8.65927L11.8944 4.06559ZM8.21592 14.221H6.91194C6.5661 14.221 6.23443 14.3584 5.98988 14.6029C5.74534 14.8474 5.60796 15.1791 5.60796 15.525V23.3488C5.60796 23.6947 5.74534 24.0263 5.98988 24.2709C6.23443 24.5154 6.5661 24.6528 6.91194 24.6528H8.21592V14.221ZM14.2468 5.19744L10.9295 12.9392C10.8831 13.047 10.8516 13.1606 10.8356 13.2769L10.8239 13.4516V24.6528H20.5985C21.1735 24.6529 21.7324 24.4629 22.1882 24.1125C22.6441 23.762 22.9713 23.2708 23.1191 22.7151L23.1647 22.5117L24.3513 15.9918C24.4169 15.6319 24.406 15.2622 24.3194 14.9068C24.2328 14.5513 24.0723 14.2181 23.8485 13.9288C23.6247 13.6394 23.3425 13.4003 23.0202 13.2272C22.698 13.054 22.3429 12.9505 21.9781 12.9235L21.7838 12.917H18.6477C17.9898 12.9172 17.3561 12.6687 16.8736 12.2213C16.3912 11.7739 16.0957 11.1607 16.0463 10.5046L16.0398 10.309V7.04909C16.0398 6.32799 15.4739 5.59385 14.4685 5.26264L14.2468 5.19744Z" fill="#1ED760"/>
</svg>
