<svg width="19" height="19" viewBox="0 0 19 19" fill="none" xmlns="http://www.w3.org/2000/svg">
<path d="M8.5019 17.5C8.5019 18.0523 8.9497 18.5 9.5019 18.5C10.0542 18.5 10.5019 18.0523 10.5019 17.5V10.4999H17.5019C18.0542 10.4999 18.5019 10.0522 18.5019 9.4999C18.5019 8.9476 18.0542 8.4999 17.5019 8.4999H10.5019V1.5C10.5019 0.94772 10.0542 0.5 9.5019 0.5C8.9497 0.5 8.5019 0.94772 8.5019 1.5V8.4999H1.50195C0.949673 8.4999 0.501953 8.9476 0.501953 9.4999C0.501953 10.0522 0.949673 10.4999 1.50195 10.4999H8.5019V17.5Z" fill="#1ED760"/>
</svg>
