<svg width="39" height="39" viewBox="0 0 39 39" fill="none" xmlns="http://www.w3.org/2000/svg">
<circle cx="19.5" cy="19.5" r="18.75" fill="#1ED760" fill-opacity="0.07" stroke="#1ED760" stroke-width="1.5"/>
<path d="M27.5001 27.5716H12.5001C11.7885 27.5716 11.1039 27.2994 10.5867 26.8107C10.0695 26.322 9.75893 25.654 9.71864 24.9436L9.71436 24.7859V12.3573C9.7143 11.8686 9.89975 11.3981 10.2332 11.0409C10.5667 10.6837 11.0234 10.4664 11.5109 10.433L11.6429 10.4287H24.9286C25.4173 10.4287 25.8878 10.6141 26.245 10.9476C26.6022 11.2811 26.8195 11.7377 26.8529 12.2253L26.8572 12.3573V13.0001H28.3572C28.8459 13.0001 29.3164 13.1855 29.6736 13.519C30.0308 13.8525 30.2481 14.3092 30.2815 14.7967L30.2858 14.9287V24.7859C30.2858 25.4974 30.0136 26.182 29.5249 26.6992C29.0362 27.2164 28.3682 27.527 27.6578 27.5673L27.5001 27.5716ZM12.5001 26.2859H27.5001C27.8767 26.2858 28.2395 26.1441 28.5164 25.889C28.7933 25.6338 28.9642 25.2837 28.9949 24.9084L29.0001 24.7859V14.9287C29.0001 14.7734 28.9438 14.6233 28.8417 14.5062C28.7396 14.3891 28.5985 14.313 28.4446 14.2919L28.3572 14.2859H26.8572V23.5001C26.8572 23.6555 26.8009 23.8056 26.6988 23.9227C26.5967 24.0397 26.4557 24.1159 26.3018 24.137L26.2144 24.143C26.059 24.143 25.9089 24.0867 25.7918 23.9846C25.6748 23.8825 25.5986 23.7415 25.5775 23.5876L25.5715 23.5001V12.3573C25.5715 12.2019 25.5152 12.0518 25.4131 11.9348C25.311 11.8177 25.17 11.7416 25.0161 11.7204L24.9286 11.7144H11.6429C11.4876 11.7144 11.3375 11.7707 11.2204 11.8728C11.1033 11.9749 11.0272 12.116 11.0061 12.2699L11.0001 12.3573V24.7859C11.0001 25.1623 11.1416 25.525 11.3967 25.8019C11.6517 26.0788 12.0015 26.2497 12.3766 26.2807L12.5001 26.2859ZM16.7824 18.1464C17.3738 18.1464 17.8538 18.6264 17.8538 19.2179V22.2144C17.8538 22.8059 17.3738 23.2859 16.7824 23.2859H13.7858C13.1944 23.2859 12.7144 22.8059 12.7144 22.2144V19.2179C12.7144 18.6264 13.1944 18.1464 13.7858 18.1464H16.7824ZM20.2144 22.0001H23.2109C23.3738 22.0002 23.5306 22.0621 23.6496 22.1733C23.7686 22.2845 23.841 22.4367 23.8521 22.5992C23.8632 22.7617 23.8122 22.9223 23.7094 23.0487C23.6066 23.175 23.4597 23.2577 23.2984 23.2799L23.2109 23.2859H20.2144C20.0515 23.2858 19.8947 23.2239 19.7757 23.1127C19.6567 23.0015 19.5843 22.8493 19.5732 22.6868C19.5621 22.5243 19.6131 22.3637 19.7159 22.2373C19.8187 22.111 19.9656 22.0283 20.1269 22.0061L20.2144 22.0001ZM16.5689 19.4321H14.0001V22.0001H16.5689V19.4321ZM20.2144 18.1464H23.2109C23.3738 18.1465 23.5306 18.2083 23.6496 18.3195C23.7686 18.4307 23.841 18.583 23.8521 18.7455C23.8632 18.908 23.8122 19.0686 23.7094 19.195C23.6066 19.3213 23.4597 19.4039 23.2984 19.4261L23.2109 19.4321H20.2144C20.0503 19.4338 19.8918 19.3727 19.7714 19.2613C19.6509 19.15 19.5776 18.9968 19.5665 18.8331C19.5553 18.6694 19.6071 18.5077 19.7113 18.381C19.8155 18.2543 19.9642 18.1722 20.1269 18.1516L20.2144 18.1464ZM13.3538 14.2833H23.2109C23.3738 14.2833 23.5306 14.3452 23.6496 14.4564C23.7686 14.5676 23.841 14.7198 23.8521 14.8823C23.8632 15.0448 23.8122 15.2055 23.7094 15.3318C23.6066 15.4582 23.4597 15.5408 23.2984 15.563L23.2109 15.569H13.3538C13.191 15.5687 13.0343 15.5067 12.9155 15.3954C12.7966 15.2842 12.7244 15.132 12.7134 14.9695C12.7025 14.8071 12.7535 14.6465 12.8563 14.5203C12.9591 14.394 13.1059 14.3115 13.2672 14.2893L13.3538 14.2833Z" fill="#1ED760"/>
</svg>
