<svg width="34" height="34" viewBox="0 0 34 34" fill="none" xmlns="http://www.w3.org/2000/svg">
<path fill-rule="evenodd" clip-rule="evenodd" d="M6.34659 2.2666H6.23326C5.71419 2.2666 5.26766 2.2666 4.87326 2.35953C4.2627 2.50543 3.70445 2.81751 3.26037 3.26119C2.81629 3.70488 2.5037 4.26284 2.35726 4.87327C2.26659 5.26767 2.26659 5.71194 2.26659 6.23327V11.8999C2.26659 12.419 2.26659 12.8655 2.35953 13.2599C2.50542 13.8705 2.8175 14.4287 3.26118 14.8728C3.70487 15.3169 4.26283 15.6295 4.87326 15.7759C5.26766 15.8666 5.71193 15.8666 6.23326 15.8666H11.8999C12.419 15.8666 12.8655 15.8666 13.2599 15.7737C13.8705 15.6278 14.4287 15.3157 14.8728 14.872C15.3169 14.4283 15.6295 13.8704 15.7759 13.2599C15.8666 12.8655 15.8666 12.4213 15.8666 11.8999V6.23327C15.8666 5.7142 15.8666 5.26767 15.7737 4.87327C15.6278 4.26271 15.3157 3.70446 14.872 3.26038C14.4283 2.81629 13.8704 2.50371 13.2599 2.35727C12.8655 2.2666 12.4213 2.2666 11.8999 2.2666H6.34659ZM5.40139 4.565C5.49886 4.54234 5.65073 4.53327 6.34659 4.53327H11.7866C12.4847 4.53327 12.6343 4.54007 12.7318 4.565C12.9354 4.61369 13.1216 4.71783 13.2696 4.86587C13.4176 5.01391 13.5218 5.20005 13.5705 5.40367C13.5931 5.49887 13.5999 5.64847 13.5999 6.3466V11.7866C13.5999 12.4847 13.5931 12.6343 13.5682 12.7318C13.5195 12.9354 13.4154 13.1216 13.2673 13.2696C13.1193 13.4176 12.9331 13.5218 12.7295 13.5705C12.6366 13.5909 12.487 13.5999 11.7866 13.5999H6.34659C5.64846 13.5999 5.49886 13.5931 5.40139 13.5682C5.19778 13.5195 5.01163 13.4154 4.86359 13.2673C4.71556 13.1193 4.61142 12.9332 4.56273 12.7295C4.54233 12.6366 4.53326 12.487 4.53326 11.7866V6.3466C4.53326 5.64847 4.54006 5.49887 4.56499 5.4014C4.61369 5.19779 4.71782 5.01164 4.86586 4.8636C5.0139 4.71557 5.20005 4.61143 5.40366 4.56274L5.40139 4.565ZM22.2133 2.2666H22.0999C21.5809 2.2666 21.1343 2.2666 20.7399 2.35953C20.1294 2.50543 19.5711 2.81751 19.127 3.26119C18.683 3.70488 18.3704 4.26284 18.2239 4.87327C18.1333 5.26767 18.1333 5.71194 18.1333 6.23327V11.8999C18.1333 12.419 18.1333 12.8655 18.2262 13.2599C18.3721 13.8705 18.6842 14.4287 19.1278 14.8728C19.5715 15.3169 20.1295 15.6295 20.7399 15.7759C21.1343 15.8666 21.5786 15.8666 22.0999 15.8666H27.7666C28.2857 15.8666 28.7322 15.8666 29.1266 15.7737C29.7372 15.6278 30.2954 15.3157 30.7395 14.872C31.1836 14.4283 31.4961 13.8704 31.6426 13.2599C31.7333 12.8655 31.7333 12.4213 31.7333 11.8999V6.23327C31.7333 5.7142 31.7333 5.26767 31.6403 4.87327C31.4944 4.26271 31.1824 3.70446 30.7387 3.26038C30.295 2.81629 29.737 2.50371 29.1266 2.35727C28.7322 2.2666 28.2879 2.2666 27.7666 2.2666H22.2133ZM21.2681 4.565C21.3655 4.54234 21.5174 4.53327 22.2133 4.53327H27.6533C28.3514 4.53327 28.501 4.54007 28.5985 4.565C28.8021 4.61369 28.9882 4.71783 29.1363 4.86587C29.2843 5.01391 29.3884 5.20005 29.4371 5.40367C29.4598 5.49887 29.4666 5.64847 29.4666 6.3466V11.7866C29.4666 12.4847 29.4575 12.6343 29.4349 12.7318C29.3862 12.9354 29.282 13.1216 29.134 13.2696C28.986 13.4176 28.7998 13.5218 28.5962 13.5705C28.501 13.5931 28.3514 13.5999 27.6533 13.5999H22.2133C21.5151 13.5999 21.3655 13.5931 21.2681 13.5682C21.0644 13.5195 20.8783 13.4154 20.7303 13.2673C20.5822 13.1193 20.4781 12.9332 20.4294 12.7295C20.409 12.6366 20.3999 12.487 20.3999 11.7866V6.3466C20.3999 5.64847 20.4067 5.49887 20.4317 5.4014C20.4804 5.19779 20.5845 5.01164 20.7325 4.8636C20.8806 4.71557 21.0667 4.61143 21.2703 4.56274L21.2681 4.565ZM6.23326 18.1333H11.8999C12.419 18.1333 12.8655 18.1333 13.2599 18.2262C13.8705 18.3721 14.4287 18.6842 14.8728 19.1279C15.3169 19.5715 15.6295 20.1295 15.7759 20.7399C15.8666 21.1343 15.8666 21.5786 15.8666 22.0999V27.7666C15.8666 28.2857 15.8666 28.7322 15.7737 29.1266C15.6278 29.7372 15.3157 30.2954 14.872 30.7395C14.4283 31.1836 13.8704 31.4962 13.2599 31.6426C12.8655 31.7333 12.4213 31.7333 11.8999 31.7333H6.23326C5.71419 31.7333 5.26766 31.7333 4.87326 31.6403C4.2627 31.4944 3.70445 31.1824 3.26037 30.7387C2.81629 30.295 2.5037 29.737 2.35726 29.1266C2.26659 28.7322 2.26659 28.2879 2.26659 27.7666V22.0999C2.26659 21.5809 2.26659 21.1343 2.35953 20.7399C2.50542 20.1294 2.8175 19.5711 3.26118 19.127C3.70487 18.683 4.26283 18.3704 4.87326 18.2239C5.26766 18.1333 5.71193 18.1333 6.23326 18.1333ZM6.34659 20.3999C5.64846 20.3999 5.49886 20.4067 5.40139 20.4317C5.19778 20.4804 5.01163 20.5845 4.86359 20.7325C4.71556 20.8806 4.61142 21.0667 4.56273 21.2703C4.54233 21.3633 4.53326 21.5129 4.53326 22.2133V27.6533C4.53326 28.3514 4.54006 28.501 4.56499 28.5985C4.61369 28.8021 4.71782 28.9882 4.86586 29.1363C5.0139 29.2843 5.20005 29.3884 5.40366 29.4371C5.49886 29.4598 5.64846 29.4666 6.34659 29.4666H11.7866C12.4847 29.4666 12.6343 29.4575 12.7318 29.4349C12.9354 29.3862 13.1216 29.282 13.2696 29.134C13.4176 28.986 13.5218 28.7998 13.5705 28.5962C13.5931 28.501 13.5999 28.3514 13.5999 27.6533V22.2133C13.5999 21.5151 13.5931 21.3655 13.5682 21.2681C13.5195 21.0645 13.4154 20.8783 13.2673 20.7303C13.1193 20.5822 12.9331 20.4781 12.7295 20.4294C12.6366 20.409 12.487 20.3999 11.7866 20.3999H6.34659ZM22.2133 18.1333H22.0999C21.5809 18.1333 21.1343 18.1333 20.7399 18.2262C20.1294 18.3721 19.5711 18.6842 19.127 19.1279C18.683 19.5715 18.3704 20.1295 18.2239 20.7399C18.1333 21.1343 18.1333 21.5786 18.1333 22.0999V27.7666C18.1333 28.2857 18.1333 28.7322 18.2262 29.1266C18.3721 29.7372 18.6842 30.2954 19.1278 30.7395C19.5715 31.1836 20.1295 31.4962 20.7399 31.6426C21.1343 31.7355 21.5809 31.7355 22.0999 31.7355H27.7666C28.2857 31.7355 28.7322 31.7355 29.1266 31.6426C29.7367 31.4963 30.2945 31.1841 30.7382 30.7404C31.1818 30.2968 31.4941 29.739 31.6403 29.1289C31.7333 28.7345 31.7333 28.2879 31.7333 27.7689V22.0999C31.7333 21.5809 31.7333 21.1343 31.6403 20.7399C31.4944 20.1294 31.1824 19.5711 30.7387 19.127C30.295 18.683 29.737 18.3704 29.1266 18.2239C28.7322 18.1333 28.2879 18.1333 27.7666 18.1333H22.2133ZM21.2681 20.4317C21.3655 20.409 21.5174 20.3999 22.2133 20.3999H27.6533C28.3514 20.3999 28.501 20.4067 28.5985 20.4317C28.8021 20.4804 28.9882 20.5845 29.1363 20.7325C29.2843 20.8806 29.3884 21.0667 29.4371 21.2703C29.4598 21.3655 29.4666 21.5151 29.4666 22.2133V27.6533C29.4666 28.3514 29.4575 28.501 29.4349 28.5985C29.3862 28.8021 29.282 28.9882 29.134 29.1363C28.986 29.2843 28.7998 29.3884 28.5962 29.4371C28.501 29.4598 28.3514 29.4666 27.6533 29.4666H22.2133C21.5151 29.4666 21.3655 29.4575 21.2681 29.4349C21.0644 29.3862 20.8783 29.282 20.7303 29.134C20.5822 28.986 20.4781 28.7998 20.4294 28.5962C20.409 28.5033 20.3999 28.3537 20.3999 27.6533V22.2133C20.3999 21.5151 20.4067 21.3655 20.4317 21.2681C20.4804 21.0645 20.5845 20.8783 20.7325 20.7303C20.8806 20.5822 21.0667 20.4781 21.2703 20.4294L21.2681 20.4317Z" fill="#1ED760"/>
</svg>
