<svg width="34" height="34" viewBox="0 0 34 34" fill="none" xmlns="http://www.w3.org/2000/svg">
<path d="M9.91675 19.8327L13.1652 16.5843C13.4308 16.3187 13.7911 16.1695 14.1667 16.1695C14.5424 16.1695 14.9027 16.3187 15.1683 16.5843L17.4152 18.8311C17.6808 19.0967 18.0411 19.2459 18.4167 19.2459C18.7924 19.2459 19.1527 19.0967 19.4183 18.8311L24.0834 14.166M24.0834 14.166V17.7077M24.0834 14.166H20.5417" stroke="#1ED760" stroke-width="2.125" stroke-linecap="round" stroke-linejoin="round"/>
<path d="M31.1667 16.9997C31.1667 23.6778 31.1667 27.0169 29.0913 29.0909C27.0187 31.1663 23.6782 31.1663 17 31.1663C10.3219 31.1663 6.98279 31.1663 4.90737 29.0909C2.83337 27.0183 2.83337 23.6778 2.83337 16.9997C2.83337 10.3215 2.83337 6.98242 4.90737 4.90701C6.98421 2.83301 10.3219 2.83301 17 2.83301C23.6782 2.83301 27.0173 2.83301 29.0913 4.90701C30.4711 6.28684 30.933 8.22626 31.0888 11.333" stroke="#1ED760" stroke-width="2.125" stroke-linecap="round"/>
</svg>
